<?xml version="1.0" encoding="utf-8"?>
<!-- Generator: Adobe Illustrator 21.1.0, SVG Export Plug-In . SVG Version: 6.00 Build 0)  -->
<svg version="1.1" id="SVG" xmlns="http://www.w3.org/2000/svg" xmlns:xlink="http://www.w3.org/1999/xlink" x="0px" y="0px"
	 viewBox="0 0 350 450" style="enable-background:new 0 0 350 450;" xml:space="preserve">
<style type="text/css">
	.st0{fill:#FFFFFF;}
	.st1{fill:#4F4F4F;}
	.st2{fill:#232323;}
	.st3{fill:#040404;}
	.st4{fill:#252525;}
	.st5{fill:#3E3E3E;}
	.st6{fill:#303030;}
	.st7{fill:#888888;}
	.st8{fill:#7F7F7F;}
	.st9{fill:#959595;}
	.st10{fill:#999999;}
	.st11{fill:#6C6C6C;}
	.st12{fill:#646364;}
	.st13{fill:#222222;}
	.st14{fill:#3B3B3B;}
	.st15{fill:#242424;}
	.st16{fill:#070707;}
	.st17{fill:#595959;}
	.st18{fill:#353535;}
	.st19{fill:#BDBDBD;}
	.st20{fill:#0B0B0B;}
	.st21{fill:#585658;}
	.st22{fill:#545454;}
	.st23{fill:#9C9C9C;}
	.st24{fill:#050505;}
	.st25{fill:#BCBCBC;}
	.st26{fill:#3F3F3F;}
	.st27{fill:#212121;}
	.st28{fill:#5C5C5C;}
	.st29{fill:#C2BAB9;}
	.st30{fill:#A6A7A6;}
	.st31{fill:#E0E1DC;}
	.st32{fill:#FFFEFB;}
	.st33{fill:#F2F2F0;}
	.st34{fill:#DCFC75;}
	.st35{fill:#D7EC91;}
	.st36{fill:#7D9A21;}
	.st37{fill:#81993E;}
	.st38{fill:#D5E69D;}
	.st39{fill:#C2EF00;}
	.st40{fill:#B0B0B0;}
	.st41{fill:#A2A2A2;}
	.st42{fill:#E5F893;}
	.st43{fill:#89A900;}
	.st44{fill:#DFF779;}
	.st45{fill:#87A721;}
	.st46{fill:#D6F453;}
	.st47{fill:#CBF127;}
	.st48{fill:#D8F872;}
	.st49{fill:#C9CAC9;}
	.st50{fill:#E8E8E8;}
	.st51{fill:#96A565;}
	.st52{fill:#AEADAC;}
	.st53{fill:#8B8E80;}
	.st54{fill:#A1C700;}
	.st55{fill:#D3F36E;}
	.st56{fill:#C2B700;}
	.st57{fill:#9BAF32;}
	.st58{fill:#F0F0ED;}
	.st59{opacity:0.37;fill:#FFFFFF;}
	.st60{fill:#A5A5A5;}
	.st61{fill:#C3C3C3;}
	.st62{fill:#E0E0E0;}
	.st63{fill:#CBCBCA;}
	.st64{fill:#D9D8D8;}
	.st65{fill:#838282;}
	.st66{fill:#CFCFCF;}
	.st67{fill:#CACACA;}
	.st68{fill:#AAB094;}
	.st69{fill:#4C4C4C;}
	.st70{fill:#747474;}
	.st71{fill:#969696;}
	.st72{fill:#8A8A8A;}
	.st73{fill:#979991;}
	.st74{fill:#B1B1B1;}
	.st75{fill:#C4C4C3;}
	.st76{fill:#404040;}
	.st77{fill:#CFCFCE;}
	.st78{fill:#7A7A7A;}
	.st79{fill:#9A9A9A;}
	.st80{fill:#C9C9C9;}
	.st81{fill:#CED9AA;}
	.st82{fill:#A7A7A6;}
	.st83{fill:#AFAFAF;}
	.st84{fill:#D6D6D6;}
	.st85{fill:#EAEAEA;}
	.st86{fill:#B9B9B8;}
	.st87{fill:#DBE1C2;}
	.st88{fill:#D0D0D0;}
	.st89{fill:#DDDDDD;}
	.st90{fill:#858C70;}
	.st91{fill:#E2E6D3;}
	.st92{fill:#C5C5C5;}
	.st93{fill:#6A6A6A;}
	.st94{fill:#CCCCCC;}
	.st95{fill:#C7C7C7;}
	.st96{fill:#CECECE;}
	.st97{fill:#828C61;}
	.st98{fill:#8C8C8C;}
	.st99{fill:#676767;}
	.st100{fill:#BBBBBB;}
	.st101{fill:#8B8B8B;}
	.st102{fill:#474747;}
	.st103{fill:#949494;}
	.st104{fill:#C4C4C4;}
	.st105{fill:#D7D6D6;}
	.st106{fill:#7D7D7D;}
	.st107{fill:#B2B2B1;}
	.st108{fill:#8B995F;}
	.st109{fill:#DBDBDB;}
	.st110{fill:#B9B9B9;}
	.st111{fill:#B8B9B8;}
	.st112{fill:#D8D8D7;}
	.st113{fill:#E3E3E0;}
	.st114{fill:#E7E6E6;}
	.st115{fill:#EBEAE9;}
	.st116{fill:#424242;}
	.st117{fill:#666666;}
	.st118{fill:#828282;}
	.st119{fill:#8F8F8F;}
	.st120{fill:#0C0C0C;}
	.st121{fill:#1A1A1A;}
	.st122{fill:#2C2C2C;}
	.st123{fill:#757575;}
	.st124{fill:#C0C0C0;}
	.st125{fill:#16190B;}
	.st126{fill:#849F32;}
	.st127{fill:#707070;}
	.st128{fill:#3A431E;}
	.st129{fill:#2D3317;}
	.st130{fill:#1F2410;}
	.st131{fill:#121409;}
	.st132{fill:#718B00;}
	.st133{fill:#647C00;}
	.st134{fill:#677527;}
	.st135{fill:#D4D4D1;}
	.st136{fill:#939390;}
	.st137{fill:#8DAE28;}
	.st138{fill:#BEDB59;}
	.st139{fill:#ADBB6D;}
	.st140{fill:#D9D9D9;}
	.st141{fill:#8FA93D;}
	.st142{fill:#B5D81D;}
	.st143{fill:#C8CBB9;}
	.st144{fill:#EEEEED;}
	.st145{fill:#B6C583;}
	.st146{fill:#D4F55F;}
	.st147{fill:#D7F670;}
	.st148{fill:#ACBC6A;}
	.st149{fill:#DFE0DD;}
	.st150{fill:#B8BEA2;}
	.st151{fill:#C8E274;}
	.st152{fill:#BFD866;}
	.st153{fill:#ADC73E;}
	.st154{fill:#939393;}
	.st155{fill:#DEDEDE;}
	.st156{fill:#A4A4A4;}
	.st157{fill:#737373;}
	.st158{fill:#6E6D6D;}
	.st159{fill:#E8E8E7;}
	.st160{clip-path:url(#SVGID_2_);}
	.st161{fill:#6D808C;}
	.st162{opacity:0.37;fill:#ADBAC7;}
	.st163{fill:#ADBAC7;}
</style>
<rect id="rect4828_1_" class="st0" width="350" height="450"/>
<g>
	<path d="M142.3,3.2V0.8h13.4v2c-1.3,1.4-2.6,3.3-3.9,5.6c-1.3,2.3-2.3,4.7-3,7.2c-0.5,1.7-0.8,3.6-1,5.7h-2.6c0-1.6,0.3-3.6,1-5.9
		s1.5-4.5,2.6-6.7c1.1-2.1,2.4-4,3.7-5.4H142.3z"/>
	<path d="M157.2,21.3l5.5-7.8l-5.1-7.2h3.2l2.3,3.5c0.4,0.7,0.8,1.2,1,1.7c0.4-0.6,0.8-1.2,1.1-1.7l2.5-3.6h3l-5.2,7.1l5.6,8h-3.1
		l-3.1-4.7l-0.8-1.3l-4,5.9H157.2z"/>
	<path d="M181.7,21.3V0.5h4.1l4.9,14.7c0.5,1.4,0.8,2.4,1,3.1c0.2-0.8,0.6-1.9,1.1-3.3l5-14.4h3.7v20.8h-2.6V3.9l-6,17.4h-2.5
		l-6-17.7v17.7H181.7z"/>
	<path d="M215.5,19.4c-0.9,0.8-1.9,1.4-2.7,1.7c-0.9,0.3-1.8,0.5-2.8,0.5c-1.7,0-2.9-0.4-3.8-1.2c-0.9-0.8-1.3-1.8-1.3-3.1
		c0-0.7,0.2-1.4,0.5-2c0.3-0.6,0.8-1.1,1.3-1.5s1.2-0.6,1.8-0.8c0.5-0.1,1.3-0.3,2.3-0.4c2.1-0.2,3.6-0.5,4.5-0.9c0-0.3,0-0.6,0-0.7
		c0-1-0.2-1.8-0.7-2.2c-0.7-0.6-1.6-0.9-2.9-0.9c-1.2,0-2.1,0.2-2.7,0.6c-0.6,0.4-1,1.2-1.3,2.2l-2.5-0.3c0.2-1.1,0.6-1.9,1.1-2.6
		c0.5-0.7,1.3-1.2,2.3-1.5c1-0.4,2.1-0.5,3.4-0.5c1.3,0,2.3,0.2,3.1,0.5c0.8,0.3,1.4,0.7,1.8,1.1c0.4,0.5,0.6,1,0.8,1.7
		c0.1,0.4,0.1,1.2,0.1,2.4v3.4c0,2.4,0.1,3.9,0.2,4.5c0.1,0.6,0.3,1.2,0.6,1.8H216C215.7,20.7,215.5,20.1,215.5,19.4z M215.2,13.7
		c-0.9,0.4-2.3,0.7-4.2,1c-1,0.2-1.8,0.3-2.2,0.5c-0.4,0.2-0.8,0.5-1,0.8c-0.2,0.4-0.4,0.8-0.4,1.2c0,0.7,0.3,1.2,0.8,1.7
		s1.3,0.7,2.3,0.7c1,0,1.9-0.2,2.6-0.6c0.8-0.4,1.3-1,1.7-1.8c0.3-0.6,0.4-1.4,0.4-2.5V13.7z"/>
	<path d="M221.3,22.5l2.5,0.4c0.1,0.8,0.4,1.3,0.9,1.7c0.6,0.5,1.5,0.7,2.6,0.7c1.2,0,2.1-0.2,2.7-0.7c0.6-0.5,1.1-1.1,1.3-2
		c0.1-0.5,0.2-1.6,0.2-3.3c-1.1,1.3-2.5,2-4.2,2c-2.1,0-3.7-0.7-4.8-2.2s-1.7-3.3-1.7-5.4c0-1.4,0.3-2.8,0.8-4
		c0.5-1.2,1.3-2.1,2.3-2.8c1-0.7,2.1-1,3.5-1c1.8,0,3.2,0.7,4.4,2.2V6.2h2.4v13c0,2.3-0.2,4-0.7,5c-0.5,1-1.2,1.7-2.3,2.3
		c-1,0.6-2.3,0.8-3.8,0.8c-1.8,0-3.2-0.4-4.3-1.2C221.8,25.3,221.3,24.1,221.3,22.5z M223.4,13.5c0,2,0.4,3.4,1.2,4.3
		c0.8,0.9,1.8,1.4,2.9,1.4c1.2,0,2.2-0.5,2.9-1.4c0.8-0.9,1.2-2.3,1.2-4.2c0-1.8-0.4-3.2-1.2-4.2s-1.8-1.4-3-1.4
		c-1.1,0-2.1,0.5-2.9,1.4C223.8,10.3,223.4,11.6,223.4,13.5z"/>
	<path d="M237.9,21.3v-15h2.3v2.1c1.1-1.7,2.7-2.5,4.8-2.5c0.9,0,1.7,0.2,2.5,0.5c0.8,0.3,1.3,0.8,1.7,1.3c0.4,0.5,0.6,1.2,0.8,1.9
		c0.1,0.5,0.1,1.3,0.1,2.5v9.2h-2.5v-9.1c0-1-0.1-1.8-0.3-2.3c-0.2-0.5-0.5-0.9-1.1-1.2c-0.5-0.3-1.1-0.5-1.8-0.5
		c-1.1,0-2,0.3-2.8,1s-1.2,2-1.2,3.9v8.2H237.9z"/>
	<path d="M254,3.4V0.5h2.5v2.9H254z M254,21.3v-15h2.5v15H254z"/>
	<path d="M261.1,21.3V8.2h-2.3v-2h2.3V4.6c0-1,0.1-1.8,0.3-2.3c0.2-0.7,0.7-1.2,1.3-1.6c0.6-0.4,1.5-0.6,2.6-0.6
		c0.7,0,1.5,0.1,2.4,0.3l-0.4,2.2c-0.5-0.1-1-0.1-1.5-0.1c-0.8,0-1.3,0.2-1.6,0.5c-0.3,0.3-0.5,0.9-0.5,1.9v1.4h2.9v2h-2.9v13.1
		H261.1z"/>
	<path d="M268.5,3.4V0.5h2.5v2.9H268.5z M268.5,21.3v-15h2.5v15H268.5z"/>
	<path d="M284.8,15.7l2.5,0.3c-0.3,1.7-1,3.1-2.1,4.1c-1.1,1-2.5,1.5-4.2,1.5c-2.1,0-3.7-0.7-5-2c-1.3-1.3-1.9-3.3-1.9-5.8
		c0-1.6,0.3-3,0.8-4.3s1.4-2.1,2.5-2.7c1.1-0.6,2.3-0.9,3.6-0.9c1.6,0,3,0.4,4,1.2c1,0.8,1.7,2,2,3.5l-2.5,0.4
		c-0.2-1-0.7-1.8-1.3-2.3S282,8,281.1,8c-1.3,0-2.3,0.5-3.1,1.4c-0.8,0.9-1.2,2.4-1.2,4.4c0,2,0.4,3.5,1.2,4.4
		c0.8,0.9,1.8,1.4,3,1.4c1,0,1.8-0.3,2.5-0.9C284.2,18,284.6,17,284.8,15.7z"/>
	<path d="M299.3,19.4c-0.9,0.8-1.9,1.4-2.7,1.7c-0.9,0.3-1.8,0.5-2.8,0.5c-1.7,0-2.9-0.4-3.8-1.2c-0.9-0.8-1.3-1.8-1.3-3.1
		c0-0.7,0.2-1.4,0.5-2c0.3-0.6,0.8-1.1,1.3-1.5s1.2-0.6,1.8-0.8c0.5-0.1,1.3-0.3,2.3-0.4c2.1-0.2,3.6-0.5,4.5-0.9c0-0.3,0-0.6,0-0.7
		c0-1-0.2-1.8-0.7-2.2c-0.7-0.6-1.6-0.9-2.9-0.9c-1.2,0-2.1,0.2-2.7,0.6c-0.6,0.4-1,1.2-1.3,2.2l-2.5-0.3c0.2-1.1,0.6-1.9,1.1-2.6
		c0.5-0.7,1.3-1.2,2.3-1.5c1-0.4,2.1-0.5,3.4-0.5c1.3,0,2.3,0.2,3.1,0.5c0.8,0.3,1.4,0.7,1.8,1.1c0.4,0.5,0.6,1,0.8,1.7
		c0.1,0.4,0.1,1.2,0.1,2.4v3.4c0,2.4,0.1,3.9,0.2,4.5c0.1,0.6,0.3,1.2,0.6,1.8h-2.7C299.5,20.7,299.4,20.1,299.3,19.4z M299.1,13.7
		c-0.9,0.4-2.3,0.7-4.2,1c-1,0.2-1.8,0.3-2.2,0.5c-0.4,0.2-0.8,0.5-1,0.8c-0.2,0.4-0.4,0.8-0.4,1.2c0,0.7,0.3,1.2,0.8,1.7
		s1.3,0.7,2.3,0.7c1,0,1.9-0.2,2.6-0.6c0.8-0.4,1.3-1,1.7-1.8c0.3-0.6,0.4-1.4,0.4-2.5V13.7z"/>
	<path d="M311.2,19l0.4,2.3c-0.7,0.2-1.4,0.2-1.9,0.2c-0.9,0-1.6-0.1-2.2-0.4s-0.9-0.7-1.1-1.2c-0.2-0.5-0.3-1.5-0.3-3V8.2h-1.9v-2
		h1.9V2.5l2.5-1.5v5.3h2.6v2h-2.6V17c0,0.7,0,1.2,0.1,1.4c0.1,0.2,0.2,0.4,0.4,0.5s0.5,0.2,0.9,0.2C310.3,19.1,310.7,19,311.2,19z"
		/>
	<path d="M313.7,3.4V0.5h2.5v2.9H313.7z M313.7,21.3v-15h2.5v15H313.7z"/>
	<path d="M319.2,13.7c0-2.8,0.8-4.8,2.3-6.2c1.3-1.1,2.9-1.7,4.7-1.7c2.1,0,3.8,0.7,5.1,2c1.3,1.4,2,3.2,2,5.6
		c0,1.9-0.3,3.5-0.9,4.6c-0.6,1.1-1.4,2-2.5,2.6c-1.1,0.6-2.3,0.9-3.6,0.9c-2.1,0-3.8-0.7-5.1-2S319.2,16.3,319.2,13.7z M321.8,13.7
		c0,1.9,0.4,3.4,1.3,4.3c0.8,1,1.9,1.4,3.2,1.4c1.3,0,2.3-0.5,3.2-1.4c0.8-1,1.3-2.4,1.3-4.4c0-1.9-0.4-3.3-1.3-4.2
		c-0.8-1-1.9-1.4-3.2-1.4c-1.3,0-2.3,0.5-3.2,1.4C322.2,10.4,321.8,11.8,321.8,13.7z"/>
	<path d="M336.2,21.3v-15h2.3v2.1c1.1-1.7,2.7-2.5,4.8-2.5c0.9,0,1.7,0.2,2.5,0.5c0.8,0.3,1.3,0.8,1.7,1.3c0.4,0.5,0.6,1.2,0.8,1.9
		c0.1,0.5,0.1,1.3,0.1,2.5v9.2h-2.5v-9.1c0-1-0.1-1.8-0.3-2.3c-0.2-0.5-0.5-0.9-1.1-1.2c-0.5-0.3-1.1-0.5-1.8-0.5
		c-1.1,0-2,0.3-2.8,1s-1.2,2-1.2,3.9v8.2H336.2z"/>
</g>
<g>
	<path d="M142.1,100.2l-6.9-17.9h2.6l4.7,13c0.4,1,0.7,2,0.9,2.9c0.3-1,0.6-2,1-2.9l4.8-13h2.4l-7,17.9H142.1z"/>
	<path d="M160.9,96l2.3,0.3c-0.4,1.3-1,2.4-2,3.1c-1,0.7-2.2,1.1-3.7,1.1c-1.9,0-3.4-0.6-4.5-1.8c-1.1-1.2-1.7-2.8-1.7-4.9
		c0-2.2,0.6-3.9,1.7-5.1c1.1-1.2,2.6-1.8,4.4-1.8c1.7,0,3.1,0.6,4.2,1.8c1.1,1.2,1.6,2.8,1.6,5c0,0.1,0,0.3,0,0.6h-9.7
		c0.1,1.4,0.5,2.5,1.2,3.3c0.7,0.8,1.6,1.1,2.7,1.1c0.8,0,1.5-0.2,2.1-0.6C160.1,97.6,160.5,96.9,160.9,96z M153.7,92.5h7.2
		c-0.1-1.1-0.4-1.9-0.8-2.5c-0.7-0.8-1.6-1.3-2.7-1.3c-1,0-1.9,0.3-2.5,1C154.1,90.4,153.7,91.3,153.7,92.5z"/>
	<path d="M174.4,95.4l2.2,0.3c-0.2,1.5-0.8,2.7-1.8,3.5c-1,0.8-2.2,1.3-3.6,1.3c-1.8,0-3.2-0.6-4.3-1.7c-1.1-1.2-1.6-2.8-1.6-5
		c0-1.4,0.2-2.6,0.7-3.7s1.2-1.8,2.1-2.4c0.9-0.5,2-0.8,3.1-0.8c1.4,0,2.6,0.4,3.5,1.1c0.9,0.7,1.5,1.7,1.7,3l-2.1,0.3
		c-0.2-0.9-0.6-1.5-1.1-2c-0.5-0.4-1.1-0.7-1.9-0.7c-1.1,0-2,0.4-2.7,1.2c-0.7,0.8-1,2-1,3.8c0,1.7,0.3,3,1,3.8
		c0.7,0.8,1.5,1.2,2.6,1.2c0.9,0,1.6-0.3,2.2-0.8C173.9,97.4,174.2,96.5,174.4,95.4z"/>
	<path d="M183.2,98.2l0.3,1.9c-0.6,0.1-1.2,0.2-1.7,0.2c-0.8,0-1.4-0.1-1.9-0.4s-0.7-0.6-0.9-1c-0.2-0.4-0.3-1.3-0.3-2.6v-7.5h-1.6
		v-1.7h1.6V84l2.2-1.3v4.5h2.2v1.7H181v7.6c0,0.6,0,1,0.1,1.2c0.1,0.2,0.2,0.3,0.4,0.4c0.2,0.1,0.4,0.2,0.8,0.2
		C182.5,98.3,182.8,98.3,183.2,98.2z"/>
	<path d="M184.5,93.7c0-2.4,0.7-4.2,2-5.3c1.1-1,2.5-1.4,4.1-1.4c1.8,0,3.2,0.6,4.4,1.8c1.1,1.2,1.7,2.8,1.7,4.8
		c0,1.7-0.3,3-0.8,3.9c-0.5,1-1.2,1.7-2.2,2.2s-2,0.8-3.1,0.8c-1.8,0-3.3-0.6-4.4-1.7C185.1,97.6,184.5,95.9,184.5,93.7z
		 M186.8,93.7c0,1.7,0.4,2.9,1.1,3.7c0.7,0.8,1.6,1.2,2.7,1.2c1.1,0,2-0.4,2.7-1.2s1.1-2.1,1.1-3.8c0-1.6-0.4-2.8-1.1-3.6
		c-0.7-0.8-1.6-1.2-2.7-1.2c-1.1,0-2,0.4-2.7,1.2C187.2,90.8,186.8,92,186.8,93.7z"/>
	<path d="M199.2,100.2v-13h2v2c0.5-0.9,1-1.5,1.4-1.8c0.4-0.3,0.9-0.4,1.4-0.4c0.7,0,1.5,0.2,2.3,0.7l-0.8,2
		c-0.5-0.3-1.1-0.5-1.6-0.5c-0.5,0-0.9,0.1-1.3,0.4c-0.4,0.3-0.7,0.7-0.8,1.2c-0.2,0.8-0.4,1.6-0.4,2.6v6.8H199.2z"/>
</g>
<g>
	<path d="M130,390.8v-17.9h6.7c1.4,0,2.5,0.2,3.3,0.5c0.8,0.4,1.5,0.9,1.9,1.7c0.5,0.8,0.7,1.5,0.7,2.4c0,0.8-0.2,1.5-0.6,2.2
		c-0.4,0.7-1,1.2-1.9,1.6c1.1,0.3,1.9,0.9,2.5,1.6c0.6,0.8,0.9,1.7,0.9,2.7c0,0.8-0.2,1.6-0.5,2.3c-0.4,0.7-0.8,1.3-1.3,1.7
		c-0.5,0.4-1.2,0.7-2,0.9c-0.8,0.2-1.7,0.3-2.9,0.3H130z M132.3,380.5h3.9c1,0,1.8-0.1,2.3-0.2c0.6-0.2,1.1-0.5,1.4-0.9
		c0.3-0.4,0.5-0.9,0.5-1.6c0-0.6-0.1-1.1-0.4-1.6c-0.3-0.5-0.7-0.8-1.2-0.9c-0.5-0.2-1.4-0.3-2.7-0.3h-3.6V380.5z M132.3,388.7h4.5
		c0.8,0,1.3,0,1.6-0.1c0.5-0.1,1-0.3,1.4-0.5c0.4-0.2,0.7-0.6,0.9-1c0.2-0.4,0.4-0.9,0.4-1.5c0-0.7-0.2-1.2-0.5-1.7
		c-0.3-0.5-0.8-0.8-1.4-1c-0.6-0.2-1.5-0.3-2.6-0.3h-4.1V388.7z"/>
	<path d="M146.5,375.5v-2.5h2.2v2.5H146.5z M146.5,390.8v-13h2.2v13H146.5z"/>
	<path d="M156.8,388.9l0.3,1.9c-0.6,0.1-1.2,0.2-1.7,0.2c-0.8,0-1.4-0.1-1.9-0.4s-0.7-0.6-0.9-1c-0.2-0.4-0.3-1.3-0.3-2.6v-7.5h-1.6
		v-1.7h1.6v-3.2l2.2-1.3v4.5h2.2v1.7h-2.2v7.6c0,0.6,0,1,0.1,1.2c0.1,0.2,0.2,0.3,0.4,0.4c0.2,0.1,0.4,0.2,0.8,0.2
		C156.1,389,156.4,388.9,156.8,388.9z"/>
	<path d="M159,390.8v-13h2v1.8c0.4-0.6,0.9-1.1,1.6-1.5c0.7-0.4,1.4-0.6,2.3-0.6c1,0,1.7,0.2,2.4,0.6c0.6,0.4,1,1,1.3,1.7
		c1-1.5,2.4-2.3,4-2.3c1.3,0,2.3,0.4,3,1.1c0.7,0.7,1,1.8,1,3.3v8.9h-2.2v-8.2c0-0.9-0.1-1.5-0.2-1.9c-0.1-0.4-0.4-0.7-0.8-0.9
		c-0.4-0.2-0.8-0.4-1.3-0.4c-0.9,0-1.7,0.3-2.3,0.9c-0.6,0.6-0.9,1.6-0.9,2.9v7.5h-2.2v-8.4c0-1-0.2-1.7-0.5-2.2
		c-0.4-0.5-0.9-0.7-1.8-0.7c-0.6,0-1.2,0.2-1.7,0.5c-0.5,0.3-0.9,0.8-1.1,1.4c-0.2,0.6-0.4,1.5-0.4,2.7v6.7H159z"/>
	<path d="M188.2,389.2c-0.8,0.7-1.6,1.2-2.3,1.5c-0.8,0.3-1.6,0.4-2.4,0.4c-1.4,0-2.5-0.3-3.3-1c-0.8-0.7-1.1-1.6-1.1-2.7
		c0-0.6,0.1-1.2,0.4-1.7c0.3-0.5,0.7-0.9,1.1-1.3c0.5-0.3,1-0.6,1.6-0.7c0.4-0.1,1.1-0.2,2-0.3c1.8-0.2,3.1-0.5,3.9-0.8
		c0-0.3,0-0.5,0-0.6c0-0.9-0.2-1.5-0.6-1.9c-0.6-0.5-1.4-0.7-2.5-0.7c-1,0-1.8,0.2-2.3,0.5c-0.5,0.4-0.9,1-1.1,1.9l-2.1-0.3
		c0.2-0.9,0.5-1.7,1-2.2c0.4-0.6,1.1-1,1.9-1.3c0.8-0.3,1.8-0.5,2.9-0.5c1.1,0,2,0.1,2.7,0.4c0.7,0.3,1.2,0.6,1.5,1
		c0.3,0.4,0.6,0.9,0.7,1.5c0.1,0.4,0.1,1,0.1,2v2.9c0,2,0,3.3,0.1,3.9c0.1,0.5,0.3,1.1,0.6,1.6h-2.3
		C188.5,390.4,188.3,389.8,188.2,389.2z M188.1,384.3c-0.8,0.3-2,0.6-3.6,0.8c-0.9,0.1-1.5,0.3-1.9,0.4s-0.7,0.4-0.9,0.7
		c-0.2,0.3-0.3,0.7-0.3,1c0,0.6,0.2,1.1,0.7,1.5c0.4,0.4,1.1,0.6,1.9,0.6c0.8,0,1.6-0.2,2.3-0.6s1.1-0.9,1.5-1.5
		c0.2-0.5,0.4-1.2,0.4-2.2V384.3z"/>
	<path d="M193.7,395.8v-17.9h2v1.7c0.5-0.7,1-1.2,1.6-1.5c0.6-0.3,1.3-0.5,2.2-0.5c1.1,0,2.1,0.3,2.9,0.9c0.8,0.6,1.5,1.4,1.9,2.4
		c0.4,1,0.6,2.2,0.6,3.4c0,1.3-0.2,2.5-0.7,3.6c-0.5,1.1-1.2,1.9-2.1,2.4c-0.9,0.6-1.9,0.8-2.9,0.8c-0.7,0-1.4-0.2-2-0.5
		c-0.6-0.3-1.1-0.7-1.4-1.2v6.3H193.7z M195.7,384.4c0,1.7,0.3,2.9,1,3.7c0.7,0.8,1.5,1.2,2.5,1.2c1,0,1.8-0.4,2.5-1.2
		c0.7-0.8,1-2.1,1-3.8c0-1.7-0.3-2.9-1-3.7c-0.7-0.8-1.5-1.2-2.4-1.2c-0.9,0-1.8,0.4-2.5,1.3C196,381.5,195.7,382.8,195.7,384.4z"/>
</g>
<path id="path18_2_" class="st1" d="M42,4.6c8.1-2.5,16.8-3.3,25.2-1.8c-2.4-0.2-4.8-0.2-7.3-0.2c-1.5,0.2-3.1,0-4.4,0.9
	c-1.6,1.4-0.6,3.7-0.6,5.5c-0.7,0.7-1.3,1.4-2,2.1c1.4,0.1,2.8,0.2,4.3,0.3c0.4,0,1.3,0.1,1.8,0.1c3.2,0.2,6.4,0.5,9.6,0.3
	c0.5-0.1,1.6-0.2,2.1-0.3c2.2-1.8,4.7-5.2,7.8-3c0.6,2.5,0.2,5.1,0,7.6c-2.8,0.3-5.6-0.1-7.8-1.9c1.7,0.3,3.5,0.6,5.2,0.8
	c-0.1-1.3-0.1-2.6-0.2-3.9c-2.3,0.9-4.6,1.8-7,2.5L68,13.6c-1.6-0.2-3.1-0.4-4.7-0.5C61,13,58.6,13,56.2,12.8
	c-5.3-0.7-10.7-0.1-15.7,1.6l-0.6-0.9c0.9-1.1,1.3-2.3,1.2-3.6C41.3,8.1,41.6,6.3,42,4.6z"/>
<path id="path22_2_" class="st2" d="M55.5,3.5c1.3-0.8,2.9-0.7,4.4-0.9c-0.5,3-1.3,6.1-2.8,8.8c-1.4-0.1-2.8-0.2-4.3-0.3
	c0.7-0.7,1.3-1.4,2-2.1C54.9,7.2,53.9,4.9,55.5,3.5z"/>
<path id="path24_2_" class="st3" d="M59.9,2.6c2.4,0,4.8,0,7.3,0.2l0.9,0.1c-2.9,3-3.9,9.1-9.2,8.6c-0.4,0-1.3-0.1-1.8-0.1
	C58.7,8.7,59.4,5.6,59.9,2.6z"/>
<path id="path26_2_" class="st4" d="M68.1,2.9c2,0.3,4,0.7,6.1,1c-2.3,2.3-4.9,4.6-5.6,7.9c-3.2,0.2-6.4-0.1-9.6-0.3
	C64.1,12,65.2,6,68.1,2.9z"/>
<path id="path28_2_" class="st5" d="M74.2,4c4.7-0.2,5.9,4.6,8,7.7C81,15,79,17.9,75.5,19.2c0.6,0.7,1.1,1.5,1.6,2.2
	c-1.4-0.2-2.8-0.5-4.2-0.7c0.1-0.3,0.3-0.9,0.5-1.2c-1.1-1.4-3.1-0.4-4.3,0.3c-0.6-0.1-1.7-0.4-2.3-0.6c0.2-0.2,0.7-0.5,0.9-0.7
	c0.1-1.6,0.2-3.2,0.2-4.8l0.7,0.1c0.5,0.1,1.5,0.4,2,0.6c2.3,1.7,5,2.1,7.8,1.9c0.2-2.5,0.6-5.1,0-7.6c-3.1-2.3-5.6,1.2-7.8,3
	c-0.5,0.1-1.6,0.2-2.1,0.3C69.3,8.5,71.9,6.3,74.2,4z"/>
<path id="path30_2_" class="st6" d="M37.3,8.1C37.9,6,40.2,5.3,42,4.6c-0.3,1.8-0.7,3.5-0.9,5.3c-2.5-1-3,2.5-1.2,3.6l0.6,0.9
	c-1.7,0.8-3.4,1.7-5.1,2.5C34.4,13.8,36.2,10.9,37.3,8.1z"/>
<path id="path52_2_" class="st7" d="M57.1,7.3C60.4,7.5,55.6,10.3,57.1,7.3z"/>
<path id="path56_2_" class="st8" d="M46.1,8.1c1.5-1.2,2.8,1.6,1.5,2.6C46.1,11.8,44.8,9.1,46.1,8.1z"/>
<path id="path58_2_" class="st9" d="M50.1,8.2C53.3,8.3,48.6,11.3,50.1,8.2z"/>
<path id="path64_2_" class="st10" d="M43.2,9.4C46.5,9.6,41.6,12.4,43.2,9.4z"/>
<path id="path66_2_" class="st11" d="M39.9,13.5c-1.8-1.1-1.3-4.6,1.2-3.6C41.1,11.3,40.7,12.5,39.9,13.5z"/>
<path id="path68_2_" class="st12" d="M68.6,13.8c2.4-0.7,4.7-1.6,7-2.5c0.1,1.3,0.1,2.6,0.2,3.9c-1.7-0.3-3.5-0.5-5.2-0.8
	C70.1,14.2,69.1,13.9,68.6,13.8z"/>
<path id="path70_2_" class="st13" d="M75.5,19.2c3.5-1.2,5.4-4.2,6.7-7.5c0.9,1.9,0.6,4,0.6,6c-0.6,0.7-1.1,1.4-1.7,2.2
	c0.3,0.5,0.8,1.6,1.1,2.2c-2.7,1-5.3,2.1-7.9,3.2c0.9,0.9,1.8,1.8,2.8,2.7c-2.7-0.5-5.4-1.1-8-1.8l2.1,0.3c0.2-0.5,0.4-1,0.6-1.5
	c-2.1,1.9-4.8,0-7.2-0.1c0.6-0.3,1.7-0.7,2.3-1c-1.1-1.7-2.1-3.3-3.2-5c0.8,0.1,2.4,0.2,3.2,0.3c0.6,0.1,1.7,0.4,2.3,0.6
	c1.3,0.4,2.5,0.7,3.8,0.9c1.4,0.2,2.8,0.5,4.2,0.7C76.6,20.6,76.1,19.9,75.5,19.2z"/>
<path id="path72_2_" class="st14" d="M47.5,13.4c1.5-0.2,3.1-0.3,4.6-0.5c0,1.8,0,3.6,0,5.5c-0.6,0.1-1.7,0.2-2.2,0.2
	C47.9,17.6,48,15.2,47.5,13.4z"/>
<path id="path74_2_" class="st15" d="M52.1,12.9c1.4-0.1,2.8-0.1,4.1-0.2c0,1.4-0.1,2.8-0.1,4.2c2.2,0.2,4.5,0.2,6.7,0.1
	c0.1-1.3,0.3-2.7,0.4-4c1.6,0.1,3.1,0.3,4.7,0.5c-0.1,1.6-0.1,3.2-0.2,4.8c-5.2,0-10.4-0.4-15.6-0.1C52.1,16.6,52.1,14.8,52.1,12.9z
	"/>
<path id="path76_2_" class="st16" d="M56.2,12.8c2.3,0.2,4.7,0.2,7.1,0.3c-0.1,1.3-0.3,2.7-0.4,4c-2.2,0.1-4.5,0-6.7-0.1
	C56.2,15.6,56.2,14.2,56.2,12.8z"/>
<path id="path78_2_" class="st17" d="M40,15.5c2.4-1,4.9-1.7,7.5-2.1c0.5,1.8,0.4,4.2,2.4,5.2c-3.3,0.4-6.6,1-9.7,2.1
	C40.1,19,40,17.2,40,15.5z"/>
<path id="path84_2_" class="st18" d="M36.2,17c1.3-0.5,2.5-1,3.8-1.5c0.1,1.7,0.1,3.5,0.2,5.2c-1.5,0.6-2.8,1.5-4,2.7
	c0.6-0.2,1.8-0.5,2.4-0.7c0.6,1.5,1.3,3,1.9,4.6c-1.9,0.6-3.7,1.5-5,3.1c2.5-0.7,4.8-1.6,7.2-2.4c0.3,2.3,0.6,4.6,0.8,6.9
	c-0.8,0.3-2.4,0.8-3.2,1c-1.3,0.5-2.7,0.9-4,1.4c-0.3-0.4-1-1.3-1.4-1.7c-0.5-2.2-1-4.4-1.5-6.6c0.8-1.8,1.6-3.5,2.5-5.2
	C34.4,21.5,34.3,19,36.2,17z"/>
<path id="path86_2_" class="st19" d="M49.9,18.6c0.6-0.1,1.7-0.2,2.2-0.2c5.2-0.4,10.4,0,15.6,0.1c-0.2,0.2-0.7,0.5-0.9,0.7
	c-0.8-0.1-2.4-0.2-3.2-0.3c-4.1-0.3-8.1,0.1-12.2,0.5c-0.2,0.8-0.6,2.4-0.9,3.2c0-0.9,0-2.5,0-3.4c-2,0.5-4,1.1-6,1.6
	c0,0.9-0.1,2.8-0.1,3.8c-0.2-1.2-0.4-2.5-0.6-3.7c-1.8,0.6-3.6,1.3-5.4,1.9c-0.6,0.2-1.8,0.5-2.4,0.7c1.2-1.1,2.5-2.1,4-2.7
	C43.3,19.6,46.6,19,49.9,18.6z"/>
<path id="path88_2_" class="st20" d="M51.5,19.3c4-0.4,8.1-0.8,12.2-0.5c1.1,1.7,2.1,3.3,3.2,5c-0.6,0.2-1.7,0.7-2.3,1
	c-5.1,0-10.2-0.7-15.2,0.3c0.5-0.8,1-1.6,1.3-2.5C50.8,21.7,51.3,20.1,51.5,19.3z"/>
<path id="path90_2_" class="st21" d="M69.1,19.7c1.2-0.6,3.2-1.6,4.3-0.3c-0.1,0.3-0.3,0.9-0.5,1.2C71.7,20.5,70.4,20.1,69.1,19.7z"
	/>
<path id="path92_2_" class="st22" d="M44.7,20.7c2-0.5,4-1.1,6-1.6c0,0.9,0,2.5,0,3.4c-0.3,0.9-0.8,1.7-1.3,2.5
	c-2.9,0.7-5.9,1.3-8.8,2.1c-0.6-1.5-1.3-3-1.9-4.6c1.8-0.6,3.6-1.3,5.4-1.9c0.2,1.2,0.4,2.5,0.6,3.7C44.6,23.5,44.7,21.7,44.7,20.7z
	"/>
<path id="path94_2_" class="st7" d="M53.2,20.3C56.5,20.6,51.5,23.3,53.2,20.3z"/>
<path id="path96_2_" class="st23" d="M47.1,21.2C50.3,21.4,45.5,24.2,47.1,21.2z"/>
<path id="path98_2_" class="st24" d="M74.3,25.2c2.6-1.1,5.3-2.2,7.9-3.2c0.1,1.2,0.2,2.4,0.3,3.6l0.3,1c-0.5,0.4-1.5,1.4-2,1.8
	c-0.7,0-1.4,0-2.2-0.1c-0.2,0.6-0.5,1.2-0.7,1.8c-2.6,0.9-5.2,2-8,2c-4.4-0.5-8.4-3.1-10.6-7c3.2-0.1,6.4,0,9.5,0.8
	c2.7,0.7,5.3,1.4,8,1.8C76.1,27,75.2,26.1,74.3,25.2z"/>
<path id="path100_2_" class="st25" d="M49.3,25.1c5-0.9,10.1-0.3,15.2-0.3c2.4,0.1,5.1,1.9,7.2,0.1c-0.2,0.5-0.4,1-0.6,1.5L69,26
	c-3.1-0.8-6.3-0.9-9.5-0.8c-2,0-3.9,0.1-5.9,0.3c-2,0.2-3.9,0.6-5.8,1c-1.7,0.4-3.4,0.8-5.1,1.3c-2.4,0.8-4.8,1.8-7.2,2.4
	c1.3-1.6,3.1-2.5,5-3.1C43.4,26.4,46.4,25.8,49.3,25.1z"/>
<path id="path102_2_" class="st26" d="M47.8,26.6c1.9-0.4,3.8-0.8,5.8-1c1,2.8,2.6,5.3,4.4,7.7c-2.7,0-5.4,0.1-8.1,0.3
	C49.2,31.2,48.5,28.9,47.8,26.6z"/>
<path id="path104_2_" class="st27" d="M53.6,25.6c2-0.2,3.9-0.3,5.9-0.3c2.1,3.9,6.2,6.5,10.6,7c2.8,0,5.4-1.1,8-2
	c0.2-0.6,0.5-1.2,0.7-1.8c0.7,0,1.4,0,2.2,0.1c0.5-0.4,1.5-1.4,2-1.8c1.7,3.4,0.5,7.1-1.2,10.2c-0.3-0.1-0.8-0.4-1.1-0.6
	c-0.3-0.1-1-0.4-1.3-0.6C72.6,33,65.1,33.6,58,33.2C56.2,30.9,54.7,28.4,53.6,25.6z"/>
<path id="path106_2_" class="st28" d="M42.7,27.9c1.7-0.5,3.4-0.9,5.1-1.3c0.7,2.3,1.4,4.7,2.1,7c-2.2,0.2-4.3,0.7-6.4,1.3
	C43.3,32.5,43,30.2,42.7,27.9z"/>
<path id="path108_2_" class="st29" d="M43.5,34.8c2.1-0.6,4.2-1,6.4-1.3c2.7-0.2,5.4-0.3,8.1-0.3c7.1,0.4,14.5-0.3,21.3,2.5
	C72,40.9,62.6,40.8,54,40.3c-4.9-0.3-9.9-1.2-13.7-4.5C41.1,35.6,42.7,35.1,43.5,34.8z"/>
<path id="path110_2_" class="st30" d="M35,35.6c0.3,0.4,1,1.3,1.4,1.7c0.6,0.8,1.2,1.6,1.8,2.4c-2.9,15-4.3,30.2-5.8,45.4
	c-0.2,1.2-0.4,2.4-0.5,3.6c-1.9,6.5-0.8,13.6-3.4,20c1.3-18.2,2.9-36.5,5.3-54.6C34.3,48,36.9,41.8,35,35.6z"/>
<path id="path112_2_" class="st31" d="M36.3,37.3c1.3-0.5,2.7-1,4-1.4c3.8,3.3,8.9,4.2,13.7,4.5c8.6,0.4,17.9,0.5,25.3-4.6
	c0.3,0.1,1,0.4,1.3,0.6c-1,2.6-1.7,5.2-1.6,8c-0.7-1.4-1-3.5-2.8-3.9c-7.4,2.9-15.5,2.9-23.4,2.5c-5.1-0.2-10-1.5-14.8-3.1
	C37.6,38.9,37,38.1,36.3,37.3z"/>
<path id="path114_2_" class="st30" d="M80.7,36.3c0.3,0.2,0.8,0.4,1.1,0.6c-0.6,2-1.3,4-0.8,6.1c0.9,5.7,1.9,11.5,2.8,17.2
	c2.8,16,3.5,32.3,6.2,48.3C86,99.8,87.3,90,85.4,80.8c-0.3-0.3-0.8-1-1-1.3l0-0.1c-1.3-11.8-3.4-23.5-5.3-35.2
	C79,41.5,79.7,38.8,80.7,36.3z"/>
<path id="path116_2_" class="st32" d="M38.2,39.7c4.8,1.6,9.7,2.9,14.8,3.1c7.9,0.4,16,0.4,23.4-2.5c1.1,6.2,1.5,12.5,1.6,18.7
	c0.5,6.7,1.2,13.4,1.1,20.1c-13.8-1.4-27.7-1.5-41.5,0c-1.2,0.1-2.4,0.2-3.5,0.3c-0.6,1.9-1.2,3.8-1.7,5.7
	C33.8,69.9,35.3,54.7,38.2,39.7z"/>
<path id="path118_2_" class="st33" d="M76.3,40.3c1.8,0.4,2,2.6,2.8,3.9c1.9,11.7,4,23.4,5.3,35.2c-1.8-0.1-3.6-0.1-5.3-0.3
	c0.1-6.7-0.6-13.4-1.1-20.1C77.8,52.8,77.4,46.5,76.3,40.3z"/>
<path id="path130_2_" class="st34" d="M37.6,79.1c13.8-1.4,27.7-1.4,41.5,0c1.8,0.1,3.5,0.2,5.3,0.3l0,0.1c1.6,12.1,1,25,6.9,36.1
	c4.7,9.1,11.3,17.2,15.9,26.3c2.8,5.4,4,11.4,5.2,17.3c-2.5-0.2-5-0.4-7.5-0.9c-2.4-15.2-10.4-30.3-23.8-38.5
	c-11.7-7.2-27.6-8.4-39.3-0.8c-0.8,0.6-1.7,1.2-2.5,1.8c-4.7,1.7-8,5.6-11.1,9.3c-6.6,8.4-10.1,18.7-13,28.8c-3.2,0-6.4-0.1-9.7-0.1
	c3.3-13.6,12.9-24.4,18.6-37l0.1-0.3c0.1-0.1,0.2-0.3,0.2-0.4l0.1-0.3c1-1.7,2-3.5,2.8-5.3c0,2.3,0.5,4.6,1.4,6.7
	c2.1-1.7,4.3-3.6,4.8-6.4c1-5.3,0.8-10.7,1.6-16C36.3,93.1,36,86,37.6,79.1z"/>
<path id="path132_2_" class="st35" d="M34.1,79.4c1.2-0.1,2.4-0.2,3.5-0.3c-1.6,6.9-1.4,14-2.2,20.9c-1.4-1.1-2.7-2.3-4.1-3.4
	c0.3-2.6,0.4-5.2,0.5-7.8c0.2-1.2,0.4-2.4,0.5-3.6C32.8,83.2,33.5,81.3,34.1,79.4z"/>
<path id="path134_2_" class="st36" d="M84.4,79.5c0.3,0.3,0.8,1,1,1.3c1.8,9.2,0.6,19,4.4,27.8c0.6,1.6,1.3,3.1,2,4.7
	c4.8,12.7,15.6,22.4,19.3,35.7c5.1,18.7,5.6,38.3,4.6,57.5c-0.1,2.4-0.2,4.9-1,7.2c-0.4-5.9,0.5-11.7,0.5-17.6
	c0.2-12.3-0.4-24.7-2.7-36.8c-1.2-5.9-2.4-11.9-5.2-17.3c-4.7-9.1-11.2-17.2-15.9-26.3C85.4,104.5,86,91.6,84.4,79.5z"/>
<path id="path150_2_" class="st37" d="M28.4,108.7c2.6-6.3,1.5-13.4,3.4-20c-0.1,2.6-0.2,5.2-0.5,7.8c-0.5,6.5-1.7,12.9-3.7,19.1
	c-0.8,1.8-1.8,3.6-2.8,5.3c0.4-1.8,0.7-3.7,1-5.5C26.7,113.3,27.6,111,28.4,108.7z"/>
<path id="path154_2_" class="st38" d="M27.5,115.7c2-6.2,3.2-12.6,3.7-19.1c1.4,1.2,2.7,2.3,4.1,3.4c-0.8,5.3-0.6,10.7-1.6,16
	c-0.5,2.8-2.7,4.7-4.8,6.4C28.1,120.3,27.5,118,27.5,115.7z"/>
<path id="path156_1_" class="st39" d="M100.8,316.8c-1,14.1,0.2,28.3,3.1,42.1c1.8,9,4.7,17.8,5,27c0.3,8.3-3.6,16-8.6,22.3
	c-2.3,3.1-6.3,3.9-9.7,5.3c-17.1,5.6-35.8,7.4-53.3,3.1c-5.4-1.2-10.2-4-15-6.6c-3.2-3.4-6.2-7.1-8-11.4l-0.2-0.5
	c-0.9-3.2-1.3-6.6-1.4-9.9c0.3-4,0.4-8,0.6-12c0.3-6.1,1.7-12.1,2.6-18.2c2.4-13.7,3.4-27.6,2.1-41.5L9.4,215.3
	c-0.9-18.9,1.1-38,5.9-56.3c2.9-10.1,6.3-20.5,13-28.8c3.1-3.7,6.4-7.7,11.1-9.3l-1.3,1.2c-2.1,1.9-4.2,3.8-6.1,5.9
	c-0.8,1.5-1.9,3.3-0.9,5c1.7,3.2,5.5,4.1,8.5,5.3c8.5,2.8,16,9.3,25.4,8.4c5.5,0.5,10.9-3.4,12.3-8.7c0.2-3.3,0-6.7-1.5-9.7
	c-1.6-2.4-3.6-4.5-5.9-6.2c-3.1-2.3-6.8-4.2-10.8-3.5c-5.7,0.9-11.6,1.8-17.3,0.4c11.7-7.6,27.7-6.4,39.3,0.8
	c13.4,8.2,21.4,23.3,23.8,38.5c2.5,17.6,2.6,35.5,2.3,53.3C104,212.2,100.8,316.8,100.8,316.8z"/>
<path id="path158_2_" class="st40" d="M91.8,113.2c2.8,3.6,4.8,7.7,7.3,11.4c4.7,7.5,10.2,14.7,12.8,23.2c6.4,21.7,5.5,44.6,4.6,67
	c-0.6-0.4-1.2-0.8-1.9-1.2c0.9-2.3,1-4.8,1-7.2c1-19.2,0.5-38.8-4.6-57.5C107.4,135.7,96.7,125.9,91.8,113.2z"/>
<path id="path160_2_" class="st41" d="M2.5,163.7c2.8-18.1,15.5-32.1,23.3-48.1c-0.4,1.8-0.7,3.6-1,5.5l-0.1,0.3
	c-0.1,0.1-0.2,0.3-0.2,0.4l-0.1,0.3c-1.7,2.1-3.3,4.3-4.6,6.7c-5.4,9.5-11.9,18.7-14.8,29.3c-0.6,2-0.5,4.2-0.6,6.3l-0.3,0.6
	c-0.1,0.2-0.4,0.5-0.5,0.6c-0.9,6.4-2,13-1.1,19.5c0,0.3,0,1,0,1.4l-1-0.8L0.7,185C0.8,177.9,1.5,170.7,2.5,163.7z"/>
<path id="path164_2_" class="st42" d="M39.3,120.9c0.8-0.6,1.7-1.2,2.5-1.8c5.7,1.4,11.6,0.5,17.3-0.4c3.9-0.7,7.7,1.2,10.8,3.5
	c-4.8,1.9-10,1-14.9,1.1c-5.6-0.3-11.5,0.8-16.9-1.2L39.3,120.9z"/>
<path id="path168_2_" class="st43" d="M24.4,121.7c0.1-0.1,0.2-0.3,0.2-0.4C24.6,121.4,24.4,121.6,24.4,121.7z"/>
<path id="path170_2_" class="st44" d="M32,128c1.9-2.1,4-4,6.1-5.9c5.4,2,11.3,0.9,16.9,1.2c5-0.1,10.2,0.8,14.9-1.1
	c2.3,1.7,4.3,3.8,5.9,6.2c-4.1,1.5-8.5,1-12.8,1c-8.3-0.1-16.6-0.1-24.9-0.1C36,129.3,33.9,128.7,32,128z"/>
<path id="path172_2_" class="st45" d="M19.6,128.6c1.3-2.4,2.9-4.6,4.6-6.7c-5.7,12.6-15.3,23.4-18.6,37c-0.4,1.6-0.7,3.1-1.2,4.7
	c-0.1,0.1-0.2,0.4-0.3,0.6c0.1-2.1,0-4.2,0.6-6.3C7.7,147.3,14.2,138.1,19.6,128.6z"/>
<path id="path174_2_" class="st46" d="M31,133c-0.9-1.7,0.1-3.5,0.9-5c2,0.7,4,1.3,6.1,1.2c8.3,0,16.6,0,24.9,0.1
	c4.3,0,8.7,0.5,12.8-1c1.5,3,1.6,6.4,1.5,9.7c-5.7-0.4-11.5-0.3-17.2-0.3c-6.8,0.1-13.6-0.5-20.4,0.5C36.5,137.1,32.7,136.1,31,133z
	"/>
<path id="path178_2_" class="st47" d="M39.6,138.3c6.8-1,13.6-0.4,20.4-0.5c5.8,0,11.5-0.1,17.2,0.3c-1.3,5.3-6.8,9.2-12.3,8.7
	C55.6,147.6,48,141.1,39.6,138.3z"/>
<path id="path200_2_" class="st48" d="M105,158.3c2.5,0.4,5,0.7,7.5,0.9c2.3,12.1,2.8,24.5,2.7,36.8c0,5.9-0.9,11.7-0.5,17.6
	c-2.2-1.4-4.8-1.9-7.4-2C107.6,193.9,107.5,176,105,158.3z"/>
<path id="path202_2_" class="st48" d="M5.6,158.9c3.2,0,6.4,0.1,9.7,0.1c-4.8,18.3-6.8,37.4-5.9,56.3l-0.3,0.3
	c-2.4,0.2-4.8,0.3-7.1,0.3l0-0.6c0.8-9.6,0.4-19.3,0.3-29c0-0.3,0-1,0-1.4c0.8-6.7,1.5-13.4,1.6-20.1l0.3-0.6
	c0.1-0.1,0.2-0.4,0.3-0.6C4.9,162.1,5.3,160.5,5.6,158.9z"/>
<path id="path204_2_" class="st45" d="M3.4,165.4c0.1-0.1,0.4-0.4,0.5-0.6c-0.1,6.7-0.8,13.4-1.6,20.1
	C1.4,178.4,2.5,171.8,3.4,165.4z"/>
<path id="path208_2_" class="st49" d="M0,184.5l0.7,0.5l0.5,0.4c0.2,9.8,0,19.7,0,29.5L0,214.4V184.5z"/>
<path id="path210_2_" class="st36" d="M1.2,185.5l1,0.8c0,9.7,0.5,19.4-0.3,29c-0.2-0.1-0.5-0.2-0.7-0.3
	C1.2,205.1,1.4,195.3,1.2,185.5z"/>
<path id="path224_2_" class="st50" d="M0,214.4l1.3,0.6c0.2,0.1,0.5,0.2,0.7,0.3l0,0.6c-0.2,2.2-0.3,4.5-0.3,6.8l-0.6-0.8
	c-0.3-0.3-0.8-1-1.1-1.4V214.4z"/>
<path id="path246_3_" class="st30" d="M1.1,221.8l0.6,0.8c0.1,0.3,0.2,0.8,0.2,1.1c1.6,12,1.7,24.2,2.8,36.3c0.9,17,2.4,34,3.3,51
	c0.3,15.5,0.2,31.2-2.6,46.5l-0.5-1.8c2.4-18.1,2.8-36.5,1.4-54.7C5.1,274.5,1.7,248.3,1.1,221.8z"/>
<path id="path336_1_" class="st51" d="M114.7,213.6l1.9,1.2l-1.6,22.3c-0.5,6.1-0.2,12.3-1.1,18.4c-1.3,5.6-0.1,11.5-2.3,16.9
	c0.3-11.5,1.5-22.9,1.8-34.4L114.7,213.6z"/>
<path id="path378_2_" class="st52" d="M79.2,245.2C79.8,245.7,79.8,245.7,79.2,245.2z"/>
<path id="path392_4_" class="st53" d="M109.2,310.4c0.3-8.1,1.1-16.1,1.4-24.1c0.8-4.5,1.1-9.1,0.9-13.6l0-0.2
	c2.2-5.4,0.9-11.3,2.3-16.9c-0.9,29.8-5.6,59.5-4.1,89.4c0.4,4.5,1.9,8.8,2.1,13.4c-5.5-15.1-2.6-31.5-2.8-47.2L109.2,310.4z"/>
<path id="path434_2_" class="st54" d="M111.5,272.7c0.2,4.6-0.2,9.1-0.9,13.6C111,281.8,111.1,277.2,111.5,272.7z"/>
<path id="path486_1_" class="st45" d="M9.1,316.9C9.4,333.3,8.6,350,4.8,366c-1.3,5.3-1.2,10.8-2.9,16c-0.2-8.4,2.1-16.5,3.6-24.6
	c2.8-15.3,2.9-31,2.6-46.5l0.8-0.1c0,1.9,0,3.8,0.1,5.7L9.1,316.9z"/>
<path id="path490_2_" class="st36" d="M108,316.7c0-2,0-4,0.1-6l0.8,0.4c0.3,15.7-2.6,32,2.8,47.2l0,0.2c1.1,10.5,3.9,20.8,3.7,31.5
	c0,8.6-1.3,17.5-5.3,25.2l0.3-1.5c0.7-3.9,2.5-7.6,3.1-11.6c2.9-15.7-0.7-31.5-3.8-46.9c-3.2-12.5-2-25.4-1.8-38.1L108,316.7z"/>
<path id="path580_2_" class="st40" d="M0,382.5c1.6-9,2.5-18,4.9-26.8l0.5,1.8c-1.4,8.2-3.7,16.3-3.6,24.6l-0.1,0.7
	c-1.2,7.5-1,15.6,1.5,22.9c0.1,0.1,0.4,0.4,0.6,0.6l0.3,0.6c0.1,4.4,2.7,8.1,5.4,11.4c0.9,1.3,1.8,2.6,2.7,3.9
	C4.5,416.7,2.3,407,0,398.5V382.5z"/>
<path id="path590_2_" class="st41" d="M111.8,358.5c2,4.9,2.5,10.2,3.4,15.3c1.9,12.7,2.2,26.1-2.5,38.2c-1.5,4.8-5.3,8.5-9.2,11.5
	c-9.3,7-21,9.6-32.4,10.8c-14.7,0.7-29.9,0.9-44-3.9c-5.1-1.9-10.3-4.1-14.4-7.9c4.3,2,8.5,4.5,13,6c1.2,1.1,2.7,1.7,4.3,1.7
	c15.3,3.7,31.4,5.1,47,2.6c10.1-1.7,20.2-5.1,28.2-11.7c1.9-1.7,3.8-3.6,5-5.9c4-7.8,5.3-16.6,5.3-25.2
	C115.7,379.3,112.9,369,111.8,358.5z"/>
<path id="path624_2_" class="st45" d="M3.3,405.6c-2.6-7.2-2.8-15.3-1.5-22.9c0.5,7.9,0.5,15.7,2.1,23.5
	C3.7,406.1,3.4,405.8,3.3,405.6z"/>
<path id="path670_2_" class="st55" d="M22.2,410.1c4.8,2.6,9.7,5.3,15,6.6c17.5,4.4,36.3,2.5,53.3-3.1c3.4-1.4,7.4-2.2,9.7-5.3
	c5-6.3,8.9-14,8.6-22.3c-0.3-9.2-3.2-18-5-27c-3-13.8-4.1-28-3.1-42.1c2.4,0.1,4.8,0.1,7.2,0.2c-0.3,12.7-1.4,25.7,1.8,38.1
	c3.1,15.4,6.7,31.2,3.8,46.9c-0.6,4-2.4,7.6-3.1,11.6C84.7,430,51.7,432,23,422.9c-4.6-1.2-8.7-4.2-13.5-4.7
	c-1-3.9-3.6-7.1-5.1-10.8c-0.1-0.1-0.2-0.4-0.3-0.6l-0.3-0.6c-1.6-7.7-1.7-15.6-2.1-23.5l0.1-0.7c1.7-5.2,1.6-10.7,2.9-16
	c3.8-16.1,4.6-32.7,4.4-49.2c2.9-0.2,5.8-0.3,8.8-0.3c1.3,13.9,0.4,27.8-2.1,41.5c-0.9,6.1-2.3,12.1-2.6,18.2c-0.2,4-0.3,8-0.6,12
	c0.1,3.3,0.5,6.7,1.4,9.9l0.2,0.5C16,403,19,406.7,22.2,410.1z"/>
<path id="path680_2_" class="st45" d="M4.1,406.8c0.1,0.1,0.2,0.4,0.3,0.6c1.5,3.7,4.1,6.9,5.1,10.8C6.8,414.9,4.2,411.3,4.1,406.8z
	"/>
<path id="path692_2_" class="st56" d="M23,422.9c28.6,9,61.7,7,87.4-9.3l-0.3,1.5c-1.2,2.3-3,4.2-5,5.9c-8,6.6-18.1,10-28.2,11.7
	c-15.6,2.5-31.7,1.1-47-2.6c-0.2-2.2-2.7-2.3-4.3-1.7c-4.5-1.6-8.6-4-13-6c-0.1-0.1-0.4-0.3-0.5-0.4c-0.9-1.3-1.8-2.6-2.7-3.9
	C14.3,418.8,18.4,421.8,23,422.9z"/>
<path id="path694_2_" class="st57" d="M25.7,428.5c1.6-0.6,4.1-0.5,4.3,1.7C28.4,430.3,26.9,429.6,25.7,428.5z"/>
<path id="path392_3_" class="st48" d="M100.8,316.8c2.4,0.1,4.8,0.1,7.2,0.2l0-0.3c0-2,0-4,0.1-6l0.8,0.4l0.3-0.7
	c0.3-8.1,1.1-16.1,1.4-24.1c0.4-4.5,0.5-9.1,0.9-13.6l0-0.2c0.3-11.5,1.5-22.9,1.8-34.4l1.3-24.4c-2.2-1.4-4.8-1.9-7.4-2
	C104,212.2,100.8,316.8,100.8,316.8z"/>
<path id="path246_2_" class="st55" d="M8,310.9l0.8-0.1c0,1.9,0,3.8,0.1,5.7l0.3,0.4c2.9-0.2,5.8-0.3,8.8-0.3L9.4,215.3l-0.3,0.3
	c-2.4,0.2-4.8,0.3-7.1,0.3c-0.2,2.2-0.3,4.5-0.3,6.8c0.1,0.3,0.2,0.8,0.2,1.1c1.6,12,1.7,24.2,2.8,36.3C5.6,276.9,7.2,293.9,8,310.9
	z"/>
<path d="M114.4,223.7l0-6.4c0,0-23-2.5-58.2-2.5s-54.7,1-54.7,1l0.2,7.8l29,44.5L8.2,310.9v6.1c0,0,17.6-1.2,48.9-1.2
	s51.8,1.6,51.8,1.6l0.2-6.6l-16.8-44L114.4,223.7z"/>
<path class="st58" d="M109,310.8c0,0-21.9-1.5-48.2-1.5s-52.7,1.6-52.7,1.6l-6.3-87.2c0,0,20.9-1.3,54.9-1.3s57.7,1.4,57.7,1.4
	L109,310.8z"/>
<g>
	<path d="M20.3,289.2V277h1.6v12.2H20.3z"/>
	<path d="M30.3,286l1.5,0.2c-0.2,1-0.6,1.8-1.2,2.4c-0.7,0.6-1.5,0.9-2.4,0.9c-1.2,0-2.2-0.4-2.9-1.2c-0.7-0.8-1.1-1.9-1.1-3.4
		c0-1,0.2-1.8,0.5-2.5s0.8-1.2,1.4-1.6c0.6-0.4,1.3-0.5,2.1-0.5c1,0,1.7,0.2,2.3,0.7s1,1.2,1.2,2.1l-1.5,0.2c-0.1-0.6-0.4-1-0.7-1.3
		c-0.4-0.3-0.8-0.4-1.3-0.4c-0.8,0-1.4,0.3-1.8,0.8c-0.5,0.5-0.7,1.4-0.7,2.6c0,1.2,0.2,2,0.7,2.6c0.5,0.5,1,0.8,1.8,0.8
		c0.6,0,1.1-0.2,1.5-0.5C29.9,287.3,30.2,286.7,30.3,286z"/>
	<path d="M39.1,286.3l1.5,0.2c-0.2,0.9-0.7,1.6-1.4,2.1s-1.5,0.7-2.5,0.7c-1.3,0-2.3-0.4-3.1-1.2c-0.8-0.8-1.1-1.9-1.1-3.3
		c0-1.5,0.4-2.6,1.1-3.5c0.8-0.8,1.8-1.2,3-1.2c1.2,0,2.1,0.4,2.9,1.2c0.7,0.8,1.1,1.9,1.1,3.4c0,0.1,0,0.2,0,0.4h-6.6
		c0.1,1,0.3,1.7,0.8,2.2s1.1,0.8,1.8,0.8c0.5,0,1-0.1,1.4-0.4C38.5,287.4,38.8,287,39.1,286.3z M34.2,283.9h4.9
		c-0.1-0.7-0.3-1.3-0.6-1.7c-0.5-0.6-1.1-0.9-1.9-0.9c-0.7,0-1.3,0.2-1.7,0.7C34.5,282.5,34.2,283.2,34.2,283.9z"/>
	<path d="M56.1,284.9l1.6,0.4c-0.3,1.3-0.9,2.3-1.8,3c-0.9,0.7-1.9,1-3.2,1c-1.3,0-2.4-0.3-3.2-0.8c-0.8-0.5-1.4-1.3-1.9-2.3
		c-0.4-1-0.6-2.1-0.6-3.3c0-1.3,0.2-2.4,0.7-3.3c0.5-0.9,1.2-1.7,2.1-2.1c0.9-0.5,1.9-0.7,3-0.7c1.2,0,2.2,0.3,3.1,0.9
		c0.8,0.6,1.4,1.5,1.7,2.6l-1.6,0.4c-0.3-0.9-0.7-1.5-1.2-1.9c-0.5-0.4-1.2-0.6-2-0.6c-0.9,0-1.7,0.2-2.3,0.7
		c-0.6,0.4-1.1,1-1.3,1.8c-0.3,0.8-0.4,1.5-0.4,2.3c0,1,0.2,1.9,0.5,2.7c0.3,0.8,0.8,1.3,1.4,1.7s1.3,0.6,2.1,0.6
		c0.9,0,1.7-0.3,2.3-0.8C55.4,286.7,55.9,285.9,56.1,284.9z"/>
	<path d="M59.5,289.2v-8.8h1.3v1.3c0.3-0.6,0.7-1,1-1.2c0.3-0.2,0.6-0.3,1-0.3c0.5,0,1,0.2,1.5,0.5l-0.5,1.4
		c-0.4-0.2-0.7-0.3-1.1-0.3c-0.3,0-0.6,0.1-0.9,0.3s-0.4,0.5-0.6,0.8c-0.2,0.5-0.2,1.1-0.2,1.7v4.6H59.5z"/>
	<path d="M71.2,286.3l1.5,0.2c-0.2,0.9-0.7,1.6-1.4,2.1s-1.5,0.7-2.5,0.7c-1.3,0-2.3-0.4-3.1-1.2c-0.8-0.8-1.1-1.9-1.1-3.3
		c0-1.5,0.4-2.6,1.1-3.5c0.8-0.8,1.8-1.2,3-1.2c1.2,0,2.1,0.4,2.9,1.2c0.7,0.8,1.1,1.9,1.1,3.4c0,0.1,0,0.2,0,0.4h-6.6
		c0.1,1,0.3,1.7,0.8,2.2s1.1,0.8,1.8,0.8c0.5,0,1-0.1,1.4-0.4C70.6,287.4,71,287,71.2,286.3z M66.3,283.9h4.9
		c-0.1-0.7-0.3-1.3-0.6-1.7c-0.5-0.6-1.1-0.9-1.9-0.9c-0.7,0-1.3,0.2-1.7,0.7C66.6,282.5,66.3,283.2,66.3,283.9z"/>
	<path d="M80.4,288.1c-0.6,0.5-1.1,0.8-1.6,1c-0.5,0.2-1.1,0.3-1.6,0.3c-1,0-1.7-0.2-2.2-0.7c-0.5-0.5-0.8-1.1-0.8-1.8
		c0-0.4,0.1-0.8,0.3-1.2c0.2-0.4,0.5-0.6,0.8-0.9c0.3-0.2,0.7-0.4,1.1-0.5c0.3-0.1,0.7-0.2,1.3-0.2c1.2-0.1,2.1-0.3,2.7-0.5
		c0-0.2,0-0.3,0-0.4c0-0.6-0.1-1-0.4-1.3c-0.4-0.3-0.9-0.5-1.7-0.5c-0.7,0-1.2,0.1-1.6,0.4c-0.3,0.2-0.6,0.7-0.7,1.3l-1.5-0.2
		c0.1-0.6,0.4-1.1,0.7-1.5c0.3-0.4,0.7-0.7,1.3-0.9c0.6-0.2,1.2-0.3,2-0.3c0.8,0,1.4,0.1,1.8,0.3c0.5,0.2,0.8,0.4,1,0.7
		c0.2,0.3,0.4,0.6,0.5,1c0,0.3,0.1,0.7,0.1,1.4v2c0,1.4,0,2.3,0.1,2.6c0.1,0.4,0.2,0.7,0.4,1.1h-1.6
		C80.5,288.9,80.4,288.5,80.4,288.1z M80.2,284.8c-0.5,0.2-1.4,0.4-2.4,0.6c-0.6,0.1-1,0.2-1.3,0.3c-0.3,0.1-0.5,0.3-0.6,0.5
		s-0.2,0.4-0.2,0.7c0,0.4,0.2,0.7,0.5,1c0.3,0.3,0.7,0.4,1.3,0.4c0.6,0,1.1-0.1,1.5-0.4s0.8-0.6,1-1c0.2-0.3,0.2-0.8,0.2-1.5V284.8z
		"/>
	<path d="M84.1,289.2v-8.8h1.3v1.2c0.3-0.4,0.6-0.8,1.1-1s1-0.4,1.6-0.4c0.7,0,1.2,0.1,1.6,0.4c0.4,0.3,0.7,0.7,0.9,1.1
		c0.7-1,1.6-1.5,2.7-1.5c0.9,0,1.5,0.2,2,0.7s0.7,1.2,0.7,2.2v6.1h-1.5v-5.6c0-0.6,0-1-0.1-1.3c-0.1-0.3-0.3-0.5-0.5-0.6
		c-0.3-0.2-0.6-0.2-0.9-0.2c-0.6,0-1.1,0.2-1.5,0.6c-0.4,0.4-0.6,1.1-0.6,2v5.1h-1.5v-5.7c0-0.7-0.1-1.2-0.4-1.5s-0.6-0.5-1.2-0.5
		c-0.4,0-0.8,0.1-1.2,0.3c-0.4,0.2-0.6,0.5-0.8,1c-0.2,0.4-0.2,1-0.2,1.8v4.6H84.1z"/>
</g>
<g>
	<path d="M6.2,230.1v-4.3h1.5c0.3,0,0.6,0,0.8,0.1c0.2,0.1,0.5,0.2,0.6,0.3c0.2,0.2,0.4,0.4,0.5,0.7s0.2,0.6,0.2,1
		c0,0.3,0,0.6-0.1,0.9s-0.2,0.5-0.3,0.6s-0.2,0.3-0.4,0.4c-0.1,0.1-0.3,0.2-0.5,0.2s-0.4,0.1-0.7,0.1H6.2z M6.8,229.6h0.9
		c0.3,0,0.5,0,0.7-0.1s0.3-0.1,0.4-0.2c0.1-0.1,0.2-0.3,0.3-0.5s0.1-0.5,0.1-0.8c0-0.4-0.1-0.8-0.2-1s-0.3-0.4-0.5-0.5
		c-0.2-0.1-0.4-0.1-0.7-0.1H6.8V229.6z"/>
	<path d="M10.5,226.4v-0.6H11v0.6H10.5z M10.5,230.1V227H11v3.1H10.5z"/>
	<path d="M11.6,229.2l0.5-0.1c0,0.2,0.1,0.4,0.2,0.5s0.3,0.2,0.6,0.2c0.2,0,0.4,0,0.5-0.1c0.1-0.1,0.2-0.2,0.2-0.3
		c0-0.1-0.1-0.2-0.2-0.3c-0.1,0-0.3-0.1-0.5-0.2c-0.4-0.1-0.7-0.2-0.8-0.3c-0.1-0.1-0.3-0.2-0.3-0.3c-0.1-0.1-0.1-0.3-0.1-0.4
		c0-0.1,0-0.3,0.1-0.4s0.1-0.2,0.3-0.3c0.1-0.1,0.2-0.1,0.3-0.2s0.3-0.1,0.5-0.1c0.2,0,0.5,0,0.6,0.1s0.3,0.2,0.4,0.3
		s0.1,0.3,0.2,0.5l-0.5,0.1c0-0.2-0.1-0.3-0.2-0.4s-0.3-0.1-0.5-0.1c-0.2,0-0.4,0-0.5,0.1s-0.2,0.2-0.2,0.3c0,0.1,0,0.1,0.1,0.2
		c0,0.1,0.1,0.1,0.2,0.1c0.1,0,0.2,0.1,0.5,0.1c0.4,0.1,0.6,0.2,0.8,0.2c0.1,0.1,0.3,0.2,0.3,0.3s0.1,0.3,0.1,0.5
		c0,0.2-0.1,0.3-0.2,0.5c-0.1,0.2-0.3,0.3-0.4,0.4c-0.2,0.1-0.4,0.1-0.7,0.1c-0.4,0-0.7-0.1-0.9-0.3S11.7,229.5,11.6,229.2z"/>
	<path d="M16.8,229l0.5,0.1c-0.1,0.4-0.2,0.6-0.4,0.8c-0.2,0.2-0.5,0.3-0.9,0.3c-0.4,0-0.8-0.1-1-0.4c-0.3-0.3-0.4-0.7-0.4-1.2
		c0-0.3,0.1-0.6,0.2-0.9s0.3-0.4,0.5-0.6s0.5-0.2,0.7-0.2c0.3,0,0.6,0.1,0.8,0.3s0.4,0.4,0.4,0.7l-0.5,0.1c0-0.2-0.1-0.4-0.3-0.5
		s-0.3-0.2-0.4-0.2c-0.3,0-0.5,0.1-0.6,0.3s-0.2,0.5-0.2,0.9c0,0.4,0.1,0.7,0.2,0.9s0.4,0.3,0.6,0.3c0.2,0,0.4-0.1,0.5-0.2
		S16.8,229.2,16.8,229z"/>
	<path d="M17.8,230.1v-4.3h0.5v4.3H17.8z"/>
	<path d="M21.2,229.7c-0.2,0.2-0.4,0.3-0.6,0.4s-0.4,0.1-0.6,0.1c-0.3,0-0.6-0.1-0.8-0.3c-0.2-0.2-0.3-0.4-0.3-0.6
		c0-0.2,0-0.3,0.1-0.4c0.1-0.1,0.2-0.2,0.3-0.3s0.2-0.1,0.4-0.2c0.1,0,0.3-0.1,0.5-0.1c0.4-0.1,0.7-0.1,0.9-0.2c0-0.1,0-0.1,0-0.1
		c0-0.2,0-0.4-0.1-0.5c-0.1-0.1-0.3-0.2-0.6-0.2c-0.2,0-0.4,0-0.5,0.1s-0.2,0.2-0.3,0.5l-0.5-0.1c0-0.2,0.1-0.4,0.2-0.5
		s0.3-0.2,0.5-0.3s0.4-0.1,0.7-0.1c0.3,0,0.5,0,0.6,0.1s0.3,0.1,0.4,0.2s0.1,0.2,0.2,0.4c0,0.1,0,0.3,0,0.5v0.7c0,0.5,0,0.8,0,0.9
		s0.1,0.3,0.1,0.4h-0.6C21.2,230,21.2,229.9,21.2,229.7z M21.1,228.6c-0.2,0.1-0.5,0.1-0.9,0.2c-0.2,0-0.4,0.1-0.5,0.1
		s-0.2,0.1-0.2,0.2c0,0.1-0.1,0.2-0.1,0.3c0,0.1,0.1,0.3,0.2,0.4s0.3,0.1,0.5,0.1c0.2,0,0.4,0,0.5-0.1c0.2-0.1,0.3-0.2,0.3-0.4
		c0.1-0.1,0.1-0.3,0.1-0.5V228.6z"/>
	<path d="M22.5,226.4v-0.6H23v0.6H22.5z M22.5,230.1V227H23v3.1H22.5z"/>
	<path d="M23.8,230.1V227h0.5v0.4c0.1-0.2,0.2-0.3,0.4-0.4s0.3-0.1,0.6-0.1c0.2,0,0.4,0,0.6,0.1s0.3,0.2,0.3,0.4
		c0.2-0.4,0.6-0.5,1-0.5c0.3,0,0.5,0.1,0.7,0.3s0.2,0.4,0.2,0.8v2.1h-0.5v-2c0-0.2,0-0.4-0.1-0.5c0-0.1-0.1-0.2-0.2-0.2
		s-0.2-0.1-0.3-0.1c-0.2,0-0.4,0.1-0.5,0.2c-0.1,0.1-0.2,0.4-0.2,0.7v1.8h-0.5v-2c0-0.2,0-0.4-0.1-0.5s-0.2-0.2-0.4-0.2
		c-0.1,0-0.3,0-0.4,0.1s-0.2,0.2-0.3,0.3s-0.1,0.4-0.1,0.7v1.6H23.8z"/>
	<path d="M30.9,229.1l0.5,0.1c-0.1,0.3-0.2,0.6-0.5,0.7s-0.5,0.3-0.9,0.3c-0.5,0-0.8-0.1-1.1-0.4s-0.4-0.7-0.4-1.2
		c0-0.5,0.1-0.9,0.4-1.2s0.6-0.4,1-0.4c0.4,0,0.8,0.1,1,0.4s0.4,0.7,0.4,1.2c0,0,0,0.1,0,0.1h-2.3c0,0.3,0.1,0.6,0.3,0.8
		s0.4,0.3,0.7,0.3c0.2,0,0.4-0.1,0.5-0.2S30.9,229.3,30.9,229.1z M29.2,228.3h1.7c0-0.3-0.1-0.5-0.2-0.6c-0.2-0.2-0.4-0.3-0.7-0.3
		c-0.2,0-0.4,0.1-0.6,0.2S29.2,228,29.2,228.3z"/>
	<path d="M32.1,230.1V227h0.5v0.5c0.1-0.2,0.2-0.4,0.3-0.4s0.2-0.1,0.3-0.1c0.2,0,0.4,0.1,0.5,0.2l-0.2,0.5
		c-0.1-0.1-0.3-0.1-0.4-0.1c-0.1,0-0.2,0-0.3,0.1s-0.2,0.2-0.2,0.3c-0.1,0.2-0.1,0.4-0.1,0.6v1.6H32.1z"/>
	<path d="M34.3,227.6V227h0.6v0.6H34.3z M34.3,230.1v-0.6h0.6v0.6H34.3z"/>
	<path d="M37.5,230.1v-4.3h1.6c0.3,0,0.5,0,0.7,0c0.2,0,0.4,0.1,0.5,0.2c0.1,0.1,0.3,0.2,0.3,0.4s0.1,0.4,0.1,0.6
		c0,0.4-0.1,0.7-0.3,0.9c-0.2,0.3-0.7,0.4-1.3,0.4h-1.1v1.7H37.5z M38.1,227.9h1.1c0.4,0,0.6-0.1,0.8-0.2s0.2-0.3,0.2-0.6
		c0-0.2,0-0.3-0.1-0.5s-0.2-0.2-0.4-0.3c-0.1,0-0.3,0-0.5,0h-1.1V227.9z"/>
	<path d="M41.5,230.1V227H42v0.5c0.1-0.2,0.2-0.4,0.3-0.4s0.2-0.1,0.3-0.1c0.2,0,0.4,0.1,0.5,0.2l-0.2,0.5c-0.1-0.1-0.3-0.1-0.4-0.1
		c-0.1,0-0.2,0-0.3,0.1s-0.2,0.2-0.2,0.3c-0.1,0.2-0.1,0.4-0.1,0.6v1.6H41.5z"/>
	<path d="M43.3,228.6c0-0.6,0.2-1,0.5-1.3c0.3-0.2,0.6-0.3,1-0.3c0.4,0,0.8,0.1,1,0.4s0.4,0.7,0.4,1.2c0,0.4-0.1,0.7-0.2,0.9
		s-0.3,0.4-0.5,0.5s-0.5,0.2-0.8,0.2c-0.4,0-0.8-0.1-1.1-0.4S43.3,229.1,43.3,228.6z M43.8,228.6c0,0.4,0.1,0.7,0.3,0.9
		s0.4,0.3,0.7,0.3c0.3,0,0.5-0.1,0.7-0.3s0.3-0.5,0.3-0.9c0-0.4-0.1-0.7-0.3-0.9c-0.2-0.2-0.4-0.3-0.7-0.3c-0.3,0-0.5,0.1-0.7,0.3
		S43.8,228.2,43.8,228.6z"/>
	<path d="M48.8,230.1v-0.4c-0.2,0.3-0.5,0.5-0.9,0.5c-0.2,0-0.5-0.1-0.7-0.2s-0.4-0.3-0.5-0.6s-0.2-0.5-0.2-0.8
		c0-0.3,0.1-0.6,0.2-0.8c0.1-0.3,0.3-0.4,0.5-0.6s0.4-0.2,0.7-0.2c0.2,0,0.4,0,0.5,0.1s0.3,0.2,0.4,0.3v-1.5h0.5v4.3H48.8z
		 M47.2,228.6c0,0.4,0.1,0.7,0.3,0.9s0.4,0.3,0.6,0.3c0.2,0,0.4-0.1,0.6-0.3c0.2-0.2,0.2-0.5,0.2-0.9c0-0.4-0.1-0.7-0.2-0.9
		s-0.4-0.3-0.6-0.3c-0.2,0-0.4,0.1-0.6,0.3S47.2,228.2,47.2,228.6z"/>
	<path d="M52.2,230.1v-0.5c-0.2,0.4-0.6,0.5-1,0.5c-0.2,0-0.4,0-0.5-0.1s-0.3-0.2-0.4-0.3c-0.1-0.1-0.1-0.2-0.2-0.4
		c0-0.1,0-0.3,0-0.5V227h0.5v1.7c0,0.3,0,0.5,0,0.6c0,0.1,0.1,0.2,0.2,0.3c0.1,0.1,0.2,0.1,0.4,0.1s0.3,0,0.4-0.1
		c0.1-0.1,0.2-0.2,0.3-0.3s0.1-0.3,0.1-0.6V227h0.5v3.1H52.2z"/>
	<path d="M55.5,229L56,229c-0.1,0.4-0.2,0.6-0.4,0.8c-0.2,0.2-0.5,0.3-0.9,0.3c-0.4,0-0.8-0.1-1-0.4c-0.3-0.3-0.4-0.7-0.4-1.2
		c0-0.3,0.1-0.6,0.2-0.9s0.3-0.4,0.5-0.6s0.5-0.2,0.7-0.2c0.3,0,0.6,0.1,0.8,0.3s0.4,0.4,0.4,0.7l-0.5,0.1c0-0.2-0.1-0.4-0.3-0.5
		s-0.3-0.2-0.4-0.2c-0.3,0-0.5,0.1-0.6,0.3s-0.2,0.5-0.2,0.9c0,0.4,0.1,0.7,0.2,0.9s0.4,0.3,0.6,0.3c0.2,0,0.4-0.1,0.5-0.2
		S55.5,229.2,55.5,229z"/>
	<path d="M57.6,229.6l0.1,0.5c-0.1,0-0.3,0-0.4,0c-0.2,0-0.3,0-0.4-0.1s-0.2-0.1-0.2-0.2c0-0.1-0.1-0.3-0.1-0.6v-1.8h-0.4V227h0.4
		v-0.8l0.5-0.3v1.1h0.5v0.4h-0.5v1.8c0,0.2,0,0.2,0,0.3s0,0.1,0.1,0.1s0.1,0,0.2,0C57.5,229.7,57.5,229.7,57.6,229.6z"/>
	<path d="M61.9,229l0.5,0.1c-0.1,0.4-0.2,0.6-0.4,0.8c-0.2,0.2-0.5,0.3-0.9,0.3c-0.4,0-0.8-0.1-1-0.4c-0.3-0.3-0.4-0.7-0.4-1.2
		c0-0.3,0.1-0.6,0.2-0.9s0.3-0.4,0.5-0.6s0.5-0.2,0.7-0.2c0.3,0,0.6,0.1,0.8,0.3s0.4,0.4,0.4,0.7l-0.5,0.1c0-0.2-0.1-0.4-0.3-0.5
		s-0.3-0.2-0.4-0.2c-0.3,0-0.5,0.1-0.6,0.3s-0.2,0.5-0.2,0.9c0,0.4,0.1,0.7,0.2,0.9s0.4,0.3,0.6,0.3c0.2,0,0.4-0.1,0.5-0.2
		S61.8,229.2,61.9,229z"/>
	<path d="M62.6,228.6c0-0.6,0.2-1,0.5-1.3c0.3-0.2,0.6-0.3,1-0.3c0.4,0,0.8,0.1,1,0.4s0.4,0.7,0.4,1.2c0,0.4-0.1,0.7-0.2,0.9
		s-0.3,0.4-0.5,0.5s-0.5,0.2-0.8,0.2c-0.4,0-0.8-0.1-1.1-0.4S62.6,229.1,62.6,228.6z M63.2,228.6c0,0.4,0.1,0.7,0.3,0.9
		s0.4,0.3,0.7,0.3c0.3,0,0.5-0.1,0.7-0.3s0.3-0.5,0.3-0.9c0-0.4-0.1-0.7-0.3-0.9c-0.2-0.2-0.4-0.3-0.7-0.3c-0.3,0-0.5,0.1-0.7,0.3
		S63.2,228.2,63.2,228.6z"/>
	<path d="M66.2,230.1V227h0.5v0.4c0.2-0.3,0.6-0.5,1-0.5c0.2,0,0.4,0,0.5,0.1s0.3,0.2,0.4,0.3s0.1,0.2,0.2,0.4c0,0.1,0,0.3,0,0.5
		v1.9h-0.5v-1.9c0-0.2,0-0.4-0.1-0.5c0-0.1-0.1-0.2-0.2-0.3s-0.2-0.1-0.4-0.1c-0.2,0-0.4,0.1-0.6,0.2s-0.2,0.4-0.2,0.8v1.7H66.2z"/>
	<path d="M70.7,229.6l0.1,0.5c-0.1,0-0.3,0-0.4,0c-0.2,0-0.3,0-0.4-0.1s-0.2-0.1-0.2-0.2c0-0.1-0.1-0.3-0.1-0.6v-1.8h-0.4V227h0.4
		v-0.8l0.5-0.3v1.1h0.5v0.4h-0.5v1.8c0,0.2,0,0.2,0,0.3s0,0.1,0.1,0.1s0.1,0,0.2,0C70.5,229.7,70.6,229.7,70.7,229.6z"/>
	<path d="M73.2,229.7c-0.2,0.2-0.4,0.3-0.6,0.4s-0.4,0.1-0.6,0.1c-0.3,0-0.6-0.1-0.8-0.3c-0.2-0.2-0.3-0.4-0.3-0.6
		c0-0.2,0-0.3,0.1-0.4c0.1-0.1,0.2-0.2,0.3-0.3s0.2-0.1,0.4-0.2c0.1,0,0.3-0.1,0.5-0.1c0.4-0.1,0.7-0.1,0.9-0.2c0-0.1,0-0.1,0-0.1
		c0-0.2,0-0.4-0.1-0.5c-0.1-0.1-0.3-0.2-0.6-0.2c-0.2,0-0.4,0-0.5,0.1s-0.2,0.2-0.3,0.5l-0.5-0.1c0-0.2,0.1-0.4,0.2-0.5
		s0.3-0.2,0.5-0.3s0.4-0.1,0.7-0.1c0.3,0,0.5,0,0.6,0.1s0.3,0.1,0.4,0.2s0.1,0.2,0.2,0.4c0,0.1,0,0.3,0,0.5v0.7c0,0.5,0,0.8,0,0.9
		s0.1,0.3,0.1,0.4h-0.6C73.2,230,73.2,229.9,73.2,229.7z M73.2,228.6c-0.2,0.1-0.5,0.1-0.9,0.2c-0.2,0-0.4,0.1-0.5,0.1
		s-0.2,0.1-0.2,0.2c0,0.1-0.1,0.2-0.1,0.3c0,0.1,0.1,0.3,0.2,0.4s0.3,0.1,0.5,0.1c0.2,0,0.4,0,0.5-0.1c0.2-0.1,0.3-0.2,0.3-0.4
		c0.1-0.1,0.1-0.3,0.1-0.5V228.6z"/>
	<path d="M74.5,226.4v-0.6H75v0.6H74.5z M74.5,230.1V227H75v3.1H74.5z"/>
	<path d="M75.8,230.1V227h0.5v0.4c0.2-0.3,0.6-0.5,1-0.5c0.2,0,0.4,0,0.5,0.1s0.3,0.2,0.4,0.3s0.1,0.2,0.2,0.4c0,0.1,0,0.3,0,0.5
		v1.9h-0.5v-1.9c0-0.2,0-0.4-0.1-0.5c0-0.1-0.1-0.2-0.2-0.3s-0.2-0.1-0.4-0.1c-0.2,0-0.4,0.1-0.6,0.2s-0.2,0.4-0.2,0.8v1.7H75.8z"/>
	<path d="M79,229.2l0.5-0.1c0,0.2,0.1,0.4,0.2,0.5s0.3,0.2,0.6,0.2c0.2,0,0.4,0,0.5-0.1c0.1-0.1,0.2-0.2,0.2-0.3
		c0-0.1-0.1-0.2-0.2-0.3c-0.1,0-0.3-0.1-0.5-0.2c-0.4-0.1-0.7-0.2-0.8-0.3c-0.1-0.1-0.3-0.2-0.3-0.3c-0.1-0.1-0.1-0.3-0.1-0.4
		c0-0.1,0-0.3,0.1-0.4s0.1-0.2,0.3-0.3c0.1-0.1,0.2-0.1,0.3-0.2s0.3-0.1,0.5-0.1c0.2,0,0.5,0,0.6,0.1s0.3,0.2,0.4,0.3
		s0.1,0.3,0.2,0.5l-0.5,0.1c0-0.2-0.1-0.3-0.2-0.4s-0.3-0.1-0.5-0.1c-0.2,0-0.4,0-0.5,0.1s-0.2,0.2-0.2,0.3c0,0.1,0,0.1,0.1,0.2
		c0,0.1,0.1,0.1,0.2,0.1c0.1,0,0.2,0.1,0.5,0.1c0.4,0.1,0.6,0.2,0.8,0.2c0.1,0.1,0.3,0.2,0.3,0.3s0.1,0.3,0.1,0.5
		c0,0.2-0.1,0.3-0.2,0.5c-0.1,0.2-0.3,0.3-0.4,0.4c-0.2,0.1-0.4,0.1-0.7,0.1c-0.4,0-0.7-0.1-0.9-0.3S79,229.5,79,229.2z"/>
	<path d="M83.8,230.1V227h0.5v0.4c0.2-0.3,0.6-0.5,1-0.5c0.2,0,0.4,0,0.5,0.1s0.3,0.2,0.4,0.3s0.1,0.2,0.2,0.4c0,0.1,0,0.3,0,0.5
		v1.9h-0.5v-1.9c0-0.2,0-0.4-0.1-0.5c0-0.1-0.1-0.2-0.2-0.3s-0.2-0.1-0.4-0.1c-0.2,0-0.4,0.1-0.6,0.2s-0.2,0.4-0.2,0.8v1.7H83.8z"/>
	<path d="M89.3,229.1l0.5,0.1c-0.1,0.3-0.2,0.6-0.5,0.7s-0.5,0.3-0.9,0.3c-0.5,0-0.8-0.1-1.1-0.4s-0.4-0.7-0.4-1.2
		c0-0.5,0.1-0.9,0.4-1.2s0.6-0.4,1-0.4c0.4,0,0.8,0.1,1,0.4s0.4,0.7,0.4,1.2c0,0,0,0.1,0,0.1h-2.3c0,0.3,0.1,0.6,0.3,0.8
		s0.4,0.3,0.7,0.3c0.2,0,0.4-0.1,0.5-0.2S89.2,229.3,89.3,229.1z M87.6,228.3h1.7c0-0.3-0.1-0.5-0.2-0.6c-0.2-0.2-0.4-0.3-0.7-0.3
		c-0.2,0-0.4,0.1-0.6,0.2S87.6,228,87.6,228.3z"/>
	<path d="M90.5,226.4v-0.6H91v0.6H90.5z M90.5,230.1V227H91v3.1H90.5z"/>
	<path d="M93,229.6l0.1,0.5c-0.1,0-0.3,0-0.4,0c-0.2,0-0.3,0-0.4-0.1s-0.2-0.1-0.2-0.2c0-0.1-0.1-0.3-0.1-0.6v-1.8h-0.4V227h0.4
		v-0.8l0.5-0.3v1.1H93v0.4h-0.5v1.8c0,0.2,0,0.2,0,0.3s0,0.1,0.1,0.1s0.1,0,0.2,0C92.8,229.7,92.9,229.7,93,229.6z"/>
	<path d="M93.5,230.1v-4.3H94v1.5c0.2-0.3,0.6-0.4,0.9-0.4c0.2,0,0.4,0,0.6,0.1s0.3,0.2,0.4,0.4s0.1,0.4,0.1,0.7v2h-0.5v-2
		c0-0.3-0.1-0.5-0.2-0.6s-0.3-0.2-0.5-0.2c-0.2,0-0.3,0-0.4,0.1s-0.2,0.2-0.3,0.3s-0.1,0.3-0.1,0.6v1.7H93.5z"/>
	<path d="M99,229.1l0.5,0.1c-0.1,0.3-0.2,0.6-0.5,0.7s-0.5,0.3-0.9,0.3c-0.5,0-0.8-0.1-1.1-0.4s-0.4-0.7-0.4-1.2
		c0-0.5,0.1-0.9,0.4-1.2s0.6-0.4,1-0.4c0.4,0,0.8,0.1,1,0.4s0.4,0.7,0.4,1.2c0,0,0,0.1,0,0.1h-2.3c0,0.3,0.1,0.6,0.3,0.8
		s0.4,0.3,0.7,0.3c0.2,0,0.4-0.1,0.5-0.2S98.9,229.3,99,229.1z M97.3,228.3H99c0-0.3-0.1-0.5-0.2-0.6c-0.2-0.2-0.4-0.3-0.7-0.3
		c-0.2,0-0.4,0.1-0.6,0.2S97.3,228,97.3,228.3z"/>
	<path d="M100.2,230.1V227h0.5v0.5c0.1-0.2,0.2-0.4,0.3-0.4s0.2-0.1,0.3-0.1c0.2,0,0.4,0.1,0.5,0.2l-0.2,0.5
		c-0.1-0.1-0.3-0.1-0.4-0.1c-0.1,0-0.2,0-0.3,0.1s-0.2,0.2-0.2,0.3c-0.1,0.2-0.1,0.4-0.1,0.6v1.6H100.2z"/>
	<path d="M103.9,226.4v-0.6h0.5v0.6H103.9z M103.9,230.1V227h0.5v3.1H103.9z"/>
	<path d="M107.2,229l0.5,0.1c-0.1,0.4-0.2,0.6-0.4,0.8c-0.2,0.2-0.5,0.3-0.9,0.3c-0.4,0-0.8-0.1-1-0.4c-0.3-0.3-0.4-0.7-0.4-1.2
		c0-0.3,0.1-0.6,0.2-0.9s0.3-0.4,0.5-0.6s0.5-0.2,0.7-0.2c0.3,0,0.6,0.1,0.8,0.3s0.4,0.4,0.4,0.7l-0.5,0.1c0-0.2-0.1-0.4-0.3-0.5
		s-0.3-0.2-0.4-0.2c-0.3,0-0.5,0.1-0.6,0.3s-0.2,0.5-0.2,0.9c0,0.4,0.1,0.7,0.2,0.9s0.4,0.3,0.6,0.3c0.2,0,0.4-0.1,0.5-0.2
		S107.2,229.2,107.2,229z"/>
	<path d="M110.3,229.1l0.5,0.1c-0.1,0.3-0.2,0.6-0.5,0.7s-0.5,0.3-0.9,0.3c-0.5,0-0.8-0.1-1.1-0.4s-0.4-0.7-0.4-1.2
		c0-0.5,0.1-0.9,0.4-1.2s0.6-0.4,1-0.4c0.4,0,0.8,0.1,1,0.4s0.4,0.7,0.4,1.2c0,0,0,0.1,0,0.1h-2.3c0,0.3,0.1,0.6,0.3,0.8
		s0.4,0.3,0.7,0.3c0.2,0,0.4-0.1,0.5-0.2S110.2,229.3,110.3,229.1z M108.6,228.3h1.7c0-0.3-0.1-0.5-0.2-0.6
		c-0.2-0.2-0.4-0.3-0.7-0.3c-0.2,0-0.4,0.1-0.6,0.2S108.6,228,108.6,228.3z"/>
	<path d="M6.1,237.3v-3.1h0.5v0.4c0.2-0.3,0.6-0.5,1-0.5c0.2,0,0.4,0,0.5,0.1c0.2,0.1,0.3,0.2,0.4,0.3s0.1,0.2,0.2,0.4
		c0,0.1,0,0.3,0,0.5v1.9H8.1v-1.9c0-0.2,0-0.4-0.1-0.5c0-0.1-0.1-0.2-0.2-0.3s-0.2-0.1-0.4-0.1c-0.2,0-0.4,0.1-0.6,0.2
		s-0.2,0.4-0.2,0.8v1.7H6.1z"/>
	<path d="M9.3,235.8c0-0.6,0.2-1,0.5-1.3c0.3-0.2,0.6-0.3,1-0.3c0.4,0,0.8,0.1,1,0.4c0.3,0.3,0.4,0.7,0.4,1.2c0,0.4-0.1,0.7-0.2,0.9
		s-0.3,0.4-0.5,0.5s-0.5,0.2-0.8,0.2c-0.4,0-0.8-0.1-1.1-0.4S9.3,236.3,9.3,235.8z M9.8,235.8c0,0.4,0.1,0.7,0.3,0.9
		s0.4,0.3,0.7,0.3c0.3,0,0.5-0.1,0.7-0.3s0.3-0.5,0.3-0.9c0-0.4-0.1-0.7-0.3-0.9s-0.4-0.3-0.7-0.3c-0.3,0-0.5,0.1-0.7,0.3
		S9.8,235.4,9.8,235.8z"/>
	<path d="M12.8,237.3v-3.1h0.5v0.5c0.1-0.2,0.2-0.4,0.3-0.4s0.2-0.1,0.3-0.1c0.2,0,0.4,0.1,0.5,0.2l-0.2,0.5
		c-0.1-0.1-0.3-0.1-0.4-0.1c-0.1,0-0.2,0-0.3,0.1c-0.1,0.1-0.2,0.2-0.2,0.3c-0.1,0.2-0.1,0.4-0.1,0.6v1.6H12.8z"/>
	<path d="M18.5,236.2l0.5,0.1c-0.1,0.4-0.2,0.6-0.4,0.8c-0.2,0.2-0.5,0.3-0.9,0.3c-0.4,0-0.8-0.1-1-0.4c-0.3-0.3-0.4-0.7-0.4-1.2
		c0-0.3,0.1-0.6,0.2-0.9s0.3-0.4,0.5-0.6c0.2-0.1,0.5-0.2,0.7-0.2c0.3,0,0.6,0.1,0.8,0.3c0.2,0.2,0.4,0.4,0.4,0.7l-0.5,0.1
		c0-0.2-0.1-0.4-0.3-0.5s-0.3-0.2-0.4-0.2c-0.3,0-0.5,0.1-0.6,0.3c-0.2,0.2-0.2,0.5-0.2,0.9c0,0.4,0.1,0.7,0.2,0.9s0.4,0.3,0.6,0.3
		c0.2,0,0.4-0.1,0.5-0.2S18.5,236.4,18.5,236.2z"/>
	<path d="M19.5,237.3v-3.1H20v0.5c0.1-0.2,0.2-0.4,0.3-0.4s0.2-0.1,0.3-0.1c0.2,0,0.4,0.1,0.5,0.2l-0.2,0.5
		c-0.1-0.1-0.3-0.1-0.4-0.1c-0.1,0-0.2,0-0.3,0.1c-0.1,0.1-0.2,0.2-0.2,0.3c-0.1,0.2-0.1,0.4-0.1,0.6v1.6H19.5z"/>
	<path d="M23.6,236.3l0.5,0.1c-0.1,0.3-0.2,0.6-0.5,0.7s-0.5,0.3-0.9,0.3c-0.5,0-0.8-0.1-1.1-0.4s-0.4-0.7-0.4-1.2
		c0-0.5,0.1-0.9,0.4-1.2s0.6-0.4,1-0.4c0.4,0,0.8,0.1,1,0.4s0.4,0.7,0.4,1.2c0,0,0,0.1,0,0.1h-2.3c0,0.3,0.1,0.6,0.3,0.8
		s0.4,0.3,0.7,0.3c0.2,0,0.4-0.1,0.5-0.2S23.5,236.5,23.6,236.3z M21.9,235.5h1.7c0-0.3-0.1-0.5-0.2-0.6c-0.2-0.2-0.4-0.3-0.7-0.3
		c-0.2,0-0.4,0.1-0.6,0.2S21.9,235.2,21.9,235.5z"/>
	<path d="M26.8,236.9c-0.2,0.2-0.4,0.3-0.6,0.4s-0.4,0.1-0.6,0.1c-0.3,0-0.6-0.1-0.8-0.3c-0.2-0.2-0.3-0.4-0.3-0.6
		c0-0.2,0-0.3,0.1-0.4c0.1-0.1,0.2-0.2,0.3-0.3s0.2-0.1,0.4-0.2c0.1,0,0.3-0.1,0.5-0.1c0.4-0.1,0.7-0.1,0.9-0.2c0-0.1,0-0.1,0-0.1
		c0-0.2,0-0.4-0.1-0.5c-0.1-0.1-0.3-0.2-0.6-0.2c-0.2,0-0.4,0-0.5,0.1c-0.1,0.1-0.2,0.2-0.3,0.5l-0.5-0.1c0-0.2,0.1-0.4,0.2-0.5
		s0.3-0.2,0.5-0.3c0.2-0.1,0.4-0.1,0.7-0.1c0.3,0,0.5,0,0.6,0.1s0.3,0.1,0.4,0.2s0.1,0.2,0.2,0.4c0,0.1,0,0.3,0,0.5v0.7
		c0,0.5,0,0.8,0,0.9s0.1,0.3,0.1,0.4H27C26.9,237.2,26.9,237.1,26.8,236.9z M26.8,235.8c-0.2,0.1-0.5,0.1-0.9,0.2
		c-0.2,0-0.4,0.1-0.5,0.1s-0.2,0.1-0.2,0.2c0,0.1-0.1,0.2-0.1,0.3c0,0.1,0.1,0.3,0.2,0.4s0.3,0.1,0.5,0.1c0.2,0,0.4,0,0.5-0.1
		c0.2-0.1,0.3-0.2,0.3-0.4c0.1-0.1,0.1-0.3,0.1-0.5V235.8z"/>
	<path d="M28.2,237.3v-3.1h0.5v0.4c0.1-0.2,0.2-0.3,0.4-0.4c0.2-0.1,0.3-0.1,0.6-0.1c0.2,0,0.4,0,0.6,0.1s0.3,0.2,0.3,0.4
		c0.2-0.4,0.6-0.5,1-0.5c0.3,0,0.5,0.1,0.7,0.3c0.2,0.2,0.2,0.4,0.2,0.8v2.1h-0.5v-2c0-0.2,0-0.4-0.1-0.5c0-0.1-0.1-0.2-0.2-0.2
		s-0.2-0.1-0.3-0.1c-0.2,0-0.4,0.1-0.5,0.2s-0.2,0.4-0.2,0.7v1.8H30v-2c0-0.2,0-0.4-0.1-0.5s-0.2-0.2-0.4-0.2c-0.1,0-0.3,0-0.4,0.1
		s-0.2,0.2-0.3,0.3s-0.1,0.4-0.1,0.7v1.6H28.2z"/>
	<path d="M33.3,237.3v-0.6h0.6v0.6H33.3z"/>
	<path d="M36.5,237.3V233h0.9l1,3c0.1,0.3,0.2,0.5,0.2,0.6c0-0.2,0.1-0.4,0.2-0.7l1-3h0.8v4.3h-0.5v-3.6l-1.2,3.6h-0.5l-1.2-3.7v3.7
		H36.5z"/>
	<path d="M43.5,236.9c-0.2,0.2-0.4,0.3-0.6,0.4s-0.4,0.1-0.6,0.1c-0.3,0-0.6-0.1-0.8-0.3c-0.2-0.2-0.3-0.4-0.3-0.6
		c0-0.2,0-0.3,0.1-0.4c0.1-0.1,0.2-0.2,0.3-0.3s0.2-0.1,0.4-0.2c0.1,0,0.3-0.1,0.5-0.1c0.4-0.1,0.7-0.1,0.9-0.2c0-0.1,0-0.1,0-0.1
		c0-0.2,0-0.4-0.1-0.5c-0.1-0.1-0.3-0.2-0.6-0.2c-0.2,0-0.4,0-0.5,0.1c-0.1,0.1-0.2,0.2-0.3,0.5l-0.5-0.1c0-0.2,0.1-0.4,0.2-0.5
		s0.3-0.2,0.5-0.3c0.2-0.1,0.4-0.1,0.7-0.1c0.3,0,0.5,0,0.6,0.1s0.3,0.1,0.4,0.2s0.1,0.2,0.2,0.4c0,0.1,0,0.3,0,0.5v0.7
		c0,0.5,0,0.8,0,0.9s0.1,0.3,0.1,0.4h-0.6C43.6,237.2,43.5,237.1,43.5,236.9z M43.5,235.8c-0.2,0.1-0.5,0.1-0.9,0.2
		c-0.2,0-0.4,0.1-0.5,0.1s-0.2,0.1-0.2,0.2c0,0.1-0.1,0.2-0.1,0.3c0,0.1,0.1,0.3,0.2,0.4s0.3,0.1,0.5,0.1c0.2,0,0.4,0,0.5-0.1
		c0.2-0.1,0.3-0.2,0.3-0.4c0.1-0.1,0.1-0.3,0.1-0.5V235.8z"/>
	<path d="M44.8,238.5l-0.1-0.5c0.1,0,0.2,0,0.3,0c0.1,0,0.2,0,0.3-0.1s0.1-0.1,0.2-0.2c0-0.1,0.1-0.2,0.2-0.4c0,0,0-0.1,0-0.1
		l-1.2-3.1h0.6l0.6,1.8c0.1,0.2,0.2,0.5,0.2,0.7c0.1-0.2,0.1-0.5,0.2-0.7l0.7-1.8h0.5l-1.2,3.2c-0.1,0.3-0.2,0.6-0.3,0.7
		c-0.1,0.2-0.2,0.3-0.3,0.4s-0.3,0.1-0.4,0.1C45,238.6,44.9,238.6,44.8,238.5z"/>
	<path d="M51.5,236.2l0.5,0.1c-0.1,0.4-0.2,0.6-0.4,0.8c-0.2,0.2-0.5,0.3-0.9,0.3c-0.4,0-0.8-0.1-1-0.4c-0.3-0.3-0.4-0.7-0.4-1.2
		c0-0.3,0.1-0.6,0.2-0.9s0.3-0.4,0.5-0.6c0.2-0.1,0.5-0.2,0.7-0.2c0.3,0,0.6,0.1,0.8,0.3c0.2,0.2,0.4,0.4,0.4,0.7l-0.5,0.1
		c0-0.2-0.1-0.4-0.3-0.5s-0.3-0.2-0.4-0.2c-0.3,0-0.5,0.1-0.6,0.3c-0.2,0.2-0.2,0.5-0.2,0.9c0,0.4,0.1,0.7,0.2,0.9s0.4,0.3,0.6,0.3
		c0.2,0,0.4-0.1,0.5-0.2S51.5,236.4,51.5,236.2z"/>
	<path d="M52.3,235.8c0-0.6,0.2-1,0.5-1.3c0.3-0.2,0.6-0.3,1-0.3c0.4,0,0.8,0.1,1,0.4c0.3,0.3,0.4,0.7,0.4,1.2
		c0,0.4-0.1,0.7-0.2,0.9s-0.3,0.4-0.5,0.5s-0.5,0.2-0.8,0.2c-0.4,0-0.8-0.1-1.1-0.4S52.3,236.3,52.3,235.8z M52.8,235.8
		c0,0.4,0.1,0.7,0.3,0.9s0.4,0.3,0.7,0.3c0.3,0,0.5-0.1,0.7-0.3s0.3-0.5,0.3-0.9c0-0.4-0.1-0.7-0.3-0.9s-0.4-0.3-0.7-0.3
		c-0.3,0-0.5,0.1-0.7,0.3S52.8,235.4,52.8,235.8z"/>
	<path d="M55.8,237.3v-3.1h0.5v0.4c0.2-0.3,0.6-0.5,1-0.5c0.2,0,0.4,0,0.5,0.1c0.2,0.1,0.3,0.2,0.4,0.3s0.1,0.2,0.2,0.4
		c0,0.1,0,0.3,0,0.5v1.9h-0.5v-1.9c0-0.2,0-0.4-0.1-0.5c0-0.1-0.1-0.2-0.2-0.3s-0.2-0.1-0.4-0.1c-0.2,0-0.4,0.1-0.6,0.2
		s-0.2,0.4-0.2,0.8v1.7H55.8z"/>
	<path d="M60.3,236.8l0.1,0.5c-0.1,0-0.3,0-0.4,0c-0.2,0-0.3,0-0.4-0.1s-0.2-0.1-0.2-0.2c0-0.1-0.1-0.3-0.1-0.6v-1.8h-0.4v-0.4h0.4
		v-0.8l0.5-0.3v1.1h0.5v0.4h-0.5v1.8c0,0.2,0,0.2,0,0.3s0,0.1,0.1,0.1s0.1,0,0.2,0C60.1,236.9,60.2,236.9,60.3,236.8z"/>
	<path d="M62.9,236.9c-0.2,0.2-0.4,0.3-0.6,0.4s-0.4,0.1-0.6,0.1c-0.3,0-0.6-0.1-0.8-0.3c-0.2-0.2-0.3-0.4-0.3-0.6
		c0-0.2,0-0.3,0.1-0.4c0.1-0.1,0.2-0.2,0.3-0.3s0.2-0.1,0.4-0.2c0.1,0,0.3-0.1,0.5-0.1c0.4-0.1,0.7-0.1,0.9-0.2c0-0.1,0-0.1,0-0.1
		c0-0.2,0-0.4-0.1-0.5c-0.1-0.1-0.3-0.2-0.6-0.2c-0.2,0-0.4,0-0.5,0.1c-0.1,0.1-0.2,0.2-0.3,0.5l-0.5-0.1c0-0.2,0.1-0.4,0.2-0.5
		s0.3-0.2,0.5-0.3c0.2-0.1,0.4-0.1,0.7-0.1c0.3,0,0.5,0,0.6,0.1s0.3,0.1,0.4,0.2s0.1,0.2,0.2,0.4c0,0.1,0,0.3,0,0.5v0.7
		c0,0.5,0,0.8,0,0.9s0.1,0.3,0.1,0.4H63C62.9,237.2,62.9,237.1,62.9,236.9z M62.8,235.8c-0.2,0.1-0.5,0.1-0.9,0.2
		c-0.2,0-0.4,0.1-0.5,0.1s-0.2,0.1-0.2,0.2c0,0.1-0.1,0.2-0.1,0.3c0,0.1,0.1,0.3,0.2,0.4s0.3,0.1,0.5,0.1c0.2,0,0.4,0,0.5-0.1
		c0.2-0.1,0.3-0.2,0.3-0.4c0.1-0.1,0.1-0.3,0.1-0.5V235.8z"/>
	<path d="M64.2,233.6V233h0.5v0.6H64.2z M64.2,237.3v-3.1h0.5v3.1H64.2z"/>
	<path d="M65.5,237.3v-3.1H66v0.4c0.2-0.3,0.6-0.5,1-0.5c0.2,0,0.4,0,0.5,0.1c0.2,0.1,0.3,0.2,0.4,0.3s0.1,0.2,0.2,0.4
		c0,0.1,0,0.3,0,0.5v1.9h-0.5v-1.9c0-0.2,0-0.4-0.1-0.5c0-0.1-0.1-0.2-0.2-0.3s-0.2-0.1-0.4-0.1c-0.2,0-0.4,0.1-0.6,0.2
		s-0.2,0.4-0.2,0.8v1.7H65.5z"/>
	<path d="M71.7,236.8l0.1,0.5c-0.1,0-0.3,0-0.4,0c-0.2,0-0.3,0-0.4-0.1s-0.2-0.1-0.2-0.2c0-0.1-0.1-0.3-0.1-0.6v-1.8h-0.4v-0.4h0.4
		v-0.8l0.5-0.3v1.1h0.5v0.4h-0.5v1.8c0,0.2,0,0.2,0,0.3s0,0.1,0.1,0.1s0.1,0,0.2,0C71.5,236.9,71.6,236.9,71.7,236.8z"/>
	<path d="M72.2,237.3v-3.1h0.5v0.5c0.1-0.2,0.2-0.4,0.3-0.4s0.2-0.1,0.3-0.1c0.2,0,0.4,0.1,0.5,0.2l-0.2,0.5
		c-0.1-0.1-0.3-0.1-0.4-0.1c-0.1,0-0.2,0-0.3,0.1c-0.1,0.1-0.2,0.2-0.2,0.3c-0.1,0.2-0.1,0.4-0.1,0.6v1.6H72.2z"/>
	<path d="M76.2,236.9c-0.2,0.2-0.4,0.3-0.6,0.4s-0.4,0.1-0.6,0.1c-0.3,0-0.6-0.1-0.8-0.3c-0.2-0.2-0.3-0.4-0.3-0.6
		c0-0.2,0-0.3,0.1-0.4c0.1-0.1,0.2-0.2,0.3-0.3s0.2-0.1,0.4-0.2c0.1,0,0.3-0.1,0.5-0.1c0.4-0.1,0.7-0.1,0.9-0.2c0-0.1,0-0.1,0-0.1
		c0-0.2,0-0.4-0.1-0.5c-0.1-0.1-0.3-0.2-0.6-0.2c-0.2,0-0.4,0-0.5,0.1c-0.1,0.1-0.2,0.2-0.3,0.5l-0.5-0.1c0-0.2,0.1-0.4,0.2-0.5
		s0.3-0.2,0.5-0.3c0.2-0.1,0.4-0.1,0.7-0.1c0.3,0,0.5,0,0.6,0.1s0.3,0.1,0.4,0.2s0.1,0.2,0.2,0.4c0,0.1,0,0.3,0,0.5v0.7
		c0,0.5,0,0.8,0,0.9s0.1,0.3,0.1,0.4h-0.6C76.3,237.2,76.2,237.1,76.2,236.9z M76.2,235.8c-0.2,0.1-0.5,0.1-0.9,0.2
		c-0.2,0-0.4,0.1-0.5,0.1s-0.2,0.1-0.2,0.2c0,0.1-0.1,0.2-0.1,0.3c0,0.1,0.1,0.3,0.2,0.4s0.3,0.1,0.5,0.1c0.2,0,0.4,0,0.5-0.1
		c0.2-0.1,0.3-0.2,0.3-0.4c0.1-0.1,0.1-0.3,0.1-0.5V235.8z"/>
	<path d="M79.5,236.2l0.5,0.1c-0.1,0.4-0.2,0.6-0.4,0.8c-0.2,0.2-0.5,0.3-0.9,0.3c-0.4,0-0.8-0.1-1-0.4c-0.3-0.3-0.4-0.7-0.4-1.2
		c0-0.3,0.1-0.6,0.2-0.9s0.3-0.4,0.5-0.6c0.2-0.1,0.5-0.2,0.7-0.2c0.3,0,0.6,0.1,0.8,0.3c0.2,0.2,0.4,0.4,0.4,0.7l-0.5,0.1
		c0-0.2-0.1-0.4-0.3-0.5s-0.3-0.2-0.4-0.2c-0.3,0-0.5,0.1-0.6,0.3c-0.2,0.2-0.2,0.5-0.2,0.9c0,0.4,0.1,0.7,0.2,0.9s0.4,0.3,0.6,0.3
		c0.2,0,0.4-0.1,0.5-0.2S79.5,236.4,79.5,236.2z"/>
	<path d="M82.6,236.3l0.5,0.1c-0.1,0.3-0.2,0.6-0.5,0.7s-0.5,0.3-0.9,0.3c-0.5,0-0.8-0.1-1.1-0.4s-0.4-0.7-0.4-1.2
		c0-0.5,0.1-0.9,0.4-1.2s0.6-0.4,1-0.4c0.4,0,0.8,0.1,1,0.4s0.4,0.7,0.4,1.2c0,0,0,0.1,0,0.1h-2.3c0,0.3,0.1,0.6,0.3,0.8
		s0.4,0.3,0.7,0.3c0.2,0,0.4-0.1,0.5-0.2S82.6,236.5,82.6,236.3z M80.9,235.5h1.7c0-0.3-0.1-0.5-0.2-0.6c-0.2-0.2-0.4-0.3-0.7-0.3
		c-0.2,0-0.4,0.1-0.6,0.2S80.9,235.2,80.9,235.5z"/>
	<path d="M87.6,236.3l0.5,0.1c-0.1,0.3-0.2,0.6-0.5,0.7s-0.5,0.3-0.9,0.3c-0.5,0-0.8-0.1-1.1-0.4s-0.4-0.7-0.4-1.2
		c0-0.5,0.1-0.9,0.4-1.2s0.6-0.4,1-0.4c0.4,0,0.8,0.1,1,0.4s0.4,0.7,0.4,1.2c0,0,0,0.1,0,0.1h-2.3c0,0.3,0.1,0.6,0.3,0.8
		s0.4,0.3,0.7,0.3c0.2,0,0.4-0.1,0.5-0.2S87.6,236.5,87.6,236.3z M85.9,235.5h1.7c0-0.3-0.1-0.5-0.2-0.6c-0.2-0.2-0.4-0.3-0.7-0.3
		c-0.2,0-0.4,0.1-0.6,0.2S85.9,235.2,85.9,235.5z"/>
	<path d="M88.8,237.3V233h0.5v4.3H88.8z"/>
	<path d="M92.3,236.3l0.5,0.1c-0.1,0.3-0.2,0.6-0.5,0.7s-0.5,0.3-0.9,0.3c-0.5,0-0.8-0.1-1.1-0.4s-0.4-0.7-0.4-1.2
		c0-0.5,0.1-0.9,0.4-1.2s0.6-0.4,1-0.4c0.4,0,0.8,0.1,1,0.4s0.4,0.7,0.4,1.2c0,0,0,0.1,0,0.1h-2.3c0,0.3,0.1,0.6,0.3,0.8
		s0.4,0.3,0.7,0.3c0.2,0,0.4-0.1,0.5-0.2S92.2,236.5,92.3,236.3z M90.6,235.5h1.7c0-0.3-0.1-0.5-0.2-0.6c-0.2-0.2-0.4-0.3-0.7-0.3
		c-0.2,0-0.4,0.1-0.6,0.2S90.6,235.2,90.6,235.5z"/>
	<path d="M93.5,237.3v-3.1H94v0.4c0.1-0.2,0.2-0.3,0.4-0.4c0.2-0.1,0.3-0.1,0.6-0.1c0.2,0,0.4,0,0.6,0.1s0.3,0.2,0.3,0.4
		c0.2-0.4,0.6-0.5,1-0.5c0.3,0,0.5,0.1,0.7,0.3c0.2,0.2,0.2,0.4,0.2,0.8v2.1h-0.5v-2c0-0.2,0-0.4-0.1-0.5c0-0.1-0.1-0.2-0.2-0.2
		s-0.2-0.1-0.3-0.1c-0.2,0-0.4,0.1-0.5,0.2s-0.2,0.4-0.2,0.7v1.8h-0.5v-2c0-0.2,0-0.4-0.1-0.5s-0.2-0.2-0.4-0.2
		c-0.1,0-0.3,0-0.4,0.1s-0.2,0.2-0.3,0.3s-0.1,0.4-0.1,0.7v1.6H93.5z"/>
	<path d="M100.6,236.3l0.5,0.1c-0.1,0.3-0.2,0.6-0.5,0.7s-0.5,0.3-0.9,0.3c-0.5,0-0.8-0.1-1.1-0.4s-0.4-0.7-0.4-1.2
		c0-0.5,0.1-0.9,0.4-1.2s0.6-0.4,1-0.4c0.4,0,0.8,0.1,1,0.4s0.4,0.7,0.4,1.2c0,0,0,0.1,0,0.1h-2.3c0,0.3,0.1,0.6,0.3,0.8
		s0.4,0.3,0.7,0.3c0.2,0,0.4-0.1,0.5-0.2S100.6,236.5,100.6,236.3z M98.9,235.5h1.7c0-0.3-0.1-0.5-0.2-0.6c-0.2-0.2-0.4-0.3-0.7-0.3
		c-0.2,0-0.4,0.1-0.6,0.2S98.9,235.2,98.9,235.5z"/>
	<path d="M101.9,237.3v-3.1h0.5v0.4c0.2-0.3,0.6-0.5,1-0.5c0.2,0,0.4,0,0.5,0.1c0.2,0.1,0.3,0.2,0.4,0.3s0.1,0.2,0.2,0.4
		c0,0.1,0,0.3,0,0.5v1.9h-0.5v-1.9c0-0.2,0-0.4-0.1-0.5c0-0.1-0.1-0.2-0.2-0.3s-0.2-0.1-0.4-0.1c-0.2,0-0.4,0.1-0.6,0.2
		s-0.2,0.4-0.2,0.8v1.7H101.9z"/>
	<path d="M106.3,236.8l0.1,0.5c-0.1,0-0.3,0-0.4,0c-0.2,0-0.3,0-0.4-0.1s-0.2-0.1-0.2-0.2c0-0.1-0.1-0.3-0.1-0.6v-1.8h-0.4v-0.4h0.4
		v-0.8l0.5-0.3v1.1h0.5v0.4h-0.5v1.8c0,0.2,0,0.2,0,0.3s0,0.1,0.1,0.1s0.1,0,0.2,0C106.2,236.9,106.2,236.9,106.3,236.8z"/>
	<path d="M106.6,236.4l0.5-0.1c0,0.2,0.1,0.4,0.2,0.5s0.3,0.2,0.6,0.2c0.2,0,0.4,0,0.5-0.1c0.1-0.1,0.2-0.2,0.2-0.3
		c0-0.1-0.1-0.2-0.2-0.3c-0.1,0-0.3-0.1-0.5-0.2c-0.4-0.1-0.7-0.2-0.8-0.3c-0.1-0.1-0.3-0.2-0.3-0.3c-0.1-0.1-0.1-0.3-0.1-0.4
		c0-0.1,0-0.3,0.1-0.4s0.1-0.2,0.3-0.3c0.1-0.1,0.2-0.1,0.3-0.2c0.1,0,0.3-0.1,0.5-0.1c0.2,0,0.5,0,0.6,0.1s0.3,0.2,0.4,0.3
		c0.1,0.1,0.1,0.3,0.2,0.5l-0.5,0.1c0-0.2-0.1-0.3-0.2-0.4s-0.3-0.1-0.5-0.1c-0.2,0-0.4,0-0.5,0.1s-0.2,0.2-0.2,0.3
		c0,0.1,0,0.1,0.1,0.2c0,0.1,0.1,0.1,0.2,0.1c0.1,0,0.2,0.1,0.5,0.1c0.4,0.1,0.6,0.2,0.8,0.2c0.1,0.1,0.3,0.2,0.3,0.3
		s0.1,0.3,0.1,0.5c0,0.2-0.1,0.3-0.2,0.5c-0.1,0.2-0.3,0.3-0.4,0.4c-0.2,0.1-0.4,0.1-0.7,0.1c-0.4,0-0.7-0.1-0.9-0.3
		S106.7,236.7,106.6,236.4z"/>
	<path d="M5.9,243c0-0.6,0.2-1,0.5-1.3c0.3-0.2,0.6-0.3,1-0.3c0.4,0,0.8,0.1,1,0.4c0.3,0.3,0.4,0.7,0.4,1.2c0,0.4-0.1,0.7-0.2,0.9
		s-0.3,0.4-0.5,0.5s-0.5,0.2-0.8,0.2c-0.4,0-0.8-0.1-1.1-0.4S5.9,243.5,5.9,243z M6.5,243c0,0.4,0.1,0.7,0.3,0.9s0.4,0.3,0.7,0.3
		c0.3,0,0.5-0.1,0.7-0.3s0.3-0.5,0.3-0.9c0-0.4-0.1-0.7-0.3-0.9s-0.4-0.3-0.7-0.3c-0.3,0-0.5,0.1-0.7,0.3S6.5,242.6,6.5,243z"/>
	<path d="M9.6,244.5v-2.7H9.1v-0.4h0.5v-0.3c0-0.2,0-0.4,0.1-0.5c0.1-0.1,0.1-0.2,0.3-0.3c0.1-0.1,0.3-0.1,0.5-0.1
		c0.1,0,0.3,0,0.5,0.1l-0.1,0.5c-0.1,0-0.2,0-0.3,0c-0.2,0-0.3,0-0.3,0.1s-0.1,0.2-0.1,0.4v0.3h0.6v0.4h-0.6v2.7H9.6z"/>
	<path d="M14.8,243.4l0.5,0.1c-0.1,0.4-0.2,0.6-0.4,0.8c-0.2,0.2-0.5,0.3-0.9,0.3c-0.4,0-0.8-0.1-1-0.4c-0.3-0.3-0.4-0.7-0.4-1.2
		c0-0.3,0.1-0.6,0.2-0.9s0.3-0.4,0.5-0.6c0.2-0.1,0.5-0.2,0.7-0.2c0.3,0,0.6,0.1,0.8,0.3c0.2,0.2,0.4,0.4,0.4,0.7l-0.5,0.1
		c0-0.2-0.1-0.4-0.3-0.5s-0.3-0.2-0.4-0.2c-0.3,0-0.5,0.1-0.6,0.3c-0.2,0.2-0.2,0.5-0.2,0.9c0,0.4,0.1,0.7,0.2,0.9s0.4,0.3,0.6,0.3
		c0.2,0,0.4-0.1,0.5-0.2S14.8,243.6,14.8,243.4z"/>
	<path d="M15.8,244.5v-4.3h0.5v1.5c0.2-0.3,0.6-0.4,0.9-0.4c0.2,0,0.4,0,0.6,0.1c0.2,0.1,0.3,0.2,0.4,0.4s0.1,0.4,0.1,0.7v2h-0.5v-2
		c0-0.3-0.1-0.5-0.2-0.6c-0.1-0.1-0.3-0.2-0.5-0.2c-0.2,0-0.3,0-0.4,0.1s-0.2,0.2-0.3,0.3s-0.1,0.3-0.1,0.6v1.7H15.8z"/>
	<path d="M21.3,243.5l0.5,0.1c-0.1,0.3-0.2,0.6-0.5,0.7s-0.5,0.3-0.9,0.3c-0.5,0-0.8-0.1-1.1-0.4S19,243.5,19,243
		c0-0.5,0.1-0.9,0.4-1.2s0.6-0.4,1-0.4c0.4,0,0.8,0.1,1,0.4s0.4,0.7,0.4,1.2c0,0,0,0.1,0,0.1h-2.3c0,0.3,0.1,0.6,0.3,0.8
		s0.4,0.3,0.7,0.3c0.2,0,0.4-0.1,0.5-0.2S21.2,243.7,21.3,243.5z M19.6,242.7h1.7c0-0.3-0.1-0.5-0.2-0.6c-0.2-0.2-0.4-0.3-0.7-0.3
		c-0.2,0-0.4,0.1-0.6,0.2S19.6,242.4,19.6,242.7z"/>
	<path d="M24.6,243.5l0.5,0.1c-0.1,0.3-0.2,0.6-0.5,0.7s-0.5,0.3-0.9,0.3c-0.5,0-0.8-0.1-1.1-0.4s-0.4-0.7-0.4-1.2
		c0-0.5,0.1-0.9,0.4-1.2s0.6-0.4,1-0.4c0.4,0,0.8,0.1,1,0.4s0.4,0.7,0.4,1.2c0,0,0,0.1,0,0.1h-2.3c0,0.3,0.1,0.6,0.3,0.8
		s0.4,0.3,0.7,0.3c0.2,0,0.4-0.1,0.5-0.2S24.5,243.7,24.6,243.5z M22.9,242.7h1.7c0-0.3-0.1-0.5-0.2-0.6c-0.2-0.2-0.4-0.3-0.7-0.3
		c-0.2,0-0.4,0.1-0.6,0.2S22.9,242.4,22.9,242.7z"/>
	<path d="M25.6,243.6l0.5-0.1c0,0.2,0.1,0.4,0.2,0.5s0.3,0.2,0.6,0.2c0.2,0,0.4,0,0.5-0.1c0.1-0.1,0.2-0.2,0.2-0.3
		c0-0.1-0.1-0.2-0.2-0.3c-0.1,0-0.3-0.1-0.5-0.2c-0.4-0.1-0.7-0.2-0.8-0.3c-0.1-0.1-0.3-0.2-0.3-0.3c-0.1-0.1-0.1-0.3-0.1-0.4
		c0-0.1,0-0.3,0.1-0.4s0.1-0.2,0.3-0.3c0.1-0.1,0.2-0.1,0.3-0.2c0.1,0,0.3-0.1,0.5-0.1c0.2,0,0.5,0,0.6,0.1s0.3,0.2,0.4,0.3
		c0.1,0.1,0.1,0.3,0.2,0.5l-0.5,0.1c0-0.2-0.1-0.3-0.2-0.4s-0.3-0.1-0.5-0.1c-0.2,0-0.4,0-0.5,0.1s-0.2,0.2-0.2,0.3
		c0,0.1,0,0.1,0.1,0.2c0,0.1,0.1,0.1,0.2,0.1c0.1,0,0.2,0.1,0.5,0.1c0.4,0.1,0.6,0.2,0.8,0.2c0.1,0.1,0.3,0.2,0.3,0.3
		s0.1,0.3,0.1,0.5c0,0.2-0.1,0.3-0.2,0.5c-0.1,0.2-0.3,0.3-0.4,0.4c-0.2,0.1-0.4,0.1-0.7,0.1c-0.4,0-0.7-0.1-0.9-0.3
		S25.7,243.9,25.6,243.6z"/>
	<path d="M31,243.5l0.5,0.1c-0.1,0.3-0.2,0.6-0.5,0.7s-0.5,0.3-0.9,0.3c-0.5,0-0.8-0.1-1.1-0.4s-0.4-0.7-0.4-1.2
		c0-0.5,0.1-0.9,0.4-1.2s0.6-0.4,1-0.4c0.4,0,0.8,0.1,1,0.4s0.4,0.7,0.4,1.2c0,0,0,0.1,0,0.1h-2.3c0,0.3,0.1,0.6,0.3,0.8
		s0.4,0.3,0.7,0.3c0.2,0,0.4-0.1,0.5-0.2S30.9,243.7,31,243.5z M29.2,242.7H31c0-0.3-0.1-0.5-0.2-0.6c-0.2-0.2-0.4-0.3-0.7-0.3
		c-0.2,0-0.4,0.1-0.6,0.2S29.2,242.4,29.2,242.7z"/>
	<path d="M32.3,244.5v-0.6h0.6v0.6H32.3z"/>
	<path d="M35.6,244.5v-4.3H37c0.3,0,0.6,0,0.8,0.1c0.2,0.1,0.5,0.2,0.6,0.3c0.2,0.2,0.4,0.4,0.5,0.7s0.2,0.6,0.2,1
		c0,0.3,0,0.6-0.1,0.9s-0.2,0.5-0.3,0.6s-0.2,0.3-0.4,0.4c-0.1,0.1-0.3,0.2-0.5,0.2s-0.4,0.1-0.7,0.1H35.6z M36.1,244h0.9
		c0.3,0,0.5,0,0.7-0.1s0.3-0.1,0.4-0.2c0.1-0.1,0.2-0.3,0.3-0.5s0.1-0.5,0.1-0.8c0-0.4-0.1-0.8-0.2-1s-0.3-0.4-0.5-0.5
		c-0.2-0.1-0.4-0.1-0.7-0.1h-0.9V244z"/>
	<path d="M39.6,243c0-0.6,0.2-1,0.5-1.3c0.3-0.2,0.6-0.3,1-0.3c0.4,0,0.8,0.1,1,0.4c0.3,0.3,0.4,0.7,0.4,1.2c0,0.4-0.1,0.7-0.2,0.9
		s-0.3,0.4-0.5,0.5s-0.5,0.2-0.8,0.2c-0.4,0-0.8-0.1-1.1-0.4S39.6,243.5,39.6,243z M40.2,243c0,0.4,0.1,0.7,0.3,0.9s0.4,0.3,0.7,0.3
		c0.3,0,0.5-0.1,0.7-0.3s0.3-0.5,0.3-0.9c0-0.4-0.1-0.7-0.3-0.9s-0.4-0.3-0.7-0.3c-0.3,0-0.5,0.1-0.7,0.3S40.2,242.6,40.2,243z"/>
	<path d="M44.8,244.5v-3.1h0.5v0.4c0.2-0.3,0.6-0.5,1-0.5c0.2,0,0.4,0,0.5,0.1c0.2,0.1,0.3,0.2,0.4,0.3s0.1,0.2,0.2,0.4
		c0,0.1,0,0.3,0,0.5v1.9h-0.5v-1.9c0-0.2,0-0.4-0.1-0.5c0-0.1-0.1-0.2-0.2-0.3s-0.2-0.1-0.4-0.1c-0.2,0-0.4,0.1-0.6,0.2
		s-0.2,0.4-0.2,0.8v1.7H44.8z"/>
	<path d="M48,243c0-0.6,0.2-1,0.5-1.3c0.3-0.2,0.6-0.3,1-0.3c0.4,0,0.8,0.1,1,0.4c0.3,0.3,0.4,0.7,0.4,1.2c0,0.4-0.1,0.7-0.2,0.9
		s-0.3,0.4-0.5,0.5s-0.5,0.2-0.8,0.2c-0.4,0-0.8-0.1-1.1-0.4S48,243.5,48,243z M48.5,243c0,0.4,0.1,0.7,0.3,0.9s0.4,0.3,0.7,0.3
		c0.3,0,0.5-0.1,0.7-0.3s0.3-0.5,0.3-0.9c0-0.4-0.1-0.7-0.3-0.9s-0.4-0.3-0.7-0.3c-0.3,0-0.5,0.1-0.7,0.3S48.5,242.6,48.5,243z"/>
	<path d="M52.7,244l0.1,0.5c-0.1,0-0.3,0-0.4,0c-0.2,0-0.3,0-0.4-0.1s-0.2-0.1-0.2-0.2c0-0.1-0.1-0.3-0.1-0.6v-1.8h-0.4v-0.4h0.4
		v-0.8l0.5-0.3v1.1h0.5v0.4h-0.5v1.8c0,0.2,0,0.2,0,0.3s0,0.1,0.1,0.1s0.1,0,0.2,0C52.5,244.1,52.6,244.1,52.7,244z"/>
	<path d="M56.9,243.4l0.5,0.1c-0.1,0.4-0.2,0.6-0.4,0.8c-0.2,0.2-0.5,0.3-0.9,0.3c-0.4,0-0.8-0.1-1-0.4c-0.3-0.3-0.4-0.7-0.4-1.2
		c0-0.3,0.1-0.6,0.2-0.9s0.3-0.4,0.5-0.6c0.2-0.1,0.5-0.2,0.7-0.2c0.3,0,0.6,0.1,0.8,0.3c0.2,0.2,0.4,0.4,0.4,0.7l-0.5,0.1
		c0-0.2-0.1-0.4-0.3-0.5s-0.3-0.2-0.4-0.2c-0.3,0-0.5,0.1-0.6,0.3c-0.2,0.2-0.2,0.5-0.2,0.9c0,0.4,0.1,0.7,0.2,0.9s0.4,0.3,0.6,0.3
		c0.2,0,0.4-0.1,0.5-0.2S56.8,243.6,56.9,243.4z"/>
	<path d="M57.6,243c0-0.6,0.2-1,0.5-1.3c0.3-0.2,0.6-0.3,1-0.3c0.4,0,0.8,0.1,1,0.4c0.3,0.3,0.4,0.7,0.4,1.2c0,0.4-0.1,0.7-0.2,0.9
		s-0.3,0.4-0.5,0.5s-0.5,0.2-0.8,0.2c-0.4,0-0.8-0.1-1.1-0.4S57.6,243.5,57.6,243z M58.2,243c0,0.4,0.1,0.7,0.3,0.9s0.4,0.3,0.7,0.3
		c0.3,0,0.5-0.1,0.7-0.3s0.3-0.5,0.3-0.9c0-0.4-0.1-0.7-0.3-0.9s-0.4-0.3-0.7-0.3c-0.3,0-0.5,0.1-0.7,0.3S58.2,242.6,58.2,243z"/>
	<path d="M61.2,244.5v-3.1h0.5v0.4c0.2-0.3,0.6-0.5,1-0.5c0.2,0,0.4,0,0.5,0.1c0.2,0.1,0.3,0.2,0.4,0.3s0.1,0.2,0.2,0.4
		c0,0.1,0,0.3,0,0.5v1.9h-0.5v-1.9c0-0.2,0-0.4-0.1-0.5c0-0.1-0.1-0.2-0.2-0.3s-0.2-0.1-0.4-0.1c-0.2,0-0.4,0.1-0.6,0.2
		s-0.2,0.4-0.2,0.8v1.7H61.2z"/>
	<path d="M64.3,243.6l0.5-0.1c0,0.2,0.1,0.4,0.2,0.5s0.3,0.2,0.6,0.2c0.2,0,0.4,0,0.5-0.1c0.1-0.1,0.2-0.2,0.2-0.3
		c0-0.1-0.1-0.2-0.2-0.3c-0.1,0-0.3-0.1-0.5-0.2c-0.4-0.1-0.7-0.2-0.8-0.3c-0.1-0.1-0.3-0.2-0.3-0.3c-0.1-0.1-0.1-0.3-0.1-0.4
		c0-0.1,0-0.3,0.1-0.4s0.1-0.2,0.3-0.3c0.1-0.1,0.2-0.1,0.3-0.2c0.1,0,0.3-0.1,0.5-0.1c0.2,0,0.5,0,0.6,0.1s0.3,0.2,0.4,0.3
		c0.1,0.1,0.1,0.3,0.2,0.5l-0.5,0.1c0-0.2-0.1-0.3-0.2-0.4s-0.3-0.1-0.5-0.1c-0.2,0-0.4,0-0.5,0.1s-0.2,0.2-0.2,0.3
		c0,0.1,0,0.1,0.1,0.2c0,0.1,0.1,0.1,0.2,0.1c0.1,0,0.2,0.1,0.5,0.1c0.4,0.1,0.6,0.2,0.8,0.2c0.1,0.1,0.3,0.2,0.3,0.3
		s0.1,0.3,0.1,0.5c0,0.2-0.1,0.3-0.2,0.5c-0.1,0.2-0.3,0.3-0.4,0.4c-0.2,0.1-0.4,0.1-0.7,0.1c-0.4,0-0.7-0.1-0.9-0.3
		S64.4,243.9,64.3,243.6z"/>
	<path d="M69.6,244.5v-0.5c-0.2,0.4-0.6,0.5-1,0.5c-0.2,0-0.4,0-0.5-0.1s-0.3-0.2-0.4-0.3c-0.1-0.1-0.1-0.2-0.2-0.4
		c0-0.1,0-0.3,0-0.5v-1.9H68v1.7c0,0.3,0,0.5,0,0.6c0,0.1,0.1,0.2,0.2,0.3c0.1,0.1,0.2,0.1,0.4,0.1s0.3,0,0.4-0.1
		c0.1-0.1,0.2-0.2,0.3-0.3s0.1-0.3,0.1-0.6v-1.7H70v3.1H69.6z"/>
	<path d="M70.9,244.5v-3.1h0.5v0.4c0.1-0.2,0.2-0.3,0.4-0.4c0.2-0.1,0.3-0.1,0.6-0.1c0.2,0,0.4,0,0.6,0.1s0.3,0.2,0.3,0.4
		c0.2-0.4,0.6-0.5,1-0.5c0.3,0,0.5,0.1,0.7,0.3c0.2,0.2,0.2,0.4,0.2,0.8v2.1h-0.5v-2c0-0.2,0-0.4-0.1-0.5c0-0.1-0.1-0.2-0.2-0.2
		s-0.2-0.1-0.3-0.1c-0.2,0-0.4,0.1-0.5,0.2s-0.2,0.4-0.2,0.7v1.8h-0.5v-2c0-0.2,0-0.4-0.1-0.5s-0.2-0.2-0.4-0.2
		c-0.1,0-0.3,0-0.4,0.1s-0.2,0.2-0.3,0.3s-0.1,0.4-0.1,0.7v1.6H70.9z"/>
	<path d="M78,243.5l0.5,0.1c-0.1,0.3-0.2,0.6-0.5,0.7s-0.5,0.3-0.9,0.3c-0.5,0-0.8-0.1-1.1-0.4s-0.4-0.7-0.4-1.2
		c0-0.5,0.1-0.9,0.4-1.2s0.6-0.4,1-0.4c0.4,0,0.8,0.1,1,0.4s0.4,0.7,0.4,1.2c0,0,0,0.1,0,0.1h-2.3c0,0.3,0.1,0.6,0.3,0.8
		s0.4,0.3,0.7,0.3c0.2,0,0.4-0.1,0.5-0.2S77.9,243.7,78,243.5z M76.3,242.7H78c0-0.3-0.1-0.5-0.2-0.6c-0.2-0.2-0.4-0.3-0.7-0.3
		c-0.2,0-0.4,0.1-0.6,0.2S76.3,242.4,76.3,242.7z"/>
	<path d="M79.3,244.5v-0.6h0.6v0.6H79.3z"/>
</g>
<path id="path196_2_" class="st59" d="M37.4,310c0,0-2.2-57.1-1.8-69.3s0.6-23.3,0.9-25.6c2.5-22,6-44,11.4-65.5c0.8,6,0,12-0.2,18
	c-0.6,15.8-1.1,31.6-2,47.5c-0.1,2.5-0.5,11.7-1.3,25.7c-0.8,14-4,69.3-4,69.3c-0.1,2-0.3,4-0.4,5.9c-0.4,2.5-0.9,5.1-1.5,7.6
	c-0.5-2.5-0.8-5-0.8-7.5C37.6,313.9,37.5,311.9,37.4,310z"/>
<path id="path190_2_" class="st59" d="M16.4,183.9c1.1-11.8,1.9-23.7,5.4-35.1c1.2-3.1,2.4-6.9,5.6-8.5c3.1-1,5.5,2,6.9,4.4
	c4.5,7.2,5.3,16,4.2,24.3c-1.9,15.4-5.2,30.9-7.2,45.9s0.4,98.9,0.5,101c0.9,19.2-0.2,38.7-5.4,57.3c-1.9,5.7-3.8,11.7-6.8,17
	c-3.7,6.8-7.4,9.8-8,10.3c-0.9-1.5-2.4-2.8-2.1-4.7c0-4.4,1.3-8.7,2.2-13l1.7-6.7c5.5-19.4,7-39.8,6.7-59.9
	c0-10.9-0.9-14.5-2.8-55.3C15.2,215.3,15.9,194.4,16.4,183.9z"/>
<rect x="266" y="412.2" class="st60" width="7.1" height="7.1"/>
<rect x="258.9" y="412.2" class="st61" width="7.1" height="7.1"/>
<rect x="315.4" y="412.2" class="st62" width="7.1" height="7.1"/>
<rect x="301.3" y="412.2" class="st25" width="14.1" height="7.1"/>
<rect x="294.2" y="412.2" class="st63" width="7.1" height="7.1"/>
<rect x="287.2" y="412.2" class="st64" width="7.1" height="7.1"/>
<rect x="273" y="412.2" class="st65" width="14.1" height="7.1"/>
<rect x="266" y="405.2" class="st66" width="7.1" height="7.1"/>
<rect x="244.8" y="405.2" class="st67" width="7.1" height="7.1"/>
<rect x="322.5" y="405.2" class="st68" width="7.1" height="7.1"/>
<rect x="280.1" y="405.2" class="st69" width="7.1" height="7.1"/>
<rect x="273" y="405.2" class="st60" width="7.1" height="7.1"/>
<rect x="266" y="398.1" class="st60" width="7.1" height="7.1"/>
<rect x="258.9" y="398.1" class="st70" width="7.1" height="14.1"/>
<rect x="251.9" y="398.1" class="st71" width="7.1" height="14.1"/>
<rect x="244.8" y="398.1" class="st25" width="7.1" height="7.1"/>
<rect x="237.7" y="398.1" class="st72" width="7.1" height="7.1"/>
<rect x="329.5" y="398.1" class="st73" width="7.1" height="7.1"/>
<rect x="280.1" y="398.1" class="st74" width="7.1" height="7.1"/>
<rect x="266" y="391" class="st75" width="7.1" height="7.1"/>
<rect x="258.9" y="391" class="st76" width="7.1" height="7.1"/>
<rect x="251.9" y="391" class="st77" width="7.1" height="7.1"/>
<rect x="244.8" y="391" class="st78" width="7.1" height="7.1"/>
<rect x="237.7" y="391" class="st79" width="7.1" height="7.1"/>
<rect x="230.7" y="391" class="st80" width="7.1" height="7.1"/>
<rect x="322.5" y="391" class="st81" width="7.1" height="14.1"/>
<rect x="280.1" y="391" class="st82" width="7.1" height="7.1"/>
<rect x="273" y="391" class="st65" width="7.1" height="14.1"/>
<rect x="258.9" y="384" class="st83" width="7.1" height="7.1"/>
<rect x="223.6" y="384" class="st84" width="7.1" height="14.1"/>
<rect x="336.6" y="384" class="st85" width="7.1" height="14.1"/>
<rect x="329.5" y="384" class="st53" width="7.1" height="14.1"/>
<rect x="216.6" y="376.9" class="st86" width="7.1" height="7.1"/>
<rect x="322.5" y="376.9" class="st87" width="7.1" height="14.1"/>
<rect x="209.5" y="369.9" class="st88" width="7.1" height="7.1"/>
<rect x="336.6" y="369.9" class="st89" width="7.1" height="14.1"/>
<rect x="329.5" y="369.9" class="st90" width="7.1" height="14.1"/>
<rect x="209.5" y="362.8" class="st77" width="7.1" height="7.1"/>
<rect x="322.5" y="362.8" class="st91" width="7.1" height="14.1"/>
<rect x="266" y="355.8" class="st92" width="7.1" height="7.1"/>
<rect x="251.9" y="355.8" class="st93" width="14.1" height="7.1"/>
<rect x="244.8" y="355.8" class="st94" width="7.1" height="7.1"/>
<rect x="202.4" y="355.8" class="st95" width="7.1" height="7.1"/>
<rect x="336.6" y="355.8" class="st96" width="7.1" height="14.1"/>
<rect x="329.5" y="348.7" class="st97" width="7.1" height="21.2"/>
<rect x="266" y="341.6" class="st86" width="7.1" height="7.1"/>
<rect x="258.9" y="341.6" class="st98" width="7.1" height="7.1"/>
<rect x="251.9" y="341.6" class="st99" width="7.1" height="7.1"/>
<rect x="244.8" y="341.6" class="st100" width="7.1" height="7.1"/>
<rect x="237.7" y="341.6" class="st101" width="7.1" height="21.2"/>
<rect x="216.6" y="341.6" class="st102" width="7.1" height="7.1"/>
<rect x="209.5" y="341.6" class="st86" width="7.1" height="21.2"/>
<rect x="202.4" y="341.6" class="st103" width="7.1" height="14.1"/>
<rect x="336.6" y="341.6" class="st104" width="7.1" height="14.1"/>
<rect x="287.2" y="341.6" class="st105" width="7.1" height="21.2"/>
<polygon class="st106" points="287.2,355.8 280.1,355.8 280.1,348.7 273,348.7 273,341.6 287.2,341.6 "/>
<rect x="251.9" y="334.6" class="st92" width="14.1" height="7.1"/>
<rect x="237.7" y="334.6" class="st92" width="7.1" height="7.1"/>
<rect x="202.4" y="334.6" class="st107" width="7.1" height="7.1"/>
<rect x="329.5" y="334.6" class="st108" width="7.1" height="14.1"/>
<rect x="273" y="334.6" class="st92" width="14.1" height="7.1"/>
<polygon class="st19" points="230.7,348.7 223.6,348.7 223.6,341.6 216.6,341.6 216.6,334.6 230.7,334.6 "/>
<rect x="244.8" y="327.5" class="st109" width="7.1" height="14.1"/>
<rect x="237.7" y="327.5" class="st110" width="7.1" height="7.1"/>
<rect x="336.6" y="327.5" class="st111" width="7.1" height="14.1"/>
<rect x="202.4" y="320.5" class="st112" width="7.1" height="14.1"/>
<rect x="329.5" y="320.5" class="st51" width="7.1" height="14.1"/>
<rect x="315.4" y="320.5" class="st113" width="14.1" height="7.1"/>
<polygon class="st114" points="209.5,320.5 273,320.5 273,341.6 266,341.6 266,334.6 251.9,334.6 251.9,327.5 237.7,327.5 
	237.7,362.8 273,362.8 273,391 266,391 266,384 258.9,384 258.9,391 230.7,391 230.7,384 223.6,384 223.6,376.9 216.6,376.9 
	216.6,362.8 223.6,362.8 223.6,348.7 230.7,348.7 230.7,334.6 216.6,334.6 216.6,341.6 209.5,341.6 "/>
<polygon class="st115" points="273,320.5 315.4,320.5 315.4,327.5 329.5,327.5 329.5,362.8 322.5,362.8 322.5,412.2 287.2,412.2 
	287.2,391 273,391 273,362.8 294.2,362.8 294.2,341.6 287.2,341.6 287.2,334.6 273,334.6 "/>
<rect x="258.9" y="313.4" class="st116" width="14.1" height="7.1"/>
<rect x="244.8" y="313.4" class="st22" width="14.1" height="7.1"/>
<rect x="230.7" y="313.4" class="st117" width="14.1" height="7.1"/>
<rect x="216.6" y="313.4" class="st70" width="14.1" height="7.1"/>
<rect x="209.5" y="313.4" class="st118" width="7.1" height="7.1"/>
<rect x="202.4" y="313.4" class="st119" width="7.1" height="7.1"/>
<rect x="336.6" y="313.4" class="st40" width="7.1" height="14.1"/>
<rect x="301.3" y="313.4" class="st120" width="7.1" height="7.1"/>
<rect x="287.2" y="313.4" class="st121" width="14.1" height="7.1"/>
<rect x="273" y="313.4" class="st122" width="14.1" height="7.1"/>
<rect x="202.4" y="306.3" class="st123" width="7.1" height="7.1"/>
<rect x="329.5" y="306.3" class="st37" width="7.1" height="14.1"/>
<rect x="202.4" y="299.3" class="st124" width="7.1" height="7.1"/>
<rect x="322.5" y="299.3" class="st125" width="7.1" height="21.2"/>
<rect x="209.5" y="292.2" class="st15" width="7.1" height="7.1"/>
<rect x="329.5" y="292.2" class="st126" width="7.1" height="14.1"/>
<rect x="209.5" y="285.2" class="st61" width="7.1" height="7.1"/>
<rect x="336.6" y="285.2" class="st41" width="7.1" height="28.2"/>
<rect x="216.6" y="278.1" class="st127" width="7.1" height="7.1"/>
<rect x="223.6" y="271" class="st15" width="7.1" height="7.1"/>
<rect x="329.5" y="271" class="st36" width="7.1" height="21.2"/>
<rect x="322.5" y="271" class="st128" width="7.1" height="7.1"/>
<rect x="315.4" y="271" class="st129" width="7.1" height="7.1"/>
<rect x="308.3" y="271" class="st130" width="7.1" height="7.1"/>
<rect x="301.3" y="271" class="st131" width="7.1" height="7.1"/>
<polygon points="301.3,271 301.3,278.1 329.5,278.1 329.5,299.3 322.5,299.3 322.5,320.5 308.3,320.5 308.3,313.4 209.5,313.4 
	209.5,299.3 216.6,299.3 216.6,285.2 223.6,285.2 223.6,278.1 230.7,278.1 230.7,271 "/>
<rect x="266" y="264" class="st54" width="14.1" height="7.1"/>
<rect x="251.9" y="264" class="st43" width="14.1" height="7.1"/>
<rect x="244.8" y="264" class="st132" width="7.1" height="7.1"/>
<rect x="237.7" y="264" class="st133" width="7.1" height="7.1"/>
<rect x="230.7" y="264" class="st134" width="7.1" height="7.1"/>
<rect x="223.6" y="264" class="st135" width="7.1" height="7.1"/>
<rect x="336.6" y="264" class="st136" width="7.1" height="21.2"/>
<rect x="329.5" y="264" class="st137" width="7.1" height="7.1"/>
<rect x="280.1" y="264" class="st138" width="7.1" height="7.1"/>
<rect x="237.7" y="256.9" class="st139" width="7.1" height="7.1"/>
<rect x="336.6" y="256.9" class="st140" width="7.1" height="7.1"/>
<rect x="329.5" y="256.9" class="st141" width="7.1" height="7.1"/>
<rect x="251.9" y="249.9" class="st142" width="7.1" height="7.1"/>
<rect x="244.8" y="249.9" class="st143" width="7.1" height="7.1"/>
<rect x="329.5" y="249.9" class="st144" width="7.1" height="7.1"/>
<rect x="322.5" y="249.9" class="st145" width="7.1" height="7.1"/>
<rect x="280.1" y="249.9" class="st146" width="7.1" height="14.1"/>
<polygon class="st39" points="258.9,249.9 280.1,249.9 280.1,264 244.8,264 244.8,256.9 258.9,256.9 "/>
<polygon class="st147" points="322.5,249.9 322.5,256.9 329.5,256.9 329.5,271 287.2,271 287.2,249.9 "/>
<rect x="266" y="242.8" class="st148" width="7.1" height="7.1"/>
<rect x="258.9" y="242.8" class="st143" width="7.1" height="7.1"/>
<rect x="315.4" y="242.8" class="st149" width="7.1" height="7.1"/>
<rect x="308.3" y="242.8" class="st150" width="7.1" height="7.1"/>
<rect x="294.2" y="242.8" class="st145" width="14.1" height="7.1"/>
<rect x="287.2" y="242.8" class="st151" width="7.1" height="7.1"/>
<rect x="280.1" y="242.8" class="st152" width="7.1" height="7.1"/>
<rect x="273" y="242.8" class="st153" width="7.1" height="7.1"/>
<rect x="266" y="348.7" class="st154" width="7.1" height="7.1"/>
<rect x="258.9" y="348.7" class="st155" width="7.1" height="7.1"/>
<rect x="244.8" y="348.7" class="st156" width="14.1" height="7.1"/>
<rect x="216.6" y="348.7" class="st157" width="7.1" height="14.1"/>
<polygon class="st158" points="287.2,362.8 273,362.8 273,348.7 280.1,348.7 280.1,355.8 287.2,355.8 "/>
<path id="path120_1_" class="st147" d="M278,44.9c18.3-2.6,37.1,1.6,53.4,10.2l0,0.3c-0.7,6.2-1,12.4-1,18.6
	c-16.4-1.3-32.9-2.9-49.3-4.1c0.6-8.4,0.6-16.8,1-25.1C280.6,44.8,279.3,44.8,278,44.9z"/>
<path id="path122_1_" class="st39" d="M231.2,66.6C244.1,54.8,260.7,47,278,44.9c1.3-0.1,2.6-0.1,3.9-0.1c-0.3,8.4-0.4,16.8-1,25.1
	C264.4,68.8,247.8,67.3,231.2,66.6z"/>
<path id="path124_1_" class="st45" d="M330.3,74c0-6.2,0.4-12.5,1-18.6c2.3,1.3,4.6,2.7,6.8,4.2c-2,28.8-3.3,57.6-5.1,86.4
	c-1.1,20.7-2.7,41.5-3.5,62.2v0.3c-1.2,0.6-2.4,1.1-3.5,1.7c1.9-29.6,3.6-59.1,5.5-88.7c-1.2-0.1-2.3-0.1-3.5-0.2
	C328.7,105.5,329.8,89.7,330.3,74z"/>
<path id="path126_1_" class="st30" d="M338.1,59.6c2.3,1.6,4.6,3.3,6.6,5.2c-2.7,46.3-5.3,92.6-8.2,138.9c-1.8,2.2-4.6,3.2-7.1,4.5
	c0.8-20.8,2.4-41.5,3.5-62.2C334.9,117.2,336.1,88.3,338.1,59.6z"/>
<path id="path128_1_" d="M203.9,116.5c2.9-19.1,13-36.9,27.2-49.9c16.6,0.7,33.2,2.2,49.8,3.3c16.5,1.2,32.9,2.8,49.3,4.1
	c-0.5,15.8-1.6,31.5-2.3,47.3c-16.3-0.7-32.7-1.3-49-2C254,118.3,229,117.3,203.9,116.5z"/>
<path id="path166_1_" class="st115" d="M279,214.6c0,0,0.1-89.7-0.1-95.3c16.3,0.7,32.7,1.3,49,2c1.2,0,2.3,0.1,3.5,0.2
	c-1.8,29.6-3.6,59.1-5.5,88.7c-8.8,4.1-18.3,6.9-28,7.9c-5.4,0.3-10.9,1.3-16.2-0.6L279,214.6z"/>
<path id="path192_2_" class="st159" d="M279,214.6l2.8,2.9c-3,0.6-6-0.2-8.8-0.9c-1.6-0.2-3.3-0.4-4.9-0.7c-2.6-0.6-5.1-1.3-7.6-2.3
	c-2.1-0.4-4.1-1.7-6.2-2.2l0,0c-1.2-0.6-2.4-1.4-3.6-2.1c-3.5-1.5-6.8-3.6-10-5.6c-0.9-0.7-1.9-1.4-2.8-2.2
	c-13.4-10-24.3-23.9-29.8-39.7c-0.4-1.1-0.9-2.3-1.3-3.4c-0.1-0.2-1.4-4.8-1.9-6.6l-0.2-0.8c-0.9-3-1.1-6.2-1.5-9.3
	c-0.1-0.8-0.2-2.3-0.3-3.1c-0.3-7.4-0.4-14.9,1.1-22.2c25,0.8,50,1.8,75,2.8C279.1,124.9,279,214.6,279,214.6z"/>
<g id="text_kopia">
	<defs>
		<circle id="SVGID_1_" cx="290" cy="131.3" r="87.3"/>
	</defs>
	<clipPath id="SVGID_2_">
		<use xlink:href="#SVGID_1_"  style="overflow:visible;"/>
	</clipPath>
	<g class="st160">
		<path d="M220.6,156.3l3.8,0.5c-0.6,2.2-1.7,4-3.3,5.2s-3.7,1.8-6.2,1.8c-3.2,0-5.7-1-7.6-2.9c-1.9-2-2.8-4.7-2.8-8.3
			c0-3.7,0.9-6.5,2.8-8.5s4.3-3,7.3-3c2.9,0,5.3,1,7.1,3s2.8,4.8,2.8,8.4c0,0.2,0,0.5,0,1h-16.2c0.1,2.4,0.8,4.2,2,5.5
			s2.7,1.9,4.6,1.9c1.4,0,2.5-0.4,3.5-1.1S220,157.8,220.6,156.3z M208.5,150.3h12.2c-0.2-1.8-0.6-3.2-1.4-4.1
			c-1.2-1.4-2.7-2.1-4.6-2.1c-1.7,0-3.1,0.6-4.3,1.7S208.6,148.4,208.5,150.3z"/>
		<path d="M229,163.3v-21.8h3.3v3.3c0.8-1.5,1.6-2.6,2.3-3.1c0.7-0.5,1.5-0.7,2.4-0.7c1.2,0,2.5,0.4,3.8,1.2l-1.3,3.4
			c-0.9-0.5-1.8-0.8-2.7-0.8c-0.8,0-1.5,0.2-2.2,0.7s-1.1,1.2-1.4,2c-0.4,1.3-0.6,2.7-0.6,4.3v11.4H229z"/>
		<path d="M254.7,137.5v-4.2h3.7v4.2H254.7z M254.7,163.3v-21.8h3.7v21.8H254.7z"/>
		<path d="M278.3,155.3l3.6,0.5c-0.4,2.5-1.4,4.5-3,5.9s-3.6,2.1-6,2.1c-3,0-5.4-1-7.2-2.9s-2.7-4.7-2.7-8.4c0-2.4,0.4-4.4,1.2-6.2
			s2-3.1,3.6-4s3.3-1.3,5.2-1.3c2.4,0,4.3,0.6,5.8,1.8s2.5,2.9,2.9,5.1l-3.6,0.6c-0.3-1.5-0.9-2.6-1.8-3.3s-1.9-1.1-3.1-1.1
			c-1.9,0-3.4,0.7-4.5,2s-1.7,3.4-1.7,6.3c0,2.9,0.6,5.1,1.7,6.4s2.6,2,4.4,2c1.4,0,2.7-0.4,3.6-1.3S278,157.1,278.3,155.3z"/>
		<path d="M300,156.3l3.8,0.5c-0.6,2.2-1.7,4-3.3,5.2s-3.7,1.8-6.2,1.8c-3.2,0-5.7-1-7.6-2.9c-1.9-2-2.8-4.7-2.8-8.3
			c0-3.7,0.9-6.5,2.8-8.5s4.3-3,7.3-3c2.9,0,5.3,1,7.1,3s2.8,4.8,2.8,8.4c0,0.2,0,0.5,0,1h-16.2c0.1,2.4,0.8,4.2,2,5.5
			s2.7,1.9,4.6,1.9c1.4,0,2.5-0.4,3.5-1.1S299.4,157.8,300,156.3z M287.8,150.3H300c-0.2-1.8-0.6-3.2-1.4-4.1
			c-1.2-1.4-2.7-2.1-4.6-2.1c-1.7,0-3.1,0.6-4.3,1.7S288,148.4,287.8,150.3z"/>
		<path d="M232.3,206.7l3.8,0.5c-0.6,2.2-1.7,4-3.3,5.2s-3.7,1.8-6.2,1.8c-3.2,0-5.7-1-7.6-2.9c-1.9-2-2.8-4.7-2.8-8.3
			c0-3.7,0.9-6.5,2.8-8.5s4.3-3,7.3-3c2.9,0,5.3,1,7.1,3s2.8,4.8,2.8,8.4c0,0.2,0,0.5,0,1h-16.2c0.1,2.4,0.8,4.2,2,5.5
			s2.7,1.9,4.6,1.9c1.4,0,2.5-0.4,3.5-1.1S231.7,208.2,232.3,206.7z M220.1,200.7h12.2c-0.2-1.8-0.6-3.2-1.4-4.1
			c-1.2-1.4-2.7-2.1-4.6-2.1c-1.7,0-3.1,0.6-4.3,1.7S220.3,198.8,220.1,200.7z"/>
		<path d="M240.7,213.7v-21.8h3.3v3.1c1.6-2.4,3.9-3.6,6.9-3.6c1.3,0,2.5,0.2,3.6,0.7c1.1,0.5,1.9,1.1,2.5,1.9s0.9,1.7,1.1,2.7
			c0.1,0.7,0.2,1.9,0.2,3.6v13.4h-3.7v-13.2c0-1.5-0.1-2.6-0.4-3.4s-0.8-1.3-1.5-1.8s-1.6-0.7-2.6-0.7c-1.6,0-2.9,0.5-4.1,1.5
			s-1.7,2.9-1.7,5.7v11.9H240.7z"/>
		<path d="M272.1,210.4l0.5,3.3c-1,0.2-2,0.3-2.8,0.3c-1.3,0-2.4-0.2-3.1-0.6s-1.3-1-1.6-1.7s-0.5-2.1-0.5-4.4v-12.5H262v-2.9h2.7
			v-5.4l3.7-2.2v7.6h3.7v2.9h-3.7v12.7c0,1.1,0.1,1.7,0.2,2s0.3,0.5,0.6,0.7c0.3,0.2,0.7,0.3,1.3,0.3
			C270.9,210.5,271.5,210.5,272.1,210.4z"/>
		<path d="M274.3,207.2l3.7-0.6c0.2,1.5,0.8,2.6,1.7,3.4s2.2,1.2,3.9,1.2c1.7,0,3-0.3,3.8-1s1.2-1.5,1.2-2.4c0-0.8-0.4-1.5-1.1-2
			c-0.5-0.3-1.8-0.7-3.8-1.3c-2.7-0.7-4.6-1.3-5.6-1.8c-1-0.5-1.8-1.2-2.4-2.1s-0.8-1.9-0.8-2.9c0-1,0.2-1.9,0.7-2.7
			c0.4-0.8,1-1.5,1.8-2.1c0.6-0.4,1.4-0.8,2.3-1.1s2.1-0.4,3.2-0.4c1.7,0,3.2,0.2,4.5,0.7c1.3,0.5,2.2,1.2,2.9,2s1,2,1.3,3.4
			l-3.6,0.5c-0.2-1.1-0.6-2-1.4-2.6c-0.8-0.6-1.9-0.9-3.3-0.9c-1.7,0-2.9,0.3-3.6,0.8s-1.1,1.2-1.1,2c0,0.5,0.2,0.9,0.5,1.3
			c0.3,0.4,0.8,0.7,1.4,1c0.4,0.1,1.5,0.5,3.3,0.9c2.6,0.7,4.4,1.3,5.5,1.7c1,0.4,1.8,1.1,2.4,1.9s0.9,1.9,0.9,3.2
			c0,1.2-0.4,2.4-1.1,3.5c-0.7,1.1-1.8,1.9-3.1,2.5s-2.9,0.9-4.6,0.9c-2.8,0-5-0.6-6.5-1.8C275.6,211.2,274.7,209.5,274.3,207.2z"/>
	</g>
</g>
<polygon class="st161" points="120.2,227.5 157.7,264.4 160.2,261.8 123.4,225.6 160.2,189.3 157.7,186.7 120.2,223.6 "/>
<polygon points="155,266.9 164.3,268.5 162.7,259.1 "/>
<polygon points="155,184.2 164.3,182.7 162.7,192 "/>
<circle class="st162" cx="107.9" cy="225.6" r="13.1"/>
<path class="st163" d="M107.9,239.6c-7.8,0-14-6.3-14-14s6.3-14,14-14s14,6.3,14,14S115.7,239.6,107.9,239.6z M119.7,225.6
	c0-6.5-5.5-11.4-11.7-11.4s-11.4,5.1-11.4,11.4s5.1,11.4,11.4,11.4S119.7,232.1,119.7,225.6z"/>
</svg>
