<?xml version="1.0" encoding="utf-8"?>
<!-- Generator: Adobe Illustrator 22.1.0, SVG Export Plug-In . SVG Version: 6.00 Build 0)  -->
<svg version="1.1" xmlns="http://www.w3.org/2000/svg" xmlns:xlink="http://www.w3.org/1999/xlink" x="0px" y="0px"
	 viewBox="0 0 425.197 63.779" style="enable-background:new 0 0 425.197 63.779;" xml:space="preserve">
<style type="text/css">
	.st0{fill:none;stroke:#000000;stroke-width:0.25;stroke-linecap:round;stroke-linejoin:round;}
	.st1{fill:none;stroke:#000000;stroke-width:0.75;stroke-linecap:round;stroke-linejoin:round;}
	.st2{fill:#808080;}
	.st3{fill:#808080;stroke:#000000;stroke-miterlimit:10;}
	.st4{fill:none;stroke:#000000;stroke-linecap:round;stroke-linejoin:round;}
	.st5{fill:none;stroke:#000000;stroke-width:0.75;stroke-linecap:round;stroke-linejoin:round;stroke-dasharray:1,2.5;}
</style>
<g id="Default">
	<rect x="85.04" class="st0" width="85.039" height="63.78"/>
	<rect x="340.158" class="st0" width="85.039" height="63.78"/>
	<rect x="170.079" class="st0" width="85.039" height="63.78"/>
	<path class="st1" d="M226.772,42.52c0-7.828-6.345-14.173-14.173-14.173c-7.828,0-14.173,6.346-14.173,14.173
		c0,7.828,6.346,14.173,14.173,14.173C220.427,56.693,226.772,50.348,226.772,42.52z"/>
	
		<ellipse transform="matrix(0.7071 -0.7071 0.7071 0.7071 57.11 222.9158)" class="st1" cx="297.638" cy="42.52" rx="21.26" ry="21.26"/>
	<rect x="255.119" class="st0" width="85.04" height="63.78"/>
	
		<ellipse transform="matrix(0.7071 -0.7071 0.7071 0.7071 88.2444 298.0807)" class="st1" cx="403.937" cy="42.52" rx="21.26" ry="21.26"/>
	<path class="st1" d="M22.678,11.339C22.678,5.077,17.601,0,11.339,0C5.077,0,0.001,5.077,0.001,11.339s5.077,11.338,11.338,11.338
		C17.601,22.677,22.678,17.601,22.678,11.339z"/>
	<rect x="0.001" class="st0" width="85.039" height="63.78"/>
	<path class="st1" d="M113.386,25.512c0-7.827-6.345-14.173-14.173-14.173c-7.828,0-14.173,6.346-14.173,14.173
		c0,7.828,6.345,14.173,14.173,14.173C107.041,39.685,113.386,33.34,113.386,25.512z"/>
</g>
<g id="Layer_01">
	<path class="st2" d="M99.213,59.528c0-3.68,0-7.36,0-11.041c0-1.84,0-3.68,0-5.52c0-0.92,0-1.84,0-2.76
		c0-0.196-0.196-0.519,0.152-0.522c0.21-0.002,0.419-0.009,0.629-0.021c0.431-0.023,0.857-0.067,1.284-0.129
		c3.726-0.549,7.076-2.554,9.319-5.58c1.137-1.532,1.895-3.133,2.36-4.983c0.212-0.843,0.345-1.688,0.4-2.556
		c0.013-0.207,0.022-0.414,0.026-0.622c0.002-0.095-0.157-0.282,0.031-0.282c0.114,0,0.227,0,0.34,0c0.453,0,0.906,0,1.359,0
		c7.306,0,14.611,0,21.916,0c3.653,0,7.306,0,10.958,0c1.827,0,3.653,0,5.48,0c0.457,0,0.913,0,1.37,0c0.229,0,0.456,0,0.685,0
		c0.114,0,0.228,0,0.342,0c0.201,0,0.04,0.199,0.04,0.302c0,0.913,0,1.826,0,2.739c0,7.306,0,14.611,0,21.917
		c0,1.826,0,3.653,0,5.479c0,0.914,0,1.827,0,2.74c0,0.229,0,0.457,0,0.685c0,0.354-0.332,0.154-0.531,0.154
		c-0.457,0-0.913,0-1.37,0c-3.653,0-7.306,0-10.958,0C128.436,59.528,113.824,59.528,99.213,59.528z"/>
	<path class="st2" d="M310.394,25.512c4.359,0,8.719,0,13.078,0c0.545,0,1.09,0,1.635,0c0.272,0,0.545,0,0.817,0
		c0.232,0,0.061,0.228,0.061,0.349c0,0.136,0,0.272,0,0.409c0,1.09,0,2.18,0,3.27c0,2.18,0,4.359,0,6.539c0,4.359,0,8.719,0,13.078
		c0,2.18,0,4.359,0,6.539c0,1.09,0,2.18,0,3.269c0,0.241,0.123,0.564-0.254,0.564c-0.272,0-0.545,0-0.817,0c-0.545,0-1.09,0-1.635,0
		c-2.168,0-4.335,0-6.503,0c-1.084,0-2.168,0-3.252,0c-0.542,0-1.084,0-1.626,0c-0.271,0-0.542,0-0.813,0
		c-0.191,0-0.826,0.105-0.536-0.117c3.724-2.846,5.986-6.079,7.383-10.552C320.615,40.265,317.596,30.914,310.394,25.512z"/>
	<path class="st2" d="M284.882,59.528c-4.359,0-8.719,0-13.078,0c-0.545,0-1.09,0-1.635,0c-0.272,0-0.545,0-0.817,0
		c-0.232,0-0.06-0.227-0.06-0.349c0-0.136,0-0.272,0-0.409c0-1.09,0-2.18,0-3.27c0-2.18,0-4.359,0-6.539c0-4.359,0-8.719,0-13.078
		c0-2.18,0-4.359,0-6.539c0-1.09,0-2.18,0-3.27c0-0.241-0.123-0.563,0.254-0.563c0.272,0,0.545,0,0.817,0c0.545,0,1.09,0,1.635,0
		c2.168,0,4.336,0,6.503,0c1.084,0,2.168,0,3.252,0c0.542,0,1.084,0,1.626,0c0.271,0,0.542,0,0.813,0
		c0.191,0,0.826-0.105,0.536,0.117c-3.724,2.846-5.985,6.079-7.383,10.553C274.661,44.774,277.681,54.126,284.882,59.528z"/>
	<path class="st2" d="M391.182,59.528c-12.262,0-24.524,0-36.786,0c-0.149,0-0.065-0.14-0.065-0.223c0-0.096,0-0.192,0-0.288
		c0-0.191,0-0.383,0-0.575c0-0.383,0-0.767,0-1.149c0-0.767,0-1.533,0-2.299c0-1.533,0-3.065,0-4.598c0-3.065,0-6.131,0-9.197
		c0-3.065,0-6.131,0-9.196c0-1.533,0-3.066,0-4.599c0-0.383,0-0.766,0-1.149c0-0.191,0-0.383,0-0.575
		c0-0.272,0.239-0.168,0.407-0.168c0.767,0,1.533,0,2.299,0c6.131,0,12.262,0,18.393,0c2.904,0,5.808,0,8.712,0
		c1.452,0,2.904,0,4.356,0c0.726,0,1.452,0,2.178,0c0.153,0,0.696-0.145,0.454,0.039c-0.229,0.172-0.453,0.349-0.675,0.531
		c-0.444,0.364-0.872,0.745-1.285,1.144C379.755,36.316,380.711,51.675,391.182,59.528z"/>
	<path class="st2" d="M184.252,59.528V25.512h56.693v34.016H184.252z M226.772,42.52c0-7.828-6.345-14.173-14.173-14.173
		c-7.828,0-14.173,6.346-14.173,14.173c0,7.828,6.346,14.173,14.173,14.173C220.427,56.693,226.772,50.348,226.772,42.52z"/>
	<rect x="14.174" y="25.512" class="st3" width="56.693" height="34.016"/>
	<path class="st4" d="M284.882,59.528c-11.338-8.504-11.338-25.512,0-34.016c-5.197,0-10.394,0-15.59,0c0,11.339,0,22.677,0,34.016
		C274.489,59.528,279.685,59.528,284.882,59.528z"/>
	<path class="st4" d="M391.182,59.528c-11.339-8.504-11.339-25.512,0-34.016c-12.284,0-24.567,0-36.851,0
		c0,11.339,0,22.677,0,34.016C366.615,59.528,378.898,59.528,391.182,59.528z"/>
	<rect x="184.252" y="25.512" class="st4" width="56.693" height="34.016"/>
	<path class="st4" d="M226.772,42.52c0,7.828-6.345,14.173-14.173,14.173c-7.828,0-14.173-6.345-14.173-14.173
		c0-7.828,6.346-14.173,14.173-14.173C220.427,28.347,226.772,34.692,226.772,42.52z"/>
	<rect x="14.174" y="25.512" class="st4" width="56.693" height="34.016"/>
	<path class="st4" d="M99.213,59.528c18.898,0,37.795,0,56.693,0c0-11.339,0-22.677,0-34.016c-14.173,0-28.346,0-42.52,0
		c0,7.828-6.345,14.173-14.173,14.173C99.213,46.299,99.213,52.914,99.213,59.528z"/>
	<path class="st4" d="M310.394,25.512c5.354,4.015,8.504,10.316,8.504,17.008c0,6.691-3.15,12.993-8.504,17.008
		c5.197,0,10.394,0,15.591,0c0-11.339,0-22.677,0-34.016C320.788,25.512,315.591,25.512,310.394,25.512z"/>
</g>
<g id="Layer_02">
	<rect x="184.252" y="25.512" class="st5" width="56.693" height="34.016"/>
	<rect x="269.292" y="25.512" class="st5" width="56.693" height="34.016"/>
	<rect x="99.213" y="25.512" class="st5" width="56.693" height="34.016"/>
	<rect x="14.174" y="25.512" class="st5" width="56.693" height="34.016"/>
	<rect x="354.331" y="25.512" class="st5" width="56.693" height="34.016"/>
</g>
</svg>
