<?xml version="1.0" encoding="utf-8"?>
<!-- Generator: Adobe Illustrator 19.1.0, SVG Export Plug-In . SVG Version: 6.00 Build 0)  -->
<svg version="1.1" id="Layer_2" xmlns="http://www.w3.org/2000/svg" xmlns:xlink="http://www.w3.org/1999/xlink" x="0px" y="0px"
	 viewBox="-66 294.4 462 253.5" style="enable-background:new -66 294.4 462 253.5;" xml:space="preserve">
<style type="text/css">
	@import url('https://fonts.googleapis.com/css?family=Roboto');
	.st0{fill:none;}
	.st1{fill:none;stroke:#000000;stroke-width:0.3;stroke-linejoin:round;}
	.st2{fill:none;stroke:#000000;stroke-miterlimit:10;}
	.st3{fill:#010202;stroke:#000000;stroke-miterlimit:10;}
	.st4{font-family:'Roboto';}
	.st5{font-size:11px;}
	.st6{font-size:8px;}
	.st7{fill:url(#SVGID_3_);}
	.st8{fill:url(#SVGID_4_);}
	.st9{font-size:9px;}
	.st10{stroke:#000000;stroke-miterlimit:10;}
</style>
<pattern  x="-66" y="547.9" width="72" height="72" patternUnits="userSpaceOnUse" id="SVGID_1_" viewBox="79.6 -151.6 72 72" style="overflow:visible;">
	<g>
		<polygon class="st0" points="79.6,-79.6 151.6,-79.6 151.6,-151.6 79.6,-151.6 		"/>
		<g>
			<polygon class="st0" points="79.6,-79.6 151.6,-79.6 151.6,-151.6 79.6,-151.6 			"/>
			<g>
				<line class="st1" x1="144.1" y1="-162.1" x2="162.1" y2="-144.1"/>
				<line class="st1" x1="144.1" y1="-168.1" x2="168.1" y2="-144.1"/>
				<line class="st1" x1="144.1" y1="-174.1" x2="174.1" y2="-144.1"/>
				<line class="st1" x1="144.1" y1="-180.1" x2="180.1" y2="-144.1"/>
				<line class="st1" x1="144.1" y1="-186.1" x2="186.1" y2="-144.1"/>
				<line class="st1" x1="144.1" y1="-192.1" x2="192.1" y2="-144.1"/>
				<line class="st1" x1="144.1" y1="-198.1" x2="198.1" y2="-144.1"/>
				<line class="st1" x1="144.1" y1="-204.1" x2="204.1" y2="-144.1"/>
				<line class="st1" x1="144.1" y1="-210.1" x2="210.1" y2="-144.1"/>
				<line class="st1" x1="144.1" y1="-216.1" x2="216.1" y2="-144.1"/>
				<line class="st1" x1="144.1" y1="-222.1" x2="222.1" y2="-144.1"/>
				<line class="st1" x1="144.1" y1="-228.1" x2="228.1" y2="-144.1"/>
				<line class="st1" x1="150.1" y1="-228.1" x2="228.1" y2="-150.1"/>
			</g>
			<g>
				<line class="st1" x1="72.1" y1="-162.1" x2="90.1" y2="-144.1"/>
				<line class="st1" x1="72.1" y1="-168.1" x2="96.1" y2="-144.1"/>
				<line class="st1" x1="72.1" y1="-174.1" x2="102.1" y2="-144.1"/>
				<line class="st1" x1="72.1" y1="-180.1" x2="108.1" y2="-144.1"/>
				<line class="st1" x1="72.1" y1="-186.1" x2="114.1" y2="-144.1"/>
				<line class="st1" x1="72.1" y1="-192.1" x2="120.1" y2="-144.1"/>
				<line class="st1" x1="72.1" y1="-198.1" x2="126.1" y2="-144.1"/>
				<line class="st1" x1="72.1" y1="-204.1" x2="132.1" y2="-144.1"/>
				<line class="st1" x1="72.1" y1="-210.1" x2="138.1" y2="-144.1"/>
				<line class="st1" x1="72.1" y1="-216.1" x2="144.1" y2="-144.1"/>
				<line class="st1" x1="72.1" y1="-222.1" x2="150.1" y2="-144.1"/>
				<line class="st1" x1="72.1" y1="-228.1" x2="156.1" y2="-144.1"/>
				<line class="st1" x1="78.1" y1="-228.1" x2="156.1" y2="-150.1"/>
			</g>
			<g>
				<line class="st1" x1="0.1" y1="-228.1" x2="84.1" y2="-144.1"/>
				<line class="st1" x1="6.1" y1="-228.1" x2="84.1" y2="-150.1"/>
			</g>
			<g>
				<line class="st1" x1="144.1" y1="-90.1" x2="162.1" y2="-72.1"/>
				<line class="st1" x1="144.1" y1="-96.1" x2="168.1" y2="-72.1"/>
				<line class="st1" x1="144.1" y1="-102.1" x2="174.1" y2="-72.1"/>
				<line class="st1" x1="144.1" y1="-108.1" x2="180.1" y2="-72.1"/>
				<line class="st1" x1="144.1" y1="-114.1" x2="186.1" y2="-72.1"/>
				<line class="st1" x1="144.1" y1="-120.1" x2="192.1" y2="-72.1"/>
				<line class="st1" x1="144.1" y1="-126.1" x2="198.1" y2="-72.1"/>
				<line class="st1" x1="144.1" y1="-132.1" x2="204.1" y2="-72.1"/>
				<line class="st1" x1="144.1" y1="-138.1" x2="210.1" y2="-72.1"/>
				<line class="st1" x1="144.1" y1="-144.1" x2="216.1" y2="-72.1"/>
				<line class="st1" x1="144.1" y1="-150.1" x2="222.1" y2="-72.1"/>
				<line class="st1" x1="144.1" y1="-156.1" x2="228.1" y2="-72.1"/>
				<line class="st1" x1="150.1" y1="-156.1" x2="228.1" y2="-78.1"/>
			</g>
			<g>
				<line class="st1" x1="72.1" y1="-90.1" x2="90.1" y2="-72.1"/>
				<line class="st1" x1="72.1" y1="-96.1" x2="96.1" y2="-72.1"/>
				<line class="st1" x1="72.1" y1="-102.1" x2="102.1" y2="-72.1"/>
				<line class="st1" x1="72.1" y1="-108.1" x2="108.1" y2="-72.1"/>
				<line class="st1" x1="72.1" y1="-114.1" x2="114.1" y2="-72.1"/>
				<line class="st1" x1="72.1" y1="-120.1" x2="120.1" y2="-72.1"/>
				<line class="st1" x1="72.1" y1="-126.1" x2="126.1" y2="-72.1"/>
				<line class="st1" x1="72.1" y1="-132.1" x2="132.1" y2="-72.1"/>
				<line class="st1" x1="72.1" y1="-138.1" x2="138.1" y2="-72.1"/>
				<line class="st1" x1="72.1" y1="-144.1" x2="144.1" y2="-72.1"/>
				<line class="st1" x1="72.1" y1="-150.1" x2="150.1" y2="-72.1"/>
				<line class="st1" x1="72.1" y1="-156.1" x2="156.1" y2="-72.1"/>
				<line class="st1" x1="78.1" y1="-156.1" x2="156.1" y2="-78.1"/>
				<line class="st1" x1="84.1" y1="-156.1" x2="156.1" y2="-84.1"/>
				<line class="st1" x1="90.1" y1="-156.1" x2="156.1" y2="-90.1"/>
				<line class="st1" x1="96.1" y1="-156.1" x2="156.1" y2="-96.1"/>
				<line class="st1" x1="102.1" y1="-156.1" x2="156.1" y2="-102.1"/>
				<line class="st1" x1="108.1" y1="-156.1" x2="156.1" y2="-108.1"/>
				<line class="st1" x1="114.1" y1="-156.1" x2="156.1" y2="-114.1"/>
				<line class="st1" x1="120.1" y1="-156.1" x2="156.1" y2="-120.1"/>
				<line class="st1" x1="126.1" y1="-156.1" x2="156.1" y2="-126.1"/>
				<line class="st1" x1="132.1" y1="-156.1" x2="156.1" y2="-132.1"/>
				<line class="st1" x1="138.1" y1="-156.1" x2="156.1" y2="-138.1"/>
				<line class="st1" x1="144.1" y1="-156.1" x2="156.1" y2="-144.1"/>
			</g>
			<g>
				<line class="st1" x1="0.1" y1="-156.1" x2="84.1" y2="-72.1"/>
				<line class="st1" x1="6.1" y1="-156.1" x2="84.1" y2="-78.1"/>
				<line class="st1" x1="12.1" y1="-156.1" x2="84.1" y2="-84.1"/>
				<line class="st1" x1="18.1" y1="-156.1" x2="84.1" y2="-90.1"/>
				<line class="st1" x1="24.1" y1="-156.1" x2="84.1" y2="-96.1"/>
				<line class="st1" x1="30.1" y1="-156.1" x2="84.1" y2="-102.1"/>
				<line class="st1" x1="36.1" y1="-156.1" x2="84.1" y2="-108.1"/>
				<line class="st1" x1="42.1" y1="-156.1" x2="84.1" y2="-114.1"/>
				<line class="st1" x1="48.1" y1="-156.1" x2="84.1" y2="-120.1"/>
				<line class="st1" x1="54.1" y1="-156.1" x2="84.1" y2="-126.1"/>
				<line class="st1" x1="60.1" y1="-156.1" x2="84.1" y2="-132.1"/>
				<line class="st1" x1="66.1" y1="-156.1" x2="84.1" y2="-138.1"/>
				<line class="st1" x1="72.1" y1="-156.1" x2="84.1" y2="-144.1"/>
			</g>
			<g>
				<line class="st1" x1="144.1" y1="-84.1" x2="228.1" y2="-0.1"/>
				<line class="st1" x1="150.1" y1="-84.1" x2="228.1" y2="-6.1"/>
			</g>
			<g>
				<line class="st1" x1="72.1" y1="-84.1" x2="156.1" y2="-0.1"/>
				<line class="st1" x1="78.1" y1="-84.1" x2="156.1" y2="-6.1"/>
				<line class="st1" x1="84.1" y1="-84.1" x2="156.1" y2="-12.1"/>
				<line class="st1" x1="90.1" y1="-84.1" x2="156.1" y2="-18.1"/>
				<line class="st1" x1="96.1" y1="-84.1" x2="156.1" y2="-24.1"/>
				<line class="st1" x1="102.1" y1="-84.1" x2="156.1" y2="-30.1"/>
				<line class="st1" x1="108.1" y1="-84.1" x2="156.1" y2="-36.1"/>
				<line class="st1" x1="114.1" y1="-84.1" x2="156.1" y2="-42.1"/>
				<line class="st1" x1="120.1" y1="-84.1" x2="156.1" y2="-48.1"/>
				<line class="st1" x1="126.1" y1="-84.1" x2="156.1" y2="-54.1"/>
				<line class="st1" x1="132.1" y1="-84.1" x2="156.1" y2="-60.1"/>
				<line class="st1" x1="138.1" y1="-84.1" x2="156.1" y2="-66.1"/>
				<line class="st1" x1="144.1" y1="-84.1" x2="156.1" y2="-72.1"/>
			</g>
			<g>
				<line class="st1" x1="0.1" y1="-84.1" x2="84.1" y2="-0.1"/>
				<line class="st1" x1="6.1" y1="-84.1" x2="84.1" y2="-6.1"/>
				<line class="st1" x1="12.1" y1="-84.1" x2="84.1" y2="-12.1"/>
				<line class="st1" x1="18.1" y1="-84.1" x2="84.1" y2="-18.1"/>
				<line class="st1" x1="24.1" y1="-84.1" x2="84.1" y2="-24.1"/>
				<line class="st1" x1="30.1" y1="-84.1" x2="84.1" y2="-30.1"/>
				<line class="st1" x1="36.1" y1="-84.1" x2="84.1" y2="-36.1"/>
				<line class="st1" x1="42.1" y1="-84.1" x2="84.1" y2="-42.1"/>
				<line class="st1" x1="48.1" y1="-84.1" x2="84.1" y2="-48.1"/>
				<line class="st1" x1="54.1" y1="-84.1" x2="84.1" y2="-54.1"/>
				<line class="st1" x1="60.1" y1="-84.1" x2="84.1" y2="-60.1"/>
				<line class="st1" x1="66.1" y1="-84.1" x2="84.1" y2="-66.1"/>
				<line class="st1" x1="72.1" y1="-84.1" x2="84.1" y2="-72.1"/>
			</g>
		</g>
	</g>
</pattern>
<pattern  x="-66" y="547.9" width="72" height="72" patternUnits="userSpaceOnUse" id="SVGID_2_" viewBox="79.6 -151.6 72 72" style="overflow:visible;">
	<g>
		<polygon class="st0" points="79.6,-79.6 151.6,-79.6 151.6,-151.6 79.6,-151.6 		"/>
		<g>
			<polygon class="st0" points="79.6,-79.6 151.6,-79.6 151.6,-151.6 79.6,-151.6 			"/>
			<g>
				<line class="st1" x1="144.1" y1="-162.1" x2="162.1" y2="-144.1"/>
				<line class="st1" x1="144.1" y1="-168.1" x2="168.1" y2="-144.1"/>
				<line class="st1" x1="144.1" y1="-174.1" x2="174.1" y2="-144.1"/>
				<line class="st1" x1="144.1" y1="-180.1" x2="180.1" y2="-144.1"/>
				<line class="st1" x1="144.1" y1="-186.1" x2="186.1" y2="-144.1"/>
				<line class="st1" x1="144.1" y1="-192.1" x2="192.1" y2="-144.1"/>
				<line class="st1" x1="144.1" y1="-198.1" x2="198.1" y2="-144.1"/>
				<line class="st1" x1="144.1" y1="-204.1" x2="204.1" y2="-144.1"/>
				<line class="st1" x1="144.1" y1="-210.1" x2="210.1" y2="-144.1"/>
				<line class="st1" x1="144.1" y1="-216.1" x2="216.1" y2="-144.1"/>
				<line class="st1" x1="144.1" y1="-222.1" x2="222.1" y2="-144.1"/>
				<line class="st1" x1="144.1" y1="-228.1" x2="228.1" y2="-144.1"/>
				<line class="st1" x1="150.1" y1="-228.1" x2="228.1" y2="-150.1"/>
			</g>
			<g>
				<line class="st1" x1="72.1" y1="-162.1" x2="90.1" y2="-144.1"/>
				<line class="st1" x1="72.1" y1="-168.1" x2="96.1" y2="-144.1"/>
				<line class="st1" x1="72.1" y1="-174.1" x2="102.1" y2="-144.1"/>
				<line class="st1" x1="72.1" y1="-180.1" x2="108.1" y2="-144.1"/>
				<line class="st1" x1="72.1" y1="-186.1" x2="114.1" y2="-144.1"/>
				<line class="st1" x1="72.1" y1="-192.1" x2="120.1" y2="-144.1"/>
				<line class="st1" x1="72.1" y1="-198.1" x2="126.1" y2="-144.1"/>
				<line class="st1" x1="72.1" y1="-204.1" x2="132.1" y2="-144.1"/>
				<line class="st1" x1="72.1" y1="-210.1" x2="138.1" y2="-144.1"/>
				<line class="st1" x1="72.1" y1="-216.1" x2="144.1" y2="-144.1"/>
				<line class="st1" x1="72.1" y1="-222.1" x2="150.1" y2="-144.1"/>
				<line class="st1" x1="72.1" y1="-228.1" x2="156.1" y2="-144.1"/>
				<line class="st1" x1="78.1" y1="-228.1" x2="156.1" y2="-150.1"/>
			</g>
			<g>
				<line class="st1" x1="0.1" y1="-228.1" x2="84.1" y2="-144.1"/>
				<line class="st1" x1="6.1" y1="-228.1" x2="84.1" y2="-150.1"/>
			</g>
			<g>
				<line class="st1" x1="144.1" y1="-90.1" x2="162.1" y2="-72.1"/>
				<line class="st1" x1="144.1" y1="-96.1" x2="168.1" y2="-72.1"/>
				<line class="st1" x1="144.1" y1="-102.1" x2="174.1" y2="-72.1"/>
				<line class="st1" x1="144.1" y1="-108.1" x2="180.1" y2="-72.1"/>
				<line class="st1" x1="144.1" y1="-114.1" x2="186.1" y2="-72.1"/>
				<line class="st1" x1="144.1" y1="-120.1" x2="192.1" y2="-72.1"/>
				<line class="st1" x1="144.1" y1="-126.1" x2="198.1" y2="-72.1"/>
				<line class="st1" x1="144.1" y1="-132.1" x2="204.1" y2="-72.1"/>
				<line class="st1" x1="144.1" y1="-138.1" x2="210.1" y2="-72.1"/>
				<line class="st1" x1="144.1" y1="-144.1" x2="216.1" y2="-72.1"/>
				<line class="st1" x1="144.1" y1="-150.1" x2="222.1" y2="-72.1"/>
				<line class="st1" x1="144.1" y1="-156.1" x2="228.1" y2="-72.1"/>
				<line class="st1" x1="150.1" y1="-156.1" x2="228.1" y2="-78.1"/>
			</g>
			<g>
				<line class="st1" x1="72.1" y1="-90.1" x2="90.1" y2="-72.1"/>
				<line class="st1" x1="72.1" y1="-96.1" x2="96.1" y2="-72.1"/>
				<line class="st1" x1="72.1" y1="-102.1" x2="102.1" y2="-72.1"/>
				<line class="st1" x1="72.1" y1="-108.1" x2="108.1" y2="-72.1"/>
				<line class="st1" x1="72.1" y1="-114.1" x2="114.1" y2="-72.1"/>
				<line class="st1" x1="72.1" y1="-120.1" x2="120.1" y2="-72.1"/>
				<line class="st1" x1="72.1" y1="-126.1" x2="126.1" y2="-72.1"/>
				<line class="st1" x1="72.1" y1="-132.1" x2="132.1" y2="-72.1"/>
				<line class="st1" x1="72.1" y1="-138.1" x2="138.1" y2="-72.1"/>
				<line class="st1" x1="72.1" y1="-144.1" x2="144.1" y2="-72.1"/>
				<line class="st1" x1="72.1" y1="-150.1" x2="150.1" y2="-72.1"/>
				<line class="st1" x1="72.1" y1="-156.1" x2="156.1" y2="-72.1"/>
				<line class="st1" x1="78.1" y1="-156.1" x2="156.1" y2="-78.1"/>
				<line class="st1" x1="84.1" y1="-156.1" x2="156.1" y2="-84.1"/>
				<line class="st1" x1="90.1" y1="-156.1" x2="156.1" y2="-90.1"/>
				<line class="st1" x1="96.1" y1="-156.1" x2="156.1" y2="-96.1"/>
				<line class="st1" x1="102.1" y1="-156.1" x2="156.1" y2="-102.1"/>
				<line class="st1" x1="108.1" y1="-156.1" x2="156.1" y2="-108.1"/>
				<line class="st1" x1="114.1" y1="-156.1" x2="156.1" y2="-114.1"/>
				<line class="st1" x1="120.1" y1="-156.1" x2="156.1" y2="-120.1"/>
				<line class="st1" x1="126.1" y1="-156.1" x2="156.1" y2="-126.1"/>
				<line class="st1" x1="132.1" y1="-156.1" x2="156.1" y2="-132.1"/>
				<line class="st1" x1="138.1" y1="-156.1" x2="156.1" y2="-138.1"/>
				<line class="st1" x1="144.1" y1="-156.1" x2="156.1" y2="-144.1"/>
			</g>
			<g>
				<line class="st1" x1="0.1" y1="-156.1" x2="84.1" y2="-72.1"/>
				<line class="st1" x1="6.1" y1="-156.1" x2="84.1" y2="-78.1"/>
				<line class="st1" x1="12.1" y1="-156.1" x2="84.1" y2="-84.1"/>
				<line class="st1" x1="18.1" y1="-156.1" x2="84.1" y2="-90.1"/>
				<line class="st1" x1="24.1" y1="-156.1" x2="84.1" y2="-96.1"/>
				<line class="st1" x1="30.1" y1="-156.1" x2="84.1" y2="-102.1"/>
				<line class="st1" x1="36.1" y1="-156.1" x2="84.1" y2="-108.1"/>
				<line class="st1" x1="42.1" y1="-156.1" x2="84.1" y2="-114.1"/>
				<line class="st1" x1="48.1" y1="-156.1" x2="84.1" y2="-120.1"/>
				<line class="st1" x1="54.1" y1="-156.1" x2="84.1" y2="-126.1"/>
				<line class="st1" x1="60.1" y1="-156.1" x2="84.1" y2="-132.1"/>
				<line class="st1" x1="66.1" y1="-156.1" x2="84.1" y2="-138.1"/>
				<line class="st1" x1="72.1" y1="-156.1" x2="84.1" y2="-144.1"/>
			</g>
			<g>
				<line class="st1" x1="144.1" y1="-84.1" x2="228.1" y2="-0.1"/>
				<line class="st1" x1="150.1" y1="-84.1" x2="228.1" y2="-6.1"/>
			</g>
			<g>
				<line class="st1" x1="72.1" y1="-84.1" x2="156.1" y2="-0.1"/>
				<line class="st1" x1="78.1" y1="-84.1" x2="156.1" y2="-6.1"/>
				<line class="st1" x1="84.1" y1="-84.1" x2="156.1" y2="-12.1"/>
				<line class="st1" x1="90.1" y1="-84.1" x2="156.1" y2="-18.1"/>
				<line class="st1" x1="96.1" y1="-84.1" x2="156.1" y2="-24.1"/>
				<line class="st1" x1="102.1" y1="-84.1" x2="156.1" y2="-30.1"/>
				<line class="st1" x1="108.1" y1="-84.1" x2="156.1" y2="-36.1"/>
				<line class="st1" x1="114.1" y1="-84.1" x2="156.1" y2="-42.1"/>
				<line class="st1" x1="120.1" y1="-84.1" x2="156.1" y2="-48.1"/>
				<line class="st1" x1="126.1" y1="-84.1" x2="156.1" y2="-54.1"/>
				<line class="st1" x1="132.1" y1="-84.1" x2="156.1" y2="-60.1"/>
				<line class="st1" x1="138.1" y1="-84.1" x2="156.1" y2="-66.1"/>
				<line class="st1" x1="144.1" y1="-84.1" x2="156.1" y2="-72.1"/>
			</g>
			<g>
				<line class="st1" x1="0.1" y1="-84.1" x2="84.1" y2="-0.1"/>
				<line class="st1" x1="6.1" y1="-84.1" x2="84.1" y2="-6.1"/>
				<line class="st1" x1="12.1" y1="-84.1" x2="84.1" y2="-12.1"/>
				<line class="st1" x1="18.1" y1="-84.1" x2="84.1" y2="-18.1"/>
				<line class="st1" x1="24.1" y1="-84.1" x2="84.1" y2="-24.1"/>
				<line class="st1" x1="30.1" y1="-84.1" x2="84.1" y2="-30.1"/>
				<line class="st1" x1="36.1" y1="-84.1" x2="84.1" y2="-36.1"/>
				<line class="st1" x1="42.1" y1="-84.1" x2="84.1" y2="-42.1"/>
				<line class="st1" x1="48.1" y1="-84.1" x2="84.1" y2="-48.1"/>
				<line class="st1" x1="54.1" y1="-84.1" x2="84.1" y2="-54.1"/>
				<line class="st1" x1="60.1" y1="-84.1" x2="84.1" y2="-60.1"/>
				<line class="st1" x1="66.1" y1="-84.1" x2="84.1" y2="-66.1"/>
				<line class="st1" x1="72.1" y1="-84.1" x2="84.1" y2="-72.1"/>
			</g>
		</g>
	</g>
</pattern>
<polyline class="st2" points="137,365.2 150.1,358.8 154,366.8 140.6,373.4 "/>
<rect x="152.2" y="350.1" transform="matrix(-0.8983 0.4394 -0.4394 -0.8983 457.41 616.985)" class="st2" width="10.2" height="22.7"/>
<rect x="161.9" y="349.4" transform="matrix(-0.8983 0.4394 -0.4394 -0.8983 470.808 607.4885)" class="st2" width="6.4" height="17.7"/>
<rect x="167.2" y="349" transform="matrix(-0.8983 0.4394 -0.4394 -0.8983 486.7623 595.0049)" class="st2" width="14.6" height="9.7"/>
<rect x="180.8" y="338.3" transform="matrix(-0.8983 0.4394 -0.4394 -0.8983 500.9452 583.4421)" class="st3" width="4.3" height="22.8"/>
<rect x="187.8" y="349.8" transform="matrix(-0.8983 0.4394 -0.4394 -0.8983 523.9808 584.9919)" class="st3" width="13" height="6.7"/>
<rect x="180.7" y="335.3" transform="matrix(-0.8983 0.4394 -0.4394 -0.8983 504.1238 560.59)" class="st3" width="13" height="6.7"/>
<text transform="matrix(1 0 0 1 60.81 316.7059)" class="st4 st5">manipulator</text>
<rect x="7.4" y="410.2" class="st2" width="50.8" height="25.5"/>
<path class="st2" d="M48,342.4c0-8.4-6.8-15.3-15.3-15.3s-15.2,6.9-15.2,15.3v67.8H48V342.4z"/>
<path class="st2" d="M39,334.6c-8.5-1.8-16.7,2.5-18.2,9.7c-1.5,7.2,4.1,14.5,12.6,16.3l68.6,14.7l5.6-26
	C107.5,349.2,39,334.6,39,334.6z"/>
<polygon class="st2" points="122.5,372.9 103.5,369.1 106.3,355.6 125.3,359.4 "/>
<polyline class="st2" points="138,373.8 123,370.7 124.8,362 139.1,364.9 "/>
<g>
	<g>
		<path class="st2" d="M23.7,346.9c0-5,4.1-9.1,9.1-9.1s9.1,4.1,9.1,9.1c0,1.8-0.6,3.6-1.5,5"/>
		<g>
			<polygon points="39.9,349.3 35.3,355.6 42.5,352.4 			"/>
		</g>
	</g>
</g>
<circle cx="32.7" cy="346.2" r="2.6"/>
<g>
	<g>
		<path class="st2" d="M52.3,398.7c-5.1,1.9-12,3-19.6,3c-13.4,0-24.6-3.5-27.5-8.3"/>
		<g>
			<polygon points="49,397 59.8,394 52,402 			"/>
		</g>
	</g>
</g>
<g>
	<g>
		<polyline class="st2" points="194.6,479.7 37.3,479.7 37.3,435.7 		"/>
		<g>
			<polygon points="193.1,474.7 201.8,479.6 193.1,484.6 			"/>
		</g>
	</g>
</g>
<rect x="201.8" y="452.9" class="st2" width="90.7" height="50.5"/>
<rect x="321.8" y="458.9" class="st2" width="59.5" height="41.3"/>
<text transform="matrix(1 0 0 1 -35.1162 348.7044)" class="st4 st5">joint</text>
<text transform="matrix(1 0 0 1 -57.0162 358.3044)" class="st4 st6">(contains actuator</text>
<text transform="matrix(1 0 0 1 -45.6162 367.9044)" class="st4 st6">and sensor)</text>
<g>
	<pattern  id="SVGID_3_" xlink:href="#SVGID_1_" patternTransform="matrix(1 0 0 -1 -119.1201 -16071.6416)">
	</pattern>
	<rect x="37.7" y="435.7" class="st7" width="40" height="20.5"/>
	<pattern  id="SVGID_4_" xlink:href="#SVGID_2_" patternTransform="matrix(1 0 0 -1 -169.1201 -16071.6416)">
	</pattern>
	<rect x="-12.3" y="435.7" class="st8" width="40" height="20.5"/>
</g>
<text transform="matrix(1 0 0 1 99.9248 452.89)" class="st4 st9">joint sensor data</text>
<text transform="matrix(1 0 0 1 101.5248 462.49)" class="st4 st6">(position, velocity,</text>
<text transform="matrix(1 0 0 1 110.1248 472.09)" class="st4 st6">acceleration)</text>
<text transform="matrix(1 0 0 1 100.5736 515.39)" class="st4 st9">joint drive signal</text>
<text transform="matrix(1 0 0 1 92.6736 524.99)" class="st4 st6">(velocity and direction)</text>
<text transform="matrix(1 0 0 1 215.4456 340.8871)" class="st4 st5">end-effector</text>
<g>
	<g>
		<polyline class="st2" points="249.3,503.4 249.3,533.9 27.3,533.9 27.3,442.8 		"/>
		<g>
			<polygon points="32.2,444.3 27.3,435.7 22.3,444.3 			"/>
		</g>
	</g>
</g>
<g>
	<g>
		<line class="st2" x1="299.7" y1="479.5" x2="314.6" y2="479.5"/>
		<g>
			<polygon points="301.1,484.5 292.5,479.5 301.1,474.5 			"/>
		</g>
		<g>
			<polygon points="313.1,484.5 321.8,479.5 313.1,474.5 			"/>
		</g>
	</g>
</g>
<line class="st2" x1="77.7" y1="435.7" x2="-12.3" y2="435.7"/>
<g>
	<text transform="matrix(1 0 0 1 224.0443 482.89)" class="st4 st5">controller</text>
</g>
<g>
	<text transform="matrix(1 0 0 1 338.5562 432.265)" class="st4 st5">teach</text>
	<text transform="matrix(1 0 0 1 332.2563 445.465)" class="st4 st5">pendant</text>
</g>
<line class="st2" x1="-12.3" y1="346.7" x2="32.7" y2="346.7"/>
<g>
	<g>
		<path class="st2" d="M185.4,371.1c-3.1-3-6.8-8.3-10-14.7c-5.5-11.1-7.4-21.3-4.3-22.9c1.2-0.6,3.1,0.2,5.2,2.1"/>
		<g>
			<polygon points="185.2,368.5 191,373.7 183.3,372.1 			"/>
		</g>
	</g>
</g>
<g>
	<g>
		<line class="st2" x1="84.2" y1="339.3" x2="101.6" y2="343"/>
		<g>
			<polygon points="85.2,341.9 77.2,337.8 86.2,337.4 			"/>
		</g>
		<g>
			<polygon points="99.6,345 108.5,344.5 100.5,340.4 			"/>
		</g>
	</g>
</g>
<circle class="st2" cx="138.6" cy="369.4" r="4.4"/>
<g>
	<g>
		<path class="st2" d="M131.2,359.5c4.6-2.4,10.5-1.4,13.9,2.9c2.9,3.6,3.3,8.4,1.3,12.2"/>
		<g>
			<polygon points="145.7,371.7 141.4,379.6 149.1,374.9 			"/>
		</g>
	</g>
</g>
<circle cx="138.6" cy="369.4" r="1.6"/>
<g>
	<line class="st0" x1="196.5" y1="330.4" x2="206.6" y2="351.4"/>
	<g>
		<line class="st2" x1="199.2" y1="336" x2="203.9" y2="345.8"/>
		<g>
			<polygon points="198,338.1 196.5,330.4 201.7,336.4 			"/>
		</g>
		<g>
			<polygon points="201.5,345.4 206.6,351.4 205.2,343.7 			"/>
		</g>
	</g>
</g>
<rect x="328" y="466.4" class="st2" width="27.8" height="26.3"/>
<rect x="359.2" y="481.8" class="st2" width="4.7" height="4.5"/>
<rect x="366" y="481.8" class="st2" width="4.7" height="4.5"/>
<rect x="372.9" y="481.8" class="st2" width="4.7" height="4.5"/>
<rect x="359.2" y="488.4" class="st2" width="4.7" height="4.5"/>
<rect x="366" y="488.4" class="st2" width="4.7" height="4.5"/>
<rect x="372.9" y="488.4" class="st2" width="4.7" height="4.5"/>
<circle class="st2" cx="368.4" cy="471.7" r="5"/>
<path class="st10" d="M381.3,464.4c5.1,0,9.3,6.6,9.3,14.8s-4.2,14.8-9.3,14.8l0-3.7c3.4,0,6.3-5.1,6.3-11.1s-2.9-11.1-6.3-11.1
	L381.3,464.4z"/>
</svg>
