<?xml version="1.0" encoding="utf-8"?>
<!-- Generator: Adobe Illustrator 19.1.0, SVG Export Plug-In . SVG Version: 6.00 Build 0)  -->
<svg version="1.1" id="Layer_1" xmlns="http://www.w3.org/2000/svg" xmlns:xlink="http://www.w3.org/1999/xlink" x="0px" y="0px"
	 viewBox="0 0 674 204" style="enable-background:new 0 0 674 204;" xml:space="preserve">
<style type="text/css">
	.st0{fill:none;stroke:#3B4999;stroke-miterlimit:10;}
	.st1{fill:#3B4999;}
	.st2{fill:none;stroke:#E73B1D;stroke-miterlimit:10;}
	.st3{fill:#E73B1D;}
	.st4{fill:none;stroke:#53AF32;stroke-miterlimit:10;}
	.st5{fill:#53AF32;}
	.st6{fill:none;stroke:#3B4999;stroke-width:0.5;stroke-miterlimit:10;}
	.st7{fill:none;stroke:#E73B1D;stroke-width:0.5;stroke-miterlimit:10;}
	.st8{fill:none;stroke:#53AF32;stroke-width:0.5;stroke-miterlimit:10;}
	.st9{fill:none;stroke:#000000;stroke-miterlimit:10;}
</style>
<g>
	<g>
		<line class="st0" x1="55.3" y1="166.8" x2="55.3" y2="111.2"/>
		<g>
			<polygon class="st1" points="58.2,113.2 55.3,102.3 52.4,113.2 			"/>
		</g>
	</g>
</g>
<g>
	<g>
		<line class="st2" x1="55.3" y1="166.8" x2="26.2" y2="190.3"/>
		<g>
			<polygon class="st3" points="26,186.8 19.3,195.8 29.6,191.3 			"/>
		</g>
	</g>
</g>
<g>
	<g>
		<line class="st4" x1="55.3" y1="166.8" x2="98" y2="166.8"/>
		<g>
			<polygon class="st5" points="96,169.7 106.8,166.8 96,163.9 			"/>
		</g>
	</g>
</g>
<g>
	<g>
		<line class="st6" x1="92.8" y1="150.9" x2="92.8" y2="126.7"/>
		<g>
			<polygon class="st1" points="94.3,127.7 92.8,122.3 91.4,127.7 			"/>
		</g>
	</g>
</g>
<g>
	<g>
		<line class="st7" x1="92.8" y1="150.9" x2="80.3" y2="161"/>
		<g>
			<polygon class="st3" points="80.2,159.2 76.9,163.8 82,161.5 			"/>
		</g>
	</g>
</g>
<g>
	<g>
		<line class="st8" x1="92.8" y1="150.9" x2="111.3" y2="150.9"/>
		<g>
			<polygon class="st5" points="110.3,152.4 115.7,150.9 110.3,149.5 			"/>
		</g>
	</g>
</g>
<g>
	<g>
		<line class="st6" x1="127.6" y1="135.7" x2="127.6" y2="111.5"/>
		<g>
			<polygon class="st1" points="129,112.5 127.6,107 126.1,112.5 			"/>
		</g>
	</g>
</g>
<g>
	<g>
		<line class="st7" x1="127.6" y1="135.7" x2="115.1" y2="145.8"/>
		<g>
			<polygon class="st3" points="114.9,144 111.6,148.5 116.7,146.3 			"/>
		</g>
	</g>
</g>
<g>
	<g>
		<line class="st8" x1="127.6" y1="135.7" x2="146" y2="135.7"/>
		<g>
			<polygon class="st5" points="145,137.1 150.4,135.7 145,134.2 			"/>
		</g>
	</g>
</g>
<g>
	<g>
		<line class="st6" x1="164.8" y1="120.6" x2="164.8" y2="96.4"/>
		<g>
			<polygon class="st1" points="166.3,97.4 164.8,92 163.4,97.4 			"/>
		</g>
	</g>
</g>
<g>
	<g>
		<line class="st7" x1="164.8" y1="120.6" x2="152.3" y2="130.7"/>
		<g>
			<polygon class="st3" points="152.2,128.9 148.9,133.5 154,131.2 			"/>
		</g>
	</g>
</g>
<g>
	<g>
		<line class="st8" x1="164.8" y1="120.6" x2="183.3" y2="120.6"/>
		<g>
			<polygon class="st5" points="182.3,122.1 187.7,120.6 182.3,119.2 			"/>
		</g>
	</g>
</g>
<g>
	<g>
		<line class="st6" x1="200" y1="104.5" x2="200" y2="80.3"/>
		<g>
			<polygon class="st1" points="201.5,81.3 200,75.9 198.6,81.3 			"/>
		</g>
	</g>
</g>
<g>
	<g>
		<line class="st7" x1="200" y1="104.5" x2="187.5" y2="114.6"/>
		<g>
			<polygon class="st3" points="187.4,112.8 184,117.4 189.2,115.1 			"/>
		</g>
	</g>
</g>
<g>
	<g>
		<line class="st8" x1="200" y1="104.5" x2="218.5" y2="104.5"/>
		<g>
			<polygon class="st5" points="217.5,106 222.9,104.5 217.5,103 			"/>
		</g>
	</g>
</g>
<g>
	<g>
		<g>
			<line class="st6" x1="237.9" y1="89" x2="237.9" y2="64.8"/>
			<g>
				<polygon class="st1" points="239.3,65.8 237.9,60.3 236.4,65.8 				"/>
			</g>
		</g>
	</g>
	<g>
		<g>
			<line class="st7" x1="237.9" y1="89" x2="225.3" y2="99.1"/>
			<g>
				<polygon class="st3" points="225.2,97.3 221.9,101.8 227,99.6 				"/>
			</g>
		</g>
	</g>
	<g>
		<g>
			<line class="st8" x1="237.9" y1="89" x2="256.3" y2="89"/>
			<g>
				<polygon class="st5" points="255.3,90.4 260.7,89 255.3,87.5 				"/>
			</g>
		</g>
	</g>
</g>
<g>
	<g>
		<g>
			<line class="st6" x1="408.4" y1="130.5" x2="415.4" y2="107.3"/>
			<g>
				<polygon class="st1" points="416.5,108.7 416.7,103.1 413.8,107.8 				"/>
			</g>
		</g>
	</g>
	<g>
		<g>
			<line class="st7" x1="408.4" y1="130.5" x2="393.5" y2="136.5"/>
			<g>
				<polygon class="st3" points="393.9,134.8 389.4,138.1 395,137.5 				"/>
			</g>
		</g>
	</g>
	<g>
		<g>
			<line class="st8" x1="408.4" y1="130.5" x2="426.1" y2="135.8"/>
			<g>
				<polygon class="st5" points="424.7,136.9 430.3,137.1 425.5,134.1 				"/>
			</g>
		</g>
	</g>
</g>
<g>
	<g>
		<g>
			<line class="st6" x1="427.1" y1="97.2" x2="420.1" y2="74"/>
			<g>
				<polygon class="st1" points="421.8,74.6 418.8,69.8 419,75.4 				"/>
			</g>
		</g>
	</g>
	<g>
		<g>
			<line class="st7" x1="427.1" y1="97.2" x2="418.1" y2="110.5"/>
			<g>
				<polygon class="st3" points="417.4,108.9 415.6,114.2 419.8,110.5 				"/>
			</g>
		</g>
	</g>
	<g>
		<g>
			<line class="st8" x1="427.1" y1="97.2" x2="444.8" y2="91.9"/>
			<g>
				<polygon class="st5" points="444.2,93.5 449,90.6 443.4,90.8 				"/>
			</g>
		</g>
	</g>
</g>
<g>
	<g>
		<g>
			<line class="st6" x1="459.6" y1="81.8" x2="448.1" y2="60.5"/>
			<g>
				<polygon class="st1" points="449.8,60.7 446,56.6 447.3,62.1 				"/>
			</g>
		</g>
	</g>
	<g>
		<g>
			<line class="st7" x1="459.6" y1="81.8" x2="453.3" y2="96.7"/>
			<g>
				<polygon class="st3" points="452.4,95.2 451.6,100.7 455.1,96.3 				"/>
			</g>
		</g>
	</g>
	<g>
		<g>
			<line class="st8" x1="459.6" y1="81.8" x2="475.8" y2="73.1"/>
			<g>
				<polygon class="st5" points="475.6,74.8 479.7,71 474.2,72.3 				"/>
			</g>
		</g>
	</g>
</g>
<g>
	<g>
		<g>
			<line class="st6" x1="500.7" y1="95.9" x2="524.2" y2="90.4"/>
			<g>
				<polygon class="st1" points="523.6,92 528.5,89.4 522.9,89.2 				"/>
			</g>
		</g>
	</g>
	<g>
		<g>
			<line class="st7" x1="500.7" y1="95.9" x2="488" y2="86"/>
			<g>
				<polygon class="st3" points="489.6,85.5 484.5,83.3 487.9,87.8 				"/>
			</g>
		</g>
	</g>
	<g>
		<g>
			<line class="st8" x1="500.7" y1="95.9" x2="504.9" y2="113.9"/>
			<g>
				<polygon class="st5" points="503.2,113.2 505.9,118.2 506,112.6 				"/>
			</g>
		</g>
	</g>
</g>
<g>
	<g>
		<g>
			<line class="st6" x1="528.6" y1="116.3" x2="532.2" y2="92.4"/>
			<g>
				<polygon class="st1" points="533.5,93.6 532.8,88 530.6,93.2 				"/>
			</g>
		</g>
	</g>
	<g>
		<g>
			<line class="st7" x1="528.6" y1="116.3" x2="514.7" y2="124.5"/>
			<g>
				<polygon class="st3" points="514.8,122.7 510.9,126.7 516.3,125.2 				"/>
			</g>
		</g>
	</g>
	<g>
		<g>
			<line class="st8" x1="528.6" y1="116.3" x2="546.8" y2="119.1"/>
			<g>
				<polygon class="st5" points="545.6,120.4 551.2,119.7 546,117.5 				"/>
			</g>
		</g>
	</g>
</g>
<g>
	<g>
		<g>
			<line class="st6" x1="558.7" y1="124.3" x2="549.5" y2="102"/>
			<g>
				<polygon class="st1" points="551.2,102.3 547.8,97.9 548.5,103.4 				"/>
			</g>
		</g>
	</g>
	<g>
		<g>
			<line class="st7" x1="558.7" y1="124.3" x2="550.9" y2="138.4"/>
			<g>
				<polygon class="st3" points="550.1,136.9 548.8,142.3 552.7,138.3 				"/>
			</g>
		</g>
	</g>
	<g>
		<g>
			<line class="st8" x1="558.7" y1="124.3" x2="575.7" y2="117.3"/>
			<g>
				<polygon class="st5" points="575.4,119 579.8,115.6 574.2,116.3 				"/>
			</g>
		</g>
	</g>
</g>
<g>
	<g>
		<g>
			<line class="st6" x1="589.7" y1="119.8" x2="599.1" y2="97.5"/>
			<g>
				<polygon class="st1" points="600,99 600.8,93.5 597.3,97.9 				"/>
			</g>
		</g>
	</g>
	<g>
		<g>
			<line class="st7" x1="589.7" y1="119.8" x2="574.2" y2="124.3"/>
			<g>
				<polygon class="st3" points="574.7,122.6 569.9,125.5 575.6,125.4 				"/>
			</g>
		</g>
	</g>
	<g>
		<g>
			<line class="st8" x1="589.7" y1="119.8" x2="606.6" y2="127"/>
			<g>
				<polygon class="st5" points="605.2,128 610.7,128.7 606.3,125.3 				"/>
			</g>
		</g>
	</g>
</g>
<g>
	<g>
		<g>
			<line class="st6" x1="608.7" y1="100" x2="618.1" y2="77.7"/>
			<g>
				<polygon class="st1" points="619,79.2 619.8,73.6 616.3,78.1 				"/>
			</g>
		</g>
	</g>
	<g>
		<g>
			<line class="st7" x1="608.7" y1="100" x2="593.2" y2="104.5"/>
			<g>
				<polygon class="st3" points="593.7,102.8 588.9,105.7 594.6,105.6 				"/>
			</g>
		</g>
	</g>
	<g>
		<g>
			<line class="st8" x1="608.7" y1="100" x2="625.6" y2="107.2"/>
			<g>
				<polygon class="st5" points="624.2,108.1 629.7,108.9 625.3,105.5 				"/>
			</g>
		</g>
	</g>
</g>
<g>
	<g>
		<line class="st0" x1="273.3" y1="73.3" x2="273.3" y2="17.7"/>
		<g>
			<polygon class="st1" points="276.2,19.7 273.3,8.8 270.4,19.7 			"/>
		</g>
	</g>
</g>
<g>
	<g>
		<line class="st2" x1="273.3" y1="73.3" x2="244.2" y2="96.8"/>
		<g>
			<polygon class="st3" points="244,93.3 237.3,102.3 247.6,97.8 			"/>
		</g>
	</g>
</g>
<g>
	<g>
		<line class="st4" x1="273.3" y1="73.3" x2="316" y2="73.3"/>
		<g>
			<polygon class="st5" points="314,76.2 324.8,73.3 314,70.4 			"/>
		</g>
	</g>
</g>
<line class="st9" x1="55.3" y1="166.8" x2="274" y2="73.3"/>
<circle cx="92.1" cy="151.3" r="2.2"/>
<circle cx="55.3" cy="166.8" r="2.2"/>
<circle cx="273.3" cy="73.3" r="2.2"/>
<circle cx="127.6" cy="135.7" r="2.2"/>
<circle cx="164.7" cy="120.1" r="2.2"/>
<circle cx="200" cy="104.5" r="2.2"/>
<circle cx="238.1" cy="88.9" r="2.2"/>
<g>
	<g>
		<line class="st0" x1="397.5" y1="166.8" x2="397.5" y2="111.2"/>
		<g>
			<polygon class="st1" points="400.4,113.2 397.5,102.3 394.6,113.2 			"/>
		</g>
	</g>
</g>
<g>
	<g>
		<line class="st2" x1="397.5" y1="166.8" x2="368.4" y2="190.3"/>
		<g>
			<polygon class="st3" points="368.1,186.8 361.5,195.8 371.8,191.3 			"/>
		</g>
	</g>
</g>
<g>
	<g>
		<line class="st4" x1="397.5" y1="166.8" x2="440.1" y2="166.8"/>
		<g>
			<polygon class="st5" points="438.2,169.7 449,166.8 438.2,163.9 			"/>
		</g>
	</g>
</g>
<g>
	<g>
		<line class="st0" x1="615.5" y1="73.3" x2="615.5" y2="17.7"/>
		<g>
			<polygon class="st1" points="618.4,19.7 615.5,8.8 612.6,19.7 			"/>
		</g>
	</g>
</g>
<g>
	<g>
		<line class="st2" x1="615.5" y1="73.3" x2="586.4" y2="96.8"/>
		<g>
			<polygon class="st3" points="586.1,93.3 579.5,102.3 589.8,97.8 			"/>
		</g>
	</g>
</g>
<g>
	<g>
		<line class="st4" x1="615.5" y1="73.3" x2="658.1" y2="73.3"/>
		<g>
			<polygon class="st5" points="656.2,76.2 667,73.3 656.2,70.4 			"/>
		</g>
	</g>
</g>
<circle cx="407.8" cy="131.3" r="2.2"/>
<circle cx="397.5" cy="166.8" r="2.2"/>
<circle cx="615.5" cy="73.3" r="2.2"/>
<circle cx="426.6" cy="96.8" r="2.2"/>
<circle cx="460.1" cy="82.1" r="2.2"/>
<circle cx="500.1" cy="95.8" r="2.2"/>
<circle cx="528.6" cy="116.3" r="2.2"/>
<circle cx="558.8" cy="124.8" r="2.2"/>
<circle cx="590.3" cy="120.1" r="2.2"/>
<circle cx="609.3" cy="99" r="2.2"/>
<path class="st9" d="M397.5,166.8c16.8-73.5,40.5-85.7,70.1-85c33,0.8,47.8,44,98.3,43.5s49.7-52,49.7-52"/>
</svg>
