<?xml version="1.0" encoding="utf-8"?>
<!-- Generator: Adobe Illustrator 19.1.0, SVG Export Plug-In . SVG Version: 6.00 Build 0)  -->
<svg version="1.1" id="Layer_1" xmlns="http://www.w3.org/2000/svg" xmlns:xlink="http://www.w3.org/1999/xlink" x="0px" y="0px"
	 viewBox="275.8 275.2 340.2 283.5" style="enable-background:new 275.8 275.2 340.2 283.5;" xml:space="preserve">
<style type="text/css">
	@import url('https://fonts.googleapis.com/css?family=Roboto');
	.st0{font-family:'Roboto';}
	.st1{font-size:10px;}
	.st2{fill:none;stroke:#E31013;stroke-linecap:round;stroke-linejoin:round;}
	.st3{fill:#E31013;}
	.st4{fill:none;stroke:#3E4999;stroke-linecap:round;stroke-linejoin:round;}
	.st5{fill:#3E4999;}
	.st6{fill:none;stroke:#6EB52C;stroke-linecap:round;stroke-linejoin:round;}
	.st7{fill:#6EB52C;}
	.st8{fill:none;stroke:#BCBCBB;stroke-width:0.25;stroke-linecap:round;stroke-linejoin:round;}
	.st9{fill:none;stroke:#E31013;stroke-width:0.8;stroke-linecap:round;stroke-linejoin:round;}
	.st10{fill:none;stroke:#6EB52C;stroke-width:0.8;stroke-linecap:round;stroke-linejoin:round;}
	.st11{fill:none;stroke:#3E4999;stroke-width:0.8;stroke-linecap:round;stroke-linejoin:round;}
</style>
<g>
	<g id="Layer_2_2_">
		<g id="txt">
			<text transform="matrix(1 0 0 1 282.6012 542.5505)" class="st0 st1">xaxis</text>
			<text transform="matrix(1 0 0 1 435.1055 297.7297)" class="st0 st1">zaxis</text>
			<text transform="matrix(1 0 0 1 586.7529 542.5494)" class="st0 st1">yaxis</text>
			<text transform="matrix(1 0 0 1 458.7676 469.9265)" class="st0 st1">point</text>
		</g>
		<g id="arrows">
			<line class="st2" x1="445.8" y1="468.3" x2="323" y2="539.1"/>
			<polygon class="st3" points="321.8,534.2 317,542.5 326.6,542.5 			"/>
			<line class="st4" x1="445.8" y1="468.3" x2="445.8" y2="311.3"/>
			<polygon class="st5" points="450.6,312.7 445.8,304.4 441,312.7 			"/>
			<line class="st6" x1="445.8" y1="468.3" x2="569.1" y2="539.1"/>
			<polygon class="st7" points="565.5,542.5 575,542.5 570.3,534.2 			"/>
			<path d="M449.4,468.9c0-1.9-1.6-3.5-3.5-3.5s-3.5,1.6-3.5,3.5s1.6,3.5,3.5,3.5C447.8,472.3,449.4,470.8,449.4,468.9"/>
		</g>
	</g>
	<g id="Layer_1_2_">
		<g>
			<g id="Layer_1_1_">
				<g id="Layer_5">
					<g>
						<line class="st8" x1="384.6" y1="368.7" x2="361.4" y2="424.8"/>
						<line class="st8" x1="393" y1="372.7" x2="369.8" y2="428.8"/>
						<line class="st8" x1="401.3" y1="377.9" x2="378.2" y2="434.1"/>
						<line class="st8" x1="409.7" y1="382.2" x2="386.6" y2="438.4"/>
						<line class="st8" x1="418.1" y1="386" x2="395" y2="442.1"/>
						<line class="st8" x1="364.4" y1="417.6" x2="431.2" y2="452.5"/>
						<line class="st8" x1="361.7" y1="424.6" x2="428.5" y2="459.5"/>
						<line class="st8" x1="373" y1="396.6" x2="439.8" y2="431.5"/>
						<line class="st8" x1="369.9" y1="403.6" x2="436.7" y2="438.5"/>
						<line class="st8" x1="366.8" y1="410.6" x2="433.6" y2="445.5"/>
						<line class="st8" x1="381.5" y1="375.8" x2="448.3" y2="410.7"/>
						<line class="st8" x1="378.3" y1="382.7" x2="445.1" y2="417.6"/>
						<line class="st8" x1="376.3" y1="389.8" x2="443.1" y2="424.7"/>
						<line class="st8" x1="384.7" y1="368.7" x2="451.5" y2="403.6"/>
						<line class="st8" x1="426.5" y1="390.7" x2="403.3" y2="446.8"/>
						<line class="st8" x1="434.8" y1="394.9" x2="411.7" y2="451"/>
						<line class="st8" x1="443.2" y1="399.2" x2="420.1" y2="455.3"/>
						<line class="st8" x1="451.6" y1="402.9" x2="428.5" y2="459"/>
					</g>
				</g>
				<g>
					<g>
						<line class="st9" x1="406.5" y1="414.1" x2="378.1" y2="482.9"/>
						<g>
							<polygon class="st3" points="374.9,480.3 376,488.2 382.3,483.3 							"/>
						</g>
					</g>
				</g>
				<g>
					<g>
						<line class="st10" x1="406.5" y1="414.1" x2="489.5" y2="457.5"/>
						<g>
							<polygon class="st7" points="486.7,460.5 494.6,460.2 490.4,453.4 							"/>
						</g>
					</g>
				</g>
				<g>
					<g>
						<line class="st11" x1="406.5" y1="414.1" x2="438.7" y2="369.2"/>
						<g>
							<polygon class="st5" points="441.3,372.5 442.1,364.5 434.8,367.8 							"/>
						</g>
					</g>
				</g>
				<text transform="matrix(1 0 0 1 400.5182 405.1623)" class="st0 st1">P</text>
				<g id="Layer_2">
				</g>
			</g>
			<g id="Layer_2_1_">
				<path d="M408.7,415c0-1.6-1.3-2.8-2.8-2.8c-1.6,0-2.8,1.3-2.8,2.8c0,1.6,1.3,2.8,2.8,2.8C407.4,417.9,408.7,416.6,408.7,415"/>
			</g>
		</g>
	</g>
</g>
</svg>
