<?xml version="1.0" encoding="utf-8"?>
<!-- Generator: Adobe Illustrator 19.1.0, SVG Export Plug-In . SVG Version: 6.00 Build 0)  -->
<svg version="1.1" id="Layer_1" xmlns="http://www.w3.org/2000/svg" xmlns:xlink="http://www.w3.org/1999/xlink" x="0px" y="0px"
	 viewBox="282.5 299.2 283.5 255.1" style="enable-background:new 282.5 299.2 283.5 255.1;" xml:space="preserve">
<style type="text/css">
	@import url('https://fonts.googleapis.com/css?family=Roboto');
	.st0{fill:none;stroke:#E31013;stroke-linecap:round;stroke-linejoin:round;}
	.st1{fill:#E31013;}
	.st2{fill:none;stroke:#3E4999;stroke-linecap:round;stroke-linejoin:round;}
	.st3{fill:#3E4999;}
	.st4{fill:none;stroke:#6EB52C;stroke-linecap:round;stroke-linejoin:round;}
	.st5{fill:#6EB52C;}
	.st6{fill:none;stroke:#E31013;stroke-width:0.8;stroke-linecap:round;stroke-linejoin:round;}
	.st7{fill:none;stroke:#6EB52C;stroke-width:0.8;stroke-linecap:round;stroke-linejoin:round;}
	.st8{fill:none;stroke:#3E4999;stroke-width:0.8;stroke-linecap:round;stroke-linejoin:round;}
	.st9{font-family:'Roboto';}
	.st10{font-size:12px;}
	.st11{fill:none;stroke:#6B6766;stroke-linecap:round;stroke-linejoin:round;stroke-dasharray:3,3;}
	.st12{fill:none;stroke:#6B6766;stroke-width:0.5;stroke-linecap:round;stroke-linejoin:round;stroke-dasharray:3,3;}
</style>
<g id="Layer_2_2_">
</g>
<g id="Layer_1_2_">
	<g>
		<g id="arrows">
			<line class="st0" x1="423.6" y1="471.6" x2="300.8" y2="542.4"/>
			<polygon class="st1" points="299.6,537.5 294.8,545.8 304.4,545.8 			"/>
			<line class="st2" x1="423.6" y1="471.6" x2="423.6" y2="314.6"/>
			<polygon class="st3" points="428.4,316 423.6,307.7 418.8,316 			"/>
			<line class="st4" x1="423.6" y1="471.6" x2="546.9" y2="542.4"/>
			<polygon class="st5" points="543.3,545.8 552.8,545.8 548.1,537.5 			"/>
			<path d="M427.2,472.2c0-1.9-1.6-3.5-3.5-3.5s-3.5,1.6-3.5,3.5s1.6,3.5,3.5,3.5C425.6,475.6,427.2,474.1,427.2,472.2"/>
		</g>
		<g id="Layer_1_1_">
			<g>
				<g>
					<line class="st6" x1="349.5" y1="402.9" x2="321.1" y2="471.7"/>
					<g>
						<polygon class="st1" points="317.9,469.1 319,477 325.3,472.1 						"/>
					</g>
				</g>
			</g>
			<g>
				<g>
					<line class="st7" x1="349.5" y1="402.9" x2="432.5" y2="446.3"/>
					<g>
						<polygon class="st5" points="429.7,449.3 437.6,449 433.4,442.2 						"/>
					</g>
				</g>
			</g>
			<g>
				<g>
					<line class="st8" x1="349.5" y1="402.9" x2="381.7" y2="358"/>
					<g>
						<polygon class="st3" points="384.3,361.3 385.1,353.3 377.8,356.6 						"/>
					</g>
				</g>
			</g>
			<text transform="matrix(1 0 0 1 343.5521 391.8983)" class="st9 st10">F</text>
			<text transform="matrix(1 0 0 1 407.4954 452.1713)" class="st9 st10">P</text>
			<g id="Layer_2">
			</g>
		</g>
		<path d="M351.7,403.8c0-1.6-1.3-2.8-2.8-2.8c-1.6,0-2.8,1.3-2.8,2.8c0,1.6,1.3,2.8,2.8,2.8C350.4,406.7,351.7,405.4,351.7,403.8"
			/>
		<g id="Layer_3">
			<line class="st11" x1="352.8" y1="416.4" x2="332.4" y2="445.1"/>
			<line class="st11" x1="402.6" y1="442.2" x2="382.2" y2="470.9"/>
			<line class="st11" x1="332.4" y1="445.1" x2="382.2" y2="470.9"/>
			<line class="st11" x1="352.8" y1="416.4" x2="402.6" y2="442.2"/>
			<line class="st11" x1="369.7" y1="374.2" x2="352.8" y2="416.4"/>
			<line class="st11" x1="419.5" y1="400" x2="402.6" y2="442.2"/>
			<line class="st11" x1="369.8" y1="374.8" x2="419.5" y2="400"/>
			<line class="st12" x1="419.5" y1="400" x2="399" y2="428.7"/>
			<line class="st12" x1="399" y1="428.7" x2="382.2" y2="470.9"/>
			<path d="M405.6,441.8c0-1.6-1.3-2.8-2.8-2.8c-1.6,0-2.8,1.3-2.8,2.8c0,1.6,1.3,2.8,2.8,2.8C404.3,444.7,405.6,443.4,405.6,441.8"
				/>
		</g>
	</g>
</g>
</svg>
