<?xml version="1.0" encoding="utf-8"?>
<!-- Generator: Adobe Illustrator 19.1.0, SVG Export Plug-In . SVG Version: 6.00 Build 0)  -->
<svg version="1.1" id="Layer_1" xmlns="http://www.w3.org/2000/svg" xmlns:xlink="http://www.w3.org/1999/xlink" x="0px" y="0px"
	 viewBox="608.6 503.3 425.2 340.2" style="enable-background:new 608.6 503.3 425.2 340.2;" xml:space="preserve">
<style type="text/css">
	@import url('https://fonts.googleapis.com/css?family=Roboto');
	.st0{fill:none;stroke:#BCBCBB;stroke-width:0.5;stroke-linecap:round;stroke-linejoin:round;}
	.st1{font-family:'Roboto';}
	.st2{font-size:10px;}
	.st3{fill:none;stroke:#E31013;stroke-linecap:round;stroke-linejoin:round;}
	.st4{fill:#E31013;}
	.st5{fill:none;stroke:#3E4999;stroke-linecap:round;stroke-linejoin:round;}
	.st6{fill:#3E4999;}
	.st7{fill:none;stroke:#6EB52C;stroke-linecap:round;stroke-linejoin:round;}
	.st8{fill:#6EB52C;}
</style>
<g>
	<g id="Layer_4">
	</g>
	<g id="Layer_6">
		<g>
			<line class="st0" x1="932.3" y1="763" x2="954.4" y2="750.2"/>
			<line class="st0" x1="865.6" y1="801.5" x2="887.9" y2="788.7"/>
			<line class="st0" x1="954.4" y1="750.2" x2="976.6" y2="737.4"/>
			<line class="st0" x1="976.6" y1="737.4" x2="998.9" y2="724.6"/>
			<line class="st0" x1="998.9" y1="724.6" x2="1021.1" y2="711.7"/>
			<line class="st0" x1="843.4" y1="814.3" x2="865.6" y2="801.5"/>
			<line class="st0" x1="910.1" y1="775.8" x2="932.3" y2="763"/>
			<line class="st0" x1="887.9" y1="788.7" x2="910.1" y2="775.8"/>
			<line class="st0" x1="821.2" y1="827.1" x2="843.4" y2="814.3"/>
			<line class="st0" x1="821.2" y1="801.5" x2="843.4" y2="788.7"/>
			<line class="st0" x1="799" y1="814.3" x2="821.2" y2="801.5"/>
			<line class="st0" x1="887.9" y1="763" x2="910.1" y2="750.2"/>
			<line class="st0" x1="843.4" y1="788.7" x2="865.6" y2="775.8"/>
			<line class="st0" x1="910.1" y1="750.2" x2="932.3" y2="737.4"/>
			<line class="st0" x1="865.6" y1="775.8" x2="887.9" y2="763"/>
			<line class="st0" x1="976.6" y1="711.7" x2="998.9" y2="698.9"/>
			<line class="st0" x1="932.3" y1="737.4" x2="954.4" y2="724.6"/>
			<line class="st0" x1="954.4" y1="724.6" x2="976.6" y2="711.7"/>
			<line class="st0" x1="799" y1="788.7" x2="821.2" y2="775.8"/>
			<line class="st0" x1="776.8" y1="801.5" x2="799" y2="788.7"/>
			<line class="st0" x1="910.1" y1="724.6" x2="932.3" y2="711.7"/>
			<line class="st0" x1="887.9" y1="737.4" x2="910.1" y2="724.6"/>
			<line class="st0" x1="865.6" y1="750.2" x2="887.9" y2="737.4"/>
			<line class="st0" x1="821.2" y1="775.8" x2="843.4" y2="763"/>
			<line class="st0" x1="843.4" y1="763" x2="865.6" y2="750.2"/>
			<line class="st0" x1="976.6" y1="686.1" x2="954.4" y2="698.9"/>
			<line class="st0" x1="932.3" y1="711.7" x2="954.4" y2="698.9"/>
			<line class="st0" x1="887.9" y1="686.1" x2="865.6" y2="698.9"/>
			<line class="st0" x1="910.1" y1="673.3" x2="887.9" y2="686.1"/>
			<line class="st0" x1="843.4" y1="711.7" x2="865.6" y2="698.9"/>
			<line class="st0" x1="821.2" y1="724.6" x2="843.4" y2="711.7"/>
			<line class="st0" x1="732.3" y1="775.8" x2="754.5" y2="763"/>
			<line class="st0" x1="799" y1="737.4" x2="821.2" y2="724.6"/>
			<line class="st0" x1="754.5" y1="763" x2="776.8" y2="750.2"/>
			<line class="st0" x1="776.8" y1="750.2" x2="799" y2="737.4"/>
			<line class="st0" x1="932.3" y1="660.5" x2="910.1" y2="673.3"/>
			<line class="st0" x1="754.5" y1="788.7" x2="776.8" y2="775.8"/>
			<line class="st0" x1="776.8" y1="775.8" x2="799" y2="763"/>
			<line class="st0" x1="954.4" y1="673.3" x2="932.3" y2="686.1"/>
			<line class="st0" x1="932.3" y1="686.1" x2="910.1" y2="698.9"/>
			<line class="st0" x1="887.9" y1="711.7" x2="910.1" y2="698.9"/>
			<line class="st0" x1="865.6" y1="724.6" x2="887.9" y2="711.7"/>
			<line class="st0" x1="821.2" y1="750.2" x2="843.4" y2="737.4"/>
			<line class="st0" x1="799" y1="763" x2="821.2" y2="750.2"/>
			<line class="st0" x1="843.4" y1="737.4" x2="865.6" y2="724.6"/>
			<line class="st0" x1="843.4" y1="686.1" x2="821.2" y2="698.9"/>
			<line class="st0" x1="865.6" y1="673.3" x2="843.4" y2="686.1"/>
			<line class="st0" x1="910.1" y1="647.6" x2="887.9" y2="660.5"/>
			<line class="st0" x1="710.1" y1="763" x2="732.3" y2="750.2"/>
			<line class="st0" x1="821.2" y1="698.9" x2="799" y2="711.7"/>
			<line class="st0" x1="754.5" y1="737.4" x2="776.8" y2="724.6"/>
			<line class="st0" x1="776.8" y1="724.6" x2="799" y2="711.7"/>
			<line class="st0" x1="887.9" y1="660.5" x2="865.6" y2="673.3"/>
			<line class="st0" x1="732.3" y1="750.2" x2="754.5" y2="737.4"/>
			<line class="st0" x1="865.6" y1="647.6" x2="843.4" y2="660.5"/>
			<line class="st0" x1="776.8" y1="698.9" x2="754.5" y2="711.7"/>
			<line class="st0" x1="821.2" y1="673.3" x2="799" y2="686.1"/>
			<line class="st0" x1="688" y1="750.2" x2="710.1" y2="737.4"/>
			<line class="st0" x1="732.3" y1="724.6" x2="754.5" y2="711.7"/>
			<line class="st0" x1="799" y1="686.1" x2="776.8" y2="698.9"/>
			<line class="st0" x1="710.1" y1="737.4" x2="732.3" y2="724.6"/>
			<line class="st0" x1="887.9" y1="634.7" x2="865.6" y2="647.6"/>
			<line class="st0" x1="843.4" y1="660.5" x2="821.2" y2="673.3"/>
			<line class="st0" x1="799" y1="660.5" x2="776.8" y2="673.3"/>
			<line class="st0" x1="821.2" y1="647.6" x2="799" y2="660.5"/>
			<line class="st0" x1="865.6" y1="621.9" x2="843.4" y2="634.7"/>
			<line class="st0" x1="776.8" y1="673.3" x2="754.5" y2="686.1"/>
			<line class="st0" x1="732.3" y1="698.9" x2="710.1" y2="711.7"/>
			<line class="st0" x1="688" y1="724.6" x2="710.1" y2="711.7"/>
			<line class="st0" x1="843.4" y1="634.7" x2="821.2" y2="647.6"/>
			<line class="st0" x1="665.8" y1="737.4" x2="688" y2="724.6"/>
			<line class="st0" x1="754.5" y1="686.1" x2="732.3" y2="698.9"/>
			<line class="st0" x1="821.2" y1="621.9" x2="799" y2="634.7"/>
			<line class="st0" x1="754.5" y1="660.5" x2="732.3" y2="673.3"/>
			<line class="st0" x1="776.8" y1="647.6" x2="754.5" y2="660.5"/>
			<line class="st0" x1="799" y1="634.7" x2="776.8" y2="647.6"/>
			<line class="st0" x1="643.5" y1="724.6" x2="665.8" y2="711.7"/>
			<line class="st0" x1="688" y1="698.9" x2="665.8" y2="711.7"/>
			<line class="st0" x1="732.3" y1="673.3" x2="710.1" y2="686.1"/>
			<line class="st0" x1="710.1" y1="686.1" x2="688" y2="698.9"/>
			<line class="st0" x1="843.4" y1="609.1" x2="821.2" y2="621.9"/>
			<line class="st0" x1="710.1" y1="660.5" x2="688" y2="673.3"/>
			<line class="st0" x1="732.3" y1="647.6" x2="710.1" y2="660.5"/>
			<line class="st0" x1="665.8" y1="686.1" x2="643.5" y2="698.9"/>
			<line class="st0" x1="688" y1="673.3" x2="665.8" y2="686.1"/>
			<line class="st0" x1="643.5" y1="698.9" x2="621.3" y2="711.7"/>
			<line class="st0" x1="799" y1="609.1" x2="776.8" y2="621.9"/>
			<line class="st0" x1="754.5" y1="634.7" x2="732.3" y2="647.6"/>
			<line class="st0" x1="821.2" y1="596.3" x2="799" y2="609.1"/>
			<line class="st0" x1="776.8" y1="621.9" x2="754.5" y2="634.7"/>
			<line class="st0" x1="754.5" y1="788.7" x2="776.8" y2="801.5"/>
			<line class="st0" x1="710.1" y1="763" x2="732.3" y2="775.8"/>
			<line class="st0" x1="688" y1="750.2" x2="710.1" y2="763"/>
			<line class="st0" x1="776.8" y1="801.5" x2="799" y2="814.3"/>
			<line class="st0" x1="665.8" y1="737.4" x2="688" y2="750.2"/>
			<line class="st0" x1="799" y1="814.3" x2="821.2" y2="827.1"/>
			<line class="st0" x1="732.3" y1="775.8" x2="754.5" y2="788.7"/>
			<line class="st0" x1="621.3" y1="711.7" x2="643.5" y2="724.6"/>
			<line class="st0" x1="643.5" y1="724.6" x2="665.8" y2="737.4"/>
			<line class="st0" x1="643.5" y1="698.9" x2="665.8" y2="711.7"/>
			<line class="st0" x1="665.8" y1="711.7" x2="688" y2="724.6"/>
			<line class="st0" x1="799" y1="788.7" x2="821.2" y2="801.5"/>
			<line class="st0" x1="732.3" y1="750.2" x2="754.5" y2="763"/>
			<line class="st0" x1="754.5" y1="763" x2="776.8" y2="775.8"/>
			<line class="st0" x1="710.1" y1="737.4" x2="732.3" y2="750.2"/>
			<line class="st0" x1="688" y1="724.6" x2="710.1" y2="737.4"/>
			<line class="st0" x1="776.8" y1="775.8" x2="799" y2="788.7"/>
			<line class="st0" x1="843.4" y1="814.3" x2="821.2" y2="801.5"/>
			<line class="st0" x1="776.8" y1="750.2" x2="799" y2="763"/>
			<line class="st0" x1="865.6" y1="801.5" x2="843.4" y2="788.7"/>
			<line class="st0" x1="843.4" y1="788.7" x2="821.2" y2="775.8"/>
			<line class="st0" x1="799" y1="763" x2="821.2" y2="775.8"/>
			<line class="st0" x1="665.8" y1="686.1" x2="688" y2="698.9"/>
			<line class="st0" x1="754.5" y1="737.4" x2="776.8" y2="750.2"/>
			<line class="st0" x1="688" y1="698.9" x2="710.1" y2="711.7"/>
			<line class="st0" x1="710.1" y1="711.7" x2="732.3" y2="724.6"/>
			<line class="st0" x1="732.3" y1="724.6" x2="754.5" y2="737.4"/>
			<line class="st0" x1="754.5" y1="686.1" x2="776.8" y2="698.9"/>
			<line class="st0" x1="843.4" y1="737.4" x2="821.2" y2="724.6"/>
			<line class="st0" x1="865.6" y1="750.2" x2="843.4" y2="737.4"/>
			<line class="st0" x1="732.3" y1="673.3" x2="754.5" y2="686.1"/>
			<line class="st0" x1="776.8" y1="698.9" x2="799" y2="711.7"/>
			<line class="st0" x1="799" y1="711.7" x2="821.2" y2="724.6"/>
			<line class="st0" x1="887.9" y1="763" x2="865.6" y2="750.2"/>
			<line class="st0" x1="710.1" y1="660.5" x2="732.3" y2="673.3"/>
			<line class="st0" x1="910.1" y1="775.8" x2="887.9" y2="763"/>
			<line class="st0" x1="710.1" y1="686.1" x2="732.3" y2="698.9"/>
			<line class="st0" x1="688" y1="673.3" x2="710.1" y2="686.1"/>
			<line class="st0" x1="887.9" y1="788.7" x2="865.6" y2="775.8"/>
			<line class="st0" x1="754.5" y1="711.7" x2="776.8" y2="724.6"/>
			<line class="st0" x1="843.4" y1="763" x2="821.2" y2="750.2"/>
			<line class="st0" x1="732.3" y1="698.9" x2="754.5" y2="711.7"/>
			<line class="st0" x1="776.8" y1="724.6" x2="799" y2="737.4"/>
			<line class="st0" x1="799" y1="737.4" x2="821.2" y2="750.2"/>
			<line class="st0" x1="865.6" y1="775.8" x2="843.4" y2="763"/>
			<line class="st0" x1="754.5" y1="660.5" x2="776.8" y2="673.3"/>
			<line class="st0" x1="776.8" y1="673.3" x2="799" y2="686.1"/>
			<line class="st0" x1="932.3" y1="763" x2="910.1" y2="750.2"/>
			<line class="st0" x1="865.6" y1="724.6" x2="843.4" y2="711.7"/>
			<line class="st0" x1="887.9" y1="737.4" x2="865.6" y2="724.6"/>
			<line class="st0" x1="910.1" y1="750.2" x2="887.9" y2="737.4"/>
			<line class="st0" x1="843.4" y1="711.7" x2="821.2" y2="698.9"/>
			<line class="st0" x1="799" y1="686.1" x2="821.2" y2="698.9"/>
			<line class="st0" x1="732.3" y1="647.6" x2="754.5" y2="660.5"/>
			<line class="st0" x1="776.8" y1="647.6" x2="799" y2="660.5"/>
			<line class="st0" x1="799" y1="660.5" x2="821.2" y2="673.3"/>
			<line class="st0" x1="910.1" y1="724.6" x2="887.9" y2="711.7"/>
			<line class="st0" x1="843.4" y1="686.1" x2="821.2" y2="673.3"/>
			<line class="st0" x1="865.6" y1="698.9" x2="843.4" y2="686.1"/>
			<line class="st0" x1="932.3" y1="737.4" x2="910.1" y2="724.6"/>
			<line class="st0" x1="887.9" y1="711.7" x2="865.6" y2="698.9"/>
			<line class="st0" x1="754.5" y1="634.7" x2="776.8" y2="647.6"/>
			<line class="st0" x1="954.4" y1="750.2" x2="932.3" y2="737.4"/>
			<line class="st0" x1="910.1" y1="698.9" x2="887.9" y2="686.1"/>
			<line class="st0" x1="976.6" y1="737.4" x2="954.4" y2="724.6"/>
			<line class="st0" x1="954.4" y1="724.6" x2="932.3" y2="711.7"/>
			<line class="st0" x1="932.3" y1="711.7" x2="910.1" y2="698.9"/>
			<line class="st0" x1="799" y1="634.7" x2="821.2" y2="647.6"/>
			<line class="st0" x1="865.6" y1="673.3" x2="843.4" y2="660.5"/>
			<line class="st0" x1="887.9" y1="686.1" x2="865.6" y2="673.3"/>
			<line class="st0" x1="843.4" y1="660.5" x2="821.2" y2="647.6"/>
			<line class="st0" x1="776.8" y1="621.9" x2="799" y2="634.7"/>
			<line class="st0" x1="954.4" y1="698.9" x2="932.3" y2="686.1"/>
			<line class="st0" x1="799" y1="609.1" x2="821.2" y2="621.9"/>
			<line class="st0" x1="976.6" y1="711.7" x2="954.4" y2="698.9"/>
			<line class="st0" x1="843.4" y1="634.7" x2="821.2" y2="621.9"/>
			<line class="st0" x1="865.6" y1="647.6" x2="843.4" y2="634.7"/>
			<line class="st0" x1="998.9" y1="724.6" x2="976.6" y2="711.7"/>
			<line class="st0" x1="887.9" y1="660.5" x2="865.6" y2="647.6"/>
			<line class="st0" x1="910.1" y1="673.3" x2="887.9" y2="660.5"/>
			<line class="st0" x1="932.3" y1="686.1" x2="910.1" y2="673.3"/>
			<line class="st0" x1="1021.1" y1="711.7" x2="998.9" y2="698.9"/>
			<line class="st0" x1="910.1" y1="647.6" x2="887.9" y2="634.7"/>
			<line class="st0" x1="887.9" y1="634.7" x2="865.6" y2="621.9"/>
			<line class="st0" x1="954.4" y1="673.3" x2="932.3" y2="660.5"/>
			<line class="st0" x1="932.3" y1="660.5" x2="910.1" y2="647.6"/>
			<line class="st0" x1="976.6" y1="686.1" x2="954.4" y2="673.3"/>
			<line class="st0" x1="865.6" y1="621.9" x2="843.4" y2="609.1"/>
			<line class="st0" x1="843.4" y1="609.1" x2="821.2" y2="596.3"/>
			<line class="st0" x1="998.9" y1="698.9" x2="976.6" y2="686.1"/>
		</g>
	</g>
	<g id="txt">
		<text transform="matrix(1 0 0 1 657.7725 773.1022)" class="st1 st2">xaxis</text>
		<text transform="matrix(1 0 0 1 810.2768 528.2815)" class="st1 st2">zaxis</text>
		<text transform="matrix(1 0 0 1 961.9242 773.1012)" class="st1 st2">yaxis</text>
		<text transform="matrix(1 0 0 1 833.939 700.4782)" class="st1 st2">point</text>
	</g>
	<g id="arrows">
		<line class="st3" x1="821" y1="698.9" x2="698.2" y2="769.7"/>
		<polygon class="st4" points="697,764.8 692.2,773.1 701.8,773.1 		"/>
		<line class="st5" x1="821" y1="698.9" x2="821" y2="541.9"/>
		<polygon class="st6" points="825.8,543.3 821,535 816.2,543.3 		"/>
		<line class="st7" x1="821" y1="698.9" x2="944.3" y2="769.7"/>
		<polygon class="st8" points="940.7,773.1 950.2,773.1 945.5,764.8 		"/>
		<path d="M824.6,699.5c0-1.9-1.6-3.5-3.5-3.5s-3.5,1.6-3.5,3.5c0,1.9,1.6,3.5,3.5,3.5C823,702.9,824.6,701.4,824.6,699.5"/>
	</g>
</g>
</svg>
