<?xml version="1.0" encoding="utf-8"?>
<!-- Generator: Adobe Illustrator 19.1.0, SVG Export Plug-In . SVG Version: 6.00 Build 0)  -->
<svg version="1.1" id="Layer_1" xmlns="http://www.w3.org/2000/svg" xmlns:xlink="http://www.w3.org/1999/xlink" x="0px" y="0px"
	 viewBox="249 495.3 566.9 340.2" style="enable-background:new 249 495.3 566.9 340.2;" xml:space="preserve">
<style type="text/css">
	@import url('https://fonts.googleapis.com/css?family=Roboto');
	.st0{fill:none;stroke:#BCBCBB;stroke-width:0.25;stroke-linecap:round;stroke-linejoin:round;}
	.st1{fill:none;stroke:#E31013;stroke-linecap:round;stroke-linejoin:round;}
	.st2{fill:#E31013;}
	.st3{fill:none;stroke:#6EB52C;stroke-linecap:round;stroke-linejoin:round;}
	.st4{fill:#6EB52C;}
	.st5{fill:none;stroke:#3E4999;stroke-linecap:round;stroke-linejoin:round;}
	.st6{fill:#3E4999;}
	.st7{fill:none;stroke:#000000;stroke-linecap:round;stroke-linejoin:round;stroke-dasharray:3,3;}
	.st8{font-family:'Roboto';}
	.st9{font-size:10px;}
	.st10{font-size:12px;}
</style>
<g>
	<g id="Layer_6_1_">
		<g>
			<path class="st0" d="M369.2,779.8c5.2,3,7.8,4.5,13,7.5c5.2-3,7.8-4.5,13-7.5c-5.2-3-7.8-4.5-13-7.5
				C377,775.3,374.4,776.8,369.2,779.8z"/>
			<path class="st0" d="M421.2,749.7c5.2-3,7.8-4.5,13-7.5c-5.2-3-7.8-4.5-13-7.5c-5.2,3-7.8,4.5-13,7.5
				C413.4,745.2,416,746.7,421.2,749.7z"/>
			<path class="st0" d="M395.1,734.7c5.2-3,7.8-4.5,13-7.5c-5.2-3-7.8-4.5-13-7.5c-5.2,3-7.8,4.5-13,7.5
				C387.3,730.2,389.9,731.7,395.1,734.7z"/>
			<path class="st0" d="M434.3,757.2c5.2-3,7.8-4.5,13-7.5c-5.2-3-7.8-4.5-13-7.5c-5.2,3-7.8,4.5-13,7.5
				C426.4,752.7,429,754.2,434.3,757.2z"/>
			<path class="st0" d="M382.2,772.3c5.2,3,7.8,4.5,13,7.5c5.2-3,7.8-4.5,13-7.5c-5.2-3-7.8-4.5-13-7.5
				C390,767.8,387.4,769.3,382.2,772.3z"/>
			<path class="st0" d="M408.2,757.2c5.2,3,7.8,4.5,13,7.5c5.2-3,7.8-4.5,13-7.5c-5.2-3-7.8-4.5-13-7.5
				C416,752.7,413.4,754.2,408.2,757.2z"/>
			<path class="st0" d="M395.2,764.8c5.2,3,7.8,4.5,13,7.5c5.2-3,7.8-4.5,13-7.5c-5.2-3-7.8-4.5-13-7.5
				C403,760.2,400.4,761.7,395.2,764.8z"/>
			<path class="st0" d="M330,742.3c-5.2-3-7.8-4.5-13-7.5c-5.2,3-7.8,4.5-13,7.5c5.2,3,7.8,4.5,13,7.5
				C322.2,746.9,324.8,745.3,330,742.3z"/>
			<path class="st0" d="M343,734.8c-5.2-3-7.8-4.5-13-7.5c-5.2,3-7.8,4.5-13,7.5c5.2,3,7.8,4.5,13,7.5
				C335.2,739.3,337.8,737.8,343,734.8z"/>
			<path class="st0" d="M369.1,764.8c-5.2,3-7.8,4.5-13,7.5c5.2,3,7.8,4.5,13,7.5c5.2-3,7.8-4.5,13-7.5
				C377,769.3,374.4,767.8,369.1,764.8z"/>
			<path class="st0" d="M304,742.4c-5.2,3-7.8,4.5-13,7.5c5.2,3,7.8,4.5,13,7.5c5.2-3,7.8-4.5,13-7.5
				C311.8,746.9,309.2,745.4,304,742.4z"/>
			<path class="st0" d="M382.1,727.2c5.2-3,7.8-4.5,13-7.5c-5.2-3-7.8-4.5-13-7.5c-5.2,3-7.8,4.5-13,7.5
				C374.3,722.7,376.9,724.2,382.1,727.2z"/>
			<path class="st0" d="M382.1,712.1c-5.2-3-7.8-4.5-13-7.5c-5.2,3-7.8,4.5-13,7.5c5.2,3,7.8,4.5,13,7.5
				C374.3,716.7,376.9,715.2,382.1,712.1z"/>
			<path class="st0" d="M356,727.2c-5.2-3-7.8-4.5-13-7.5c-5.2,3-7.8,4.5-13,7.5c5.2,3,7.8,4.5,13,7.5
				C348.2,731.8,350.8,730.3,356,727.2z"/>
			<path class="st0" d="M369.1,719.7c-5.2-3-7.8-4.5-13-7.5c-5.2,3-7.8,4.5-13,7.5c5.2,3,7.8,4.5,13,7.5
				C361.2,724.2,363.8,722.7,369.1,719.7z"/>
			<path class="st0" d="M369.1,734.7c-5.2-3-7.8-4.5-13-7.5c-5.2,3-7.8,4.5-13,7.5c5.2,3,7.8,4.5,13,7.5
				C361.3,739.3,363.9,737.7,369.1,734.7z"/>
			<path class="st0" d="M369.1,764.8c5.2,3,7.8,4.5,13,7.5c5.2-3,7.8-4.5,13-7.5c-5.2-3-7.8-4.5-13-7.5
				C376.9,760.3,374.3,761.8,369.1,764.8z"/>
			<path class="st0" d="M382.2,757.3c5.2,3,7.8,4.5,13,7.5c5.2-3,7.8-4.5,13-7.5c-5.2-3-7.8-4.5-13-7.5
				C390,752.7,387.4,754.2,382.2,757.3z"/>
			<path class="st0" d="M369.1,749.8c-5.2,3-7.8,4.5-13,7.5c5.2,3,7.8,4.5,13,7.5c5.2-3,7.8-4.5,13-7.5
				C376.9,754.3,374.3,752.8,369.1,749.8z"/>
			<path class="st0" d="M356.1,742.3c-5.2,3-7.8,4.5-13,7.5c5.2,3,7.8,4.5,13,7.5c5.2-3,7.8-4.5,13-7.5
				C363.9,746.8,361.3,745.3,356.1,742.3z"/>
			<path class="st0" d="M356.1,757.3c-5.2,3-7.8,4.5-13,7.5c5.2,3,7.8,4.5,13,7.5c5.2-3,7.8-4.5,13-7.5
				C363.9,761.8,361.3,760.3,356.1,757.3z"/>
			<path class="st0" d="M382.2,757.3c5.2-3,7.8-4.5,13-7.5c-5.2-3-7.8-4.5-13-7.5c-5.2,3-7.8,4.5-13,7.5
				C374.3,752.8,376.9,754.3,382.2,757.3z"/>
			<path class="st0" d="M382.1,742.2c-5.2-3-7.8-4.5-13-7.5c-5.2,3-7.8,4.5-13,7.5c5.2,3,7.8,4.5,13,7.5
				C374.3,746.7,376.9,745.2,382.1,742.2z"/>
			<path class="st0" d="M408.2,757.2c5.2-3,7.8-4.5,13-7.5c-5.2-3-7.8-4.5-13-7.5c-5.2,3-7.8,4.5-13,7.5
				C400.4,752.7,403,754.2,408.2,757.2z"/>
			<path class="st0" d="M356.1,742.3c-5.2-3-7.8-4.5-13-7.5c-5.2,3-7.8,4.5-13,7.5c5.2,3,7.8,4.5,13,7.5
				C348.3,746.8,350.9,745.3,356.1,742.3z"/>
			<path class="st0" d="M330,742.3c-5.2,3-7.8,4.5-13,7.5c5.2,3,7.8,4.5,13,7.5c5.2-3,7.8-4.5,13-7.5
				C337.8,746.8,335.2,745.3,330,742.3z"/>
			<path class="st0" d="M343.1,749.8c-5.2,3-7.8,4.5-13,7.5c5.2,3,7.8,4.5,13,7.5c5.2-3,7.8-4.5,13-7.5
				C350.9,754.3,348.3,752.8,343.1,749.8z"/>
			<path class="st0" d="M382.1,727.2c-5.2-3-7.8-4.5-13-7.5c-5.2,3-7.8,4.5-13,7.5c5.2,3,7.8,4.5,13,7.5
				C374.3,731.7,376.9,730.2,382.1,727.2z"/>
			<path class="st0" d="M382.1,742.2c5.2-3,7.8-4.5,13-7.5c-5.2-3-7.8-4.5-13-7.5c-5.2,3-7.8,4.5-13,7.5
				C374.3,737.7,376.9,739.2,382.1,742.2z"/>
			<path class="st0" d="M395.2,749.7c5.2-3,7.8-4.5,13-7.5c-5.2-3-7.8-4.5-13-7.5c-5.2,3-7.8,4.5-13,7.5
				C387.3,745.2,389.9,746.7,395.2,749.7z"/>
			<path class="st0" d="M317,749.9c-5.2,3-7.8,4.5-13,7.5c5.2,3,7.8,4.5,13,7.5c5.2-3,7.8-4.5,13-7.5
				C324.8,754.4,322.2,752.9,317,749.9z"/>
			<path class="st0" d="M408.2,742.2c5.2-3,7.8-4.5,13-7.5c-5.2-3-7.8-4.5-13-7.5c-5.2,3-7.8,4.5-13,7.5
				C400.3,737.7,403,739.2,408.2,742.2z"/>
			<path class="st0" d="M317,734.8c-5.2-3-7.8-4.5-13-7.5c-5.2,3-7.8,4.5-13,7.5c5.2,3,7.8,4.5,13,7.5
				C309.2,739.4,311.8,737.9,317,734.8z"/>
			<path class="st0" d="M330,727.3c-5.2-3-7.8-4.5-13-7.5c-5.2,3-7.8,4.5-13,7.5c5.2,3,7.8,4.5,13,7.5
				C322.2,731.8,324.8,730.3,330,727.3z"/>
			<path class="st0" d="M277.9,742.4c-5.2,3-7.8,4.5-13,7.5c5.2,3,7.8,4.5,13,7.5c5.2-3,7.8-4.5,13-7.5
				C285.7,746.9,283.1,745.4,277.9,742.4z"/>
			<path class="st0" d="M343,719.7c-5.2-3-7.8-4.5-13-7.5c-5.2,3-7.8,4.5-13,7.5c5.2,3,7.8,4.5,13,7.5
				C335.2,724.3,337.8,722.8,343,719.7z"/>
			<path class="st0" d="M304,742.4c-5.2-3-7.8-4.5-13-7.5c-5.2,3-7.8,4.5-13,7.5c5.2,3,7.8,4.5,13,7.5
				C296.2,746.9,298.8,745.4,304,742.4z"/>
			<path class="st0" d="M382,697.1c-5.2-3-7.8-4.5-13-7.5c-5.2,3-7.8,4.5-13,7.5c5.2,3,7.8,4.5,13,7.5
				C374.2,701.6,376.8,700.1,382,697.1z"/>
			<path class="st0" d="M369,704.6c-5.2-3-7.8-4.5-13-7.5c-5.2,3-7.8,4.5-13,7.5c5.2,3,7.8,4.5,13,7.5
				C361.2,709.2,363.8,707.7,369,704.6z"/>
			<path class="st0" d="M356,712.2c-5.2-3-7.8-4.5-13-7.5c-5.2,3-7.8,4.5-13,7.5c5.2,3,7.8,4.5,13,7.5
				C348.2,716.7,350.8,715.2,356,712.2z"/>
			<path class="st0" d="M330,757.4c-5.2,3-7.8,4.5-13,7.5c5.2,3,7.8,4.5,13,7.5c5.2-3,7.8-4.5,13-7.5
				C337.9,761.9,335.3,760.4,330,757.4z"/>
			<path class="st0" d="M356.2,787.4c-5.2,3-7.8,4.5-13,7.5c5.2,3,7.8,4.5,13,7.5c5.2-3,7.8-4.5,13-7.5
				C364,791.9,361.4,790.4,356.2,787.4z"/>
			<path class="st0" d="M343.1,779.9c-5.2,3-7.8,4.5-13,7.5c5.2,3,7.8,4.5,13,7.5c5.2-3,7.8-4.5,13-7.5
				C350.9,784.4,348.3,782.9,343.1,779.9z"/>
			<path class="st0" d="M382.1,712.1c5.2-3,7.8-4.5,13-7.5c-5.2-3-7.8-4.5-13-7.5c-5.2,3-7.8,4.5-13,7.5
				C374.2,707.6,376.8,709.1,382.1,712.1z"/>
			<path class="st0" d="M317,764.9c-5.2,3-7.8,4.5-13,7.5c5.2,3,7.8,4.5,13,7.5c5.2-3,7.8-4.5,13-7.5
				C324.9,769.4,322.3,767.9,317,764.9z"/>
			<path class="st0" d="M304,757.4c-5.2,3-7.8,4.5-13,7.5c5.2,3,7.8,4.5,13,7.5c5.2-3,7.8-4.5,13-7.5
				C311.8,761.9,309.2,760.4,304,757.4z"/>
			<path class="st0" d="M291,749.9c-5.2,3-7.8,4.5-13,7.5c5.2,3,7.8,4.5,13,7.5c5.2-3,7.8-4.5,13-7.5
				C298.8,754.4,296.2,752.9,291,749.9z"/>
			<path class="st0" d="M330.1,772.4c-5.2,3-7.8,4.5-13,7.5c5.2,3,7.8,4.5,13,7.5c5.2-3,7.8-4.5,13-7.5
				C337.9,776.9,335.3,775.4,330.1,772.4z"/>
			<path class="st0" d="M369.2,794.9c-5.2,3-7.8,4.5-13,7.5c5.2,3,7.8,4.5,13,7.5c5.2-3,7.8-4.5,13-7.5
				C377,799.4,374.4,797.9,369.2,794.9z"/>
			<path class="st0" d="M382.2,787.3c5.2,3,7.8,4.5,13,7.5c5.2-3,7.8-4.5,13-7.5c-5.2-3-7.8-4.5-13-7.5
				C390,782.8,387.4,784.3,382.2,787.3z"/>
			<path class="st0" d="M395.1,719.6c5.2-3,7.8-4.5,13-7.5c-5.2-3-7.8-4.5-13-7.5c-5.2,3-7.8,4.5-13,7.5
				C387.3,715.1,389.9,716.6,395.1,719.6z"/>
			<path class="st0" d="M369.2,794.9c5.2,3,7.8,4.5,13,7.5c5.2-3,7.8-4.5,13-7.5c-5.2-3-7.8-4.5-13-7.5
				C377,790.4,374.4,791.9,369.2,794.9z"/>
			<path class="st0" d="M369.2,779.8c-5.2,3-7.8,4.5-13,7.5c5.2,3,7.8,4.5,13,7.5c5.2-3,7.8-4.5,13-7.5
				C377,784.3,374.4,782.8,369.2,779.8z"/>
			<path class="st0" d="M343.1,764.9c-5.2,3-7.8,4.5-13,7.5c5.2,3,7.8,4.5,13,7.5c5.2-3,7.8-4.5,13-7.5
				C350.9,769.4,348.3,767.9,343.1,764.9z"/>
			<path class="st0" d="M356.1,772.4c-5.2,3-7.8,4.5-13,7.5c5.2,3,7.8,4.5,13,7.5c5.2-3,7.8-4.5,13-7.5
				C364,776.9,361.3,775.4,356.1,772.4z"/>
			<path class="st0" d="M408.2,772.2c5.2,3,7.8,4.5,13,7.5c5.2-3,7.8-4.5,13-7.5c-5.2-3-7.8-4.5-13-7.5
				C416,767.7,413.4,769.2,408.2,772.2z"/>
			<path class="st0" d="M395.2,779.8c5.2,3,7.8,4.5,13,7.5c5.2-3,7.8-4.5,13-7.5c-5.2-3-7.8-4.5-13-7.5
				C403,775.3,400.4,776.8,395.2,779.8z"/>
			<path class="st0" d="M421.2,734.6c5.2-3,7.8-4.5,13-7.5c-5.2-3-7.8-4.5-13-7.5c-5.2,3-7.8,4.5-13,7.5
				C413.4,730.1,416,731.6,421.2,734.6z"/>
			<path class="st0" d="M421.2,764.7c5.2,3,7.8,4.5,13,7.5c5.2-3,7.8-4.5,13-7.5c-5.2-3-7.8-4.5-13-7.5
				C429,760.2,426.4,761.7,421.2,764.7z"/>
			<path class="st0" d="M408.1,727.1c5.2-3,7.8-4.5,13-7.5c-5.2-3-7.8-4.5-13-7.5c-5.2,3-7.8,4.5-13,7.5
				C400.3,722.6,402.9,724.1,408.1,727.1z"/>
			<path class="st0" d="M434.2,742.1c5.2-3,7.8-4.5,13-7.5c-5.2-3-7.8-4.5-13-7.5c-5.2,3-7.8,4.5-13,7.5
				C426.4,737.6,429,739.1,434.2,742.1z"/>
			<path class="st0" d="M434.3,757.2c5.2,3,7.8,4.5,13,7.5c5.2-3,7.8-4.5,13-7.5c-5.2-3-7.8-4.5-13-7.5
				C442.1,752.6,439.5,754.1,434.3,757.2z"/>
			<path class="st0" d="M460.3,757.1c5.2-3,7.8-4.5,13-7.5c-5.2-3-7.8-4.5-13-7.5c-5.2,3-7.8,4.5-13,7.5
				C452.5,752.6,455.1,754.1,460.3,757.1z"/>
			<path class="st0" d="M447.3,749.6c5.2-3,7.8-4.5,13-7.5c-5.2-3-7.8-4.5-13-7.5c-5.2,3-7.8,4.5-13,7.5
				C439.4,745.1,442,746.6,447.3,749.6z"/>
		</g>
		<g>
			<line class="st0" x1="677.2" y1="607.1" x2="706.1" y2="670.8"/>
			<line class="st0" x1="702.9" y1="628.4" x2="732" y2="692.1"/>
			<line class="st0" x1="664.3" y1="595.9" x2="693.3" y2="659.6"/>
			<line class="st0" x1="638.5" y1="575.2" x2="667.6" y2="639.1"/>
			<line class="st0" x1="689.9" y1="617.5" x2="719.2" y2="681.5"/>
			<line class="st0" x1="651.6" y1="585.9" x2="680.3" y2="649"/>
			<line class="st0" x1="625.5" y1="564.5" x2="654.9" y2="628.6"/>
			<line class="st0" x1="612.9" y1="553.9" x2="641.8" y2="617.6"/>
			<line class="st0" x1="715.8" y1="639.1" x2="744.8" y2="703.1"/>
			<line class="st0" x1="612.7" y1="553.9" x2="716" y2="639.2"/>
			<line class="st0" x1="616.4" y1="561.8" x2="719.7" y2="647.2"/>
			<line class="st0" x1="620" y1="569.8" x2="723.3" y2="655.2"/>
			<line class="st0" x1="623.8" y1="577.8" x2="727.1" y2="663.1"/>
			<line class="st0" x1="627.6" y1="585.7" x2="730.8" y2="671.1"/>
			<line class="st0" x1="630.8" y1="593.7" x2="734.1" y2="679"/>
			<line class="st0" x1="638.3" y1="609.6" x2="741.5" y2="695"/>
			<line class="st0" x1="634.3" y1="601.6" x2="737.5" y2="687"/>
			<line class="st0" x1="641.7" y1="617.6" x2="744.9" y2="702.9"/>
		</g>
	</g>
	<g id="Make2D">
	</g>
	<g id="xaxis">
		<g>
			<g>
				<line class="st1" x1="679.1" y1="628.3" x2="775.9" y2="708.5"/>
				<g>
					<polygon class="st2" points="771.6,711.5 781.4,713.1 778,703.8 					"/>
				</g>
			</g>
		</g>
		<g>
			<g>
				<line class="st1" x1="369.1" y1="749.8" x2="467.6" y2="806.6"/>
				<g>
					<polygon class="st2" points="463.9,810.2 473.8,810.2 468.8,801.6 					"/>
				</g>
			</g>
		</g>
	</g>
	<g id="yaxis">
		<g>
			<g>
				<line class="st3" x1="679.1" y1="628.3" x2="652.5" y2="570.6"/>
				<g>
					<polygon class="st4" points="657.6,569.8 649.5,564.1 648.6,574 					"/>
				</g>
			</g>
		</g>
		<g>
			<g>
				<line class="st3" x1="369.1" y1="749.8" x2="467.6" y2="692.9"/>
				<g>
					<polygon class="st4" points="468.8,697.9 473.8,689.3 463.9,689.3 					"/>
				</g>
			</g>
		</g>
	</g>
	<g id="zaxis">
		<g>
			<g>
				<line class="st5" x1="369.1" y1="749.8" x2="369.1" y2="636"/>
				<g>
					<polygon class="st6" points="374.1,637.5 369.1,628.9 364.1,637.5 					"/>
				</g>
			</g>
		</g>
		<g>
			<g>
				<line class="st5" x1="679.1" y1="628.3" x2="776.8" y2="530.3"/>
				<g>
					<polygon class="st6" points="779.3,534.9 781.9,525.3 772.2,527.9 					"/>
				</g>
			</g>
		</g>
	</g>
	<g id="Default">
		<g>
			<g>
				<path class="st7" d="M395.8,698c52.5-75.5,146.1-110.3,234.8-88.1"/>
				<g>
					<polygon points="627.9,614.3 637.5,611.7 630.4,604.7 					"/>
				</g>
			</g>
		</g>
		<text transform="matrix(1 0 0 1 477.5161 816.2523)" class="st8 st9">xaxis</text>
		<text transform="matrix(1 0 0 1 777.1829 727.2523)" class="st8 st9">xaxis</text>
		<text transform="matrix(1 0 0 1 477.5161 687.9188)" class="st8 st9">yaxis</text>
		<text transform="matrix(1 0 0 1 637.5051 558.2523)" class="st8 st9">yaxis</text>
		<text transform="matrix(1 0 0 1 358.5161 621.9191)" class="st8 st9">zaxis</text>
		<text transform="matrix(1 0 0 1 777.1829 520.2521)" class="st8 st9">zaxis</text>
		<text transform="matrix(1 0 0 1 380.8496 751.2521)" class="st8 st9">point</text>
		<text transform="matrix(1 0 0 1 687.1265 628.8428)" class="st8 st9">point</text>
		<text transform="matrix(1 0 0 1 345.1829 761.2945)" class="st8 st10">F1</text>
		<text transform="matrix(1 0 0 1 653.0603 655.152)" class="st8 st10">F2</text>
		<text transform="matrix(1 0 0 1 502.5161 607.6277)" class="st8 st10">T</text>
		<circle cx="369.1" cy="749.8" r="2.4"/>
		<circle cx="679.1" cy="628.3" r="2.4"/>
	</g>
</g>
</svg>
