<?xml version="1.0" encoding="utf-8"?>
<!-- Generator: Adobe Illustrator 19.1.0, SVG Export Plug-In . SVG Version: 6.00 Build 0)  -->
<svg version="1.1" id="Layer_1" xmlns="http://www.w3.org/2000/svg" xmlns:xlink="http://www.w3.org/1999/xlink" x="0px" y="0px"
	 viewBox="0 0 515.3 110.7" style="enable-background:new 0 0 515.3 110.7;" xml:space="preserve">
<style type="text/css">
	@import url('https://fonts.googleapis.com/css?family=Roboto');
	.st0{fill:none;}
	.st1{fill:none;stroke:#010202;stroke-width:0.3;stroke-linejoin:round;}
	.st2{fill:#010202;stroke:#FFFFFF;stroke-miterlimit:10;}
	.st3{fill:none;stroke:#010202;stroke-miterlimit:10;}
	.st4{fill:url(#SVGID_1_);}
	.st5{fill:#010202;}
	.st6{font-family:'Roboto';}
	.st7{font-size:11px;}
	.st8{fill:none;stroke:#231F20;stroke-width:0.5;stroke-linecap:round;stroke-linejoin:round;}
</style>
<pattern  x="-36.3" y="-321.3" width="72" height="72" patternUnits="userSpaceOnUse" id="SVGID_3_" viewBox="79.6 -148.6 72 72" style="overflow:visible;">
	<g>
		<polygon class="st0" points="79.6,-76.6 151.6,-76.6 151.6,-148.6 79.6,-148.6 		"/>
		<g>
			<polygon class="st0" points="79.6,-148.6 151.6,-148.6 151.6,-76.6 79.6,-76.6 			"/>
			<g>
				<polygon class="st0" points="79.6,-148.6 151.6,-148.6 151.6,-76.6 79.6,-76.6 				"/>
				<g>
					<line class="st1" x1="144.1" y1="-66.1" x2="162.1" y2="-84.1"/>
					<line class="st1" x1="144.1" y1="-60.1" x2="168.1" y2="-84.1"/>
					<line class="st1" x1="144.1" y1="-54.1" x2="174.1" y2="-84.1"/>
					<line class="st1" x1="144.1" y1="-48.1" x2="180.1" y2="-84.1"/>
					<line class="st1" x1="144.1" y1="-42.1" x2="186.1" y2="-84.1"/>
					<line class="st1" x1="144.1" y1="-36.1" x2="192.1" y2="-84.1"/>
					<line class="st1" x1="144.1" y1="-30.1" x2="198.1" y2="-84.1"/>
					<line class="st1" x1="144.1" y1="-24.1" x2="204.1" y2="-84.1"/>
					<line class="st1" x1="144.1" y1="-18.1" x2="210.1" y2="-84.1"/>
					<line class="st1" x1="144.1" y1="-12.1" x2="216.1" y2="-84.1"/>
					<line class="st1" x1="144.1" y1="-6.1" x2="222.1" y2="-84.1"/>
					<line class="st1" x1="144.1" y1="-0.1" x2="228.1" y2="-84.1"/>
					<line class="st1" x1="150.1" y1="-0.1" x2="228.1" y2="-78.1"/>
				</g>
				<g>
					<line class="st1" x1="72.1" y1="-66.1" x2="90.1" y2="-84.1"/>
					<line class="st1" x1="72.1" y1="-60.1" x2="96.1" y2="-84.1"/>
					<line class="st1" x1="72.1" y1="-54.1" x2="102.1" y2="-84.1"/>
					<line class="st1" x1="72.1" y1="-48.1" x2="108.1" y2="-84.1"/>
					<line class="st1" x1="72.1" y1="-42.1" x2="114.1" y2="-84.1"/>
					<line class="st1" x1="72.1" y1="-36.1" x2="120.1" y2="-84.1"/>
					<line class="st1" x1="72.1" y1="-30.1" x2="126.1" y2="-84.1"/>
					<line class="st1" x1="72.1" y1="-24.1" x2="132.1" y2="-84.1"/>
					<line class="st1" x1="72.1" y1="-18.1" x2="138.1" y2="-84.1"/>
					<line class="st1" x1="72.1" y1="-12.1" x2="144.1" y2="-84.1"/>
					<line class="st1" x1="72.1" y1="-6.1" x2="150.1" y2="-84.1"/>
					<line class="st1" x1="72.1" y1="-0.1" x2="156.1" y2="-84.1"/>
					<line class="st1" x1="78.1" y1="-0.1" x2="156.1" y2="-78.1"/>
				</g>
				<g>
					<line class="st1" x1="0.1" y1="-0.1" x2="84.1" y2="-84.1"/>
					<line class="st1" x1="6.1" y1="-0.1" x2="84.1" y2="-78.1"/>
				</g>
				<g>
					<line class="st1" x1="144.1" y1="-138.1" x2="162.1" y2="-156.1"/>
					<line class="st1" x1="144.1" y1="-132.1" x2="168.1" y2="-156.1"/>
					<line class="st1" x1="144.1" y1="-126.1" x2="174.1" y2="-156.1"/>
					<line class="st1" x1="144.1" y1="-120.1" x2="180.1" y2="-156.1"/>
					<line class="st1" x1="144.1" y1="-114.1" x2="186.1" y2="-156.1"/>
					<line class="st1" x1="144.1" y1="-108.1" x2="192.1" y2="-156.1"/>
					<line class="st1" x1="144.1" y1="-102.1" x2="198.1" y2="-156.1"/>
					<line class="st1" x1="144.1" y1="-96.1" x2="204.1" y2="-156.1"/>
					<line class="st1" x1="144.1" y1="-90.1" x2="210.1" y2="-156.1"/>
					<line class="st1" x1="144.1" y1="-84.1" x2="216.1" y2="-156.1"/>
					<line class="st1" x1="144.1" y1="-78.1" x2="222.1" y2="-156.1"/>
					<line class="st1" x1="144.1" y1="-72.1" x2="228.1" y2="-156.1"/>
					<line class="st1" x1="150.1" y1="-72.1" x2="228.1" y2="-150.1"/>
				</g>
				<g>
					<line class="st1" x1="72.1" y1="-138.1" x2="90.1" y2="-156.1"/>
					<line class="st1" x1="72.1" y1="-132.1" x2="96.1" y2="-156.1"/>
					<line class="st1" x1="72.1" y1="-126.1" x2="102.1" y2="-156.1"/>
					<line class="st1" x1="72.1" y1="-120.1" x2="108.1" y2="-156.1"/>
					<line class="st1" x1="72.1" y1="-114.1" x2="114.1" y2="-156.1"/>
					<line class="st1" x1="72.1" y1="-108.1" x2="120.1" y2="-156.1"/>
					<line class="st1" x1="72.1" y1="-102.1" x2="126.1" y2="-156.1"/>
					<line class="st1" x1="72.1" y1="-96.1" x2="132.1" y2="-156.1"/>
					<line class="st1" x1="72.1" y1="-90.1" x2="138.1" y2="-156.1"/>
					<line class="st1" x1="72.1" y1="-84.1" x2="144.1" y2="-156.1"/>
					<line class="st1" x1="72.1" y1="-78.1" x2="150.1" y2="-156.1"/>
					<line class="st1" x1="72.1" y1="-72.1" x2="156.1" y2="-156.1"/>
					<line class="st1" x1="78.1" y1="-72.1" x2="156.1" y2="-150.1"/>
					<line class="st1" x1="84.1" y1="-72.1" x2="156.1" y2="-144.1"/>
					<line class="st1" x1="90.1" y1="-72.1" x2="156.1" y2="-138.1"/>
					<line class="st1" x1="96.1" y1="-72.1" x2="156.1" y2="-132.1"/>
					<line class="st1" x1="102.1" y1="-72.1" x2="156.1" y2="-126.1"/>
					<line class="st1" x1="108.1" y1="-72.1" x2="156.1" y2="-120.1"/>
					<line class="st1" x1="114.1" y1="-72.1" x2="156.1" y2="-114.1"/>
					<line class="st1" x1="120.1" y1="-72.1" x2="156.1" y2="-108.1"/>
					<line class="st1" x1="126.1" y1="-72.1" x2="156.1" y2="-102.1"/>
					<line class="st1" x1="132.1" y1="-72.1" x2="156.1" y2="-96.1"/>
					<line class="st1" x1="138.1" y1="-72.1" x2="156.1" y2="-90.1"/>
					<line class="st1" x1="144.1" y1="-72.1" x2="156.1" y2="-84.1"/>
				</g>
				<g>
					<line class="st1" x1="0.1" y1="-72.1" x2="84.1" y2="-156.1"/>
					<line class="st1" x1="6.1" y1="-72.1" x2="84.1" y2="-150.1"/>
					<line class="st1" x1="12.1" y1="-72.1" x2="84.1" y2="-144.1"/>
					<line class="st1" x1="18.1" y1="-72.1" x2="84.1" y2="-138.1"/>
					<line class="st1" x1="24.1" y1="-72.1" x2="84.1" y2="-132.1"/>
					<line class="st1" x1="30.1" y1="-72.1" x2="84.1" y2="-126.1"/>
					<line class="st1" x1="36.1" y1="-72.1" x2="84.1" y2="-120.1"/>
					<line class="st1" x1="42.1" y1="-72.1" x2="84.1" y2="-114.1"/>
					<line class="st1" x1="48.1" y1="-72.1" x2="84.1" y2="-108.1"/>
					<line class="st1" x1="54.1" y1="-72.1" x2="84.1" y2="-102.1"/>
					<line class="st1" x1="60.1" y1="-72.1" x2="84.1" y2="-96.1"/>
					<line class="st1" x1="66.1" y1="-72.1" x2="84.1" y2="-90.1"/>
					<line class="st1" x1="72.1" y1="-72.1" x2="84.1" y2="-84.1"/>
				</g>
				<g>
					<line class="st1" x1="144.1" y1="-144.1" x2="228.1" y2="-228.1"/>
					<line class="st1" x1="150.1" y1="-144.1" x2="228.1" y2="-222.1"/>
				</g>
				<g>
					<line class="st1" x1="72.1" y1="-144.1" x2="156.1" y2="-228.1"/>
					<line class="st1" x1="78.1" y1="-144.1" x2="156.1" y2="-222.1"/>
					<line class="st1" x1="84.1" y1="-144.1" x2="156.1" y2="-216.1"/>
					<line class="st1" x1="90.1" y1="-144.1" x2="156.1" y2="-210.1"/>
					<line class="st1" x1="96.1" y1="-144.1" x2="156.1" y2="-204.1"/>
					<line class="st1" x1="102.1" y1="-144.1" x2="156.1" y2="-198.1"/>
					<line class="st1" x1="108.1" y1="-144.1" x2="156.1" y2="-192.1"/>
					<line class="st1" x1="114.1" y1="-144.1" x2="156.1" y2="-186.1"/>
					<line class="st1" x1="120.1" y1="-144.1" x2="156.1" y2="-180.1"/>
					<line class="st1" x1="126.1" y1="-144.1" x2="156.1" y2="-174.1"/>
					<line class="st1" x1="132.1" y1="-144.1" x2="156.1" y2="-168.1"/>
					<line class="st1" x1="138.1" y1="-144.1" x2="156.1" y2="-162.1"/>
					<line class="st1" x1="144.1" y1="-144.1" x2="156.1" y2="-156.1"/>
				</g>
				<g>
					<line class="st1" x1="0.1" y1="-144.1" x2="84.1" y2="-228.1"/>
					<line class="st1" x1="6.1" y1="-144.1" x2="84.1" y2="-222.1"/>
					<line class="st1" x1="12.1" y1="-144.1" x2="84.1" y2="-216.1"/>
					<line class="st1" x1="18.1" y1="-144.1" x2="84.1" y2="-210.1"/>
					<line class="st1" x1="24.1" y1="-144.1" x2="84.1" y2="-204.1"/>
					<line class="st1" x1="30.1" y1="-144.1" x2="84.1" y2="-198.1"/>
					<line class="st1" x1="36.1" y1="-144.1" x2="84.1" y2="-192.1"/>
					<line class="st1" x1="42.1" y1="-144.1" x2="84.1" y2="-186.1"/>
					<line class="st1" x1="48.1" y1="-144.1" x2="84.1" y2="-180.1"/>
					<line class="st1" x1="54.1" y1="-144.1" x2="84.1" y2="-174.1"/>
					<line class="st1" x1="60.1" y1="-144.1" x2="84.1" y2="-168.1"/>
					<line class="st1" x1="66.1" y1="-144.1" x2="84.1" y2="-162.1"/>
					<line class="st1" x1="72.1" y1="-144.1" x2="84.1" y2="-156.1"/>
				</g>
			</g>
		</g>
	</g>
</pattern>
<polyline class="st2" points="471,35.7 479.5,31.6 482,36.7 473.4,41 "/>
<rect x="480.9" y="25.9" transform="matrix(0.8983 -0.4394 0.4394 0.8983 34.6276 216.1195)" class="st2" width="6.6" height="14.7"/>
<rect x="487.1" y="25.5" transform="matrix(0.8983 -0.4394 0.4394 0.8983 36.0472 218.1237)" class="st2" width="4.1" height="11.4"/>
<rect x="490.6" y="25.2" transform="matrix(0.8983 -0.4394 0.4394 0.8983 37.9176 220.5161)" class="st2" width="9.4" height="6.3"/>
<g>
	<polygon class="st2" points="503.3,27.8 500.6,22.3 508.2,18.6 506.3,14.8 498.7,18.4 498.7,18.5 496.3,19.7 502.7,32.9 
		505.2,31.7 505.2,31.7 512.8,28 510.9,24.1 503.3,27.8 	"/>
</g>
<rect x="398.7" y="68.1" class="st2" width="32.8" height="16.5"/>
<path class="st2" d="M424.9,24.2c0-5.4-4.4-9.9-9.9-9.9c-5.5,0-9.8,4.5-9.8,9.9v43.8h19.7V24.2z"/>
<path class="st2" d="M419.1,19.2c-5.5-1.2-10.8,1.6-11.8,6.3s2.6,9.4,8.1,10.5l33,6.2l3.6-16.8C452,25.4,419.1,19.2,419.1,19.2z"/>
<polygon class="st2" points="461.7,40.7 449.4,38.2 451.2,29.5 463.5,32 "/>
<polyline class="st2" points="471.7,41.3 462,39.3 463.2,33.6 472.4,35.5 "/>
<rect x="223.5" y="30.8" class="st3" width="90.7" height="50.5"/>
<pattern  id="SVGID_1_" xlink:href="#SVGID_3_" patternTransform="matrix(0.6463 0 0 0.6463 -2681.6951 7846.2207)">
</pattern>
<rect x="385.9" y="84.5" class="st4" width="58.2" height="13.2"/>
<line class="st3" x1="444.1" y1="84.5" x2="385.9" y2="84.5"/>
<g>
	<text transform="matrix(1 0 0 1 245.711 60.8119)" class="st5 st6 st7">controller</text>
</g>
<circle class="st2" cx="472.1" cy="38.4" r="2.8"/>
<g>
	<g>
		<line class="st3" x1="321.2" y1="56.1" x2="384.5" y2="56.1"/>
		<g>
			<polygon class="st5" points="383,61.1 391.7,56.1 383,51.1 			"/>
		</g>
	</g>
</g>
<g>
	<g>
		<line class="st3" x1="137.5" y1="49.1" x2="200.8" y2="49.1"/>
		<g>
			<polygon class="st5" points="199.4,54.1 208,49.1 199.4,44.1 			"/>
		</g>
	</g>
</g>
<g>
	<g>
		<line class="st3" x1="144.7" y1="62.7" x2="208" y2="62.7"/>
		<g>
			<polygon class="st5" points="146.1,67.6 137.5,62.7 146.1,57.7 			"/>
		</g>
	</g>
</g>
<line class="st8" x1="73.8" y1="77.1" x2="73.8" y2="77.5"/>
<line class="st8" x1="79.1" y1="77.5" x2="79.1" y2="77.1"/>
<line class="st8" x1="77.3" y1="78.5" x2="77.3" y2="79"/>
<line class="st8" x1="82.6" y1="79" x2="82.6" y2="78.5"/>
<line class="st8" x1="80.8" y1="80" x2="80.8" y2="80.5"/>
<line class="st8" x1="86.1" y1="80.5" x2="86.1" y2="80"/>
<line class="st8" x1="84.2" y1="81.5" x2="84.2" y2="81.9"/>
<line class="st8" x1="89.5" y1="81.9" x2="89.5" y2="81.5"/>
<line class="st8" x1="87.7" y1="83" x2="87.7" y2="83.4"/>
<line class="st8" x1="93" y1="83.4" x2="93" y2="83"/>
<line class="st8" x1="91.2" y1="84.4" x2="91.2" y2="84.9"/>
<line class="st8" x1="96.5" y1="84.9" x2="96.5" y2="84.4"/>
<line class="st8" x1="60" y1="71.2" x2="60" y2="71.6"/>
<line class="st8" x1="65.2" y1="71.6" x2="65.2" y2="71.2"/>
<line class="st8" x1="56.5" y1="69.7" x2="56.5" y2="70.2"/>
<line class="st8" x1="61.8" y1="70.2" x2="61.8" y2="69.7"/>
<line class="st8" x1="53" y1="68.2" x2="53" y2="68.7"/>
<line class="st8" x1="58.3" y1="68.7" x2="58.3" y2="68.2"/>
<line class="st8" x1="49.5" y1="66.8" x2="49.5" y2="67.2"/>
<line class="st8" x1="54.8" y1="67.2" x2="54.8" y2="66.8"/>
<line class="st8" x1="46.1" y1="65.3" x2="46.1" y2="65.7"/>
<line class="st8" x1="51.4" y1="65.7" x2="51.4" y2="65.3"/>
<line class="st8" x1="41.4" y1="63.3" x2="41.4" y2="63.8"/>
<line class="st8" x1="47.9" y1="64.3" x2="47.9" y2="63.8"/>
<line class="st8" x1="75.7" y1="76" x2="75.7" y2="75.6"/>
<line class="st8" x1="70.4" y1="75.6" x2="70.4" y2="76"/>
<line class="st8" x1="72.2" y1="74.6" x2="72.2" y2="74.1"/>
<line class="st8" x1="66.9" y1="74.1" x2="66.9" y2="74.6"/>
<line class="st8" x1="68.7" y1="73.1" x2="68.7" y2="72.7"/>
<line class="st8" x1="63.4" y1="72.7" x2="63.4" y2="73.1"/>
<line class="st8" x1="31.6" y1="71.8" x2="31.6" y2="71.3"/>
<line class="st8" x1="25.9" y1="71.1" x2="25.9" y2="71.6"/>
<line class="st8" x1="35.1" y1="73.3" x2="35.1" y2="72.8"/>
<line class="st8" x1="29.8" y1="72.8" x2="29.8" y2="73.3"/>
<line class="st8" x1="38.5" y1="74.7" x2="38.5" y2="74.3"/>
<line class="st8" x1="33.3" y1="74.3" x2="33.3" y2="74.7"/>
<line class="st8" x1="49" y1="79.1" x2="49" y2="78.7"/>
<line class="st8" x1="43.7" y1="78.7" x2="43.7" y2="79.1"/>
<line class="st8" x1="42" y1="76.2" x2="42" y2="75.8"/>
<line class="st8" x1="36.7" y1="75.8" x2="36.7" y2="76.2"/>
<line class="st8" x1="45.5" y1="77.7" x2="45.5" y2="77.2"/>
<line class="st8" x1="40.2" y1="77.2" x2="40.2" y2="77.7"/>
<line class="st8" x1="66.3" y1="86.5" x2="66.3" y2="86.1"/>
<line class="st8" x1="47.1" y1="80.2" x2="47.1" y2="80.6"/>
<line class="st8" x1="69.4" y1="84.9" x2="69.4" y2="84.5"/>
<line class="st8" x1="64.1" y1="84.5" x2="64.1" y2="84.9"/>
<line class="st8" x1="29" y1="69.6" x2="29" y2="70"/>
<line class="st8" x1="41.7" y1="73.2" x2="41.7" y2="72.7"/>
<line class="st8" x1="76.7" y1="90.9" x2="76.7" y2="90.5"/>
<line class="st8" x1="71.4" y1="90.5" x2="71.4" y2="90.9"/>
<line class="st8" x1="73.2" y1="89.4" x2="73.2" y2="89"/>
<line class="st8" x1="67.9" y1="89" x2="67.9" y2="89.4"/>
<line class="st8" x1="69.8" y1="88" x2="69.8" y2="87.5"/>
<line class="st8" x1="64.5" y1="87.5" x2="64.5" y2="88"/>
<line class="st8" x1="80.9" y1="92.7" x2="80.9" y2="92.2"/>
<line class="st8" x1="74.9" y1="91.9" x2="74.9" y2="92.4"/>
<line class="st8" x1="39.5" y1="69.4" x2="39.5" y2="68.9"/>
<line class="st8" x1="32.1" y1="68" x2="32.1" y2="68.5"/>
<line class="st8" x1="84" y1="91.1" x2="84" y2="90.7"/>
<line class="st8" x1="78" y1="90.4" x2="78" y2="90.8"/>
<line class="st8" x1="87.1" y1="89.6" x2="87.1" y2="89.1"/>
<line class="st8" x1="79.5" y1="88.2" x2="79.5" y2="88.7"/>
<line class="st8" x1="79.3" y1="88.1" x2="79.3" y2="88.5"/>
<line class="st8" x1="90.2" y1="88" x2="90.2" y2="87.6"/>
<line class="st8" x1="83.2" y1="86.8" x2="83.2" y2="87.3"/>
<line class="st8" x1="48.6" y1="76.1" x2="48.6" y2="75.7"/>
<line class="st8" x1="43.3" y1="75.7" x2="43.3" y2="76.1"/>
<line class="st8" x1="45.1" y1="74.6" x2="45.1" y2="74.2"/>
<line class="st8" x1="39.8" y1="74.2" x2="39.8" y2="74.6"/>
<line class="st8" x1="52.1" y1="77.6" x2="52.1" y2="77.1"/>
<line class="st8" x1="46.8" y1="77.1" x2="46.8" y2="77.6"/>
<line class="st8" x1="55.5" y1="79" x2="55.5" y2="78.6"/>
<line class="st8" x1="50.2" y1="78.6" x2="50.2" y2="79.1"/>
<line class="st8" x1="59" y1="80.5" x2="59" y2="80.1"/>
<line class="st8" x1="53.7" y1="80.1" x2="53.7" y2="80.5"/>
<line class="st8" x1="62.5" y1="82" x2="62.5" y2="81.6"/>
<line class="st8" x1="57.2" y1="81.6" x2="57.2" y2="82"/>
<line class="st8" x1="65.9" y1="83.5" x2="65.9" y2="83"/>
<line class="st8" x1="60.7" y1="83" x2="60.7" y2="83.5"/>
<line class="st8" x1="72.9" y1="86.4" x2="72.9" y2="86"/>
<line class="st8" x1="67.6" y1="86" x2="67.6" y2="86.4"/>
<line class="st8" x1="76.4" y1="87.9" x2="76.4" y2="87.4"/>
<line class="st8" x1="71.1" y1="87.4" x2="71.1" y2="87.9"/>
<line class="st8" x1="79.8" y1="89.3" x2="79.8" y2="88.9"/>
<line class="st8" x1="74.5" y1="88.9" x2="74.5" y2="89.3"/>
<line class="st8" x1="77.7" y1="85.6" x2="77.7" y2="85.1"/>
<line class="st8" x1="72.4" y1="85.1" x2="72.4" y2="85.6"/>
<line class="st8" x1="74.2" y1="84.1" x2="74.2" y2="83.6"/>
<line class="st8" x1="68.9" y1="83.6" x2="68.9" y2="84.1"/>
<line class="st8" x1="70.7" y1="82.6" x2="70.7" y2="82.2"/>
<line class="st8" x1="65.5" y1="82.2" x2="65.5" y2="82.6"/>
<line class="st8" x1="67.3" y1="81.1" x2="67.3" y2="80.7"/>
<line class="st8" x1="62" y1="80.7" x2="62" y2="81.1"/>
<line class="st8" x1="63.8" y1="79.7" x2="63.8" y2="79.2"/>
<line class="st8" x1="58.5" y1="79.2" x2="58.5" y2="79.7"/>
<line class="st8" x1="60.3" y1="78.2" x2="60.3" y2="77.8"/>
<line class="st8" x1="55" y1="77.8" x2="55" y2="78.2"/>
<line class="st8" x1="56.9" y1="76.7" x2="56.9" y2="76.3"/>
<line class="st8" x1="51.6" y1="76.3" x2="51.6" y2="76.7"/>
<line class="st8" x1="53.4" y1="75.3" x2="53.4" y2="74.8"/>
<line class="st8" x1="48.1" y1="74.8" x2="48.1" y2="75.3"/>
<line class="st8" x1="49.9" y1="73.8" x2="49.9" y2="73.4"/>
<line class="st8" x1="44.6" y1="73.3" x2="44.6" y2="73.8"/>
<line class="st8" x1="43" y1="70.8" x2="43" y2="70.4"/>
<line class="st8" x1="37.7" y1="70.4" x2="37.7" y2="70.8"/>
<line class="st8" x1="46.5" y1="72.3" x2="46.5" y2="71.9"/>
<line class="st8" x1="41.2" y1="71.9" x2="41.2" y2="72.3"/>
<line class="st8" x1="81.2" y1="87" x2="81.2" y2="86.6"/>
<line class="st8" x1="75.9" y1="86.6" x2="75.9" y2="87"/>
<line class="st8" x1="43.4" y1="68.1" x2="43.4" y2="67.7"/>
<line class="st8" x1="40.6" y1="68.8" x2="40.6" y2="69.3"/>
<line class="st8" x1="35.2" y1="66.5" x2="35.2" y2="66.9"/>
<line class="st8" x1="81.6" y1="84.3" x2="81.6" y2="83.9"/>
<line class="st8" x1="76.3" y1="83.9" x2="76.3" y2="84.3"/>
<line class="st8" x1="78.1" y1="82.8" x2="78.1" y2="82.4"/>
<line class="st8" x1="72.8" y1="82.4" x2="72.8" y2="82.8"/>
<line class="st8" x1="74.6" y1="81.4" x2="74.6" y2="80.9"/>
<line class="st8" x1="69.3" y1="80.9" x2="69.3" y2="81.4"/>
<line class="st8" x1="71.2" y1="79.9" x2="71.2" y2="79.5"/>
<line class="st8" x1="65.9" y1="79.5" x2="65.9" y2="79.9"/>
<line class="st8" x1="67.7" y1="78.4" x2="67.7" y2="78"/>
<line class="st8" x1="62.4" y1="78" x2="62.4" y2="78.4"/>
<line class="st8" x1="64.2" y1="77" x2="64.2" y2="76.5"/>
<line class="st8" x1="58.9" y1="76.5" x2="58.9" y2="77"/>
<line class="st8" x1="60.7" y1="75.5" x2="60.7" y2="75.1"/>
<line class="st8" x1="55.5" y1="75" x2="55.5" y2="75.5"/>
<line class="st8" x1="57.3" y1="74" x2="57.3" y2="73.6"/>
<line class="st8" x1="52" y1="73.6" x2="52" y2="74"/>
<line class="st8" x1="53.8" y1="72.5" x2="53.8" y2="72.1"/>
<line class="st8" x1="48.5" y1="72.1" x2="48.5" y2="72.5"/>
<line class="st8" x1="46.9" y1="69.6" x2="46.9" y2="69.2"/>
<line class="st8" x1="41.6" y1="69.2" x2="41.6" y2="69.6"/>
<line class="st8" x1="50.3" y1="71.1" x2="50.3" y2="70.6"/>
<line class="st8" x1="45" y1="70.6" x2="45" y2="71.1"/>
<line class="st8" x1="85" y1="85.8" x2="85" y2="85.4"/>
<line class="st8" x1="79.7" y1="85.3" x2="79.7" y2="85.8"/>
<line class="st8" x1="48.3" y1="67.3" x2="48.3" y2="66.9"/>
<line class="st8" x1="38.3" y1="64.9" x2="38.3" y2="65.3"/>
<line class="st8" x1="58.7" y1="71.7" x2="58.7" y2="71.3"/>
<line class="st8" x1="53.4" y1="71.3" x2="53.4" y2="71.7"/>
<line class="st8" x1="55.2" y1="70.2" x2="55.2" y2="69.8"/>
<line class="st8" x1="49.9" y1="69.8" x2="49.9" y2="70.2"/>
<line class="st8" x1="48.4" y1="49.7" x2="104.6" y2="73.5"/>
<line class="st8" x1="52.9" y1="13.6" x2="48.4" y2="49.7"/>
<line class="st8" x1="48.4" y1="49.7" x2="48.4" y2="49.7"/>
<line class="st8" x1="113.1" y1="31.9" x2="112.6" y2="32.1"/>
<line class="st8" x1="106.6" y1="83.5" x2="106.1" y2="83.6"/>
<line class="st8" x1="51.5" y1="5.8" x2="113.1" y2="31.9"/>
<line class="st8" x1="106.6" y1="83.5" x2="113.1" y2="31.9"/>
<line class="st8" x1="47" y1="6" x2="47.5" y2="5.8"/>
<line class="st8" x1="48.4" y1="49.7" x2="104.6" y2="73.5"/>
<line class="st8" x1="52.9" y1="13.6" x2="48.4" y2="49.7"/>
<line class="st8" x1="109.1" y1="37.4" x2="52.9" y2="13.6"/>
<line class="st8" x1="104.6" y1="73.5" x2="109.1" y2="37.4"/>
<line class="st8" x1="106.1" y1="83.6" x2="112.6" y2="32.1"/>
<line class="st8" x1="112.6" y1="32.1" x2="51" y2="6"/>
<line class="st8" x1="44.6" y1="57.5" x2="51" y2="6"/>
<line class="st8" x1="106.1" y1="83.6" x2="44.6" y2="57.5"/>
<path class="st8" d="M31,85.4c-0.2,0.1-0.2,0.3,0,0.3"/>
<path class="st8" d="M32.3,85.1c-0.3-0.1-0.5-0.1-0.7,0"/>
<line class="st8" x1="39.4" y1="88.1" x2="32.3" y2="85.1"/>
<path class="st8" d="M39.4,88.6c0.1,0,0.1-0.1,0.1-0.2"/>
<path class="st8" d="M39.4,88.5c0.2-0.1,0.2-0.3,0-0.3"/>
<line class="st8" x1="38.9" y1="88.9" x2="39.4" y2="88.6"/>
<line class="st8" x1="38.9" y1="88.7" x2="39.4" y2="88.5"/>
<path class="st8" d="M38.6,88.9c0.1,0,0.2,0,0.3-0.1"/>
<path class="st8" d="M38.2,88.7c0.3,0.1,0.5,0.1,0.7,0"/>
<path class="st8" d="M39.4,88.9c-0.2,0.1-0.2,0.3,0,0.3"/>
<line class="st8" x1="39.9" y1="88.7" x2="39.4" y2="88.9"/>
<path class="st8" d="M40.6,88.7c-0.3-0.1-0.5-0.1-0.7,0"/>
<line class="st8" x1="47.7" y1="91.7" x2="40.6" y2="88.7"/>
<path class="st8" d="M47.7,92c0.2-0.1,0.2-0.3,0-0.3"/>
<path class="st8" d="M46.5,92.3c0.3,0.1,0.5,0.1,0.7,0"/>
<line class="st8" x1="49.1" y1="91.3" x2="58.1" y2="86.8"/>
<path class="st8" d="M47.7,91.5c0.3,0.1,0.6,0.1,0.9,0.1"/>
<path class="st8" d="M47.7,91.3c0.5,0.2,0.9,0.2,1.4,0"/>
<line class="st8" x1="33" y1="85.2" x2="47.7" y2="91.5"/>
<line class="st8" x1="33" y1="85.1" x2="47.7" y2="91.3"/>
<path class="st8" d="M32.7,84.9c0,0.2,0.2,0.3,0.3,0.3"/>
<path class="st8" d="M32.9,84.5c-0.4,0.2-0.3,0.5,0.1,0.7"/>
<path class="st8" d="M43.3,79.9c-0.5-0.2-0.9-0.2-1.4,0"/>
<line class="st8" x1="58" y1="86.2" x2="43.3" y2="79.9"/>
<path class="st8" d="M58.3,86.7C58.3,86.7,58.3,86.7,58.3,86.7"/>
<path class="st8" d="M58.1,86.8c0.4-0.2,0.3-0.5-0.1-0.6"/>
<line class="st8" x1="30.9" y1="85.6" x2="30.8" y2="85.6"/>
<line class="st8" x1="32.7" y1="84.7" x2="31.9" y2="85.1"/>
<line class="st8" x1="43" y1="79.5" x2="42.4" y2="79.8"/>
<line class="st8" x1="59.1" y1="86.3" x2="43" y2="79.5"/>
<line class="st8" x1="43" y1="79.4" x2="43" y2="79.5"/>
<line class="st8" x1="59.2" y1="86.2" x2="43" y2="79.4"/>
<line class="st8" x1="43.8" y1="62.1" x2="43.7" y2="61.2"/>
<line class="st8" x1="25.2" y1="71.6" x2="23.7" y2="71.2"/>
<line class="st8" x1="78.4" y1="94.2" x2="78.5" y2="94.4"/>
<line class="st8" x1="97.1" y1="84.9" x2="98.5" y2="84.4"/>
<line class="st8" x1="25.2" y1="71.6" x2="78.4" y2="94.2"/>
<line class="st8" x1="25.9" y1="71.3" x2="25.2" y2="71.6"/>
<line class="st8" x1="29" y1="69.7" x2="28.5" y2="69.9"/>
<line class="st8" x1="32.1" y1="68.1" x2="31.6" y2="68.4"/>
<line class="st8" x1="35.2" y1="66.6" x2="34.7" y2="66.8"/>
<line class="st8" x1="38.3" y1="65" x2="37.9" y2="65.2"/>
<line class="st8" x1="41.4" y1="63.5" x2="41" y2="63.7"/>
<line class="st8" x1="48.2" y1="64.1" x2="47.9" y2="64"/>
<line class="st8" x1="51.7" y1="65.6" x2="51.4" y2="65.5"/>
<line class="st8" x1="55.1" y1="67.1" x2="54.8" y2="66.9"/>
<line class="st8" x1="58.6" y1="68.5" x2="58.3" y2="68.4"/>
<line class="st8" x1="62.1" y1="70" x2="61.8" y2="69.9"/>
<line class="st8" x1="65.5" y1="71.5" x2="65.2" y2="71.4"/>
<line class="st8" x1="69" y1="73" x2="68.7" y2="72.8"/>
<line class="st8" x1="72.5" y1="74.4" x2="72.2" y2="74.3"/>
<line class="st8" x1="76" y1="75.9" x2="75.7" y2="75.8"/>
<line class="st8" x1="79.4" y1="77.4" x2="79.1" y2="77.2"/>
<line class="st8" x1="82.9" y1="78.8" x2="82.6" y2="78.7"/>
<line class="st8" x1="86.4" y1="80.3" x2="86.1" y2="80.2"/>
<line class="st8" x1="89.8" y1="81.8" x2="89.5" y2="81.7"/>
<line class="st8" x1="93.3" y1="83.3" x2="93" y2="83.1"/>
<line class="st8" x1="97.1" y1="84.9" x2="96.5" y2="84.6"/>
<line class="st8" x1="78.4" y1="94.2" x2="97.1" y2="84.9"/>
<line class="st8" x1="30.7" y1="85.6" x2="46.9" y2="92.4"/>
<line class="st8" x1="32.9" y1="84.5" x2="30.7" y2="85.6"/>
<line class="st8" x1="41.9" y1="80" x2="32.9" y2="84.5"/>
<line class="st8" x1="43" y1="79.4" x2="41.9" y2="79.9"/>
<line class="st8" x1="43" y1="79.4" x2="23.7" y2="71.2"/>
<line class="st8" x1="23.7" y1="71.2" x2="43.7" y2="61.2"/>
<line class="st8" x1="43.7" y1="61.2" x2="98.5" y2="84.4"/>
<line class="st8" x1="98.5" y1="84.4" x2="78.5" y2="94.4"/>
<line class="st8" x1="78.5" y1="94.4" x2="59.2" y2="86.2"/>
<line class="st8" x1="58.1" y1="86.8" x2="59.2" y2="86.2"/>
<line class="st8" x1="46.9" y1="92.4" x2="49.1" y2="91.3"/>
<line class="st8" x1="106.6" y1="83.5" x2="67.3" y2="103.2"/>
<line class="st8" x1="106.6" y1="86.6" x2="67.3" y2="106.3"/>
<line class="st8" x1="106.6" y1="86.6" x2="106.6" y2="83.5"/>
<line class="st8" x1="5.7" y1="77.1" x2="44.7" y2="57.6"/>
<line class="st8" x1="67.3" y1="106.3" x2="67.3" y2="103.2"/>
<line class="st8" x1="67.3" y1="103.2" x2="5.7" y2="77.1"/>
<line class="st8" x1="5.7" y1="80.2" x2="5.7" y2="77.1"/>
<line class="st8" x1="67.3" y1="106.3" x2="5.7" y2="80.2"/>
<line class="st8" x1="84.7" y1="84.3" x2="84.3" y2="84.2"/>
<line class="st8" x1="84.3" y1="84.6" x2="84.3" y2="84.2"/>
<line class="st8" x1="84.6" y1="84.7" x2="84.3" y2="84.6"/>
<path class="st8" d="M88.2,86.2c-0.2-0.1-0.2-0.2,0-0.3"/>
<path class="st8" d="M88.1,86.5c0,0,0-0.1,0-0.1"/>
<line class="st8" x1="90.5" y1="87.1" x2="88.2" y2="86.2"/>
<line class="st8" x1="90.5" y1="87.6" x2="90.2" y2="87.4"/>
<path class="st8" d="M91.3,87.1c-0.3,0.1-0.5,0.1-0.7,0"/>
<path class="st8" d="M91.3,87.6c-0.3,0.1-0.5,0.1-0.7,0"/>
<line class="st8" x1="93.2" y1="86.1" x2="91.3" y2="87.1"/>
<line class="st8" x1="93.2" y1="86.6" x2="91.3" y2="87.6"/>
<path class="st8" d="M93.2,85.8c0.2,0.1,0.2,0.2,0,0.3"/>
<path class="st8" d="M93.4,86.4c0,0.1-0.1,0.1-0.1,0.2"/>
<line class="st8" x1="90.9" y1="84.8" x2="93.2" y2="85.8"/>
<path class="st8" d="M90.1,84.8c0.3-0.1,0.5-0.1,0.8,0"/>
<line class="st8" x1="88.2" y1="85.8" x2="90.1" y2="84.8"/>
<path class="st8" d="M84.8,84.7c-0.2-0.1-0.2-0.2,0-0.3"/>
<path class="st8" d="M84.6,85.1c0,0-0.1-0.1-0.1-0.1"/>
<line class="st8" x1="87.1" y1="85.7" x2="84.8" y2="84.7"/>
<line class="st8" x1="85.9" y1="85.6" x2="85" y2="85.2"/>
<path class="st8" d="M87.8,85.6c-0.3,0.1-0.5,0.1-0.7,0"/>
<path class="st8" d="M87.8,86.1c-0.2,0.1-0.4,0.1-0.6,0.1"/>
<line class="st8" x1="89.7" y1="84.7" x2="87.8" y2="85.6"/>
<line class="st8" x1="88.1" y1="86" x2="87.8" y2="86.1"/>
<path class="st8" d="M89.7,84.3c0.2,0.1,0.2,0.2,0,0.3"/>
<line class="st8" x1="89.9" y1="85" x2="89.9" y2="85"/>
<line class="st8" x1="87.4" y1="83.4" x2="89.7" y2="84.3"/>
<path class="st8" d="M86.7,83.4c0.3-0.1,0.5-0.1,0.7,0"/>
<line class="st8" x1="84.7" y1="84.3" x2="86.7" y2="83.4"/>
<path class="st8" d="M81.3,83.2c-0.2-0.1-0.2-0.2,0-0.3"/>
<path class="st8" d="M81.2,83.6c0,0-0.1-0.1-0.1-0.1"/>
<line class="st8" x1="83.6" y1="84.2" x2="81.3" y2="83.2"/>
<line class="st8" x1="82.4" y1="84.1" x2="81.5" y2="83.8"/>
<path class="st8" d="M84.3,84.2c-0.3,0.1-0.5,0.1-0.7,0"/>
<path class="st8" d="M84.3,84.6c-0.2,0.1-0.4,0.1-0.6,0.1"/>
<line class="st8" x1="86.3" y1="83.2" x2="84.3" y2="84.2"/>
<path class="st8" d="M86.2,82.9c0.2,0.1,0.2,0.2,0,0.3"/>
<line class="st8" x1="86.4" y1="83.5" x2="86.4" y2="83.5"/>
<line class="st8" x1="84" y1="81.9" x2="86.2" y2="82.9"/>
<path class="st8" d="M83.2,81.9c0.3-0.1,0.5-0.1,0.7,0"/>
<line class="st8" x1="81.3" y1="82.9" x2="83.2" y2="81.9"/>
<path class="st8" d="M77.8,81.7c-0.2-0.1-0.2-0.2,0-0.3"/>
<path class="st8" d="M77.7,82.1c0,0-0.1-0.1-0.1-0.1"/>
<line class="st8" x1="80.1" y1="82.7" x2="77.8" y2="81.7"/>
<line class="st8" x1="78.9" y1="82.7" x2="78" y2="82.3"/>
<path class="st8" d="M80.9,82.7c-0.3,0.1-0.5,0.1-0.7,0"/>
<path class="st8" d="M80.9,83.2c-0.2,0.1-0.4,0.1-0.6,0.1"/>
<line class="st8" x1="82.8" y1="81.7" x2="80.9" y2="82.7"/>
<line class="st8" x1="81.1" y1="83" x2="80.9" y2="83.2"/>
<path class="st8" d="M82.8,81.4c0.2,0.1,0.2,0.2,0,0.3"/>
<line class="st8" x1="82.9" y1="82" x2="82.9" y2="82"/>
<line class="st8" x1="80.5" y1="80.4" x2="82.8" y2="81.4"/>
<path class="st8" d="M79.7,80.4c0.3-0.1,0.5-0.1,0.7,0"/>
<line class="st8" x1="77.8" y1="81.4" x2="79.7" y2="80.4"/>
<path class="st8" d="M74.4,80.3c-0.2-0.1-0.2-0.2,0-0.3"/>
<path class="st8" d="M74.2,80.6c0,0,0-0.1,0-0.1"/>
<line class="st8" x1="76.6" y1="81.2" x2="74.4" y2="80.3"/>
<line class="st8" x1="75.5" y1="81.2" x2="74.6" y2="80.8"/>
<path class="st8" d="M77.4,81.2c-0.3,0.1-0.5,0.1-0.7,0"/>
<path class="st8" d="M77.4,81.7c-0.2,0.1-0.4,0.1-0.6,0.1"/>
<line class="st8" x1="79.3" y1="80.3" x2="77.4" y2="81.2"/>
<line class="st8" x1="77.7" y1="81.6" x2="77.4" y2="81.7"/>
<path class="st8" d="M79.3,79.9c0.2,0.1,0.2,0.2,0,0.3"/>
<line class="st8" x1="79.5" y1="80.5" x2="79.5" y2="80.6"/>
<line class="st8" x1="77" y1="78.9" x2="79.3" y2="79.9"/>
<path class="st8" d="M76.3,79c0.3-0.1,0.5-0.1,0.7,0"/>
<line class="st8" x1="74.3" y1="79.9" x2="76.3" y2="79"/>
<path class="st8" d="M70.9,78.8c-0.2-0.1-0.2-0.2,0-0.3"/>
<path class="st8" d="M70.8,79.2c0,0,0-0.1,0-0.1"/>
<line class="st8" x1="73.2" y1="79.8" x2="70.9" y2="78.8"/>
<line class="st8" x1="72" y1="79.7" x2="71.1" y2="79.3"/>
<path class="st8" d="M73.9,79.8c-0.3,0.1-0.5,0.1-0.7,0"/>
<path class="st8" d="M73.9,80.2c-0.2,0.1-0.4,0.1-0.6,0.1"/>
<line class="st8" x1="75.9" y1="78.8" x2="73.9" y2="79.8"/>
<line class="st8" x1="74.2" y1="80.1" x2="73.9" y2="80.2"/>
<path class="st8" d="M75.8,78.4c0.2,0.1,0.2,0.2,0,0.3"/>
<line class="st8" x1="76" y1="79.1" x2="76" y2="79.1"/>
<line class="st8" x1="73.5" y1="77.5" x2="75.8" y2="78.4"/>
<path class="st8" d="M72.8,77.5c0.3-0.1,0.5-0.1,0.7,0"/>
<line class="st8" x1="70.9" y1="78.5" x2="72.8" y2="77.5"/>
<path class="st8" d="M67.4,77.3c-0.2-0.1-0.2-0.2,0-0.3"/>
<path class="st8" d="M67.3,77.7c0,0,0-0.1,0-0.1"/>
<line class="st8" x1="69.7" y1="78.3" x2="67.4" y2="77.3"/>
<line class="st8" x1="68.5" y1="78.2" x2="67.6" y2="77.9"/>
<path class="st8" d="M70.5,78.3c-0.3,0.1-0.5,0.1-0.7,0"/>
<path class="st8" d="M70.5,78.7c-0.2,0.1-0.4,0.1-0.6,0.1"/>
<line class="st8" x1="72.4" y1="77.3" x2="70.5" y2="78.3"/>
<line class="st8" x1="70.7" y1="78.6" x2="70.5" y2="78.7"/>
<path class="st8" d="M72.4,77c0.2,0.1,0.2,0.2,0,0.3"/>
<line class="st8" x1="72.5" y1="77.6" x2="72.5" y2="77.6"/>
<line class="st8" x1="70.1" y1="76" x2="72.4" y2="77"/>
<path class="st8" d="M69.3,76c0.3-0.1,0.5-0.1,0.7,0"/>
<line class="st8" x1="67.4" y1="77" x2="69.3" y2="76"/>
<path class="st8" d="M63.9,75.9c-0.2-0.1-0.2-0.2,0-0.3"/>
<path class="st8" d="M63.8,76.2c0,0,0-0.1,0-0.1"/>
<line class="st8" x1="66.2" y1="76.8" x2="63.9" y2="75.9"/>
<line class="st8" x1="65" y1="76.8" x2="64.2" y2="76.4"/>
<path class="st8" d="M67,76.8c-0.3,0.1-0.5,0.1-0.7,0"/>
<path class="st8" d="M67,77.3c-0.2,0.1-0.4,0.1-0.6,0.1"/>
<line class="st8" x1="68.9" y1="75.8" x2="67" y2="76.8"/>
<line class="st8" x1="67.2" y1="77.1" x2="67" y2="77.3"/>
<path class="st8" d="M68.9,75.5c0.2,0.1,0.2,0.2,0,0.3"/>
<line class="st8" x1="69.1" y1="76.1" x2="69.1" y2="76.1"/>
<line class="st8" x1="66.6" y1="74.5" x2="68.9" y2="75.5"/>
<path class="st8" d="M65.9,74.5c0.3-0.1,0.5-0.1,0.8,0"/>
<line class="st8" x1="63.9" y1="75.5" x2="65.9" y2="74.5"/>
<path class="st8" d="M60.5,74.4c-0.2-0.1-0.2-0.2,0-0.3"/>
<path class="st8" d="M60.4,74.8c0,0-0.1-0.1-0.1-0.1"/>
<line class="st8" x1="62.8" y1="75.4" x2="60.5" y2="74.4"/>
<line class="st8" x1="61.6" y1="75.3" x2="60.7" y2="74.9"/>
<path class="st8" d="M63.5,75.3c-0.3,0.1-0.5,0.1-0.8,0"/>
<path class="st8" d="M63.5,75.8c-0.2,0.1-0.4,0.1-0.6,0.1"/>
<line class="st8" x1="65.5" y1="74.4" x2="63.5" y2="75.3"/>
<line class="st8" x1="63.8" y1="75.7" x2="63.5" y2="75.8"/>
<path class="st8" d="M65.4,74c0.2,0.1,0.2,0.2,0,0.3"/>
<line class="st8" x1="65.6" y1="74.7" x2="65.6" y2="74.7"/>
<line class="st8" x1="63.1" y1="73.1" x2="65.4" y2="74"/>
<path class="st8" d="M62.4,73.1c0.3-0.1,0.5-0.1,0.7,0"/>
<line class="st8" x1="60.4" y1="74" x2="62.4" y2="73.1"/>
<path class="st8" d="M57,72.9c-0.2-0.1-0.2-0.2,0-0.3"/>
<path class="st8" d="M56.9,73.3c0,0-0.1-0.1-0.1-0.1"/>
<line class="st8" x1="51.7" y1="68.8" x2="51.7" y2="68.3"/>
<line class="st8" x1="46.4" y1="68.3" x2="46.4" y2="68.8"/>
<line class="st8" x1="62.1" y1="73.2" x2="62.1" y2="72.8"/>
<line class="st8" x1="56.8" y1="72.7" x2="56.8" y2="73.2"/>
<line class="st8" x1="65.6" y1="74.7" x2="65.6" y2="74.2"/>
<line class="st8" x1="60.3" y1="74.2" x2="60.3" y2="74.7"/>
<line class="st8" x1="69.1" y1="76.1" x2="69.1" y2="75.7"/>
<line class="st8" x1="63.8" y1="75.7" x2="63.8" y2="76.1"/>
<line class="st8" x1="72.5" y1="77.6" x2="72.5" y2="77.2"/>
<line class="st8" x1="67.2" y1="77.2" x2="67.2" y2="77.6"/>
<line class="st8" x1="76" y1="79.1" x2="76" y2="78.6"/>
<line class="st8" x1="70.7" y1="78.6" x2="70.7" y2="79.1"/>
<line class="st8" x1="79.5" y1="80.5" x2="79.5" y2="80.1"/>
<line class="st8" x1="74.2" y1="80.1" x2="74.2" y2="80.5"/>
<line class="st8" x1="82.9" y1="82" x2="82.9" y2="81.6"/>
<line class="st8" x1="77.7" y1="81.6" x2="77.7" y2="82"/>
<line class="st8" x1="86.4" y1="83.5" x2="86.4" y2="83.1"/>
<line class="st8" x1="81.1" y1="83" x2="81.1" y2="83.5"/>
<line class="st8" x1="89.9" y1="85" x2="89.9" y2="84.5"/>
<line class="st8" x1="84.6" y1="84.5" x2="84.6" y2="85"/>
<line class="st8" x1="93.4" y1="86.4" x2="93.4" y2="86"/>
<line class="st8" x1="88.1" y1="86" x2="88.1" y2="86.4"/>
<line class="st8" x1="58.3" y1="86.6" x2="58.3" y2="86.5"/>
<line class="st8" x1="32.7" y1="84.8" x2="32.7" y2="84.9"/>
<line class="st8" x1="47.9" y1="91.9" x2="47.9" y2="91.9"/>
<line class="st8" x1="39.2" y1="89.1" x2="39.2" y2="89.2"/>
<line class="st8" x1="39.5" y1="88.4" x2="39.5" y2="88.3"/>
<line class="st8" x1="30.9" y1="85.6" x2="30.9" y2="85.7"/>
<line class="st8" x1="71.2" y1="87.3" x2="73.1" y2="86.3"/>
<line class="st8" x1="59.3" y1="73.9" x2="57" y2="72.9"/>
<line class="st8" x1="41.6" y1="63.2" x2="43.5" y2="62.2"/>
<path class="st8" d="M43.5,62.2c0.3-0.1,0.5-0.1,0.7,0"/>
<line class="st8" x1="44.3" y1="62.2" x2="47.7" y2="63.6"/>
<line class="st8" x1="47.9" y1="64.3" x2="47.9" y2="64.3"/>
<path class="st8" d="M47.7,63.6c0.2,0.1,0.2,0.2,0,0.3"/>
<line class="st8" x1="46.1" y1="65.3" x2="45.8" y2="65.4"/>
<line class="st8" x1="47.8" y1="64" x2="45.8" y2="65"/>
<path class="st8" d="M45.8,65.4c-0.2,0.1-0.4,0.1-0.6,0.1"/>
<path class="st8" d="M45.8,65c-0.3,0.1-0.5,0.1-0.7,0"/>
<line class="st8" x1="45.1" y1="65" x2="41.6" y2="63.5"/>
<path class="st8" d="M41.5,63.9c0,0,0-0.1,0-0.1"/>
<path class="st8" d="M41.6,63.5c-0.2-0.1-0.2-0.2,0-0.3"/>
<line class="st8" x1="46.2" y1="65.1" x2="48.2" y2="64.2"/>
<path class="st8" d="M48.2,64.2c0.3-0.1,0.5-0.1,0.7,0"/>
<line class="st8" x1="48.9" y1="64.1" x2="51.2" y2="65.1"/>
<line class="st8" x1="51.4" y1="65.7" x2="51.4" y2="65.8"/>
<path class="st8" d="M51.2,65.1c0.2,0.1,0.2,0.2,0,0.3"/>
<line class="st8" x1="49.5" y1="66.7" x2="49.3" y2="66.9"/>
<line class="st8" x1="51.2" y1="65.5" x2="49.3" y2="66.4"/>
<path class="st8" d="M49.3,66.9c-0.3,0.1-0.5,0.1-0.7,0"/>
<path class="st8" d="M49.3,66.4c-0.3,0.1-0.5,0.1-0.7,0"/>
<line class="st8" x1="48.5" y1="66.9" x2="48.2" y2="66.7"/>
<line class="st8" x1="48.5" y1="66.4" x2="46.2" y2="65.5"/>
<path class="st8" d="M46.1,65.8c0,0-0.1-0.1-0.1-0.1"/>
<path class="st8" d="M46.2,65.5c-0.2-0.1-0.2-0.2,0-0.3"/>
<line class="st8" x1="49.7" y1="66.6" x2="51.6" y2="65.6"/>
<path class="st8" d="M51.6,65.6c0.3-0.1,0.5-0.1,0.7,0"/>
<line class="st8" x1="52.4" y1="65.6" x2="54.7" y2="66.6"/>
<line class="st8" x1="54.8" y1="67.2" x2="54.8" y2="67.2"/>
<path class="st8" d="M54.7,66.6c0.2,0.1,0.2,0.2,0,0.3"/>
<line class="st8" x1="53" y1="68.2" x2="52.8" y2="68.3"/>
<line class="st8" x1="54.7" y1="66.9" x2="52.8" y2="67.9"/>
<path class="st8" d="M52.8,68.3c-0.3,0.1-0.5,0.1-0.7,0"/>
<path class="st8" d="M52.8,67.9c-0.3,0.1-0.5,0.1-0.7,0"/>
<line class="st8" x1="52" y1="68.4" x2="51.7" y2="68.2"/>
<line class="st8" x1="52" y1="67.9" x2="49.7" y2="66.9"/>
<path class="st8" d="M49.6,67.3c0,0-0.1-0.1-0.1-0.1"/>
<path class="st8" d="M49.7,66.9c-0.2-0.1-0.2-0.2,0-0.3"/>
<line class="st8" x1="53.2" y1="68.1" x2="55.1" y2="67.1"/>
<path class="st8" d="M55.1,67.1c0.3-0.1,0.5-0.1,0.7,0"/>
<line class="st8" x1="55.8" y1="67.1" x2="58.1" y2="68.1"/>
<line class="st8" x1="58.3" y1="68.7" x2="58.3" y2="68.7"/>
<path class="st8" d="M58.1,68.1c0.2,0.1,0.2,0.2,0,0.3"/>
<line class="st8" x1="56.5" y1="69.7" x2="56.2" y2="69.8"/>
<line class="st8" x1="58.2" y1="68.4" x2="56.2" y2="69.4"/>
<path class="st8" d="M56.2,69.8c-0.3,0.1-0.5,0.1-0.8,0"/>
<path class="st8" d="M56.2,69.4c-0.3,0.1-0.5,0.1-0.8,0"/>
<line class="st8" x1="55.5" y1="69.8" x2="55.1" y2="69.7"/>
<line class="st8" x1="55.5" y1="69.4" x2="53.2" y2="68.4"/>
<path class="st8" d="M53.1,68.8c0,0-0.1-0.1-0.1-0.1"/>
<path class="st8" d="M53.2,68.4c-0.2-0.1-0.2-0.2,0-0.3"/>
<line class="st8" x1="56.6" y1="69.5" x2="58.6" y2="68.6"/>
<path class="st8" d="M58.6,68.6c0.3-0.1,0.5-0.1,0.7,0"/>
<line class="st8" x1="59.3" y1="68.6" x2="61.6" y2="69.5"/>
<line class="st8" x1="61.8" y1="70.2" x2="61.8" y2="70.2"/>
<path class="st8" d="M61.6,69.5c0.2,0.1,0.2,0.2,0,0.3"/>
<line class="st8" x1="60" y1="71.2" x2="59.7" y2="71.3"/>
<line class="st8" x1="61.6" y1="69.9" x2="59.7" y2="70.8"/>
<path class="st8" d="M59.7,71.3c-0.3,0.1-0.5,0.1-0.7,0"/>
<path class="st8" d="M59.7,70.8c-0.3,0.1-0.5,0.1-0.7,0"/>
<line class="st8" x1="58.9" y1="71.3" x2="58.6" y2="71.2"/>
<line class="st8" x1="58.9" y1="70.9" x2="56.7" y2="69.9"/>
<path class="st8" d="M56.5,70.3c0,0,0-0.1,0-0.1"/>
<path class="st8" d="M56.7,69.9c-0.2-0.1-0.2-0.2,0-0.3"/>
<line class="st8" x1="60.1" y1="71" x2="62" y2="70"/>
<path class="st8" d="M62,70c0.3-0.1,0.5-0.1,0.7,0"/>
<line class="st8" x1="62.8" y1="70" x2="65.1" y2="71"/>
<line class="st8" x1="65.2" y1="71.6" x2="65.2" y2="71.6"/>
<path class="st8" d="M65.1,71c0.2,0.1,0.2,0.2,0,0.3"/>
<line class="st8" x1="63.4" y1="72.6" x2="63.2" y2="72.8"/>
<line class="st8" x1="65.1" y1="71.3" x2="63.2" y2="72.3"/>
<path class="st8" d="M63.2,72.8c-0.3,0.1-0.5,0.1-0.7,0"/>
<path class="st8" d="M63.2,72.3c-0.3,0.1-0.5,0.1-0.7,0"/>
<line class="st8" x1="62.4" y1="72.8" x2="62.1" y2="72.6"/>
<line class="st8" x1="62.4" y1="72.3" x2="60.1" y2="71.4"/>
<path class="st8" d="M60,71.7c0,0,0-0.1,0-0.1"/>
<path class="st8" d="M60.1,71.4c-0.2-0.1-0.2-0.2,0-0.3"/>
<line class="st8" x1="91.3" y1="84.3" x2="93.3" y2="83.3"/>
<path class="st8" d="M93.3,83.3c0.3-0.1,0.5-0.1,0.7,0"/>
<line class="st8" x1="94" y1="83.3" x2="96.3" y2="84.2"/>
<path class="st8" d="M96.5,84.9c0,0.1-0.1,0.1-0.1,0.2"/>
<path class="st8" d="M96.3,84.2c0.2,0.1,0.2,0.2,0,0.3"/>
<line class="st8" x1="96.3" y1="85" x2="94.4" y2="86"/>
<line class="st8" x1="96.3" y1="84.6" x2="94.4" y2="85.6"/>
<path class="st8" d="M94.4,86c-0.3,0.1-0.5,0.1-0.7,0"/>
<path class="st8" d="M94.4,85.6c-0.3,0.1-0.5,0.1-0.7,0"/>
<line class="st8" x1="93.6" y1="86" x2="93.3" y2="85.9"/>
<line class="st8" x1="93.6" y1="85.6" x2="91.4" y2="84.6"/>
<path class="st8" d="M91.2,85c0,0,0-0.1,0-0.1"/>
<path class="st8" d="M91.4,84.6c-0.2-0.1-0.2-0.2,0-0.3"/>
<line class="st8" x1="87.8" y1="82.8" x2="89.8" y2="81.8"/>
<path class="st8" d="M89.8,81.8c0.3-0.1,0.5-0.1,0.7,0"/>
<line class="st8" x1="90.5" y1="81.8" x2="92.8" y2="82.8"/>
<line class="st8" x1="93" y1="83.4" x2="93" y2="83.4"/>
<path class="st8" d="M92.8,82.8c0.2,0.1,0.2,0.2,0,0.3"/>
<line class="st8" x1="91.2" y1="84.4" x2="90.9" y2="84.5"/>
<line class="st8" x1="92.9" y1="83.1" x2="90.9" y2="84.1"/>
<path class="st8" d="M90.9,84.5c-0.3,0.1-0.5,0.1-0.7,0"/>
<path class="st8" d="M90.9,84.1c-0.3,0.1-0.5,0.1-0.7,0"/>
<line class="st8" x1="90.2" y1="84.5" x2="89.8" y2="84.4"/>
<line class="st8" x1="90.2" y1="84.1" x2="87.9" y2="83.1"/>
<path class="st8" d="M87.8,83.5c0,0,0-0.1,0-0.1"/>
<path class="st8" d="M87.9,83.1c-0.2-0.1-0.2-0.2,0-0.3"/>
<line class="st8" x1="84.4" y1="81.3" x2="86.3" y2="80.3"/>
<path class="st8" d="M86.3,80.3c0.3-0.1,0.5-0.1,0.7,0"/>
<line class="st8" x1="87.1" y1="80.3" x2="89.4" y2="81.3"/>
<line class="st8" x1="89.5" y1="81.9" x2="89.5" y2="81.9"/>
<path class="st8" d="M89.4,81.3c0.2,0.1,0.2,0.2,0,0.3"/>
<line class="st8" x1="87.7" y1="82.9" x2="87.5" y2="83.1"/>
<line class="st8" x1="89.4" y1="81.6" x2="87.5" y2="82.6"/>
<path class="st8" d="M87.5,83.1c-0.3,0.1-0.5,0.1-0.7,0"/>
<path class="st8" d="M87.5,82.6c-0.3,0.1-0.5,0.1-0.7,0"/>
<line class="st8" x1="86.7" y1="83.1" x2="86.4" y2="82.9"/>
<line class="st8" x1="86.7" y1="82.6" x2="84.4" y2="81.7"/>
<path class="st8" d="M84.3,82c0,0,0-0.1,0-0.1"/>
<path class="st8" d="M84.4,81.7c-0.2-0.1-0.2-0.2,0-0.3"/>
<line class="st8" x1="80.9" y1="79.8" x2="82.8" y2="78.9"/>
<path class="st8" d="M82.8,78.9c0.3-0.1,0.5-0.1,0.8,0"/>
<line class="st8" x1="83.6" y1="78.9" x2="85.9" y2="79.8"/>
<line class="st8" x1="86.1" y1="80.5" x2="86.1" y2="80.5"/>
<path class="st8" d="M85.9,79.8c0.2,0.1,0.2,0.2,0,0.3"/>
<line class="st8" x1="84.2" y1="81.5" x2="84" y2="81.6"/>
<line class="st8" x1="85.9" y1="80.2" x2="84" y2="81.1"/>
<path class="st8" d="M84,81.6c-0.3,0.1-0.5,0.1-0.7,0"/>
<path class="st8" d="M84,81.1c-0.3,0.1-0.5,0.1-0.7,0"/>
<line class="st8" x1="83.2" y1="81.6" x2="82.9" y2="81.5"/>
<line class="st8" x1="83.2" y1="81.2" x2="80.9" y2="80.2"/>
<path class="st8" d="M80.8,80.6c0,0,0-0.1,0-0.1"/>
<path class="st8" d="M80.9,80.2c-0.2-0.1-0.2-0.2,0-0.3"/>
<line class="st8" x1="77.4" y1="78.4" x2="79.4" y2="77.4"/>
<path class="st8" d="M79.4,77.4c0.3-0.1,0.5-0.1,0.7,0"/>
<line class="st8" x1="80.1" y1="77.4" x2="82.4" y2="78.4"/>
<line class="st8" x1="82.6" y1="79" x2="82.6" y2="79"/>
<path class="st8" d="M82.4,78.4c0.2,0.1,0.2,0.2,0,0.3"/>
<line class="st8" x1="80.8" y1="80" x2="80.5" y2="80.1"/>
<line class="st8" x1="82.5" y1="78.7" x2="80.5" y2="79.7"/>
<path class="st8" d="M80.5,80.1c-0.3,0.1-0.5,0.1-0.7,0"/>
<path class="st8" d="M80.5,79.7c-0.3,0.1-0.5,0.1-0.7,0"/>
<line class="st8" x1="79.8" y1="80.1" x2="79.4" y2="80"/>
<line class="st8" x1="79.8" y1="79.7" x2="77.5" y2="78.7"/>
<path class="st8" d="M77.4,79.1c0,0-0.1-0.1-0.1-0.1"/>
<path class="st8" d="M77.5,78.7c-0.2-0.1-0.2-0.2,0-0.3"/>
<line class="st8" x1="74" y1="76.9" x2="75.9" y2="75.9"/>
<path class="st8" d="M75.9,75.9c0.3-0.1,0.5-0.1,0.7,0"/>
<line class="st8" x1="76.7" y1="75.9" x2="79" y2="76.9"/>
<line class="st8" x1="79.1" y1="77.5" x2="79.1" y2="77.5"/>
<path class="st8" d="M79,76.9c0.2,0.1,0.2,0.2,0,0.3"/>
<line class="st8" x1="77.3" y1="78.5" x2="77" y2="78.6"/>
<line class="st8" x1="79" y1="77.2" x2="77" y2="78.2"/>
<path class="st8" d="M77,78.6c-0.3,0.1-0.5,0.1-0.7,0"/>
<path class="st8" d="M77,78.2c-0.3,0.1-0.5,0.1-0.7,0"/>
<line class="st8" x1="76.3" y1="78.7" x2="76" y2="78.5"/>
<line class="st8" x1="76.3" y1="78.2" x2="74" y2="77.2"/>
<path class="st8" d="M73.9,77.6c0,0-0.1-0.1-0.1-0.1"/>
<path class="st8" d="M74,77.2c-0.2-0.1-0.2-0.2,0-0.3"/>
<line class="st8" x1="70.5" y1="75.4" x2="72.4" y2="74.5"/>
<path class="st8" d="M72.4,74.5c0.3-0.1,0.5-0.1,0.7,0"/>
<line class="st8" x1="73.2" y1="74.4" x2="75.5" y2="75.4"/>
<line class="st8" x1="75.7" y1="76" x2="75.7" y2="76.1"/>
<path class="st8" d="M75.5,75.4c0.2,0.1,0.2,0.2,0,0.3"/>
<line class="st8" x1="73.8" y1="77" x2="73.6" y2="77.2"/>
<line class="st8" x1="75.5" y1="75.8" x2="73.6" y2="76.7"/>
<path class="st8" d="M73.6,77.2c-0.3,0.1-0.5,0.1-0.7,0"/>
<path class="st8" d="M73.6,76.7c-0.3,0.1-0.5,0.1-0.7,0"/>
<line class="st8" x1="72.8" y1="77.2" x2="72.5" y2="77"/>
<line class="st8" x1="72.8" y1="76.7" x2="70.5" y2="75.8"/>
<path class="st8" d="M70.4,76.1c0,0-0.1-0.1-0.1-0.1"/>
<path class="st8" d="M70.5,75.8c-0.2-0.1-0.2-0.2,0-0.3"/>
<line class="st8" x1="67" y1="74" x2="69" y2="73"/>
<path class="st8" d="M69,73c0.3-0.1,0.5-0.1,0.7,0"/>
<line class="st8" x1="69.7" y1="73" x2="72" y2="73.9"/>
<line class="st8" x1="72.2" y1="74.6" x2="72.2" y2="74.6"/>
<path class="st8" d="M72,73.9c0.2,0.1,0.2,0.2,0,0.3"/>
<line class="st8" x1="70.4" y1="75.6" x2="70.1" y2="75.7"/>
<line class="st8" x1="72" y1="74.3" x2="70.1" y2="75.3"/>
<path class="st8" d="M70.1,75.7c-0.3,0.1-0.5,0.1-0.7,0"/>
<path class="st8" d="M70.1,75.3c-0.3,0.1-0.5,0.1-0.7,0"/>
<line class="st8" x1="69.4" y1="75.7" x2="69" y2="75.6"/>
<line class="st8" x1="69.4" y1="75.3" x2="67.1" y2="74.3"/>
<path class="st8" d="M66.9,74.7c0,0,0-0.1,0-0.1"/>
<path class="st8" d="M67.1,74.3c-0.2-0.1-0.2-0.2,0-0.3"/>
<line class="st8" x1="63.6" y1="72.5" x2="65.5" y2="71.5"/>
<path class="st8" d="M65.5,71.5c0.3-0.1,0.5-0.1,0.7,0"/>
<line class="st8" x1="66.3" y1="71.5" x2="68.5" y2="72.5"/>
<line class="st8" x1="68.7" y1="73.1" x2="68.7" y2="73.1"/>
<path class="st8" d="M68.5,72.5c0.2,0.1,0.2,0.2,0,0.3"/>
<line class="st8" x1="66.9" y1="74.1" x2="66.6" y2="74.2"/>
<line class="st8" x1="68.6" y1="72.8" x2="66.6" y2="73.8"/>
<path class="st8" d="M66.6,74.2c-0.3,0.1-0.5,0.1-0.7,0"/>
<path class="st8" d="M66.6,73.8c-0.3,0.1-0.5,0.1-0.7,0"/>
<line class="st8" x1="65.9" y1="74.2" x2="65.5" y2="74.1"/>
<line class="st8" x1="65.9" y1="73.8" x2="63.6" y2="72.8"/>
<path class="st8" d="M63.5,73.2c0,0,0-0.1,0-0.1"/>
<path class="st8" d="M63.6,72.8c-0.2-0.1-0.2-0.2,0-0.3"/>
<path class="st8" d="M27.9,70c0.3-0.1,0.5-0.1,0.8,0"/>
<line class="st8" x1="28.7" y1="70" x2="31.4" y2="71.2"/>
<line class="st8" x1="31.6" y1="71.8" x2="31.6" y2="71.8"/>
<path class="st8" d="M31.4,71.2c0.2,0.1,0.2,0.2,0,0.3"/>
<line class="st8" x1="29.8" y1="72.8" x2="29.5" y2="72.9"/>
<line class="st8" x1="31.5" y1="71.5" x2="29.5" y2="72.5"/>
<path class="st8" d="M29.5,72.9c-0.3,0.1-0.5,0.1-0.7,0"/>
<path class="st8" d="M29.5,72.5c-0.3,0.1-0.5,0.1-0.7,0"/>
<line class="st8" x1="28.8" y1="72.9" x2="26" y2="71.8"/>
<line class="st8" x1="28.8" y1="72.5" x2="26" y2="71.3"/>
<path class="st8" d="M26,71.8c-0.1,0-0.2-0.1-0.2-0.2"/>
<path class="st8" d="M26,71.3c-0.2-0.1-0.2-0.2,0-0.3"/>
<line class="st8" x1="26" y1="71" x2="27.9" y2="70"/>
<path class="st8" d="M31.9,71.7c0.3-0.1,0.5-0.1,0.7,0"/>
<line class="st8" x1="32.6" y1="71.7" x2="34.9" y2="72.6"/>
<line class="st8" x1="35.1" y1="73.3" x2="35.1" y2="73.3"/>
<path class="st8" d="M34.9,72.6c0.2,0.1,0.2,0.2,0,0.3"/>
<line class="st8" x1="33.3" y1="74.3" x2="33" y2="74.4"/>
<line class="st8" x1="34.9" y1="73" x2="33" y2="73.9"/>
<path class="st8" d="M33,74.4c-0.3,0.1-0.5,0.1-0.7,0"/>
<path class="st8" d="M33,73.9c-0.3,0.1-0.5,0.1-0.7,0"/>
<line class="st8" x1="32.2" y1="74.4" x2="30" y2="73.4"/>
<line class="st8" x1="32.2" y1="74" x2="30" y2="73"/>
<path class="st8" d="M30,73.4c-0.1,0-0.2-0.1-0.2-0.2"/>
<path class="st8" d="M30,73c-0.2-0.1-0.2-0.2,0-0.3"/>
<line class="st8" x1="29.9" y1="72.6" x2="31.9" y2="71.7"/>
<path class="st8" d="M35.3,73.1c0.3-0.1,0.5-0.1,0.7,0"/>
<line class="st8" x1="36.1" y1="73.1" x2="38.4" y2="74.1"/>
<line class="st8" x1="38.5" y1="74.7" x2="38.5" y2="74.7"/>
<path class="st8" d="M38.4,74.1c0.2,0.1,0.2,0.2,0,0.3"/>
<line class="st8" x1="36.7" y1="75.7" x2="36.5" y2="75.9"/>
<line class="st8" x1="38.4" y1="74.4" x2="36.5" y2="75.4"/>
<path class="st8" d="M36.5,75.9c-0.3,0.1-0.5,0.1-0.7,0"/>
<path class="st8" d="M36.5,75.4c-0.3,0.1-0.5,0.1-0.7,0"/>
<line class="st8" x1="35.7" y1="75.9" x2="33.4" y2="74.9"/>
<line class="st8" x1="35.7" y1="75.4" x2="33.4" y2="74.5"/>
<path class="st8" d="M33.4,74.9c-0.1,0-0.2-0.1-0.2-0.2"/>
<path class="st8" d="M33.4,74.5c-0.2-0.1-0.2-0.2,0-0.3"/>
<line class="st8" x1="33.4" y1="74.1" x2="35.3" y2="73.1"/>
<path class="st8" d="M45.7,77.6c0.3-0.1,0.5-0.1,0.7,0"/>
<line class="st8" x1="46.5" y1="77.5" x2="48.8" y2="78.5"/>
<line class="st8" x1="49" y1="79.1" x2="49" y2="79.2"/>
<path class="st8" d="M48.8,78.5c0.2,0.1,0.2,0.2,0,0.3"/>
<line class="st8" x1="47.1" y1="80.1" x2="46.9" y2="80.3"/>
<line class="st8" x1="48.8" y1="78.9" x2="46.9" y2="79.8"/>
<path class="st8" d="M46.9,80.3c-0.3,0.1-0.5,0.1-0.7,0"/>
<path class="st8" d="M46.9,79.8c-0.3,0.1-0.5,0.1-0.7,0"/>
<line class="st8" x1="46.1" y1="80.3" x2="43.8" y2="79.3"/>
<line class="st8" x1="46.1" y1="79.8" x2="43.8" y2="78.9"/>
<path class="st8" d="M43.8,79.3c-0.1,0-0.2-0.1-0.2-0.2"/>
<path class="st8" d="M43.8,78.9c-0.2-0.1-0.2-0.2,0-0.3"/>
<line class="st8" x1="43.8" y1="78.5" x2="45.7" y2="77.6"/>
<path class="st8" d="M38.8,74.6c0.3-0.1,0.5-0.1,0.7,0"/>
<line class="st8" x1="39.6" y1="74.6" x2="41.8" y2="75.6"/>
<line class="st8" x1="42" y1="76.2" x2="42" y2="76.2"/>
<path class="st8" d="M41.8,75.6c0.2,0.1,0.2,0.2,0,0.3"/>
<line class="st8" x1="40.2" y1="77.2" x2="39.9" y2="77.3"/>
<line class="st8" x1="41.9" y1="75.9" x2="39.9" y2="76.9"/>
<path class="st8" d="M39.9,77.3c-0.3,0.1-0.5,0.1-0.7,0"/>
<path class="st8" d="M39.9,76.9c-0.3,0.1-0.5,0.1-0.7,0"/>
<line class="st8" x1="39.2" y1="77.4" x2="36.9" y2="76.4"/>
<line class="st8" x1="39.2" y1="76.9" x2="36.9" y2="75.9"/>
<path class="st8" d="M36.9,76.4c-0.1,0-0.2-0.1-0.2-0.2"/>
<path class="st8" d="M36.9,75.9c-0.2-0.1-0.2-0.2,0-0.3"/>
<line class="st8" x1="36.9" y1="75.6" x2="38.8" y2="74.6"/>
<path class="st8" d="M42.3,76.1c0.3-0.1,0.5-0.1,0.7,0"/>
<line class="st8" x1="43" y1="76.1" x2="45.3" y2="77"/>
<line class="st8" x1="45.5" y1="77.7" x2="45.5" y2="77.7"/>
<path class="st8" d="M45.3,77c0.2,0.1,0.2,0.2,0,0.3"/>
<line class="st8" x1="43.7" y1="78.7" x2="43.4" y2="78.8"/>
<line class="st8" x1="45.3" y1="77.4" x2="43.4" y2="78.4"/>
<path class="st8" d="M43.4,78.8c-0.3,0.1-0.5,0.1-0.7,0"/>
<path class="st8" d="M43.4,78.4c-0.3,0.1-0.5,0.1-0.7,0"/>
<line class="st8" x1="42.7" y1="78.8" x2="40.4" y2="77.9"/>
<line class="st8" x1="42.7" y1="78.4" x2="40.4" y2="77.4"/>
<path class="st8" d="M40.4,77.9c-0.1,0-0.2-0.1-0.2-0.2"/>
<path class="st8" d="M40.4,77.4c-0.2-0.1-0.2-0.2,0-0.3"/>
<line class="st8" x1="40.3" y1="77.1" x2="42.3" y2="76.1"/>
<path class="st8" d="M49.2,79c0.3-0.1,0.5-0.1,0.7,0"/>
<line class="st8" x1="50" y1="79" x2="66.1" y2="85.9"/>
<line class="st8" x1="66.3" y1="86.5" x2="66.3" y2="86.5"/>
<path class="st8" d="M66.1,85.9c0.2,0.1,0.2,0.2,0,0.3"/>
<line class="st8" x1="64.5" y1="87.5" x2="64.2" y2="87.6"/>
<line class="st8" x1="66.2" y1="86.2" x2="64.2" y2="87.2"/>
<path class="st8" d="M64.2,87.6c-0.3,0.1-0.5,0.1-0.7,0"/>
<path class="st8" d="M64.2,87.2c-0.3,0.1-0.5,0.1-0.7,0"/>
<line class="st8" x1="63.5" y1="87.7" x2="47.3" y2="80.8"/>
<line class="st8" x1="63.5" y1="87.2" x2="47.3" y2="80.3"/>
<path class="st8" d="M47.3,80.8c-0.1,0-0.2-0.1-0.2-0.2"/>
<path class="st8" d="M47.3,80.3c-0.2-0.1-0.2-0.2,0-0.3"/>
<line class="st8" x1="47.3" y1="80" x2="49.2" y2="79"/>
<path class="st8" d="M66.2,83.3c0.3-0.1,0.5-0.1,0.7,0"/>
<line class="st8" x1="67" y1="83.3" x2="69.2" y2="84.3"/>
<line class="st8" x1="69.4" y1="84.9" x2="69.4" y2="84.9"/>
<path class="st8" d="M69.2,84.3c0.2,0.1,0.2,0.2,0,0.3"/>
<line class="st8" x1="67.6" y1="85.9" x2="67.3" y2="86.1"/>
<line class="st8" x1="69.3" y1="84.6" x2="67.3" y2="85.6"/>
<path class="st8" d="M67.3,86.1c-0.3,0.1-0.5,0.1-0.7,0"/>
<path class="st8" d="M67.3,85.6c-0.3,0.1-0.5,0.1-0.7,0"/>
<line class="st8" x1="66.6" y1="86.1" x2="66.2" y2="85.9"/>
<line class="st8" x1="66.6" y1="85.6" x2="64.3" y2="84.7"/>
<path class="st8" d="M64.2,85c0,0-0.1-0.1-0.1-0.1"/>
<path class="st8" d="M64.3,84.7c-0.2-0.1-0.2-0.2,0-0.3"/>
<line class="st8" x1="64.3" y1="84.3" x2="66.2" y2="83.3"/>
<path class="st8" d="M29,70.1c0,0,0-0.1,0-0.1"/>
<path class="st8" d="M29.1,69.8c-0.2-0.1-0.2-0.2,0-0.3"/>
<line class="st8" x1="29.1" y1="69.4" x2="31" y2="68.4"/>
<path class="st8" d="M31,68.4c0.3-0.1,0.5-0.1,0.7,0"/>
<line class="st8" x1="31.8" y1="68.4" x2="41.5" y2="72.5"/>
<line class="st8" x1="41.7" y1="73.2" x2="41.7" y2="73.2"/>
<path class="st8" d="M41.5,72.5c0.2,0.1,0.2,0.2,0,0.3"/>
<line class="st8" x1="39.8" y1="74.2" x2="39.6" y2="74.3"/>
<line class="st8" x1="41.5" y1="72.9" x2="39.6" y2="73.9"/>
<path class="st8" d="M39.6,74.3c-0.3,0.1-0.5,0.1-0.7,0"/>
<path class="st8" d="M39.6,73.9c-0.3,0.1-0.5,0.1-0.7,0"/>
<line class="st8" x1="38.8" y1="74.3" x2="38.5" y2="74.2"/>
<line class="st8" x1="35.9" y1="73.1" x2="35" y2="72.7"/>
<line class="st8" x1="32.4" y1="71.6" x2="31.6" y2="71.2"/>
<line class="st8" x1="38.8" y1="73.9" x2="29.1" y2="69.8"/>
<path class="st8" d="M73.5,89.3c0.3-0.1,0.5-0.1,0.7,0"/>
<line class="st8" x1="74.2" y1="89.3" x2="76.5" y2="90.3"/>
<line class="st8" x1="76.7" y1="90.9" x2="76.7" y2="90.9"/>
<path class="st8" d="M76.5,90.3c0.2,0.1,0.2,0.2,0,0.3"/>
<line class="st8" x1="74.9" y1="91.9" x2="74.6" y2="92"/>
<line class="st8" x1="76.6" y1="90.6" x2="74.6" y2="91.6"/>
<path class="st8" d="M74.6,92c-0.3,0.1-0.5,0.1-0.7,0"/>
<path class="st8" d="M74.6,91.6c-0.3,0.1-0.5,0.1-0.7,0"/>
<line class="st8" x1="73.9" y1="92.1" x2="71.6" y2="91.1"/>
<line class="st8" x1="73.9" y1="91.6" x2="71.6" y2="90.6"/>
<path class="st8" d="M71.6,91.1c-0.1,0-0.2-0.1-0.2-0.2"/>
<path class="st8" d="M71.6,90.6c-0.2-0.1-0.2-0.2,0-0.3"/>
<line class="st8" x1="71.6" y1="90.3" x2="73.5" y2="89.3"/>
<path class="st8" d="M70,87.9c0.3-0.1,0.5-0.1,0.7,0"/>
<line class="st8" x1="70.8" y1="87.8" x2="73.1" y2="88.8"/>
<line class="st8" x1="73.2" y1="89.4" x2="73.2" y2="89.5"/>
<path class="st8" d="M73.1,88.8c0.2,0.1,0.2,0.2,0,0.3"/>
<line class="st8" x1="71.4" y1="90.4" x2="71.2" y2="90.6"/>
<line class="st8" x1="73.1" y1="89.2" x2="71.2" y2="90.1"/>
<path class="st8" d="M71.2,90.6c-0.3,0.1-0.5,0.1-0.7,0"/>
<path class="st8" d="M71.2,90.1c-0.3,0.1-0.5,0.1-0.7,0"/>
<line class="st8" x1="70.4" y1="90.6" x2="68.1" y2="89.6"/>
<line class="st8" x1="70.4" y1="90.1" x2="68.1" y2="89.2"/>
<path class="st8" d="M68.1,89.6c-0.1,0-0.2-0.1-0.2-0.2"/>
<path class="st8" d="M68.1,89.2c-0.2-0.1-0.2-0.2,0-0.3"/>
<line class="st8" x1="68.1" y1="88.8" x2="70" y2="87.9"/>
<path class="st8" d="M66.6,86.4c0.3-0.1,0.5-0.1,0.7,0"/>
<line class="st8" x1="67.3" y1="86.4" x2="69.6" y2="87.3"/>
<line class="st8" x1="69.8" y1="88" x2="69.8" y2="88"/>
<path class="st8" d="M69.6,87.3c0.2,0.1,0.2,0.2,0,0.3"/>
<line class="st8" x1="67.9" y1="89" x2="67.7" y2="89.1"/>
<line class="st8" x1="69.6" y1="87.7" x2="67.7" y2="88.7"/>
<path class="st8" d="M67.7,89.1c-0.3,0.1-0.5,0.1-0.7,0"/>
<path class="st8" d="M67.7,88.7c-0.3,0.1-0.5,0.1-0.7,0"/>
<line class="st8" x1="66.9" y1="89.1" x2="64.6" y2="88.2"/>
<line class="st8" x1="66.9" y1="88.7" x2="64.6" y2="87.7"/>
<path class="st8" d="M64.6,88.2c-0.1,0-0.2-0.1-0.2-0.2"/>
<path class="st8" d="M64.6,87.7c-0.2-0.1-0.2-0.2,0-0.3"/>
<line class="st8" x1="64.6" y1="87.4" x2="66.6" y2="86.4"/>
<path class="st8" d="M77,90.8c0.3-0.1,0.5-0.1,0.7,0"/>
<line class="st8" x1="77.7" y1="90.8" x2="80.7" y2="92.1"/>
<path class="st8" d="M80.9,92.7c0,0.1-0.1,0.1-0.1,0.2"/>
<path class="st8" d="M80.7,92.1c0.2,0.1,0.2,0.2,0,0.3"/>
<line class="st8" x1="80.7" y1="92.8" x2="78.8" y2="93.8"/>
<line class="st8" x1="80.7" y1="92.4" x2="78.8" y2="93.4"/>
<path class="st8" d="M78.8,93.8c-0.3,0.1-0.5,0.1-0.7,0"/>
<path class="st8" d="M78.8,93.4c-0.3,0.1-0.5,0.1-0.7,0"/>
<line class="st8" x1="78.1" y1="93.8" x2="75.1" y2="92.6"/>
<line class="st8" x1="78.1" y1="93.4" x2="75.1" y2="92.1"/>
<path class="st8" d="M75.1,92.6c-0.1,0-0.2-0.1-0.2-0.2"/>
<path class="st8" d="M75.1,92.1c-0.2-0.1-0.2-0.2,0-0.3"/>
<line class="st8" x1="75" y1="91.8" x2="77" y2="90.8"/>
<line class="st8" x1="32.2" y1="67.8" x2="34.2" y2="66.9"/>
<path class="st8" d="M34.2,66.9c0.3-0.1,0.5-0.1,0.7,0"/>
<line class="st8" x1="34.9" y1="66.9" x2="39.4" y2="68.7"/>
<line class="st8" x1="39.5" y1="69.4" x2="39.5" y2="69.4"/>
<path class="st8" d="M39.4,68.7c0.2,0.1,0.2,0.2,0,0.3"/>
<line class="st8" x1="37.7" y1="70.4" x2="37.4" y2="70.5"/>
<line class="st8" x1="39.4" y1="69.1" x2="37.4" y2="70.1"/>
<path class="st8" d="M37.4,70.5c-0.2,0.1-0.4,0.1-0.6,0.1"/>
<path class="st8" d="M37.4,70.1c-0.3,0.1-0.5,0.1-0.7,0"/>
<line class="st8" x1="36.7" y1="70.1" x2="32.3" y2="68.2"/>
<path class="st8" d="M32.1,68.6c0,0-0.1-0.1-0.1-0.1"/>
<path class="st8" d="M32.3,68.2c-0.2-0.1-0.2-0.2,0-0.3"/>
<path class="st8" d="M80.1,89.2c0.3-0.1,0.5-0.1,0.7,0"/>
<line class="st8" x1="80.8" y1="89.2" x2="83.8" y2="90.5"/>
<path class="st8" d="M84,91.1c0,0.1-0.1,0.1-0.1,0.2"/>
<path class="st8" d="M83.8,90.5c0.2,0.1,0.2,0.2,0,0.3"/>
<line class="st8" x1="83.9" y1="91.3" x2="81.9" y2="92.3"/>
<line class="st8" x1="83.9" y1="90.8" x2="81.9" y2="91.8"/>
<path class="st8" d="M81.9,92.3c-0.3,0.1-0.5,0.1-0.7,0"/>
<path class="st8" d="M81.9,91.8c-0.3,0.1-0.5,0.1-0.7,0"/>
<line class="st8" x1="81.2" y1="92.3" x2="80.8" y2="92.1"/>
<line class="st8" x1="81.2" y1="91.8" x2="78.2" y2="90.6"/>
<path class="st8" d="M78.1,90.9c0,0,0-0.1,0-0.1"/>
<path class="st8" d="M78.2,90.6c-0.2-0.1-0.2-0.2,0-0.3"/>
<line class="st8" x1="78.1" y1="90.2" x2="80.1" y2="89.2"/>
<line class="st8" x1="79.5" y1="87.9" x2="81.4" y2="86.9"/>
<path class="st8" d="M81.4,86.9c0.3-0.1,0.5-0.1,0.7,0"/>
<line class="st8" x1="82.2" y1="86.9" x2="86.9" y2="88.9"/>
<path class="st8" d="M87.1,89.6c0,0.1-0.1,0.1-0.1,0.2"/>
<path class="st8" d="M86.9,88.9c0.2,0.1,0.2,0.2,0,0.3"/>
<line class="st8" x1="87" y1="89.7" x2="85" y2="90.7"/>
<line class="st8" x1="87" y1="89.3" x2="85" y2="90.2"/>
<path class="st8" d="M85,90.7c-0.3,0.1-0.5,0.1-0.7,0"/>
<path class="st8" d="M85,90.2c-0.3,0.1-0.5,0.1-0.7,0"/>
<line class="st8" x1="84.3" y1="90.7" x2="84" y2="90.6"/>
<line class="st8" x1="80.7" y1="89.2" x2="79.8" y2="88.8"/>
<line class="st8" x1="79.5" y1="88.7" x2="79.5" y2="88.2"/>
<line class="st8" x1="84.3" y1="90.3" x2="79.5" y2="88.2"/>
<path class="st8" d="M79.4,88.6c0,0-0.1-0.1-0.1-0.1"/>
<path class="st8" d="M79.5,88.2c-0.2-0.1-0.2-0.2,0-0.3"/>
<line class="st8" x1="83.3" y1="86.6" x2="85.3" y2="85.7"/>
<path class="st8" d="M85.3,85.7c0.3-0.1,0.5-0.1,0.7,0"/>
<line class="st8" x1="86" y1="85.7" x2="90.1" y2="87.4"/>
<path class="st8" d="M90.2,88c0,0.1-0.1,0.1-0.1,0.2"/>
<path class="st8" d="M90.1,87.4c0.2,0.1,0.2,0.2,0,0.3"/>
<line class="st8" x1="90.1" y1="88.2" x2="88.2" y2="89.1"/>
<line class="st8" x1="90.1" y1="87.7" x2="88.2" y2="88.7"/>
<path class="st8" d="M88.2,89.1c-0.3,0.1-0.5,0.1-0.7,0"/>
<path class="st8" d="M88.2,88.7c-0.3,0.1-0.5,0.1-0.7,0"/>
<line class="st8" x1="87.4" y1="89.1" x2="87.1" y2="89"/>
<line class="st8" x1="87.4" y1="88.7" x2="83.4" y2="87"/>
<path class="st8" d="M83.3,87.4c0,0,0-0.1,0-0.1"/>
<path class="st8" d="M83.4,87c-0.2-0.1-0.2-0.2,0-0.3"/>
<path class="st8" d="M45.4,74.5c0.3-0.1,0.5-0.1,0.7,0"/>
<line class="st8" x1="46.1" y1="74.5" x2="48.4" y2="75.5"/>
<line class="st8" x1="48.6" y1="76.1" x2="48.6" y2="76.1"/>
<path class="st8" d="M48.4,75.5c0.2,0.1,0.2,0.2,0,0.3"/>
<line class="st8" x1="46.8" y1="77.1" x2="46.5" y2="77.2"/>
<line class="st8" x1="48.5" y1="75.8" x2="46.5" y2="76.8"/>
<path class="st8" d="M46.5,77.2c-0.3,0.1-0.5,0.1-0.7,0"/>
<path class="st8" d="M46.5,76.8c-0.3,0.1-0.5,0.1-0.7,0"/>
<line class="st8" x1="45.8" y1="77.3" x2="45.4" y2="77.1"/>
<line class="st8" x1="45.8" y1="76.8" x2="43.5" y2="75.8"/>
<path class="st8" d="M43.4,76.2c0,0-0.1-0.1-0.1-0.1"/>
<path class="st8" d="M43.5,75.8c-0.2-0.1-0.2-0.2,0-0.3"/>
<line class="st8" x1="43.4" y1="75.5" x2="45.4" y2="74.5"/>
<path class="st8" d="M41.9,73c0.3-0.1,0.5-0.1,0.7,0"/>
<line class="st8" x1="42.7" y1="73" x2="45" y2="74"/>
<line class="st8" x1="45.1" y1="74.6" x2="45.1" y2="74.6"/>
<path class="st8" d="M45,74c0.2,0.1,0.2,0.2,0,0.3"/>
<line class="st8" x1="43.3" y1="75.6" x2="43.1" y2="75.8"/>
<line class="st8" x1="45" y1="74.4" x2="43.1" y2="75.3"/>
<path class="st8" d="M43.1,75.8c-0.3,0.1-0.5,0.1-0.7,0"/>
<path class="st8" d="M43.1,75.3c-0.3,0.1-0.5,0.1-0.7,0"/>
<line class="st8" x1="42.3" y1="75.8" x2="42" y2="75.6"/>
<line class="st8" x1="42.3" y1="75.3" x2="40" y2="74.4"/>
<line class="st8" x1="58.1" y1="73.8" x2="57.2" y2="73.5"/>
<path class="st8" d="M40,74.4c-0.2-0.1-0.2-0.2,0-0.3"/>
<line class="st8" x1="40" y1="74" x2="41.9" y2="73"/>
<path class="st8" d="M48.9,76c0.3-0.1,0.5-0.1,0.7,0"/>
<line class="st8" x1="49.6" y1="76" x2="51.9" y2="76.9"/>
<line class="st8" x1="52.1" y1="77.6" x2="52.1" y2="77.6"/>
<path class="st8" d="M51.9,76.9c0.2,0.1,0.2,0.2,0,0.3"/>
<line class="st8" x1="50.2" y1="78.6" x2="50" y2="78.7"/>
<line class="st8" x1="51.9" y1="77.3" x2="50" y2="78.3"/>
<path class="st8" d="M50,78.7c-0.3,0.1-0.5,0.1-0.7,0"/>
<path class="st8" d="M50,78.3c-0.3,0.1-0.5,0.1-0.7,0"/>
<line class="st8" x1="49.2" y1="78.7" x2="48.9" y2="78.6"/>
<line class="st8" x1="49.2" y1="78.3" x2="47" y2="77.3"/>
<path class="st8" d="M46.8,77.7c0,0,0-0.1,0-0.1"/>
<path class="st8" d="M47,77.3c-0.2-0.1-0.2-0.2,0-0.3"/>
<line class="st8" x1="46.9" y1="77" x2="48.9" y2="76"/>
<path class="st8" d="M52.3,77.5c0.3-0.1,0.5-0.1,0.7,0"/>
<line class="st8" x1="53.1" y1="77.4" x2="55.4" y2="78.4"/>
<line class="st8" x1="55.5" y1="79" x2="55.5" y2="79.1"/>
<path class="st8" d="M55.4,78.4c0.2,0.1,0.2,0.2,0,0.3"/>
<line class="st8" x1="53.7" y1="80.1" x2="53.5" y2="80.2"/>
<line class="st8" x1="55.4" y1="78.8" x2="53.5" y2="79.7"/>
<path class="st8" d="M53.5,80.2c-0.2,0.1-0.4,0.1-0.6,0.1"/>
<path class="st8" d="M53.5,79.7c-0.3,0.1-0.5,0.1-0.7,0"/>
<line class="st8" x1="52.7" y1="79.8" x2="50.4" y2="78.8"/>
<path class="st8" d="M50.3,79.2c0,0,0-0.1,0-0.1"/>
<path class="st8" d="M50.4,78.8c-0.2-0.1-0.2-0.2,0-0.3"/>
<line class="st8" x1="50.4" y1="78.4" x2="52.3" y2="77.5"/>
<path class="st8" d="M55.8,78.9c0.3-0.1,0.5-0.1,0.7,0"/>
<line class="st8" x1="56.5" y1="78.9" x2="58.8" y2="79.9"/>
<line class="st8" x1="59" y1="80.5" x2="59" y2="80.5"/>
<path class="st8" d="M58.8,79.9c0.2,0.1,0.2,0.2,0,0.3"/>
<line class="st8" x1="57.2" y1="81.5" x2="56.9" y2="81.7"/>
<line class="st8" x1="58.9" y1="80.2" x2="56.9" y2="81.2"/>
<path class="st8" d="M56.9,81.7c-0.2,0.1-0.4,0.1-0.6,0.1"/>
<path class="st8" d="M56.9,81.2c-0.3,0.1-0.5,0.1-0.7,0"/>
<line class="st8" x1="56.2" y1="81.2" x2="53.9" y2="80.3"/>
<path class="st8" d="M53.8,80.6c0,0,0-0.1,0-0.1"/>
<path class="st8" d="M53.9,80.3c-0.2-0.1-0.2-0.2,0-0.3"/>
<line class="st8" x1="53.9" y1="79.9" x2="55.8" y2="78.9"/>
<path class="st8" d="M59.3,80.4c0.3-0.1,0.5-0.1,0.7,0"/>
<line class="st8" x1="60" y1="80.4" x2="62.3" y2="81.4"/>
<line class="st8" x1="62.5" y1="82" x2="62.5" y2="82"/>
<path class="st8" d="M62.3,81.4c0.2,0.1,0.2,0.2,0,0.3"/>
<line class="st8" x1="60.7" y1="83" x2="60.4" y2="83.1"/>
<line class="st8" x1="62.3" y1="81.7" x2="60.4" y2="82.7"/>
<path class="st8" d="M60.4,83.1c-0.2,0.1-0.4,0.1-0.6,0.1"/>
<path class="st8" d="M60.4,82.7c-0.3,0.1-0.5,0.1-0.7,0"/>
<line class="st8" x1="59.6" y1="82.7" x2="57.4" y2="81.7"/>
<path class="st8" d="M57.2,82.1c0,0,0-0.1,0-0.1"/>
<path class="st8" d="M57.4,81.7c-0.2-0.1-0.2-0.2,0-0.3"/>
<line class="st8" x1="57.3" y1="81.4" x2="59.3" y2="80.4"/>
<path class="st8" d="M62.7,81.9c0.3-0.1,0.5-0.1,0.7,0"/>
<line class="st8" x1="63.5" y1="81.9" x2="65.8" y2="82.8"/>
<line class="st8" x1="65.9" y1="83.5" x2="65.9" y2="83.5"/>
<path class="st8" d="M65.8,82.8c0.2,0.1,0.2,0.2,0,0.3"/>
<line class="st8" x1="64.1" y1="84.5" x2="63.9" y2="84.6"/>
<line class="st8" x1="65.8" y1="83.2" x2="63.9" y2="84.2"/>
<path class="st8" d="M63.9,84.6c-0.2,0.1-0.4,0.1-0.6,0.1"/>
<path class="st8" d="M63.9,84.2c-0.3,0.1-0.5,0.1-0.7,0"/>
<line class="st8" x1="63.1" y1="84.2" x2="60.8" y2="83.2"/>
<path class="st8" d="M60.7,83.6c0,0-0.1-0.1-0.1-0.1"/>
<path class="st8" d="M60.8,83.2c-0.2-0.1-0.2-0.2,0-0.3"/>
<line class="st8" x1="60.8" y1="82.8" x2="62.7" y2="81.9"/>
<path class="st8" d="M69.7,84.8c0.3-0.1,0.5-0.1,0.7,0"/>
<line class="st8" x1="70.4" y1="84.8" x2="72.7" y2="85.8"/>
<line class="st8" x1="72.9" y1="86.4" x2="72.9" y2="86.4"/>
<path class="st8" d="M72.7,85.8c0.2,0.1,0.2,0.2,0,0.3"/>
<line class="st8" x1="71.1" y1="87.4" x2="70.8" y2="87.5"/>
<line class="st8" x1="72.7" y1="86.1" x2="70.8" y2="87.1"/>
<path class="st8" d="M70.8,87.5c-0.3,0.1-0.5,0.1-0.8,0"/>
<path class="st8" d="M70.8,87.1c-0.3,0.1-0.5,0.1-0.8,0"/>
<line class="st8" x1="70.1" y1="87.6" x2="69.7" y2="87.4"/>
<line class="st8" x1="70.1" y1="87.1" x2="67.8" y2="86.1"/>
<path class="st8" d="M67.6,86.5c0,0-0.1-0.1-0.1-0.1"/>
<path class="st8" d="M67.8,86.1c-0.2-0.1-0.2-0.2,0-0.3"/>
<line class="st8" x1="67.7" y1="85.8" x2="69.7" y2="84.8"/>
<path class="st8" d="M73.1,86.3c0.3-0.1,0.5-0.1,0.7,0"/>
<line class="st8" x1="73.9" y1="86.3" x2="76.2" y2="87.2"/>
<line class="st8" x1="76.4" y1="87.9" x2="76.4" y2="87.9"/>
<path class="st8" d="M76.2,87.2c0.2,0.1,0.2,0.2,0,0.3"/>
<line class="st8" x1="74.5" y1="88.9" x2="74.3" y2="89"/>
<line class="st8" x1="76.2" y1="87.6" x2="74.3" y2="88.6"/>
<path class="st8" d="M74.3,89c-0.3,0.1-0.5,0.1-0.7,0"/>
<path class="st8" d="M74.3,88.6c-0.3,0.1-0.5,0.1-0.7,0"/>
<line class="st8" x1="73.5" y1="89" x2="73.2" y2="88.9"/>
<line class="st8" x1="73.5" y1="88.6" x2="71.2" y2="87.6"/>
<path class="st8" d="M71.1,88c0,0,0-0.1,0-0.1"/>
<path class="st8" d="M71.2,87.6c-0.2-0.1-0.2-0.2,0-0.3"/>
<path class="st8" d="M39.9,74.7c0,0-0.1-0.1-0.1-0.1"/>
<path class="st8" d="M76.6,87.8c0.3-0.1,0.5-0.1,0.7,0"/>
<line class="st8" x1="77.4" y1="87.7" x2="79.7" y2="88.7"/>
<line class="st8" x1="79.8" y1="89.3" x2="79.8" y2="89.4"/>
<path class="st8" d="M79.7,88.7c0.2,0.1,0.2,0.2,0,0.3"/>
<line class="st8" x1="78" y1="90.4" x2="77.7" y2="90.5"/>
<line class="st8" x1="79.7" y1="89.1" x2="77.7" y2="90"/>
<path class="st8" d="M77.7,90.5c-0.3,0.1-0.5,0.1-0.7,0"/>
<path class="st8" d="M77.7,90c-0.3,0.1-0.5,0.1-0.7,0"/>
<line class="st8" x1="77" y1="90.5" x2="76.7" y2="90.4"/>
<line class="st8" x1="77" y1="90.1" x2="74.7" y2="89.1"/>
<path class="st8" d="M74.6,89.5c0,0,0-0.1,0-0.1"/>
<path class="st8" d="M74.7,89.1c-0.2-0.1-0.2-0.2,0-0.3"/>
<line class="st8" x1="74.7" y1="88.7" x2="76.6" y2="87.8"/>
<line class="st8" x1="72.5" y1="84.9" x2="74.5" y2="84"/>
<path class="st8" d="M74.5,84c0.3-0.1,0.5-0.1,0.7,0"/>
<line class="st8" x1="75.2" y1="84" x2="77.5" y2="84.9"/>
<line class="st8" x1="77.7" y1="85.6" x2="77.7" y2="85.6"/>
<path class="st8" d="M77.5,84.9c0.2,0.1,0.2,0.2,0,0.3"/>
<line class="st8" x1="75.9" y1="86.6" x2="75.6" y2="86.7"/>
<line class="st8" x1="77.5" y1="85.3" x2="75.6" y2="86.2"/>
<path class="st8" d="M75.6,86.7c-0.2,0.1-0.4,0.1-0.6,0.1"/>
<path class="st8" d="M75.6,86.2c-0.3,0.1-0.5,0.1-0.7,0"/>
<line class="st8" x1="73.7" y1="86.2" x2="72.8" y2="85.9"/>
<line class="st8" x1="74.9" y1="86.3" x2="72.6" y2="85.3"/>
<path class="st8" d="M72.4,85.7c0,0,0-0.1,0-0.1"/>
<path class="st8" d="M72.6,85.3c-0.2-0.1-0.2-0.2,0-0.3"/>
<line class="st8" x1="69.1" y1="83.5" x2="71" y2="82.5"/>
<path class="st8" d="M71,82.5c0.3-0.1,0.5-0.1,0.7,0"/>
<line class="st8" x1="71.8" y1="82.5" x2="74" y2="83.5"/>
<line class="st8" x1="74.2" y1="84.1" x2="74.2" y2="84.1"/>
<path class="st8" d="M74,83.5c0.2,0.1,0.2,0.2,0,0.3"/>
<line class="st8" x1="72.4" y1="85.1" x2="72.1" y2="85.2"/>
<line class="st8" x1="74.1" y1="83.8" x2="72.1" y2="84.8"/>
<path class="st8" d="M72.1,85.2c-0.2,0.1-0.4,0.1-0.6,0.1"/>
<path class="st8" d="M72.1,84.8c-0.3,0.1-0.5,0.1-0.7,0"/>
<line class="st8" x1="70.2" y1="84.8" x2="69.4" y2="84.4"/>
<line class="st8" x1="71.4" y1="84.8" x2="69.1" y2="83.8"/>
<path class="st8" d="M69,84.2c0,0,0-0.1,0-0.1"/>
<path class="st8" d="M69.1,83.8c-0.2-0.1-0.2-0.2,0-0.3"/>
<line class="st8" x1="65.6" y1="82" x2="67.5" y2="81"/>
<path class="st8" d="M67.5,81c0.3-0.1,0.5-0.1,0.7,0"/>
<line class="st8" x1="68.3" y1="81" x2="70.6" y2="82"/>
<line class="st8" x1="70.7" y1="82.6" x2="70.7" y2="82.6"/>
<path class="st8" d="M70.6,82c0.2,0.1,0.2,0.2,0,0.3"/>
<line class="st8" x1="68.9" y1="83.6" x2="68.7" y2="83.8"/>
<line class="st8" x1="70.6" y1="82.3" x2="68.7" y2="83.3"/>
<path class="st8" d="M68.7,83.8c-0.2,0.1-0.4,0.1-0.6,0.1"/>
<path class="st8" d="M68.7,83.3c-0.3,0.1-0.5,0.1-0.7,0"/>
<line class="st8" x1="66.8" y1="83.3" x2="65.9" y2="82.9"/>
<line class="st8" x1="67.9" y1="83.3" x2="65.6" y2="82.3"/>
<path class="st8" d="M65.5,82.7c0,0,0-0.1,0-0.1"/>
<path class="st8" d="M65.6,82.3c-0.2-0.1-0.2-0.2,0-0.3"/>
<line class="st8" x1="62.1" y1="80.5" x2="64.1" y2="79.6"/>
<path class="st8" d="M64.1,79.6c0.3-0.1,0.5-0.1,0.7,0"/>
<line class="st8" x1="64.8" y1="79.5" x2="67.1" y2="80.5"/>
<line class="st8" x1="67.3" y1="81.1" x2="67.3" y2="81.2"/>
<path class="st8" d="M67.1,80.5c0.2,0.1,0.2,0.2,0,0.3"/>
<line class="st8" x1="65.5" y1="82.2" x2="65.2" y2="82.3"/>
<line class="st8" x1="67.1" y1="80.9" x2="65.2" y2="81.8"/>
<path class="st8" d="M65.2,82.3c-0.2,0.1-0.4,0.1-0.6,0.1"/>
<path class="st8" d="M65.2,81.8c-0.3,0.1-0.5,0.1-0.8,0"/>
<line class="st8" x1="63.3" y1="81.8" x2="62.4" y2="81.4"/>
<line class="st8" x1="64.4" y1="81.8" x2="62.2" y2="80.9"/>
<path class="st8" d="M62,81.2c0,0-0.1-0.1-0.1-0.1"/>
<path class="st8" d="M62.2,80.9c-0.2-0.1-0.2-0.2,0-0.3"/>
<line class="st8" x1="58.7" y1="79.1" x2="60.6" y2="78.1"/>
<path class="st8" d="M60.6,78.1c0.3-0.1,0.5-0.1,0.7,0"/>
<line class="st8" x1="61.3" y1="78.1" x2="63.6" y2="79"/>
<line class="st8" x1="63.8" y1="79.7" x2="63.8" y2="79.7"/>
<path class="st8" d="M63.6,79c0.2,0.1,0.2,0.2,0,0.3"/>
<line class="st8" x1="62" y1="80.7" x2="61.7" y2="80.8"/>
<line class="st8" x1="63.7" y1="79.4" x2="61.7" y2="80.4"/>
<path class="st8" d="M61.7,80.8c-0.2,0.1-0.4,0.1-0.6,0.1"/>
<path class="st8" d="M61.7,80.4c-0.3,0.1-0.5,0.1-0.7,0"/>
<line class="st8" x1="59.8" y1="80.3" x2="59" y2="80"/>
<line class="st8" x1="61" y1="80.4" x2="58.7" y2="79.4"/>
<path class="st8" d="M58.6,79.8c0,0-0.1-0.1-0.1-0.1"/>
<path class="st8" d="M58.7,79.4c-0.2-0.1-0.2-0.2,0-0.3"/>
<line class="st8" x1="55.2" y1="77.6" x2="57.1" y2="76.6"/>
<path class="st8" d="M57.1,76.6c0.3-0.1,0.5-0.1,0.7,0"/>
<line class="st8" x1="57.9" y1="76.6" x2="60.2" y2="77.6"/>
<line class="st8" x1="60.3" y1="78.2" x2="60.3" y2="78.2"/>
<path class="st8" d="M60.2,77.6c0.2,0.1,0.2,0.2,0,0.3"/>
<line class="st8" x1="58.5" y1="79.2" x2="58.3" y2="79.3"/>
<line class="st8" x1="60.2" y1="77.9" x2="58.3" y2="78.9"/>
<path class="st8" d="M58.3,79.3c-0.2,0.1-0.4,0.1-0.6,0.1"/>
<path class="st8" d="M58.3,78.9c-0.3,0.1-0.5,0.1-0.7,0"/>
<line class="st8" x1="56.4" y1="78.9" x2="55.5" y2="78.5"/>
<line class="st8" x1="57.5" y1="78.9" x2="55.2" y2="77.9"/>
<path class="st8" d="M55.1,78.3c0,0-0.1-0.1-0.1-0.1"/>
<path class="st8" d="M55.2,77.9c-0.2-0.1-0.2-0.2,0-0.3"/>
<line class="st8" x1="51.7" y1="76.1" x2="53.7" y2="75.1"/>
<path class="st8" d="M53.7,75.1c0.3-0.1,0.5-0.1,0.7,0"/>
<line class="st8" x1="54.4" y1="75.1" x2="56.7" y2="76.1"/>
<line class="st8" x1="56.9" y1="76.7" x2="56.9" y2="76.7"/>
<path class="st8" d="M56.7,76.1c0.2,0.1,0.2,0.2,0,0.3"/>
<line class="st8" x1="55" y1="77.7" x2="54.8" y2="77.9"/>
<line class="st8" x1="56.7" y1="76.4" x2="54.8" y2="77.4"/>
<path class="st8" d="M54.8,77.9c-0.2,0.1-0.4,0.1-0.6,0.1"/>
<path class="st8" d="M54.8,77.4c-0.3,0.1-0.5,0.1-0.7,0"/>
<line class="st8" x1="52.9" y1="77.4" x2="52" y2="77"/>
<line class="st8" x1="54" y1="77.4" x2="51.8" y2="76.5"/>
<path class="st8" d="M51.6,76.8c0,0,0-0.1,0-0.1"/>
<path class="st8" d="M51.8,76.5c-0.2-0.1-0.2-0.2,0-0.3"/>
<line class="st8" x1="48.2" y1="74.6" x2="50.2" y2="73.7"/>
<path class="st8" d="M50.2,73.7c0.3-0.1,0.5-0.1,0.7,0"/>
<line class="st8" x1="50.9" y1="73.7" x2="53.2" y2="74.6"/>
<line class="st8" x1="53.4" y1="75.3" x2="53.4" y2="75.3"/>
<path class="st8" d="M53.2,74.6c0.2,0.1,0.2,0.2,0,0.3"/>
<line class="st8" x1="51.6" y1="76.3" x2="51.3" y2="76.4"/>
<line class="st8" x1="53.3" y1="75" x2="51.3" y2="75.9"/>
<path class="st8" d="M51.3,76.4c-0.2,0.1-0.4,0.1-0.6,0.1"/>
<path class="st8" d="M51.3,75.9c-0.3,0.1-0.5,0.1-0.7,0"/>
<line class="st8" x1="49.4" y1="75.9" x2="48.5" y2="75.6"/>
<line class="st8" x1="50.6" y1="76" x2="48.3" y2="75"/>
<path class="st8" d="M48.2,75.4c0,0,0-0.1,0-0.1"/>
<path class="st8" d="M48.3,75c-0.2-0.1-0.2-0.2,0-0.3"/>
<line class="st8" x1="44.8" y1="73.2" x2="46.7" y2="72.2"/>
<path class="st8" d="M46.7,72.2c0.3-0.1,0.5-0.1,0.7,0"/>
<line class="st8" x1="47.5" y1="72.2" x2="49.8" y2="73.2"/>
<line class="st8" x1="49.9" y1="73.8" x2="49.9" y2="73.8"/>
<path class="st8" d="M49.8,73.2c0.2,0.1,0.2,0.2,0,0.3"/>
<line class="st8" x1="48.1" y1="74.8" x2="47.9" y2="74.9"/>
<line class="st8" x1="49.8" y1="73.5" x2="47.9" y2="74.5"/>
<path class="st8" d="M47.9,74.9C47.7,75,47.5,75,47.3,75"/>
<path class="st8" d="M47.9,74.5c-0.3,0.1-0.5,0.1-0.7,0"/>
<line class="st8" x1="46" y1="74.5" x2="45.1" y2="74.1"/>
<line class="st8" x1="47.1" y1="74.5" x2="44.8" y2="73.5"/>
<path class="st8" d="M44.7,73.9c0,0,0-0.1,0-0.1"/>
<path class="st8" d="M44.8,73.5c-0.2-0.1-0.2-0.2,0-0.3"/>
<line class="st8" x1="37.8" y1="70.2" x2="39.8" y2="69.3"/>
<path class="st8" d="M39.8,69.3c0.3-0.1,0.5-0.1,0.7,0"/>
<line class="st8" x1="40.5" y1="69.2" x2="42.8" y2="70.2"/>
<line class="st8" x1="43" y1="70.8" x2="43" y2="70.9"/>
<path class="st8" d="M42.8,70.2c0.2,0.1,0.2,0.2,0,0.3"/>
<line class="st8" x1="41.2" y1="71.9" x2="40.9" y2="72"/>
<line class="st8" x1="42.9" y1="70.6" x2="40.9" y2="71.5"/>
<path class="st8" d="M40.9,72c-0.2,0.1-0.4,0.1-0.6,0.1"/>
<path class="st8" d="M40.9,71.5c-0.3,0.1-0.5,0.1-0.7,0"/>
<line class="st8" x1="40.2" y1="71.5" x2="37.9" y2="70.6"/>
<path class="st8" d="M37.8,70.9c0,0-0.1-0.1-0.1-0.1"/>
<path class="st8" d="M37.9,70.6c-0.2-0.1-0.2-0.2,0-0.3"/>
<line class="st8" x1="41.3" y1="71.7" x2="43.2" y2="70.7"/>
<path class="st8" d="M43.2,70.7c0.3-0.1,0.5-0.1,0.7,0"/>
<line class="st8" x1="44" y1="70.7" x2="46.3" y2="71.7"/>
<line class="st8" x1="46.5" y1="72.3" x2="46.5" y2="72.3"/>
<path class="st8" d="M46.3,71.7c0.2,0.1,0.2,0.2,0,0.3"/>
<line class="st8" x1="44.6" y1="73.3" x2="44.4" y2="73.5"/>
<line class="st8" x1="46.3" y1="72" x2="44.4" y2="73"/>
<path class="st8" d="M44.4,73.5c-0.2,0.1-0.4,0.1-0.6,0.1"/>
<path class="st8" d="M44.4,73c-0.3,0.1-0.5,0.1-0.7,0"/>
<line class="st8" x1="42.5" y1="73" x2="41.6" y2="72.6"/>
<line class="st8" x1="43.6" y1="73" x2="41.3" y2="72"/>
<path class="st8" d="M41.2,72.4c0,0,0-0.1,0-0.1"/>
<path class="st8" d="M41.3,72c-0.2-0.1-0.2-0.2,0-0.3"/>
<line class="st8" x1="76" y1="86.4" x2="77.9" y2="85.4"/>
<path class="st8" d="M77.9,85.4c0.3-0.1,0.5-0.1,0.7,0"/>
<line class="st8" x1="78.7" y1="85.4" x2="81" y2="86.4"/>
<line class="st8" x1="81.2" y1="87" x2="81.2" y2="87"/>
<path class="st8" d="M81,86.4c0.2,0.1,0.2,0.2,0,0.3"/>
<line class="st8" x1="79.3" y1="88" x2="79.1" y2="88.2"/>
<line class="st8" x1="81" y1="86.7" x2="79.1" y2="87.7"/>
<path class="st8" d="M79.1,88.2c-0.2,0.1-0.4,0.1-0.6,0.1"/>
<path class="st8" d="M79.1,87.7c-0.3,0.1-0.5,0.1-0.7,0"/>
<line class="st8" x1="77.2" y1="87.7" x2="76.3" y2="87.3"/>
<line class="st8" x1="78.3" y1="87.7" x2="76" y2="86.8"/>
<path class="st8" d="M75.9,87.1c0,0,0-0.1,0-0.1"/>
<path class="st8" d="M76,86.8c-0.2-0.1-0.2-0.2,0-0.3"/>
<line class="st8" x1="35.3" y1="66.3" x2="37.3" y2="65.3"/>
<path class="st8" d="M37.3,65.3c0.3-0.1,0.5-0.1,0.7,0"/>
<line class="st8" x1="38" y1="65.3" x2="43.2" y2="67.5"/>
<line class="st8" x1="43.4" y1="68.1" x2="43.4" y2="68.1"/>
<path class="st8" d="M43.2,67.5c0.2,0.1,0.2,0.2,0,0.3"/>
<line class="st8" x1="41.6" y1="69.1" x2="41.3" y2="69.3"/>
<line class="st8" x1="43.3" y1="67.8" x2="41.3" y2="68.8"/>
<path class="st8" d="M41.3,69.3c-0.2,0.1-0.4,0.1-0.6,0.1"/>
<line class="st8" x1="40.6" y1="69.3" x2="40.6" y2="68.8"/>
<path class="st8" d="M41.3,68.8c-0.3,0.1-0.5,0.1-0.7,0"/>
<line class="st8" x1="40.4" y1="69.2" x2="39.5" y2="68.8"/>
<line class="st8" x1="40.6" y1="68.8" x2="40.6" y2="68.8"/>
<line class="st8" x1="40.6" y1="68.8" x2="35.4" y2="66.6"/>
<path class="st8" d="M35.3,67c0,0,0-0.1,0-0.1"/>
<path class="st8" d="M35.4,66.6c-0.2-0.1-0.2-0.2,0-0.3"/>
<line class="st8" x1="76.4" y1="83.7" x2="78.3" y2="82.7"/>
<path class="st8" d="M78.3,82.7c0.3-0.1,0.5-0.1,0.7,0"/>
<line class="st8" x1="79.1" y1="82.7" x2="81.4" y2="83.7"/>
<line class="st8" x1="81.6" y1="84.3" x2="81.6" y2="84.3"/>
<path class="st8" d="M81.4,83.7c0.2,0.1,0.2,0.2,0,0.3"/>
<line class="st8" x1="79.7" y1="85.3" x2="79.5" y2="85.5"/>
<line class="st8" x1="81.4" y1="84" x2="79.5" y2="85"/>
<path class="st8" d="M79.5,85.5c-0.2,0.1-0.4,0.1-0.6,0.1"/>
<path class="st8" d="M79.5,85c-0.3,0.1-0.5,0.1-0.7,0"/>
<line class="st8" x1="78.5" y1="85.4" x2="77.6" y2="85"/>
<line class="st8" x1="78.7" y1="85" x2="76.4" y2="84"/>
<path class="st8" d="M76.3,84.4c0,0,0-0.1,0-0.1"/>
<path class="st8" d="M76.4,84c-0.2-0.1-0.2-0.2,0-0.3"/>
<line class="st8" x1="72.9" y1="82.2" x2="74.9" y2="81.3"/>
<path class="st8" d="M74.9,81.3c0.3-0.1,0.5-0.1,0.7,0"/>
<line class="st8" x1="75.6" y1="81.2" x2="77.9" y2="82.2"/>
<line class="st8" x1="78.1" y1="82.8" x2="78.1" y2="82.9"/>
<path class="st8" d="M77.9,82.2c0.2,0.1,0.2,0.2,0,0.3"/>
<line class="st8" x1="76.3" y1="83.9" x2="76" y2="84"/>
<line class="st8" x1="78" y1="82.6" x2="76" y2="83.5"/>
<path class="st8" d="M76,84c-0.2,0.1-0.4,0.1-0.6,0.1"/>
<path class="st8" d="M76,83.5c-0.3,0.1-0.5,0.1-0.7,0"/>
<line class="st8" x1="75" y1="83.9" x2="74.2" y2="83.5"/>
<line class="st8" x1="75.3" y1="83.5" x2="73" y2="82.6"/>
<path class="st8" d="M72.9,82.9c0,0,0-0.1,0-0.1"/>
<path class="st8" d="M73,82.6c-0.2-0.1-0.2-0.2,0-0.3"/>
<line class="st8" x1="69.5" y1="80.8" x2="71.4" y2="79.8"/>
<path class="st8" d="M71.4,79.8c0.3-0.1,0.5-0.1,0.7,0"/>
<line class="st8" x1="72.2" y1="79.8" x2="74.5" y2="80.7"/>
<line class="st8" x1="74.6" y1="81.4" x2="74.6" y2="81.4"/>
<path class="st8" d="M74.5,80.7c0.2,0.1,0.2,0.2,0,0.3"/>
<line class="st8" x1="72.8" y1="82.4" x2="72.5" y2="82.5"/>
<line class="st8" x1="74.5" y1="81.1" x2="72.5" y2="82.1"/>
<path class="st8" d="M72.5,82.5c-0.2,0.1-0.4,0.1-0.6,0.1"/>
<path class="st8" d="M72.5,82.1c-0.3,0.1-0.5,0.1-0.7,0"/>
<line class="st8" x1="71.6" y1="82.4" x2="70.7" y2="82.1"/>
<line class="st8" x1="71.8" y1="82.1" x2="69.5" y2="81.1"/>
<path class="st8" d="M69.4,81.5c0,0-0.1-0.1-0.1-0.1"/>
<path class="st8" d="M69.5,81.1c-0.2-0.1-0.2-0.2,0-0.3"/>
<line class="st8" x1="66" y1="79.3" x2="67.9" y2="78.3"/>
<path class="st8" d="M67.9,78.3c0.3-0.1,0.5-0.1,0.7,0"/>
<line class="st8" x1="68.7" y1="78.3" x2="71" y2="79.3"/>
<line class="st8" x1="71.2" y1="79.9" x2="71.2" y2="79.9"/>
<path class="st8" d="M71,79.3c0.2,0.1,0.2,0.2,0,0.3"/>
<line class="st8" x1="69.3" y1="80.9" x2="69.1" y2="81"/>
<line class="st8" x1="71" y1="79.6" x2="69.1" y2="80.6"/>
<path class="st8" d="M69.1,81c-0.2,0.1-0.4,0.1-0.6,0.1"/>
<path class="st8" d="M69.1,80.6c-0.3,0.1-0.5,0.1-0.7,0"/>
<line class="st8" x1="68.1" y1="81" x2="67.2" y2="80.6"/>
<line class="st8" x1="68.3" y1="80.6" x2="66" y2="79.6"/>
<path class="st8" d="M65.9,80c0,0-0.1-0.1-0.1-0.1"/>
<path class="st8" d="M66,79.6c-0.2-0.1-0.2-0.2,0-0.3"/>
<line class="st8" x1="62.5" y1="77.8" x2="64.5" y2="76.8"/>
<path class="st8" d="M64.5,76.8c0.3-0.1,0.5-0.1,0.7,0"/>
<line class="st8" x1="65.2" y1="76.8" x2="67.5" y2="77.8"/>
<line class="st8" x1="67.7" y1="78.4" x2="67.7" y2="78.4"/>
<path class="st8" d="M67.5,77.8c0.2,0.1,0.2,0.2,0,0.3"/>
<line class="st8" x1="65.9" y1="79.4" x2="65.6" y2="79.6"/>
<line class="st8" x1="67.5" y1="78.1" x2="65.6" y2="79.1"/>
<path class="st8" d="M65.6,79.6c-0.2,0.1-0.4,0.1-0.6,0.1"/>
<path class="st8" d="M65.6,79.1c-0.3,0.1-0.5,0.1-0.7,0"/>
<line class="st8" x1="64.6" y1="79.5" x2="63.8" y2="79.1"/>
<line class="st8" x1="64.9" y1="79.1" x2="62.6" y2="78.2"/>
<path class="st8" d="M62.4,78.5c0,0-0.1-0.1-0.1-0.1"/>
<path class="st8" d="M62.6,78.2c-0.2-0.1-0.2-0.2,0-0.3"/>
<line class="st8" x1="59.1" y1="76.3" x2="61" y2="75.4"/>
<path class="st8" d="M61,75.4c0.3-0.1,0.5-0.1,0.7,0"/>
<line class="st8" x1="61.8" y1="75.4" x2="64" y2="76.3"/>
<line class="st8" x1="64.2" y1="77" x2="64.2" y2="77"/>
<path class="st8" d="M64,76.3c0.2,0.1,0.2,0.2,0,0.3"/>
<line class="st8" x1="62.4" y1="78" x2="62.1" y2="78.1"/>
<line class="st8" x1="64.1" y1="76.7" x2="62.1" y2="77.6"/>
<path class="st8" d="M62.1,78.1c-0.2,0.1-0.4,0.1-0.6,0.1"/>
<path class="st8" d="M62.1,77.6c-0.3,0.1-0.5,0.1-0.7,0"/>
<line class="st8" x1="61.2" y1="78" x2="60.3" y2="77.6"/>
<line class="st8" x1="61.4" y1="77.7" x2="59.1" y2="76.7"/>
<path class="st8" d="M59,77.1c0,0,0-0.1,0-0.1"/>
<path class="st8" d="M59.1,76.7c-0.2-0.1-0.2-0.2,0-0.3"/>
<line class="st8" x1="55.6" y1="74.9" x2="57.5" y2="73.9"/>
<path class="st8" d="M57.5,73.9c0.3-0.1,0.5-0.1,0.7,0"/>
<line class="st8" x1="58.3" y1="73.9" x2="60.6" y2="74.9"/>
<line class="st8" x1="60.7" y1="75.5" x2="60.7" y2="75.5"/>
<path class="st8" d="M60.6,74.9c0.2,0.1,0.2,0.2,0,0.3"/>
<line class="st8" x1="58.9" y1="76.5" x2="58.7" y2="76.6"/>
<line class="st8" x1="60.6" y1="75.2" x2="58.7" y2="76.2"/>
<path class="st8" d="M58.7,76.6c-0.2,0.1-0.4,0.1-0.6,0.1"/>
<path class="st8" d="M58.7,76.2c-0.3,0.1-0.5,0.1-0.7,0"/>
<line class="st8" x1="57.7" y1="76.5" x2="56.8" y2="76.2"/>
<line class="st8" x1="57.9" y1="76.2" x2="55.6" y2="75.2"/>
<path class="st8" d="M55.5,75.6c0,0,0-0.1,0-0.1"/>
<path class="st8" d="M55.6,75.2c-0.2-0.1-0.2-0.2,0-0.3"/>
<line class="st8" x1="52.1" y1="73.4" x2="54.1" y2="72.4"/>
<path class="st8" d="M54.1,72.4c0.3-0.1,0.5-0.1,0.7,0"/>
<line class="st8" x1="54.8" y1="72.4" x2="57.1" y2="73.4"/>
<line class="st8" x1="57.3" y1="74" x2="57.3" y2="74"/>
<path class="st8" d="M57.1,73.4c0.2,0.1,0.2,0.2,0,0.3"/>
<line class="st8" x1="55.5" y1="75" x2="55.2" y2="75.2"/>
<line class="st8" x1="57.1" y1="73.7" x2="55.2" y2="74.7"/>
<path class="st8" d="M55.2,75.2c-0.2,0.1-0.4,0.1-0.6,0.1"/>
<path class="st8" d="M55.2,74.7c-0.3,0.1-0.5,0.1-0.7,0"/>
<line class="st8" x1="54.2" y1="75.1" x2="53.3" y2="74.7"/>
<line class="st8" x1="54.4" y1="74.7" x2="52.2" y2="73.7"/>
<path class="st8" d="M52,74.1c0,0,0-0.1,0-0.1"/>
<path class="st8" d="M52.2,73.7c-0.2-0.1-0.2-0.2,0-0.3"/>
<line class="st8" x1="48.7" y1="71.9" x2="50.6" y2="71"/>
<path class="st8" d="M50.6,71c0.3-0.1,0.5-0.1,0.7,0"/>
<line class="st8" x1="51.3" y1="70.9" x2="53.6" y2="71.9"/>
<line class="st8" x1="53.8" y1="72.5" x2="53.8" y2="72.6"/>
<path class="st8" d="M53.6,71.9c0.2,0.1,0.2,0.2,0,0.3"/>
<line class="st8" x1="52" y1="73.6" x2="51.7" y2="73.7"/>
<line class="st8" x1="53.7" y1="72.3" x2="51.7" y2="73.2"/>
<path class="st8" d="M51.7,73.7c-0.2,0.1-0.4,0.1-0.6,0.1"/>
<path class="st8" d="M51.7,73.2c-0.3,0.1-0.5,0.1-0.7,0"/>
<line class="st8" x1="50.8" y1="73.6" x2="49.9" y2="73.2"/>
<line class="st8" x1="51" y1="73.2" x2="48.7" y2="72.3"/>
<path class="st8" d="M48.6,72.6c0,0,0-0.1,0-0.1"/>
<path class="st8" d="M48.7,72.3c-0.2-0.1-0.2-0.2,0-0.3"/>
<line class="st8" x1="41.7" y1="69" x2="43.7" y2="68"/>
<path class="st8" d="M43.7,68c0.3-0.1,0.5-0.1,0.7,0"/>
<line class="st8" x1="44.4" y1="68" x2="46.7" y2="69"/>
<line class="st8" x1="46.9" y1="69.6" x2="46.9" y2="69.6"/>
<path class="st8" d="M46.7,69c0.2,0.1,0.2,0.2,0,0.3"/>
<line class="st8" x1="45" y1="70.6" x2="44.8" y2="70.7"/>
<line class="st8" x1="46.7" y1="69.3" x2="44.8" y2="70.3"/>
<path class="st8" d="M44.8,70.7c-0.2,0.1-0.4,0.1-0.6,0.1"/>
<path class="st8" d="M44.8,70.3c-0.3,0.1-0.5,0.1-0.7,0"/>
<line class="st8" x1="43.8" y1="70.7" x2="42.9" y2="70.3"/>
<line class="st8" x1="44" y1="70.3" x2="41.7" y2="69.3"/>
<path class="st8" d="M41.6,69.7c0,0-0.1-0.1-0.1-0.1"/>
<path class="st8" d="M41.7,69.3c-0.2-0.1-0.2-0.2,0-0.3"/>
<line class="st8" x1="45.2" y1="70.5" x2="47.1" y2="69.5"/>
<path class="st8" d="M47.1,69.5c0.3-0.1,0.5-0.1,0.7,0"/>
<line class="st8" x1="47.9" y1="69.5" x2="50.2" y2="70.4"/>
<line class="st8" x1="50.3" y1="71.1" x2="50.3" y2="71.1"/>
<path class="st8" d="M50.2,70.4c0.2,0.1,0.2,0.2,0,0.3"/>
<line class="st8" x1="48.5" y1="72.1" x2="48.3" y2="72.2"/>
<line class="st8" x1="50.2" y1="70.8" x2="48.3" y2="71.8"/>
<path class="st8" d="M48.3,72.2c-0.2,0.1-0.4,0.1-0.6,0.1"/>
<path class="st8" d="M48.3,71.8c-0.3,0.1-0.5,0.1-0.7,0"/>
<line class="st8" x1="47.3" y1="72.1" x2="46.4" y2="71.8"/>
<line class="st8" x1="47.5" y1="71.8" x2="45.2" y2="70.8"/>
<path class="st8" d="M45.1,71.2c0,0-0.1-0.1-0.1-0.1"/>
<path class="st8" d="M45.2,70.8c-0.2-0.1-0.2-0.2,0-0.3"/>
<line class="st8" x1="79.9" y1="85.2" x2="81.8" y2="84.2"/>
<path class="st8" d="M81.8,84.2c0.3-0.1,0.5-0.1,0.7,0"/>
<line class="st8" x1="82.6" y1="84.2" x2="84.9" y2="85.2"/>
<line class="st8" x1="85" y1="85.8" x2="85" y2="85.8"/>
<path class="st8" d="M84.9,85.2c0.2,0.1,0.2,0.2,0,0.3"/>
<line class="st8" x1="83.2" y1="86.8" x2="83" y2="86.9"/>
<line class="st8" x1="84.9" y1="85.5" x2="83" y2="86.5"/>
<path class="st8" d="M83,86.9C82.8,87,82.6,87,82.4,87"/>
<path class="st8" d="M83,86.5c-0.3,0.1-0.5,0.1-0.7,0"/>
<line class="st8" x1="82" y1="86.8" x2="81.1" y2="86.5"/>
<line class="st8" x1="82.2" y1="86.5" x2="79.9" y2="85.5"/>
<path class="st8" d="M79.8,85.9c0,0,0-0.1,0-0.1"/>
<path class="st8" d="M79.9,85.5c-0.2-0.1-0.2-0.2,0-0.3"/>
<line class="st8" x1="41.1" y1="63.7" x2="48.1" y2="66.7"/>
<line class="st8" x1="48.3" y1="67.3" x2="48.2" y2="67.3"/>
<path class="st8" d="M48.1,66.7c0.2,0.1,0.2,0.2,0,0.3"/>
<line class="st8" x1="46.4" y1="68.3" x2="46.2" y2="68.4"/>
<line class="st8" x1="48.1" y1="67" x2="46.2" y2="68"/>
<path class="st8" d="M46.2,68.4c-0.2,0.1-0.4,0.1-0.6,0.1"/>
<path class="st8" d="M46.2,68c-0.3,0.1-0.5,0.1-0.7,0"/>
<line class="st8" x1="44.2" y1="68" x2="43.3" y2="67.6"/>
<line class="st8" x1="45.4" y1="68" x2="38.5" y2="65.1"/>
<path class="st8" d="M38.4,65.4c0,0-0.1-0.1-0.1-0.1"/>
<path class="st8" d="M38.5,65.1c-0.2-0.1-0.2-0.2,0-0.3"/>
<line class="st8" x1="38.5" y1="64.7" x2="40.4" y2="63.7"/>
<path class="st8" d="M40.4,63.7c0.3-0.1,0.5-0.1,0.7,0"/>
<line class="st8" x1="53.5" y1="71.1" x2="55.4" y2="70.1"/>
<path class="st8" d="M55.4,70.1c0.3-0.1,0.5-0.1,0.7,0"/>
<line class="st8" x1="56.2" y1="70.1" x2="58.5" y2="71.1"/>
<line class="st8" x1="58.7" y1="71.7" x2="58.7" y2="71.7"/>
<path class="st8" d="M58.5,71.1c0.2,0.1,0.2,0.2,0,0.3"/>
<line class="st8" x1="56.8" y1="72.7" x2="56.6" y2="72.9"/>
<line class="st8" x1="58.5" y1="71.4" x2="56.6" y2="72.4"/>
<path class="st8" d="M56.6,72.9C56.4,73,56.2,73,56,72.9"/>
<path class="st8" d="M56.6,72.4c-0.3,0.1-0.5,0.1-0.7,0"/>
<line class="st8" x1="54.6" y1="72.4" x2="53.8" y2="72"/>
<line class="st8" x1="55.8" y1="72.4" x2="53.5" y2="71.4"/>
<path class="st8" d="M53.4,71.8c0,0-0.1-0.1-0.1-0.1"/>
<path class="st8" d="M53.5,71.4c-0.2-0.1-0.2-0.2,0-0.3"/>
<line class="st8" x1="50" y1="69.6" x2="52" y2="68.7"/>
<path class="st8" d="M52,68.7c0.3-0.1,0.5-0.1,0.7,0"/>
<line class="st8" x1="52.7" y1="68.6" x2="55" y2="69.6"/>
<line class="st8" x1="55.2" y1="70.2" x2="55.2" y2="70.3"/>
<path class="st8" d="M55,69.6c0.2,0.1,0.2,0.2,0,0.3"/>
<line class="st8" x1="53.4" y1="71.3" x2="53.1" y2="71.4"/>
<line class="st8" x1="55" y1="70" x2="53.1" y2="70.9"/>
<path class="st8" d="M53.1,71.4c-0.2,0.1-0.4,0.1-0.6,0.1"/>
<path class="st8" d="M53.1,70.9c-0.3,0.1-0.5,0.1-0.7,0"/>
<line class="st8" x1="51.2" y1="70.9" x2="50.3" y2="70.5"/>
<line class="st8" x1="52.4" y1="70.9" x2="50.1" y2="70"/>
<path class="st8" d="M49.9,70.4c0,0,0-0.1,0-0.1"/>
<path class="st8" d="M50.1,70c-0.2-0.1-0.2-0.2,0-0.3"/>
<line class="st8" x1="46.6" y1="68.2" x2="48.5" y2="67.2"/>
<path class="st8" d="M48.5,67.2c0.3-0.1,0.5-0.1,0.7,0"/>
<line class="st8" x1="49.3" y1="67.2" x2="51.5" y2="68.1"/>
<line class="st8" x1="51.7" y1="68.8" x2="51.7" y2="68.8"/>
<path class="st8" d="M51.5,68.1c0.2,0.1,0.2,0.2,0,0.3"/>
<line class="st8" x1="49.9" y1="69.8" x2="49.6" y2="69.9"/>
<line class="st8" x1="51.6" y1="68.5" x2="49.6" y2="69.5"/>
<path class="st8" d="M49.6,69.9C49.4,70,49.3,70,49.1,70"/>
<path class="st8" d="M49.6,69.5c-0.3,0.1-0.5,0.1-0.7,0"/>
<line class="st8" x1="47.7" y1="69.4" x2="46.8" y2="69"/>
<line class="st8" x1="48.9" y1="69.5" x2="46.6" y2="68.5"/>
<path class="st8" d="M46.5,68.9c0,0,0-0.1,0-0.1"/>
<path class="st8" d="M46.6,68.5c-0.2-0.1-0.2-0.2,0-0.3"/>
<line class="st8" x1="57" y1="72.6" x2="58.9" y2="71.6"/>
<path class="st8" d="M58.9,71.6c0.3-0.1,0.5-0.1,0.7,0"/>
<line class="st8" x1="59.7" y1="71.6" x2="62" y2="72.6"/>
<line class="st8" x1="62.1" y1="73.2" x2="62.1" y2="73.2"/>
<path class="st8" d="M62,72.6c0.2,0.1,0.2,0.2,0,0.3"/>
<line class="st8" x1="60.3" y1="74.2" x2="60" y2="74.3"/>
<line class="st8" x1="62" y1="72.9" x2="60" y2="73.9"/>
<path class="st8" d="M60,74.3c-0.2,0.1-0.4,0.1-0.6,0.1"/>
<path class="st8" d="M60,73.9c-0.3,0.1-0.5,0.1-0.7,0"/>
</svg>
