<?xml version="1.0" encoding="utf-8"?>
<!-- Generator: Adobe Illustrator 19.1.0, SVG Export Plug-In . SVG Version: 6.00 Build 0)  -->
<svg version="1.1" id="Layer_1" xmlns="http://www.w3.org/2000/svg" xmlns:xlink="http://www.w3.org/1999/xlink" x="0px" y="0px"
	 viewBox="283.2 560.5 368.5 283.5" style="enable-background:new 283.2 560.5 368.5 283.5;" xml:space="preserve">
<style type="text/css">
	@import url('https://fonts.googleapis.com/css?family=Roboto');
	.st0{font-family:'Roboto';}
	.st1{font-size:10px;}
	.st2{fill:none;stroke:#E31013;stroke-linecap:round;stroke-linejoin:round;}
	.st3{fill:#E31013;}
	.st4{fill:none;stroke:#3E4999;stroke-linecap:round;stroke-linejoin:round;}
	.st5{fill:#3E4999;}
	.st6{fill:none;stroke:#6EB52C;stroke-linecap:round;stroke-linejoin:round;}
	.st7{fill:#6EB52C;}
	.st8{fill:none;stroke:#6B6766;stroke-linecap:round;stroke-linejoin:round;stroke-dasharray:3,3;}
	.st9{font-size:10.8807px;}
	.st10{fill:none;stroke:#3E4999;stroke-width:0.8;stroke-linecap:round;stroke-linejoin:round;}
	.st11{fill:none;stroke:#6EB52C;stroke-width:0.8;stroke-linecap:round;stroke-linejoin:round;}
</style>
<g>
	<g id="Layer_2">
		<g id="txt">
			<text transform="matrix(1 0 0 1 304.1057 827.6128)" class="st0 st1">xaxis</text>
			<text transform="matrix(1 0 0 1 456.61 582.792)" class="st0 st1">zaxis</text>
			<text transform="matrix(1 0 0 1 608.2573 827.6117)" class="st0 st1">yaxis</text>
			<text transform="matrix(1 0 0 1 480.272 754.9888)" class="st0 st1">point</text>
		</g>
		<g id="arrows_1_">
			<line class="st2" x1="467.3" y1="753.4" x2="344.5" y2="824.2"/>
			<polygon class="st3" points="343.3,819.3 338.5,827.6 348.1,827.6 			"/>
			<line class="st4" x1="467.3" y1="753.4" x2="467.3" y2="596.4"/>
			<polygon class="st5" points="472.1,597.8 467.3,589.5 462.5,597.8 			"/>
			<line class="st6" x1="467.3" y1="753.4" x2="590.6" y2="824.2"/>
			<polygon class="st7" points="587,827.6 596.5,827.6 591.8,819.3 			"/>
			<path d="M470.9,754c0-1.9-1.6-3.5-3.5-3.5s-3.5,1.6-3.5,3.5c0,1.9,1.6,3.5,3.5,3.5C469.3,757.4,470.9,755.9,470.9,754"/>
		</g>
	</g>
	<g id="Layer_1_1_">
		<g>
			<g id="Layer_4">
				<line class="st8" x1="428.6" y1="686.2" x2="505.8" y2="641.6"/>
				<line class="st8" x1="428.6" y1="819.8" x2="505.8" y2="775.3"/>
				<line class="st8" x1="467.3" y1="619.3" x2="505.8" y2="641.6"/>
				<line class="st8" x1="390.1" y1="663.9" x2="467.3" y2="619.3"/>
				<line class="st8" x1="390.1" y1="663.9" x2="390.1" y2="797.5"/>
				<line class="st8" x1="390.1" y1="663.9" x2="428.6" y2="686.2"/>
				<line class="st8" x1="467.3" y1="753" x2="428.6" y2="686.2"/>
				<line class="st8" x1="505.8" y1="641.6" x2="505.8" y2="775.3"/>
			</g>
			<text transform="matrix(1 0 0 1 397.9305 786.7882)" class="st3 st0 st9">x</text>
			<text transform="matrix(1 0 0 1 407.5703 821.6935)" class="st7 st0 st9">y</text>
			<text transform="matrix(1 0 0 1 430.3221 714.3517)" class="st5 st0 st9">z</text>
			<text transform="matrix(1 0 0 1 409.351 670.5729)" class="st0 st1">P(x, y, z)</text>
			<polygon class="st5" points="434.1,695.6 428.6,686.2 423.2,695.6 			"/>
			<polygon class="st3" points="395.5,788.2 390.1,797.5 400.9,797.5 			"/>
			<line class="st10" x1="428.6" y1="819.8" x2="428.6" y2="694"/>
			<line class="st11" x1="390.1" y1="797.5" x2="421.9" y2="815.9"/>
			<polygon class="st7" points="417.8,819.8 428.6,819.8 423.2,810.4 			"/>
			<path d="M431.3,686.9c0-1.5-1.2-2.5-2.5-2.5c-1.5,0-2.5,1.2-2.5,2.5c0,1.5,1.2,2.5,2.5,2.5C430.1,689.5,431.3,688.3,431.3,686.9"
				/>
		</g>
	</g>
</g>
</svg>
