<?xml version="1.0" encoding="utf-8"?>
<!-- Generator: Adobe Illustrator 19.1.0, SVG Export Plug-In . SVG Version: 6.00 Build 0)  -->
<svg version="1.1" xmlns="http://www.w3.org/2000/svg" xmlns:xlink="http://www.w3.org/1999/xlink" x="0px" y="0px"
	 viewBox="0 0 665 148.6" style="enable-background:new 0 0 665 148.6;" xml:space="preserve">
<style type="text/css">
	@import url('https://fonts.googleapis.com/css?family=Roboto');
	.st0{fill:none;stroke:#1E1E1C;stroke-width:0.5;stroke-miterlimit:10;stroke-dasharray:3,3;}
	.st1{fill:#1E1E1C;}
	.st2{fill:none;stroke:#1E1E1C;stroke-width:0.5;stroke-miterlimit:10;stroke-dasharray:3;}
	.st3{fill:#E9E8E8;stroke:#1E1E1C;stroke-width:0.75;stroke-miterlimit:10;}
	.st4{fill:none;stroke:#000000;stroke-miterlimit:10;}
	.st5{fill:none;}
	.st6{fill:none;stroke:#1F71B8;stroke-miterlimit:10;}
	.st7{fill:#1F71B8;}
	.st8{fill:none;stroke:#1E1E1C;stroke-miterlimit:10;}
	.st9{font-family:'Roboto';}
	.st10{font-size:16px;}
</style>
<g id="Layer_1">
</g>
<g id="Layer_3">
	<g>
		<g>
			<g>
				<polyline class="st0" points="113.8,28.8 113.8,87.7 113.8,89.1 172.7,89.1 				"/>
				<g>
					<polygon class="st1" points="110.7,31.3 111.3,31.8 113.8,29.1 116.3,31.8 116.9,31.3 113.8,28 					"/>
				</g>
				<g>
					<polygon class="st1" points="170.2,92.1 169.7,91.6 172.4,89.1 169.7,86.5 170.2,86 173.5,89.1 					"/>
				</g>
			</g>
		</g>
	</g>
</g>
<g id="Layer_2">
	<rect x="96.8" y="72.1" class="st2" width="34" height="34"/>
	<rect x="96.8" y="72.1" transform="matrix(-0.866 0.5 -0.5 -0.866 256.8852 109.2917)" class="st3" width="34" height="34"/>
	<g>
		<g>
			<polyline class="st4" points="148.7,117.1 16.1,117.1 16.1,12.3 			"/>
			<g>
				<polygon points="146.7,114.2 157.6,117.1 146.7,120 				"/>
			</g>
			<g>
				<polygon points="19,14.2 16.1,3.4 13.2,14.2 				"/>
			</g>
		</g>
	</g>
	<rect x="318.5" y="72.1" transform="matrix(-0.866 0.5 -0.5 -0.866 670.5209 -1.5417)" class="st2" width="34" height="34"/>
	<g>
		<path class="st5" d="M85.9,42.1"/>
	</g>
	<g>
		<path class="st5" d="M16.1,117.1"/>
	</g>
	<g>
		<g>
			<path class="st6" d="M155.6,71.2c1.1,1,2,2.3,2.9,3.6c2.8,4.1,4.5,9,4.6,14.3"/>
			<g>
				<polygon class="st7" points="154.1,74.3 152,68.3 158.3,69.6 				"/>
			</g>
		</g>
	</g>
	<g>
		<g>
			<polyline class="st4" points="370.4,117.1 237.8,117.1 237.8,12.3 			"/>
			<g>
				<polygon points="368.4,114.2 379.2,117.1 368.4,120 				"/>
			</g>
			<g>
				<polygon points="240.7,14.2 237.8,3.4 234.9,14.2 				"/>
			</g>
		</g>
	</g>
	<rect x="601" y="50.7" transform="matrix(-0.866 0.5 -0.5 -0.866 1167.0015 -194.2851)" class="st3" width="17" height="17"/>
	<g>
		<g>
			<polyline class="st4" points="592,117.1 459.5,117.1 459.5,12.3 			"/>
			<g>
				<polygon points="590.1,114.2 600.9,117.1 590.1,120 				"/>
			</g>
			<g>
				<polygon points="462.4,14.2 459.5,3.4 456.6,14.2 				"/>
			</g>
		</g>
	</g>
	<g>
		<g>
			<g>
				<polyline class="st8" points="84.2,37.7 113.6,88.7 114.3,89.9 165.2,60.5 				"/>
				<g>
					<polygon class="st1" points="82.6,41.7 83.4,41.8 84.3,38 88.1,39.2 88.3,38.4 83.7,37 					"/>
				</g>
				<g>
					<polygon class="st1" points="164.6,64.6 163.8,64.4 165,60.6 161.1,59.7 161.3,59 166,60 					"/>
				</g>
			</g>
		</g>
	</g>
	<g>
		<g>
			<g>
				<polyline class="st0" points="306.2,37.7 335.6,88.7 336.3,89.9 387.3,60.4 				"/>
				<g>
					<polygon class="st1" points="304.7,41.4 305.5,41.5 306.3,37.9 309.8,39 310.1,38.3 305.8,37 					"/>
				</g>
				<g>
					<polygon class="st1" points="386.7,64.3 386,64.1 387.1,60.6 383.5,59.8 383.6,59 388,60 					"/>
				</g>
			</g>
		</g>
	</g>
	<rect x="370.2" y="42.2" transform="matrix(-0.866 0.5 -0.5 -0.866 752.0887 -83.1095)" class="st3" width="34" height="34"/>
	<g>
		<g>
			<g>
				<polyline class="st8" points="357.9,7.9 387.3,58.8 388,60 439,30.6 				"/>
				<g>
					<polygon class="st1" points="356.4,11.8 357.2,12 358.1,8.1 361.8,9.3 362.1,8.5 357.5,7.1 					"/>
				</g>
				<g>
					<polygon class="st1" points="438.3,34.8 437.6,34.5 438.7,30.8 434.9,29.9 435,29.1 439.7,30.2 					"/>
				</g>
			</g>
		</g>
	</g>
	<rect x="591.8" y="42.2" transform="matrix(-0.866 0.5 -0.5 -0.866 1165.7244 -193.9429)" class="st2" width="34" height="34"/>
	<g>
		<g>
			<g>
				<polyline class="st8" points="579.6,7.9 609,58.8 609.7,60 660.6,30.6 				"/>
				<g>
					<polygon class="st1" points="578.1,11.8 578.8,12 579.7,8.1 583.5,9.3 583.7,8.5 579.1,7.1 					"/>
				</g>
				<g>
					<polygon class="st1" points="660,34.8 659.2,34.5 660.4,30.8 656.5,29.9 656.7,29.1 661.4,30.2 					"/>
				</g>
			</g>
		</g>
	</g>
	<g>
		<g>
			<line class="st6" x1="336.3" y1="89.9" x2="383.7" y2="62.6"/>
			<g>
				<polygon class="st7" points="384.5,66.1 388,60 381,60 				"/>
			</g>
		</g>
	</g>
	<text transform="matrix(1 0 0 1 16.1288 137.8123)" class="st9 st10">Rotation</text>
	<text transform="matrix(1 0 0 1 237.7959 137.8125)" class="st9 st10">Translation</text>
	<text transform="matrix(1 0 0 1 459.4626 137.8124)" class="st9 st10">Scale</text>
</g>
<g id="Layer_4">
	<rect x="221.7" y="0" class="st5" width="221.7" height="148.4"/>
	<rect y="0.2" class="st5" width="221.7" height="148.4"/>
	<rect x="443.3" y="0" class="st5" width="221.7" height="148.4"/>
</g>
</svg>
