<?xml version="1.0" encoding="utf-8"?>
<!-- Generator: Adobe Illustrator 19.1.0, SVG Export Plug-In . SVG Version: 6.00 Build 0)  -->
<svg version="1.1" id="Layer_1" xmlns="http://www.w3.org/2000/svg" xmlns:xlink="http://www.w3.org/1999/xlink" x="0px" y="0px"
	 viewBox="0 0 665 148.4" style="enable-background:new 0 0 665 148.4;" xml:space="preserve">
<style type="text/css">
	@import url('https://fonts.googleapis.com/css?family=Roboto');
	.st0{fill:none;stroke:#1E1E1C;stroke-width:0.5;stroke-miterlimit:10;stroke-dasharray:3;}
	.st1{fill:#E9E8E8;stroke:#1E1E1C;stroke-width:0.75;stroke-miterlimit:10;}
	.st2{fill:none;stroke:#000000;stroke-miterlimit:10;}
	.st3{fill:none;stroke:#1F71B8;stroke-miterlimit:10;}
	.st4{fill:#1F71B8;}
	.st5{font-family:'Roboto';}
	.st6{font-size:16px;}
	.st7{fill:none;}
</style>
<rect x="96.8" y="72.3" class="st0" width="34" height="34"/>
<rect x="68.9" y="25.3" transform="matrix(-0.866 0.5 -0.5 -0.866 181.3968 35.8949)" class="st1" width="34" height="34"/>
<g>
	<g>
		<polyline class="st2" points="148.7,117.3 16.1,117.3 16.1,12.4 		"/>
		<g>
			<polygon points="146.7,114.4 157.6,117.3 146.7,120.2 			"/>
		</g>
		<g>
			<polygon points="19,14.4 16.1,3.6 13.2,14.4 			"/>
		</g>
	</g>
</g>
<g>
	<g>
		<line class="st3" x1="16.1" y1="117.3" x2="109" y2="90.6"/>
		<g>
			<polygon class="st4" points="109,94.3 113.8,89.3 107,87.6 			"/>
		</g>
	</g>
</g>
<g>
	<g>
		<line class="st3" x1="16.1" y1="117.3" x2="82.5" y2="45.9"/>
		<g>
			<polygon class="st4" points="84.3,49.1 85.9,42.3 79.2,44.3 			"/>
		</g>
	</g>
</g>
<g>
	<g>
		<path class="st3" d="M49.5,87.5c1.2,0.9,2.3,2,3.3,3.2c3.3,3.7,5.6,8.4,6.3,13.7"/>
		<g>
			<polygon class="st4" points="48.4,90.7 45.7,85 52,85.6 			"/>
		</g>
	</g>
</g>
<rect x="290.6" y="25.3" transform="matrix(-0.866 0.5 -0.5 -0.866 595.0325 -74.9385)" class="st0" width="34" height="34"/>
<rect x="350.1" y="25.3" transform="matrix(-0.866 0.5 -0.5 -0.866 706.061 -104.6885)" class="st1" width="34" height="34"/>
<g>
	<g>
		<polyline class="st2" points="370.4,117.3 237.8,117.3 237.8,12.4 		"/>
		<g>
			<polygon points="368.4,114.4 379.2,117.3 368.4,120.2 			"/>
		</g>
		<g>
			<polygon points="240.7,14.4 237.8,3.6 234.9,14.4 			"/>
		</g>
	</g>
</g>
<g>
	<g>
		<line class="st3" x1="308.5" y1="42.3" x2="362" y2="42.3"/>
		<g>
			<polygon class="st4" points="361,45.7 367.1,42.3 361,38.8 			"/>
		</g>
	</g>
</g>
<rect x="515.6" y="71.3" transform="matrix(-0.866 0.5 -0.5 -0.866 1017.8465 -113.2251)" class="st1" width="17" height="17"/>
<g>
	<g>
		<polyline class="st2" points="592,117.3 459.5,117.3 459.5,12.4 		"/>
		<g>
			<polygon points="590.1,114.4 600.9,117.3 590.1,120.2 			"/>
		</g>
		<g>
			<polygon points="462.4,14.4 459.5,3.6 456.6,14.4 			"/>
		</g>
	</g>
</g>
<g>
	<g>
		<line class="st3" x1="527.8" y1="77.6" x2="589.3" y2="42.3"/>
		<g>
			<polygon class="st4" points="530.1,79.8 524.1,79.8 527.1,74.6 			"/>
		</g>
	</g>
</g>
<rect x="572.3" y="25.3" transform="matrix(-0.866 0.5 -0.5 -0.866 1120.7585 -215.8063)" class="st0" width="34" height="34"/>
<text transform="matrix(1 0 0 1 16.1288 139.5003)" class="st5 st6">Rotation</text>
<text transform="matrix(1 0 0 1 237.7959 139.5006)" class="st5 st6">Translation</text>
<text transform="matrix(1 0 0 1 459.4626 139.5005)" class="st5 st6">Scale</text>
<rect x="221.7" class="st7" width="221.7" height="148.4"/>
<rect y="0.2" class="st7" width="221.7" height="148.4"/>
<rect x="443.3" class="st7" width="221.7" height="148.4"/>
</svg>
