<?xml version="1.0" encoding="utf-8"?>
<!-- Generator: Adobe Illustrator 19.1.0, SVG Export Plug-In . SVG Version: 6.00 Build 0)  -->
<svg version="1.1" xmlns="http://www.w3.org/2000/svg" xmlns:xlink="http://www.w3.org/1999/xlink" x="0px" y="0px"
	 viewBox="0 0 419 85.3" style="enable-background:new 0 0 419 85.3;" xml:space="preserve">
<style type="text/css">
	.st0{fill:#E8E8E8;stroke:#1D1D1B;stroke-width:0.75;stroke-miterlimit:10;}
	.st1{fill:none;stroke:#1D1D1B;stroke-width:0.5;stroke-miterlimit:10;stroke-dasharray:3;}
	.st2{fill:none;stroke:#1D70B7;stroke-width:0.5;stroke-miterlimit:10;}
	.st3{fill:#1D70B7;}
	.st4{fill:none;stroke:#1D1D1B;stroke-width:0.75;stroke-miterlimit:10;}
	.st5{fill:none;stroke:#1D1D1B;stroke-width:0.5;stroke-miterlimit:10;}
	.st6{fill:none;stroke:#1D1D1B;stroke-width:0.5;stroke-miterlimit:10;stroke-dasharray:2.8182,2.8182;}
	.st7{fill:none;stroke:#1D70B7;stroke-width:0.75;stroke-miterlimit:10;stroke-dasharray:3;}
</style>
<g id="Layer_1">
</g>
<g id="Layer_2">
	<rect x="350.8" y="33.5" class="st0" width="34" height="34"/>
	<polygon class="st1" points="384.8,67.5 350.8,67.5 370.8,33.5 404.8,33.5 	"/>
</g>
<g id="Layer_3">
	<rect x="167.6" y="33.5" class="st0" width="34" height="34"/>
	<rect x="167.6" y="18.3" class="st1" width="49.3" height="49.3"/>
	<g>
		<g>
			<line class="st2" x1="167.6" y1="67.5" x2="213.8" y2="21.3"/>
			<g>
				<polygon class="st3" points="215.3,24 216.9,18.3 211.1,19.8 				"/>
			</g>
		</g>
	</g>
	<g>
		<g>
			<line class="st2" x1="167.6" y1="67.5" x2="198.6" y2="36.5"/>
			<g>
				<polygon class="st3" points="200.1,39.3 201.6,33.5 195.9,35 				"/>
			</g>
		</g>
	</g>
	<rect x="86.2" y="33.5" class="st0" width="34" height="34"/>
	<path class="st4" d="M145.7,77.3"/>
	<rect x="107.2" y="12.6" class="st1" width="34" height="34"/>
	<g>
		<g>
			<line class="st2" x1="86.2" y1="67.5" x2="104.1" y2="49.6"/>
			<g>
				<polygon class="st3" points="105.6,52.4 107.2,46.6 101.4,48.1 				"/>
			</g>
		</g>
	</g>
	<rect x="14.8" y="33.5" class="st0" width="34" height="34"/>
	<path class="st4" d="M74.3,77.3"/>
	<g>
		<g>
			<polyline class="st5" points="61,24.8 62.2,25.7 61.3,26.9 			"/>
			<line class="st6" x1="59.7" y1="29.2" x2="44.1" y2="50.9"/>
			<polyline class="st5" points="43.3,52.1 42.4,53.3 41.2,52.4 			"/>
			<line class="st6" x1="38.9" y1="50.8" x2="17.1" y2="35.2"/>
			<polyline class="st5" points="16,34.4 14.8,33.5 15.6,32.3 			"/>
			<line class="st6" x1="17.3" y1="30" x2="32.9" y2="8.2"/>
			<polyline class="st5" points="33.7,7.1 34.6,5.9 35.8,6.7 			"/>
			<line class="st6" x1="38.1" y1="8.4" x2="59.8" y2="24"/>
		</g>
	</g>
	<g>
		<g>
			<path class="st2" d="M31.8,51c-1,1-2.2,1.9-3.4,2.7c-3.9,2.6-8.6,4.2-13.6,4.2"/>
			<g>
				<polygon class="st3" points="28.9,49.6 34.6,47.7 33.3,53.6 				"/>
			</g>
		</g>
	</g>
	<circle class="st3" cx="14.8" cy="33.5" r="2.3"/>
	<rect x="241.8" y="33.5" class="st0" width="34" height="34"/>
	<rect x="291.8" y="33.5" class="st1" width="34" height="34"/>
	<line class="st7" x1="283.8" y1="20.8" x2="283.8" y2="77.3"/>
</g>
</svg>
